<?xml version="1.0" encoding="utf-8"?>
<!-- Generator: Adobe Illustrator 16.0.0, SVG Export Plug-In . SVG Version: 6.00 Build 0)  -->
<!DOCTYPE svg PUBLIC "-//W3C//DTD SVG 1.1//EN" "http://www.w3.org/Graphics/SVG/1.1/DTD/svg11.dtd">
<svg version="1.1" id="Layer_1" xmlns="http://www.w3.org/2000/svg" xmlns:xlink="http://www.w3.org/1999/xlink" x="0px" y="0px"
	 width="50px" height="50px" viewBox="0 0 50 50" enable-background="new 0 0 50 50" xml:space="preserve" fill="#830001">
<rect fill="transparent" width="50" height="50"/>
<g>
	<g>
		<g>
			<g>
				<g>
					<g>
						<g>
							<path fill="#FFFFFF" d="M29.45,28.281c1.144,1.732,1.67,3.146,2.594,4.309c0.924,1.161,3.866,4.863,3.866,4.863
								s0.479,0.566,1.311-0.094c0.832-0.662,0.389-1.256,0.389-1.256s-2.94-3.703-3.865-4.865c-0.924-1.16-2.184-1.992-3.613-3.497
								c-1.264-1.331-2.482-2.877-2.771-3.247c0.021-0.032,0.021-0.077-0.004-0.109l-4.537-5.703l0.059-0.046
								c0.121-0.096,0.141-0.271,0.045-0.393l-0.045-0.057c-0.096-0.12-0.271-0.14-0.393-0.044l-0.673,0.535
								c-0.121,0.096-0.14,0.271-0.044,0.392l0.044,0.057c0.097,0.121,0.271,0.141,0.393,0.045l0.058-0.047l4.534,5.703
								c0.029,0.039,0.082,0.047,0.122,0.021C27.217,25.222,28.441,26.754,29.45,28.281z"/>
							<path fill="#FFFFFF" d="M26.916,24.849c0.301,0.373,1.525,1.905,2.534,3.433c1.144,1.733,1.67,3.146,2.594,4.309
								c0.924,1.161,3.866,4.863,3.866,4.863s0.479,0.565,1.311-0.095c0.832-0.661,0.389-1.256,0.389-1.256s-2.94-3.701-3.865-4.864
								c-0.924-1.16-2.184-1.992-3.613-3.497c-1.264-1.331-2.482-2.877-2.771-3.247L26.9,24.858
								C26.904,24.855,26.911,24.853,26.916,24.849z"/>
						</g>
						<g>
							<circle fill="#FFFFFF" cx="39.479" cy="27.146" r="2.994"/>
							<g>
								<path fill="#00499a" d="M37.514,29.124c0.024,0.021,0.036,0.047,0.025,0.06c-0.001,0.002-0.003,0.002-0.005,0.004
									c0.028,0.047,0.112,0.18,0.215,0.209c0,0,0.015,0.004,0.021,0.021c0.008,0.016,0.207,0.159,0.282,0.191
									c0.013-0.002,0.03,0,0.048,0.008c0.034,0.014,0.059,0.035,0.051,0.05c-0.006,0.017-0.037,0.019-0.068,0.004
									c-0.023-0.009-0.043-0.022-0.049-0.037c-0.049-0.005-0.18-0.032-0.312-0.198c0,0-0.041,0.021-0.082-0.022
									c-0.043-0.044-0.104-0.119-0.119-0.226c-0.013-0.002-0.027-0.012-0.043-0.021c-0.021-0.021-0.035-0.048-0.024-0.061
									C37.462,29.094,37.488,29.104,37.514,29.124z"/>
								<path fill="#00499a" d="M37.611,29.014c0.027,0.021,0.043,0.043,0.033,0.055l0,0c0.03,0.048,0.145,0.199,0.205,0.229
									c0.069,0.034,0.084,0.042,0.111,0.062c0.023,0.02,0.137,0.101,0.191,0.127c0.014-0.01,0.037-0.008,0.063,0.004
									c0.034,0.012,0.056,0.031,0.05,0.048s-0.037,0.019-0.067,0.006c-0.025-0.011-0.046-0.024-0.05-0.039
									c-0.055-0.01-0.2-0.047-0.308-0.151c0,0-0.051-0.004-0.079-0.029c-0.029-0.023-0.133-0.115-0.142-0.245
									c-0.013-0.001-0.026-0.009-0.041-0.017c-0.026-0.021-0.043-0.043-0.034-0.057C37.557,28.992,37.586,28.995,37.611,29.014z"
									/>
								<path fill="#00499a" d="M37.717,28.861c0.021,0.013,0.034,0.033,0.034,0.048c0.024,0.034,0.138,0.19,0.233,0.227
									c0,0,0.228,0.134,0.314,0.171c0.014,0,0.03,0.002,0.051,0.01c0.029,0.013,0.053,0.033,0.047,0.05
									c-0.004,0.015-0.035,0.017-0.068,0.005c-0.016-0.005-0.027-0.016-0.036-0.021c-0.049-0.002-0.185-0.025-0.317-0.137
									c0,0-0.045,0.012-0.098-0.027c-0.049-0.037-0.128-0.145-0.139-0.252c-0.014,0.006-0.036,0.004-0.059-0.011
									c-0.025-0.019-0.041-0.043-0.029-0.059C37.66,28.846,37.689,28.846,37.717,28.861z"/>
								<path fill="#00499a" d="M37.828,28.677c0.027,0.017,0.042,0.042,0.033,0.06c0.035,0.05,0.139,0.184,0.203,0.209
									c0.08,0.033,0.062,0.007,0.115,0.029c0.049,0.023,0.182,0.088,0.254,0.104c0.012-0.002,0.029,0,0.049,0.007
									c0.033,0.014,0.057,0.035,0.05,0.05c-0.005,0.017-0.036,0.017-0.069,0.005c-0.021-0.008-0.037-0.02-0.045-0.031
									c-0.023,0.009-0.059,0.014-0.1,0.004c-0.068-0.018-0.188-0.067-0.219-0.09c-0.031-0.019-0.033,0.014-0.086-0.012
									c-0.051-0.021-0.182-0.141-0.18-0.263c-0.012,0.001-0.027-0.002-0.043-0.011c-0.027-0.016-0.042-0.043-0.033-0.059
									C37.77,28.661,37.799,28.661,37.828,28.677z"/>
								<path fill="#00499a" d="M37.915,28.473c0.024,0.012,0.04,0.033,0.039,0.051c0.026,0.033,0.114,0.148,0.185,0.177
									c0.08,0.028,0.09,0.012,0.18,0.052c0.08,0.039,0.209,0.066,0.256,0.076c0.01-0.002,0.021-0.002,0.031,0.001
									c0.033,0.007,0.058,0.026,0.053,0.047c-0.006,0.021-0.034,0.028-0.065,0.022c-0.019-0.004-0.032-0.014-0.042-0.022
									c-0.033,0.009-0.092,0.021-0.137,0.002c-0.066-0.022-0.172-0.067-0.21-0.069c-0.037-0.002-0.093-0.002-0.118-0.022
									c-0.025-0.019-0.131-0.136-0.146-0.24c-0.015,0.006-0.035,0.004-0.057-0.006c-0.029-0.015-0.046-0.041-0.035-0.06
									C37.854,28.46,37.887,28.457,37.915,28.473z"/>
								<path fill="#00499a" d="M37.999,28.246c0.026,0.013,0.043,0.035,0.039,0.054c0.026,0.026,0.128,0.125,0.183,0.15
									c0.062,0.03,0.041-0.005,0.104,0.002c0.057,0.007,0.27,0.059,0.334,0.063c0.012-0.011,0.029-0.014,0.052-0.012
									c0.032,0.005,0.058,0.021,0.056,0.043c-0.006,0.021-0.033,0.034-0.063,0.028c-0.028-0.003-0.05-0.019-0.054-0.035
									c-0.023,0.015-0.07,0.037-0.114,0.042c-0.062,0.011-0.146,0.014-0.21-0.033c-0.014-0.01-0.051-0.002-0.062,0.023
									c-0.016,0.021-0.068-0.016-0.087-0.033c-0.019-0.021-0.129-0.119-0.147-0.225c-0.016,0.006-0.034,0.004-0.057-0.006
									c-0.029-0.017-0.046-0.041-0.037-0.061C37.938,28.234,37.971,28.232,37.999,28.246z"/>
								<path fill="#00499a" d="M38.046,27.984c0.026,0.008,0.045,0.024,0.047,0.043c0.035,0.029,0.156,0.121,0.204,0.14
									c0.059,0.021,0.084,0.01,0.153-0.005c0.06-0.014,0.253-0.012,0.303-0.012c0.011,0,0.021-0.002,0.031-0.002
									c0.034,0.002,0.062,0.024,0.059,0.052c-0.002,0.024-0.032,0.044-0.067,0.04c-0.014-0.001-0.025-0.006-0.037-0.014
									c-0.016,0.013-0.043,0.025-0.072,0.03c-0.053,0.013-0.173,0.034-0.27-0.008c-0.014-0.005-0.037,0.008-0.049,0.035
									c-0.012,0.024-0.027,0.04-0.059,0.015c-0.029-0.025-0.164-0.113-0.202-0.256c-0.011,0.014-0.037,0.018-0.063,0.008
									c-0.028-0.01-0.051-0.031-0.045-0.052C37.986,27.98,38.016,27.975,38.046,27.984z"/>
								<path fill="#00499a" d="M38.075,27.709c0.024,0.009,0.042,0.025,0.045,0.04c0.042,0.022,0.159,0.089,0.205,0.099
									c0.055,0.01,0.045,0.018,0.116-0.016c0.062-0.027,0.259-0.041,0.326-0.037c0.012-0.011,0.027-0.02,0.047-0.02
									c0.035-0.002,0.062,0.02,0.063,0.045c0.001,0.022-0.024,0.047-0.062,0.048c-0.021,0-0.037-0.005-0.049-0.015
									c-0.021,0.015-0.054,0.035-0.078,0.043c-0.041,0.014-0.205,0.021-0.24,0.018c-0.036-0.007-0.051,0.023-0.051,0.031
									c0,0.007-0.01,0.068-0.041,0.054c-0.032-0.015-0.129-0.058-0.17-0.104c-0.035-0.037-0.064-0.088-0.08-0.119
									c-0.012,0.011-0.033,0.013-0.058,0.004c-0.028-0.012-0.052-0.033-0.046-0.053C38.014,27.707,38.044,27.699,38.075,27.709z"
									/>
								<path fill="#00499a" d="M38.682,27.412c0.034-0.005,0.078-0.008,0.105-0.012c0.009-0.015,0.025-0.023,0.047-0.026
									c0.034-0.007,0.064,0.01,0.068,0.035c0.004,0.024-0.021,0.05-0.055,0.056c-0.015,0.001-0.024,0.001-0.035-0.002
									c-0.031,0.02-0.104,0.064-0.148,0.073c-0.062,0.012-0.145,0.024-0.182,0.021c-0.039-0.007-0.051,0.074-0.066,0.082
									c-0.016,0.01-0.062,0-0.105-0.031c-0.043-0.028-0.127-0.056-0.177-0.154c-0.01,0.02-0.036,0.029-0.063,0.025
									c-0.033-0.006-0.059-0.027-0.057-0.055c0.004-0.023,0.034-0.042,0.067-0.038c0.028,0.005,0.05,0.021,0.056,0.042
									c0.04,0.018,0.188,0.082,0.234,0.084c0.057,0.002,0.041,0.004,0.08-0.029C38.49,27.447,38.634,27.418,38.682,27.412z"/>
								<path fill="#00499a" d="M38.871,26.991c0.009,0.022-0.012,0.053-0.044,0.063c-0.028,0.01-0.058,0.004-0.069-0.015
									c-0.021,0.021-0.074,0.069-0.111,0.089c-0.047,0.021-0.09,0.072-0.137,0.064c-0.044-0.006-0.076,0.021-0.084,0.041
									c-0.006,0.021,0,0.072-0.029,0.061c-0.027-0.012-0.231-0.062-0.276-0.138c-0.013,0.017-0.035,0.026-0.062,0.022
									c-0.033-0.004-0.062-0.027-0.058-0.053c0.002-0.025,0.032-0.044,0.065-0.04c0.019,0.003,0.031,0.009,0.041,0.019
									c0.014-0.006,0.035-0.008,0.076-0.002c0.068,0.014,0.164,0.062,0.192,0.058s0.038-0.037,0.091-0.063
									c0.053-0.025,0.174-0.102,0.291-0.102c0.008-0.014,0.021-0.021,0.039-0.03C38.83,26.956,38.863,26.967,38.871,26.991z"/>
								<path fill="#00499a" d="M38.814,26.598c0.013,0.021-0.002,0.055-0.031,0.072c-0.02,0.01-0.042,0.014-0.057,0.007
									c-0.021,0.021-0.123,0.119-0.219,0.14c-0.104,0.024-0.129,0.086-0.129,0.086L38.391,27c0,0-0.013,0.005-0.045-0.018
									c-0.031-0.022-0.216-0.06-0.253-0.086c-0.012,0.01-0.03,0.015-0.051,0.012c-0.035-0.004-0.06-0.027-0.06-0.053
									c0.004-0.024,0.035-0.043,0.066-0.039c0.023,0.002,0.042,0.015,0.053,0.029c0.01-0.005,0.02-0.007,0.027-0.009
									c0.041-0.001,0.197,0.021,0.227,0.015c0.026-0.009,0.028-0.035,0.074-0.088c0.041-0.058,0.166-0.14,0.278-0.149
									c0.006-0.009,0.019-0.019,0.026-0.025C38.768,26.572,38.803,26.576,38.814,26.598z"/>
								<path fill="#00499a" d="M38.736,26.244c0.013,0.023-0.002,0.055-0.032,0.072c-0.021,0.012-0.045,0.013-0.062,0.004
									c-0.021,0.027-0.092,0.111-0.16,0.15c-0.084,0.045-0.133,0.09-0.133,0.104c0,0.013,0.019,0.104,0.019,0.104
									s-0.011,0.002-0.025-0.011c-0.014-0.013-0.104-0.04-0.159-0.035c-0.054,0.003-0.113,0.002-0.158-0.019
									c-0.01,0.012-0.022,0.021-0.041,0.022c-0.032,0.009-0.064-0.008-0.07-0.032c-0.006-0.022,0.02-0.049,0.052-0.058
									c0.013-0.003,0.022-0.003,0.034,0c0.016-0.012,0.037-0.026,0.068-0.028c0.057-0.007,0.162,0.019,0.201,0.004
									c0.039-0.013,0.041-0.058,0.074-0.086c0.034-0.031,0.18-0.136,0.28-0.16c0.004-0.018,0.017-0.031,0.035-0.043
									C38.688,26.219,38.725,26.223,38.736,26.244z"/>
								<path fill="#00499a" d="M38.643,25.898c0.016,0.021,0,0.054-0.026,0.072c-0.013,0.006-0.022,0.012-0.032,0.012
									c-0.016,0.015-0.079,0.088-0.122,0.107c-0.05,0.021-0.208,0.117-0.214,0.133c-0.006,0.018,0.023,0.104,0.023,0.104
									s0.002,0.021-0.021,0.012c-0.022-0.007-0.088-0.02-0.14-0.01c-0.047,0.006-0.113,0.012-0.159-0.002
									c-0.011,0.01-0.021,0.02-0.035,0.021c-0.033,0.01-0.065,0-0.073-0.025c-0.009-0.023,0.014-0.053,0.047-0.062
									c0.021-0.007,0.043-0.005,0.057,0.006c0.017-0.015,0.041-0.033,0.062-0.039c0.037-0.012,0.158,0.002,0.187-0.011
									c0.029-0.012,0.051-0.038,0.068-0.094c0.018-0.054,0.178-0.181,0.271-0.19c0.006-0.016,0.016-0.029,0.031-0.039
									C38.594,25.875,38.629,25.877,38.643,25.898z"/>
								<path fill="#00499a" d="M38.523,25.577c0.014,0.019,0.002,0.05-0.026,0.071c-0.011,0.006-0.021,0.012-0.03,0.016
									c-0.027,0.025-0.1,0.097-0.131,0.124c-0.039,0.032-0.17,0.114-0.17,0.131c0,0.019,0.029,0.112,0.029,0.112
									s-0.02,0.01-0.043,0.005c-0.023-0.007-0.104-0.011-0.127,0.003c-0.022,0.012-0.084,0.021-0.146,0.02
									c-0.007,0.017-0.021,0.027-0.041,0.034c-0.03,0.015-0.063,0.005-0.073-0.02c-0.011-0.023,0.01-0.054,0.041-0.065
									c0.018-0.005,0.032-0.007,0.049-0.004c0.025-0.023,0.082-0.07,0.125-0.074c0.058-0.011,0.127,0,0.15-0.045
									c0.027-0.043,0.119-0.205,0.176-0.23c0.035-0.018,0.082-0.025,0.106-0.03c0.005-0.017,0.019-0.026,0.03-0.04
									C38.475,25.561,38.51,25.559,38.523,25.577z"/>
								<path fill="#00499a" d="M38.396,25.295c0.012,0.016,0,0.045-0.026,0.065c-0.007,0.005-0.015,0.009-0.021,0.012
									c-0.035,0.037-0.16,0.169-0.195,0.194c-0.045,0.025-0.094,0.068-0.1,0.094l0.033,0.076c0,0-0.048,0.006-0.087,0.017
									c-0.036,0.007-0.194,0.073-0.267,0.08c-0.004,0.007-0.012,0.015-0.019,0.019c-0.026,0.021-0.058,0.023-0.069,0.01
									c-0.012-0.019,0-0.047,0.025-0.064c0.016-0.012,0.03-0.018,0.044-0.02c0.013-0.021,0.033-0.051,0.063-0.064
									c0.054-0.029,0.195-0.044,0.217-0.054c0.02-0.011,0.027-0.021,0.049-0.072c0.02-0.052,0.141-0.238,0.253-0.255
									c0.007-0.01,0.013-0.019,0.024-0.026C38.352,25.281,38.383,25.278,38.396,25.295z"/>
								<path fill="#00499a" d="M38.242,25.086c0.012,0.017,0.001,0.047-0.026,0.066c-0.013,0.009-0.026,0.016-0.038,0.017
									c-0.031,0.039-0.148,0.168-0.255,0.229l0.048,0.089c0,0-0.029,0.005-0.06,0.015c-0.026,0.009-0.122,0.049-0.154,0.076
									c-0.028,0.021-0.077,0.045-0.108,0.055c-0.004,0.01-0.014,0.02-0.021,0.025c-0.025,0.021-0.059,0.025-0.068,0.009
									c-0.014-0.017,0-0.046,0.024-0.065c0.017-0.012,0.033-0.019,0.047-0.019c0.011-0.024,0.027-0.062,0.06-0.084
									c0.058-0.042,0.129-0.058,0.17-0.067c0.041-0.01,0.043-0.033,0.056-0.068c0.015-0.037,0.062-0.146,0.108-0.183
									c0.035-0.029,0.092-0.044,0.125-0.051c0.004-0.012,0.015-0.023,0.025-0.035C38.198,25.074,38.23,25.07,38.242,25.086z"/>
								<g>
									<path fill="#00499a" d="M38.133,24.914c0.012,0.018-0.002,0.046-0.027,0.064c-0.01,0.005-0.017,0.008-0.022,0.012
										c-0.021,0.028-0.084,0.104-0.133,0.132c-0.062,0.035-0.127,0.103-0.136,0.109c0,0,0.016-0.087,0.054-0.145
										c0.032-0.052,0.099-0.107,0.166-0.127c0.003-0.016,0.016-0.03,0.03-0.042C38.091,24.899,38.122,24.897,38.133,24.914z"/>
									<path fill="#00499a" d="M37.744,25.346c-0.032,0.018-0.176,0.11-0.191,0.124c-0.005,0.012-0.015,0.023-0.027,0.031
										c-0.026,0.019-0.058,0.022-0.067,0.005c-0.015-0.017,0-0.045,0.024-0.063c0.02-0.014,0.037-0.019,0.054-0.015
										c0.004-0.023,0.015-0.061,0.039-0.088c0.036-0.045,0.176-0.094,0.241-0.099l0.057,0.082
										C37.871,25.323,37.777,25.327,37.744,25.346z"/>
								</g>
								<path fill="#00499a" d="M37.997,24.754c0.011,0.013-0.002,0.04-0.026,0.062c-0.005,0.004-0.009,0.005-0.014,0.009h0.002
									c0,0-0.072,0.059-0.092,0.078c-0.02,0.021-0.062,0.072-0.114,0.093c-0.05,0.02-0.058,0.049-0.056,0.068
									c0.001,0.022,0.047,0.082,0.047,0.082s-0.084,0-0.148,0.034c-0.055,0.028-0.132,0.122-0.152,0.15
									c-0.006,0.012-0.014,0.025-0.027,0.037c-0.023,0.021-0.055,0.028-0.062,0.015c-0.014-0.013,0-0.04,0.023-0.06
									c0.018-0.014,0.033-0.022,0.045-0.022c0.004-0.021,0.014-0.061,0.039-0.092c0.04-0.049,0.115-0.103,0.193-0.112
									c0,0,0.017-0.044,0.025-0.063c0.01-0.022,0.105-0.215,0.228-0.23c0.005-0.012,0.013-0.023,0.024-0.035
									C37.958,24.747,37.986,24.742,37.997,24.754z"/>
								<path fill="#00499a" d="M37.877,24.656c0.012,0.014-0.001,0.04-0.025,0.061c-0.016,0.012-0.031,0.019-0.043,0.02
									c-0.045,0.03-0.22,0.153-0.238,0.207l0.062,0.071c0,0,0.004,0.019-0.015,0.021c-0.021,0.003-0.146,0.051-0.2,0.121
									c-0.016,0.019-0.041,0.048-0.061,0.066c-0.002,0.012-0.012,0.027-0.023,0.04c-0.023,0.024-0.052,0.032-0.062,0.021
									c-0.013-0.012-0.004-0.04,0.021-0.063c0.018-0.016,0.033-0.023,0.046-0.025c0.001-0.025,0.013-0.061,0.038-0.099
									c0.059-0.075,0.15-0.094,0.17-0.109c0.021-0.017,0.012-0.03,0.021-0.085c0.015-0.054,0.121-0.175,0.216-0.189
									c0.004-0.012,0.014-0.028,0.028-0.042C37.838,24.649,37.867,24.643,37.877,24.656z"/>
								<path fill="#00499a" d="M41.456,25.152c-0.024-0.02-0.036-0.047-0.026-0.059c0.002-0.002,0.004-0.002,0.004-0.003
									c-0.026-0.047-0.11-0.18-0.213-0.21c0,0-0.015-0.005-0.021-0.021c-0.01-0.014-0.206-0.159-0.281-0.193
									c-0.016,0.002-0.029,0-0.05-0.007c-0.032-0.012-0.056-0.035-0.05-0.05c0.007-0.014,0.035-0.017,0.068-0.003
									c0.025,0.008,0.043,0.023,0.049,0.036c0.047,0.005,0.18,0.034,0.313,0.198c0,0,0.04-0.019,0.082,0.025
									c0.041,0.043,0.103,0.119,0.118,0.225c0.012,0.001,0.025,0.01,0.042,0.023c0.024,0.02,0.036,0.047,0.024,0.059
									C41.508,25.183,41.479,25.175,41.456,25.152z"/>
								<path fill="#00499a" d="M41.355,25.263c-0.026-0.018-0.041-0.041-0.033-0.055h0.001c-0.032-0.046-0.146-0.198-0.204-0.227
									c-0.071-0.033-0.084-0.042-0.113-0.063c-0.023-0.019-0.136-0.099-0.193-0.126c-0.013,0.009-0.037,0.009-0.062-0.003
									c-0.032-0.012-0.057-0.034-0.049-0.049c0.006-0.016,0.035-0.017,0.068-0.005c0.024,0.01,0.043,0.024,0.049,0.038
									c0.055,0.011,0.201,0.047,0.308,0.152c0,0,0.05,0.007,0.079,0.03c0.027,0.023,0.132,0.116,0.143,0.247
									c0.012,0,0.025,0.007,0.041,0.017c0.026,0.017,0.043,0.042,0.033,0.054C41.411,25.287,41.384,25.281,41.355,25.263z"/>
								<path fill="#00499a" d="M41.251,25.414c-0.021-0.012-0.034-0.032-0.033-0.047c-0.024-0.035-0.137-0.191-0.235-0.225
									c0,0-0.226-0.134-0.312-0.173c-0.016,0.002-0.029,0-0.048-0.009c-0.033-0.012-0.058-0.033-0.052-0.048
									c0.007-0.016,0.037-0.017,0.07-0.005c0.014,0.005,0.026,0.013,0.035,0.021c0.051,0.005,0.186,0.026,0.319,0.136
									c0,0,0.045-0.009,0.096,0.028c0.05,0.037,0.128,0.145,0.14,0.253c0.015-0.007,0.037-0.003,0.059,0.009
									c0.025,0.017,0.04,0.044,0.029,0.061C41.309,25.431,41.277,25.431,41.251,25.414z"/>
								<path fill="#00499a" d="M41.141,25.602c-0.027-0.017-0.041-0.043-0.033-0.061c-0.034-0.048-0.14-0.183-0.205-0.209
									c-0.077-0.032-0.061-0.004-0.112-0.03c-0.048-0.023-0.183-0.086-0.253-0.104c-0.016,0.003-0.031,0-0.051-0.007
									c-0.032-0.012-0.057-0.034-0.051-0.049c0.006-0.016,0.037-0.019,0.069-0.005c0.021,0.007,0.038,0.02,0.046,0.03
									c0.023-0.007,0.059-0.012,0.098-0.004c0.069,0.017,0.188,0.07,0.221,0.089c0.031,0.019,0.033-0.012,0.086,0.012
									c0.05,0.022,0.184,0.143,0.179,0.263c0.015-0.002,0.028,0.002,0.044,0.011c0.027,0.017,0.043,0.044,0.032,0.062
									C41.199,25.615,41.168,25.615,41.141,25.602z"/>
								<path fill="#00499a" d="M41.055,25.805c-0.025-0.012-0.041-0.031-0.041-0.049c-0.025-0.035-0.113-0.15-0.184-0.176
									c-0.08-0.032-0.09-0.014-0.18-0.055c-0.08-0.036-0.207-0.066-0.254-0.074c-0.013,0.001-0.022,0.001-0.035-0.002
									c-0.03-0.007-0.055-0.026-0.049-0.047c0.004-0.021,0.033-0.03,0.063-0.021c0.021,0.003,0.032,0.012,0.042,0.021
									c0.033-0.009,0.091-0.019,0.139-0.002c0.065,0.023,0.172,0.069,0.207,0.07c0.038,0.002,0.094,0.004,0.118,0.023
									c0.027,0.019,0.132,0.136,0.146,0.239c0.014-0.004,0.033-0.004,0.056,0.008c0.028,0.015,0.046,0.039,0.037,0.059
									C41.113,25.816,41.082,25.818,41.055,25.805z"/>
								<path fill="#00499a" d="M40.971,26.031c-0.027-0.014-0.043-0.035-0.039-0.055c-0.029-0.026-0.13-0.123-0.184-0.15
									c-0.062-0.03-0.042,0.005-0.104-0.001c-0.057-0.007-0.27-0.058-0.332-0.062c-0.014,0.006-0.031,0.012-0.054,0.008
									c-0.03-0.004-0.056-0.022-0.054-0.043c0.003-0.021,0.029-0.033,0.062-0.028c0.025,0.003,0.049,0.019,0.053,0.034
									c0.023-0.014,0.07-0.034,0.115-0.041c0.061-0.01,0.145-0.012,0.209,0.033c0.015,0.01,0.051,0.002,0.063-0.021
									c0.015-0.025,0.065,0.012,0.086,0.031c0.019,0.021,0.128,0.119,0.147,0.226c0.015-0.007,0.035-0.005,0.056,0.005
									c0.028,0.016,0.047,0.04,0.037,0.059C41.029,26.043,40.999,26.046,40.971,26.031z"/>
								<path fill="#00499a" d="M40.923,26.293c-0.026-0.009-0.045-0.027-0.047-0.044c-0.035-0.028-0.155-0.121-0.205-0.14
									c-0.058-0.021-0.084-0.01-0.151,0.006c-0.062,0.015-0.254,0.012-0.305,0.01c-0.009,0.003-0.02,0.005-0.031,0.003
									c-0.035-0.003-0.061-0.026-0.059-0.052c0.003-0.025,0.033-0.044,0.066-0.04c0.016,0.002,0.026,0.007,0.037,0.014
									c0.019-0.012,0.045-0.026,0.073-0.032c0.054-0.01,0.177-0.033,0.271,0.01c0.014,0.006,0.037-0.01,0.049-0.034
									c0.012-0.025,0.027-0.041,0.059-0.015c0.029,0.024,0.163,0.113,0.202,0.254c0.011-0.014,0.036-0.017,0.062-0.008
									c0.031,0.01,0.054,0.033,0.045,0.051C40.982,26.296,40.953,26.303,40.923,26.293z"/>
								<path fill="#00499a" d="M40.895,26.566c-0.023-0.008-0.043-0.024-0.047-0.039c-0.041-0.023-0.16-0.09-0.205-0.098
									c-0.056-0.012-0.043-0.019-0.115,0.016c-0.062,0.027-0.26,0.039-0.325,0.037c-0.013,0.012-0.028,0.018-0.05,0.018
									c-0.032,0.002-0.062-0.018-0.062-0.043c0-0.025,0.026-0.047,0.062-0.049c0.021,0,0.037,0.007,0.05,0.017
									c0.021-0.015,0.053-0.036,0.079-0.045c0.041-0.014,0.205-0.021,0.24-0.017c0.037,0.007,0.051-0.023,0.051-0.03
									c0-0.009,0.009-0.069,0.041-0.056c0.031,0.014,0.129,0.057,0.171,0.104c0.032,0.037,0.063,0.09,0.077,0.119
									c0.014-0.008,0.035-0.01,0.059-0.003c0.03,0.01,0.051,0.032,0.045,0.052C40.954,26.57,40.924,26.577,40.895,26.566z"/>
								<path fill="#00499a" d="M40.287,26.866c-0.034,0.003-0.079,0.007-0.105,0.01c-0.009,0.015-0.024,0.024-0.047,0.026
									c-0.033,0.007-0.064-0.01-0.068-0.035c-0.004-0.024,0.021-0.051,0.055-0.055c0.014-0.002,0.023,0,0.033,0.002
									c0.033-0.021,0.104-0.065,0.15-0.074c0.062-0.012,0.146-0.025,0.182-0.021c0.037,0.008,0.052-0.072,0.065-0.082
									c0.017-0.008,0.062,0,0.107,0.032c0.043,0.03,0.127,0.056,0.176,0.155c0.011-0.018,0.036-0.029,0.063-0.026
									c0.033,0.005,0.061,0.028,0.057,0.054c-0.003,0.025-0.034,0.043-0.068,0.039c-0.027-0.004-0.05-0.021-0.055-0.041
									c-0.04-0.019-0.188-0.084-0.234-0.084c-0.058-0.002-0.041-0.005-0.08,0.029S40.333,26.859,40.287,26.866z"/>
								<path fill="#00499a" d="M40.098,27.285c-0.008-0.023,0.012-0.053,0.045-0.062c0.027-0.01,0.057-0.002,0.067,0.014
									c0.021-0.021,0.075-0.07,0.112-0.088c0.047-0.022,0.091-0.071,0.136-0.066c0.045,0.006,0.077-0.021,0.084-0.041
									s0.002-0.072,0.03-0.061c0.027,0.013,0.232,0.062,0.277,0.139c0.012-0.018,0.034-0.026,0.062-0.021
									c0.032,0.004,0.062,0.025,0.06,0.051c-0.005,0.024-0.033,0.045-0.068,0.041c-0.016-0.002-0.03-0.008-0.041-0.02
									c-0.012,0.005-0.033,0.008-0.074,0.001c-0.069-0.01-0.165-0.062-0.193-0.055c-0.029,0.005-0.037,0.036-0.091,0.063
									c-0.052,0.024-0.174,0.1-0.292,0.1c-0.007,0.015-0.02,0.025-0.038,0.029C40.139,27.32,40.105,27.311,40.098,27.285z"/>
								<path fill="#00499a" d="M40.152,27.68c-0.012-0.021,0.002-0.055,0.031-0.07c0.021-0.012,0.041-0.014,0.06-0.008
									c0.021-0.021,0.122-0.119,0.215-0.141c0.104-0.025,0.129-0.085,0.129-0.085l-0.011-0.101c0,0,0.015-0.004,0.046,0.018
									c0.032,0.023,0.217,0.061,0.254,0.088c0.013-0.009,0.03-0.016,0.05-0.012c0.035,0.003,0.061,0.025,0.059,0.052
									c-0.002,0.024-0.031,0.042-0.065,0.038c-0.021-0.001-0.041-0.014-0.052-0.025c-0.01,0.002-0.02,0.004-0.028,0.004
									c-0.041,0.002-0.196-0.021-0.226-0.014c-0.025,0.01-0.029,0.035-0.072,0.092c-0.042,0.053-0.168,0.135-0.279,0.146
									c-0.008,0.01-0.017,0.02-0.027,0.025C40.2,27.706,40.166,27.701,40.152,27.68z"/>
								<path fill="#00499a" d="M40.23,28.033c-0.014-0.022,0.002-0.055,0.033-0.072c0.021-0.012,0.045-0.014,0.062-0.005
									c0.021-0.026,0.089-0.11,0.159-0.149c0.082-0.043,0.133-0.091,0.133-0.104c0-0.016-0.02-0.105-0.02-0.105
									s0.012,0,0.025,0.01c0.016,0.015,0.104,0.041,0.16,0.037c0.053-0.004,0.111-0.002,0.154,0.019
									c0.013-0.013,0.024-0.021,0.043-0.022c0.033-0.009,0.064,0.008,0.069,0.031c0.007,0.023-0.017,0.053-0.05,0.061
									c-0.012,0.002-0.023,0.002-0.034,0c-0.014,0.01-0.038,0.025-0.069,0.026c-0.056,0.007-0.162-0.019-0.201-0.005
									c-0.038,0.016-0.039,0.059-0.074,0.087c-0.033,0.03-0.182,0.138-0.28,0.159c-0.003,0.02-0.016,0.034-0.034,0.044
									C40.277,28.059,40.244,28.055,40.23,28.033z"/>
								<path fill="#00499a" d="M40.326,28.378c-0.014-0.021-0.001-0.054,0.027-0.071c0.012-0.007,0.021-0.011,0.03-0.013
									c0.015-0.015,0.079-0.089,0.123-0.108c0.05-0.021,0.208-0.117,0.216-0.133c0.006-0.017-0.024-0.101-0.024-0.101
									s-0.005-0.021,0.02-0.015c0.023,0.008,0.089,0.02,0.138,0.013c0.047-0.007,0.117-0.013,0.162,0
									c0.008-0.009,0.021-0.017,0.035-0.021c0.032-0.012,0.066,0,0.072,0.023c0.009,0.021-0.012,0.052-0.045,0.062
									c-0.021,0.008-0.043,0.006-0.057-0.006c-0.019,0.016-0.041,0.032-0.062,0.039c-0.037,0.014-0.156-0.002-0.186,0.012
									c-0.027,0.012-0.049,0.039-0.067,0.094c-0.019,0.054-0.179,0.182-0.272,0.191c-0.004,0.014-0.016,0.026-0.031,0.036
									C40.374,28.402,40.339,28.4,40.326,28.378z"/>
								<path fill="#00499a" d="M40.443,28.7c-0.012-0.019,0-0.052,0.027-0.072c0.01-0.007,0.021-0.012,0.029-0.014
									c0.025-0.028,0.102-0.099,0.131-0.126c0.038-0.033,0.169-0.113,0.169-0.131c0-0.02-0.026-0.111-0.026-0.111
									s0.017-0.012,0.041-0.004c0.022,0.005,0.104,0.009,0.127-0.006c0.021-0.012,0.086-0.02,0.146-0.016
									c0.007-0.018,0.021-0.031,0.04-0.037c0.033-0.016,0.066-0.004,0.075,0.021c0.01,0.022-0.009,0.052-0.042,0.065
									c-0.018,0.006-0.033,0.006-0.047,0.002c-0.028,0.022-0.084,0.069-0.125,0.078c-0.059,0.008-0.129,0-0.153,0.041
									c-0.026,0.045-0.118,0.207-0.175,0.23c-0.036,0.018-0.08,0.025-0.107,0.029c-0.004,0.018-0.015,0.031-0.031,0.043
									C40.493,28.717,40.458,28.721,40.443,28.7z"/>
								<path fill="#00499a" d="M40.573,28.98c-0.013-0.016-0.001-0.045,0.024-0.064c0.008-0.005,0.014-0.008,0.021-0.012
									c0.034-0.037,0.157-0.17,0.194-0.192c0.043-0.028,0.096-0.071,0.099-0.096l-0.033-0.077c0,0,0.049-0.005,0.087-0.014
									c0.036-0.008,0.195-0.075,0.268-0.082c0.004-0.008,0.011-0.012,0.018-0.021c0.027-0.021,0.059-0.022,0.07-0.008
									c0.013,0.019,0,0.045-0.026,0.063c-0.015,0.014-0.03,0.021-0.044,0.021c-0.012,0.021-0.033,0.05-0.062,0.065
									c-0.055,0.027-0.195,0.041-0.217,0.053c-0.021,0.011-0.027,0.021-0.049,0.072c-0.021,0.052-0.141,0.236-0.254,0.254
									c-0.006,0.011-0.014,0.021-0.023,0.027C40.616,28.995,40.586,28.998,40.573,28.98z"/>
								<path fill="#00499a" d="M40.727,29.191c-0.012-0.019,0-0.047,0.025-0.067c0.014-0.008,0.025-0.015,0.038-0.017
									c0.033-0.037,0.149-0.168,0.254-0.229l-0.046-0.088c0,0,0.029-0.006,0.059-0.015c0.027-0.01,0.123-0.051,0.156-0.074
									c0.027-0.024,0.077-0.049,0.107-0.059c0.006-0.009,0.013-0.02,0.021-0.024c0.026-0.021,0.059-0.022,0.069-0.009
									c0.013,0.016,0.001,0.045-0.025,0.064c-0.016,0.014-0.032,0.02-0.048,0.02c-0.008,0.023-0.025,0.061-0.061,0.084
									c-0.057,0.041-0.127,0.058-0.168,0.065c-0.041,0.011-0.043,0.033-0.057,0.069s-0.062,0.145-0.109,0.184
									c-0.033,0.027-0.092,0.045-0.123,0.051c-0.006,0.012-0.014,0.023-0.025,0.035C40.77,29.203,40.738,29.206,40.727,29.191z"/>
								<g>
									<path fill="#00499a" d="M40.835,29.361c-0.012-0.016,0.002-0.045,0.028-0.062c0.008-0.005,0.017-0.009,0.023-0.012
										c0.021-0.029,0.084-0.104,0.133-0.133c0.061-0.033,0.127-0.104,0.135-0.107c0,0-0.016,0.087-0.053,0.143
										c-0.033,0.054-0.101,0.107-0.166,0.129c-0.004,0.016-0.017,0.029-0.031,0.041C40.877,29.377,40.846,29.379,40.835,29.361z"
										/>
									<path fill="#00499a" d="M41.225,28.932c0.031-0.019,0.176-0.111,0.191-0.123c0.005-0.012,0.016-0.021,0.027-0.033
										c0.027-0.019,0.058-0.021,0.068-0.004c0.012,0.018,0,0.045-0.025,0.062c-0.021,0.012-0.037,0.02-0.053,0.016
										c-0.004,0.023-0.016,0.062-0.039,0.088c-0.039,0.045-0.177,0.095-0.244,0.1l-0.055-0.08
										C41.098,28.955,41.189,28.95,41.225,28.932z"/>
								</g>
								<path fill="#00499a" d="M40.973,29.523c-0.013-0.016,0-0.041,0.025-0.062c0.004-0.002,0.009-0.005,0.014-0.008H41.01
									c0,0,0.072-0.059,0.092-0.079s0.062-0.072,0.112-0.092c0.054-0.021,0.06-0.048,0.058-0.069s-0.047-0.08-0.047-0.08
									s0.084-0.002,0.147-0.035c0.056-0.029,0.133-0.123,0.155-0.147c0.002-0.015,0.012-0.027,0.027-0.039
									c0.022-0.021,0.053-0.026,0.062-0.017c0.011,0.016-0.001,0.041-0.026,0.062c-0.015,0.014-0.03,0.021-0.045,0.021
									c-0.003,0.021-0.011,0.06-0.038,0.092c-0.041,0.048-0.115,0.102-0.193,0.111c0,0-0.018,0.043-0.025,0.063
									c-0.01,0.021-0.104,0.213-0.227,0.229c-0.004,0.012-0.016,0.022-0.026,0.034C41.012,29.529,40.98,29.536,40.973,29.523z"/>
								<path fill="#00499a" d="M41.09,29.62c-0.01-0.013,0.002-0.04,0.027-0.062c0.015-0.013,0.031-0.019,0.043-0.021
									c0.044-0.03,0.22-0.152,0.238-0.206l-0.063-0.072c0,0-0.003-0.017,0.017-0.021c0.021-0.005,0.145-0.052,0.198-0.12
									c0.015-0.02,0.042-0.047,0.062-0.067c0.002-0.012,0.013-0.024,0.023-0.038c0.023-0.023,0.053-0.033,0.063-0.021
									c0.011,0.011,0.002,0.04-0.021,0.062c-0.015,0.016-0.03,0.023-0.045,0.024c-0.002,0.026-0.011,0.062-0.039,0.101
									c-0.055,0.075-0.151,0.094-0.17,0.107c-0.021,0.018-0.01,0.031-0.022,0.086c-0.014,0.057-0.121,0.174-0.215,0.188
									c-0.002,0.014-0.013,0.028-0.028,0.043C41.131,29.627,41.102,29.634,41.09,29.62z"/>
							</g>
						</g>
						<circle fill="#FFFFFF" cx="22.025" cy="9.672" r="3.556"/>
						<path fill="#FFFFFF" d="M26.736,22.653c0.766,0.89,0.636,2.134-0.291,2.764c-0.926,0.631-2.308,0.418-3.076-0.474
							l-8.439-9.806c-0.766-0.891-0.635-2.135,0.29-2.766c0.925-0.629,2.31-0.416,3.076,0.475L26.736,22.653z"/>
						<path fill="#FFFFFF" d="M18.312,30.385l-4.154-2.555l7.015-11.502l-6.561-4.051L7.347,24.19
							c-0.12,0.154-0.219,0.313-0.293,0.479l-0.051,0.085l0.012,0.007c-0.104,0.271-0.141,0.549-0.088,0.81l1.482,7.414
							l-6.121,6.158c-0.655,0.658-0.596,1.854,0.13,2.656c0.727,0.803,1.856,0.922,2.511,0.262l6.565-6.604
							c0.824-0.709,1.389-1.357,1.243-2.087l-0.396-1.981l4.743,3.219l5.563,6.933c0.574,0.714,1.65,0.729,2.393,0.038
							c0.742-0.694,0.88-1.848,0.305-2.561c0,0-6.339-7.762-6.519-8.047C18.694,30.75,18.529,30.52,18.312,30.385z"/>
						<path fill="#FFFFFF" stroke="#00499a" stroke-miterlimit="10" d="M26.611,22.321c0.808,0.905,0.839,2.352,0.068,3.215
							c-0.769,0.862-1.892,0.713-2.895,0.144l-6.307-2.349l-2.555-7.846c-0.415-1.039-0.838-2.353-0.07-3.216
							c0.771-0.862,2.059-0.828,2.867,0.078l2.383,7.654L26.611,22.321z"/>
					</g>
				</g>
			</g>
		</g>
	</g>
</g>
</svg>
