<?xml version="1.0" encoding="utf-8"?>
<!-- Generator: Adobe Illustrator 16.0.0, SVG Export Plug-In . SVG Version: 6.00 Build 0)  -->
<!DOCTYPE svg PUBLIC "-//W3C//DTD SVG 1.1//EN" "http://www.w3.org/Graphics/SVG/1.1/DTD/svg11.dtd">
<svg version="1.1" id="Layer_1" xmlns="http://www.w3.org/2000/svg" xmlns:xlink="http://www.w3.org/1999/xlink" x="0px" y="0px"
	 width="50px" height="50px" viewBox="0 0 50 50" enable-background="new 0 0 50 50" xml:space="preserve" fill="#ffffff">
<rect x="0" y="0" fill="transparent" width="50" height="50"/>
<g>
	<g>
		<g>
			<path fill="#FFFFFF" d="M30.375,23.253c0.895,0,1.621-0.724,1.621-1.618v-10.62c0-0.895-0.725-1.615-1.621-1.615
				c-0.891,0-1.617,0.721-1.617,1.615v10.62C28.758,22.529,29.484,23.253,30.375,23.253z"/>
			<path fill="#FFFFFF" d="M7.211,41.678H4.767c-0.282,0-0.51,0.23-0.51,0.514v0.65c0,0.278,0.228,0.51,0.51,0.51h2.444
				c0.283,0,0.512-0.23,0.512-0.51v-0.65C7.723,41.908,7.494,41.678,7.211,41.678z"/>
			<path fill="#FFFFFF" d="M28.167,22.167L10.714,39.62c-0.467,0.464-1.05,0.453-2.066,0.453c0,0-5.348,0-5.785,0
				c-0.433,0-0.808,0.13-0.808,0.657v1.252c0,0.51,0.224,0.77,0.805,0.77H3.6v-0.561c0-0.646,0.524-1.17,1.167-1.17h2.444
				c0.645,0,1.168,0.522,1.168,1.17v0.551c1.027-0.037,1.046-0.191,1.641-0.785l18.73-18.732
				C28.459,22.928,28.262,22.561,28.167,22.167z"/>
			<path fill="#FFFFFF" d="M25.66,18.437l2.441,2.441l-0.004-9.862c0-0.006,0.004-0.009,0.004-0.014l-5.197,5.202
				c-0.298,0.292-0.479,0.697-0.479,1.145v9.629l3.234-3.235V18.437z"/>
			<path fill="#FFFFFF" d="M31.037,23.813l0.295,0.295l5.814-5.813L32.648,13.8v7.835C32.648,22.662,31.971,23.529,31.037,23.813z"
				/>
			<path fill="#FFFFFF" d="M48.042,39.742l-7.13-7.133V22.81c0-0.049-0.004-0.096-0.008-0.141l0,0v-0.001
				c-0.008-0.108-0.025-0.208-0.053-0.311c0-0.001,0-0.006-0.002-0.008c-0.086-0.336-0.27-0.632-0.517-0.863l-2.368-2.37
				L25.961,31.123c-0.047,0.046-0.089,0.094-0.125,0.145c-0.675,0.809-0.632,2.017,0.126,2.777l8.802,8.794
				c0.805,0.808,2.113,0.808,2.922,0.003c0.807-0.807,0.807-2.119,0.002-2.925L30.672,32.9l5.653-5.652v5.879
				c0,0.564,0.258,1.064,0.663,1.4c0.056,0.062,0.115,0.127,0.179,0.184c0.002,0.006,0.007,0.01,0.01,0.012l7.943,7.942
				c0.805,0.808,2.114,0.808,2.918,0.003C48.85,41.857,48.85,40.551,48.042,39.742z"/>
			<path fill="#FFFFFF" d="M25.66,27.243l-2.868,2.866c0.299,0.361,0.748,0.592,1.251,0.592c0.895,0,1.617-0.723,1.617-1.617V27.243
				z"/>
			<path fill="#FFFFFF" d="M25.956,7.233c-1.417-1.416-3.721-1.416-5.138,0c-1.417,1.417-1.417,3.717,0,5.138
				c1.417,1.415,3.721,1.415,5.138,0C27.372,10.951,27.372,8.651,25.956,7.233z"/>
		</g>
	</g>
</g>
</svg>
