<?xml version="1.0" encoding="utf-8"?>
<!-- Generator: Adobe Illustrator 19.1.0, SVG Export Plug-In . SVG Version: 6.00 Build 0)  -->
<svg version="1.1" id="Layer_3" xmlns="http://www.w3.org/2000/svg" xmlns:xlink="http://www.w3.org/1999/xlink" x="0px" y="0px"
	 viewBox="0 0 512 512" enable-background="new 0 0 512 512" xml:space="preserve" fill="#830001">
<g>
	<path d="M247.797,11.337c6.693,0,13.387,0,20.08,0c2.199,0.274,4.391,0.642,6.598,0.808c28.337,2.137,55.828,7.483,81.97,19.315
		c23.569,10.667,46.189,22.563,65.587,40.046c12.008,10.822,23.912,21.594,33.733,34.598c9.924,13.141,19.846,26.233,26.619,41.331
		c4.893,10.907,9.881,21.832,13.794,33.107c12.048,34.716,14.979,70.384,10.233,106.804c-5.726,43.939-22.801,83.126-50.24,117.569
		c-10.343,12.982-22.504,24.678-34.807,35.896c-17.296,15.77-37.868,26.918-58.828,36.914
		c-22.653,10.804-46.865,16.992-71.817,19.856c-50.537,5.801-99.105-0.498-144.92-23.797
		c-20.042-10.192-39.254-21.454-55.784-36.991c-12.597-11.84-25.525-23.341-34.953-38.012c-7.962-12.39-16.191-24.684-23.095-37.663
		c-12.281-23.087-19.441-47.947-22.663-73.906c-0.924-7.443-1.649-14.91-2.466-22.366c0-6.136,0-12.271,0-18.407
		c0.293-2.464,0.702-4.921,0.862-7.395c2.299-35.606,12.39-69.013,29.839-99.959c7.475-13.257,16.171-26.124,26.111-37.612
		c11.221-12.968,23.893-24.858,36.967-36.006c19.205-16.376,41.937-27.216,64.972-37.002c18.384-7.809,37.898-12.104,57.743-14.565
		C231.467,12.892,239.64,12.183,247.797,11.337z M90.616,307.199c20.172,0.573,39.813,1.174,59.459,1.6
		c1.466,0.032,3.178-0.916,4.403-1.881c8.287-6.529,16.399-13.28,24.709-19.779c13.398-10.477,26.858-20.878,40.412-31.151
		c2.459-1.864,3.151-3.536,2.419-6.605c-5.461-22.905-10.671-45.87-16.15-68.771c-0.35-1.462-2.08-3.275-3.524-3.692
		c-20.479-5.919-41.029-11.588-61.53-17.43c-2.344-0.668-3.852-0.207-5.467,1.547c-6.309,6.849-12.693,13.63-19.141,20.35
		c-12.913,13.458-25.944,26.804-38.741,40.37c-1.243,1.318-1.932,3.974-1.63,5.803c1.881,11.407,4.109,22.757,6.237,34.124
		C84.891,276.738,87.723,291.79,90.616,307.199z M168,319.154c10.338,21.174,20.485,42.053,30.802,62.846
		c0.592,1.193,2.473,2.133,3.918,2.456c10.334,2.31,20.729,4.347,31.069,6.628c17.771,3.922,35.551,7.815,53.254,12.032
		c5.485,1.307,8.938,1.431,12.858-4.306c11.379-16.652,23.881-32.541,36.104-48.605c1.735-2.28,1.591-4.005,0.582-6.385
		c-7.227-17.047-14.459-34.093-21.38-51.265c-1.325-3.287-2.821-5.061-6.384-5.96c-22.963-5.794-45.87-11.814-68.758-17.901
		c-2.567-0.683-4.402-0.384-6.507,1.217c-16.941,12.883-33.956,25.669-50.965,38.462C177.92,311.888,173.188,315.325,168,319.154z
		 M219.1,159.936c0.718-0.273,1.774-0.59,2.757-1.06c17.794-8.51,35.594-17.008,53.332-25.632c1.176-0.572,2.39-2.005,2.708-3.26
		c4.319-17.013,8.521-34.057,12.599-51.129c0.278-1.164-0.264-3.025-1.113-3.869c-3.53-3.51-7.218-6.881-11.042-10.072
		c-12.202-10.182-24.434-20.331-36.823-30.283c-1.435-1.152-4.106-1.738-5.905-1.316c-23.057,5.415-46.073,11.008-69.051,16.748
		c-1.908,0.477-4.009,1.985-5.104,3.625c-8.421,12.616-16.655,25.357-24.815,38.143c-0.795,1.246-1.254,3.185-0.934,4.59
		c3.092,13.58,6.36,27.121,9.666,40.651c0.265,1.085,0.954,2.507,1.841,2.917c2.856,1.32,5.838,2.46,8.877,3.278
		c19.91,5.358,39.848,10.613,59.778,15.897C216.814,159.415,217.769,159.619,219.1,159.936z M356.745,191.897
		c1.424-0.237,2.11-0.361,2.799-0.464c16.267-2.43,32.488-5.259,48.822-7.097c6.92-0.779,9.892-3.058,11.546-10.155
		c4.583-19.658,10.369-39.034,15.532-58.561c0.381-1.44,0.154-3.708-0.759-4.699c-2.892-3.139-6.15-5.965-9.432-8.716
		c-17.814-14.929-35.7-29.773-53.489-44.731c-1.841-1.548-3.351-1.859-5.582-0.918c-10.214,4.31-20.468,8.53-30.763,12.642
		c-8.021,3.203-16.093,6.286-24.209,9.237c-2.54,0.923-3.676,2.331-4.111,5.022c-2.07,12.792-3.93,25.642-6.723,38.283
		c-1.672,7.567-1.673,13.793,5.479,18.424c1.081,0.7,1.565,2.256,2.518,3.228c15.296,15.614,30.616,31.204,45.961,46.769
		C355.14,190.981,356.223,191.528,356.745,191.897z M411.734,341.041c0.437-0.37,1.888-1.112,2.615-2.298
		c2.753-4.494,5.197-9.176,7.89-13.708c11.089-18.659,22.065-37.389,33.452-55.865c3.256-5.284,6.058-9.871,0.804-15.327
		c-0.624-0.648-0.687-1.801-1.169-2.627c-9.174-15.74-18.416-31.441-27.514-47.225c-1.264-2.193-2.51-2.668-4.975-2.205
		c-15.052,2.827-30.099,5.742-45.241,8.004c-6.566,0.981-10.418,3.341-13.475,9.78c-9.899,20.851-20.839,41.207-31.291,61.799
		c-0.611,1.204-1.028,3.038-0.558,4.177c6.563,15.936,13.257,31.819,20.069,47.65c0.482,1.12,2.066,2.376,3.245,2.495
		C373.878,337.54,392.187,339.212,411.734,341.041z M260.058,486.712c0.026,0.411,0.052,0.823,0.078,1.234
		c17.472-1.535,34.949-3.013,52.404-4.719c1.361-0.133,3.193-1.609,3.732-2.907c2.026-4.872,3.786-9.878,5.25-14.948
		c0.458-1.586,0.227-3.879-0.634-5.259c-8.256-13.223-16.782-26.277-25.057-39.489c-1.539-2.457-3.305-3.701-6.142-4.217
		c-31.477-5.732-62.942-11.53-94.381-17.465c-3.011-0.568-5.101,0.286-7.155,2.137c-2.145,1.933-4.212,3.974-6.498,5.726
		c-10.731,8.226-21.487,16.42-32.329,24.497c-2.105,1.568-3.128,3.129-2.89,5.868c0.494,5.69,0.425,11.434,1.033,17.108
		c0.186,1.737,1.434,3.864,2.859,4.884c12.017,8.602,25.89,13.375,39.655,18.091C212.643,485.016,236.146,487.595,260.058,486.712z
		 M20.47,221.942c-3.742,21-4.003,41.645-0.558,62.287c3.586,21.487,9.196,42.408,18.898,62.025
		c1.571,3.176,3.889,6.157,6.443,8.627c3.333,3.224,6.068,2.536,8.268-1.502c5.854-10.747,11.396-21.674,17.593-32.218
		c2.893-4.921,3.393-9.331,2.027-14.861c-5.644-22.832-10.773-45.792-16.201-68.678c-0.405-1.706-1.324-4.206-2.592-4.647
		C43.207,229.104,31.932,225.616,20.47,221.942z M492.852,254.779c-4.158,2.26-7.696,4.42-11.433,6.149
		c-3.719,1.72-6.209,4.348-8.179,7.912c-5.314,9.613-10.865,19.097-16.375,28.601c-9.004,15.529-18,31.063-27.134,46.515
		c-1.354,2.29-1.329,3.749,0.453,5.794c4.741,5.44,9.17,11.15,13.803,16.686c3.739,4.468,7.594,8.84,12.161,14.141
		C484.132,342.914,493.111,300.631,492.852,254.779z M87.727,102.797c6.443-1.666,12.802-4.116,19.348-4.818
		c10.33-1.106,15.28-6.19,16.156-16.423c0.429-5.015,2.269-9.91,3.516-15.047C109.283,74.184,96.824,86.573,87.727,102.797z"/>
</g>
</svg>
