<?xml version="1.0" encoding="utf-8"?>
<!-- Generator: Adobe Illustrator 14.0.0, SVG Export Plug-In . SVG Version: 6.00 Build 43363)  -->
<!DOCTYPE svg PUBLIC "-//W3C//DTD SVG 1.1//EN" "http://www.w3.org/Graphics/SVG/1.1/DTD/svg11.dtd">
<svg version="1.1" xmlns="http://www.w3.org/2000/svg" xmlns:xlink="http://www.w3.org/1999/xlink" x="0px" y="0px" width="512px"
	 height="512px" viewBox="0 0 512 512" enable-background="new 0 0 512 512" xml:space="preserve" fill="#830001">
<g id="Layer_1">
</g>
<g id="amfb">
	<path d="M256,46.731C140.423,46.731,46.731,140.424,46.731,256c0,115.577,93.692,209.27,209.269,209.27
		c115.575,0,209.27-93.692,209.27-209.27C465.27,140.424,371.575,46.731,256,46.731 M414.671,148.678
		c-43.379-2.253-84.627,12.839-120.133,44.174c-22.793,20.112-36.986,41.285-42.665,50.623c-7.764,0.391-29.322,0.527-56.063-7.294
		c-14.002-4.096-27.276-9.651-39.792-16.643c18.413-30.632,40.843-55.937,66.778-75.276c22.412-16.711,47.495-29.059,74.551-36.699
		c28.455-8.036,53.198-9.118,68.112-8.752C384.758,112.274,401.465,129.191,414.671,148.678 M267.811,447.17
		c24.324-30.804,32.218-72.541,22.798-122.044c-6.729-35.357-20.16-64.16-25.029-73.843c5.28-8.595,18.508-28.194,39.384-46.616
		c9.645-8.512,19.62-15.676,29.896-21.513c22.897,31.864,36.428,64.739,40.237,97.814c3.224,28.005-0.466,56.281-10.968,84.048
		c-13.254,35.044-34.195,60.535-44.463,71.676C303.286,442.463,285.888,446.069,267.811,447.17 M191.679,253.438
		c23.085,6.646,42.479,7.927,54.009,7.927c1.904,0,3.585-0.035,5.041-0.086c5.108,10.532,16.728,36.694,22.545,67.581
		c1.882,9.988,3.009,19.543,3.398,28.662c-3.561,0.521-8.251,1.05-13.899,1.328c-12.341,0.609-31.835,0.107-54.66-5.723
		c-25.637-6.547-50.192-18.354-72.983-35.094c-25.761-18.921-49.331-44.258-70.202-75.383c1.584-22.998,7.219-44.879,16.211-64.933
		C118.087,224.283,160.962,244.595,191.679,253.438 M256,64.457c34.159,0,66.224,8.953,93.992,24.624
		c-14.786,0.677-33.761,2.959-54.879,8.88c-28.292,7.93-54.522,20.792-77.963,38.227c-27.084,20.144-50.461,46.47-69.597,78.317
		c-21.643-13.603-40.863-31.73-57.478-54.254C123.191,102.988,185.093,64.457,256,64.457 M64.499,259.271
		c19.646,27.164,41.477,49.63,65.131,66.943c23.891,17.486,49.667,29.801,76.614,36.601c18.96,4.785,35.743,6.081,48.362,6.081
		c3.368,0,6.439-0.092,9.177-0.234c5.12-0.269,9.485-0.726,13.008-1.205c-0.604,32.884-11.62,59.585-32.939,79.692
		C144.804,440.946,66.177,359.481,64.499,259.271 M339.619,428.368c10.81-13.989,23.976-34.244,33.582-59.501
		c11.138-29.286,15.077-59.156,11.707-88.781c-3.921-34.461-17.793-68.592-41.257-101.568
		c25.376-12.334,52.519-16.747,81.129-13.144c14.519,26.981,22.763,57.84,22.763,90.625
		C447.543,331.805,403.504,397.318,339.619,428.368"/>
</g>
</svg>
