<svg height="7.11in" viewBox="0 0 711 711" width="7.11in" xmlns="http://www.w3.org/2000/svg"><path d="m491 51.91s21 1.26 21 1.26c35.74 3.47 78.15 16.46 105 41 13.13 12 24.99 32.32 31.6 48.83 9.66 24.16 14.77 49.16 17.36 75v9s1.04 14 1.04 14c-59.37-25.18-116.63-64.24-152.31-119-16.48-25.3-23.29-42.81-32.69-71 0 0 9 .91 9 .91zm-440.55 344.09c6.14-30.7 16.68-62.41 29.41-91 43.7-98.15 123.86-174.86 222.14-217.28 32.92-14.21 62.91-22.81 98-29.72 0 0 26-4.14 26-4.14 2.1.02 8.09-.9 9.7 0 2.46.81 3.21 4.81 3.88 7.14 0 0 6.42 20 6.42 20 7.65 22.44 21.4 48.54 34.88 68 34.09 49.19 80.13 86.93 133.12 114.26 13.06 6.73 35.26 18.04 49 21.74-.57 26.19-13.64 75.01-22.95 100-42 112.66-125.61 196.49-237.05 241.2-31.55 12.66-64.46 22.07-98 27.72 0 0-24 3.38-24 3.38-2.71.15-8.14 1.33-10.57 0-2.44-1.07-3.3-5.83-4.01-8.3 0 0-7.23-22-7.23-22-10.85-28.1-21.31-47.47-38.9-72-40.56-56.57-109.72-103.26-175.29-126 0 0 5.45-33 5.45-33zm380.55-197c-3.55-3.55-8.16-8.83-13-10.33-2.85-.91-9.17-.93-12 0-3.38 1.17-6.46 3.94-9 6.37-6.19 5.92-11.75 11.73-10.14 20.96 1.6 9.23 18.21 23.07 25.14 30 2.13 2.13 8.95 8.08 8.96 10.96 0 2.34-5.41 6.92-7.16 8.77 0 0-23.8 23.98-23.8 23.98-5.18 3.58-11.02-4.52-14.72-7.83-5.84-5.22-21.24-21.91-26.28-24.43-2.81-1.4-5.92-1.55-9-1.41-9.08.41-20.04 10.67-23.03 18.96-.92 2.55-1.07 5.31-.93 8 .41 7.83 5.76 11.8 10.96 17 0 0 27 27 27 27-6.16 4.41-16.18 15.18-22 21-2.03 2.03-7.15 7.96-10 7.96-3.14 0-11.5-9.46-14-11.96-9.78-9.78-22.36-27.5-38-17.15-2.74 1.81-6.65 5.69-8.91 8.15-4.79 5.24-6.42 8.88-6.05 16 .47 8.83 6.21 12.39 11.96 18.01 0 0 11 10.99 11 10.99 2.15 2.15 8.96 8.07 8.96 11 0 2.42-3.36 5.37-4.96 7 0 0-16 15.89-16 15.89-6.68 5.6-11.09-2.3-15.88-7.04-4.82-4.77-21.86-22.27-26.12-24.4-2.81-1.4-5.92-1.55-9-1.41-9.08.41-20.04 10.67-23.03 18.96-.92 2.55-1.07 5.31-.93 8 .41 7.83 5.76 11.8 10.96 17 0 0 27 27 27 27-7.68 5.5-23.44 20.16-23.96 30-.15 2.98.03 6.23 1.19 9 3.91 9.37 16.19 19.13 26.77 17.82 8.31-1.04 15.24-10.08 21-15.82 2.07-2.06 5.74-6.66 9-5.8 2.22.58 7.18 5.98 9 7.8 5.54 5.54 19.08 21.02 26 22.61 10.01 2.3 15.29-1.9 22-8.61 6.61-6.61 11.33-12.12 7.89-22-2.12-6.11-7.42-10.53-11.89-15 0 0-21-21-21-21s28-27 28-27c4.51 6.3 17.84 18.84 24 25 4.77 4.77 9.23 10.28 16 12.07 9.15 2.41 15.03-3.1 21-9.07 5.81-5.81 10.55-11.1 8.47-20-1.61-6.9-7.65-12.18-12.47-17 0 0-25-24-25-24s18-17 18-17 12-14 12-14c9.49 4.49 25.04 25.66 34 30.99 2.77 1.66 4.85 1.92 8 1.99 9.32.23 11.63-2.61 18-8.98 4.94-4.95 8.92-8.51 8.92-16 0-10.82-10.83-18.91-17.92-26-2.7-2.7-13.96-12.79-13.96-16 0-2.73 5.06-7.1 6.96-9 0 0 22-21.96 22-21.96 5.85-5.35 6.68-3.36 15 4.96 0 0 16 16 16 16 3.47 3.45 7.03 7.47 12 8.61 3.09.71 9.07.57 12-.62 3.49-1.41 6.37-4.38 9-6.99 6.76-6.7 12.21-12.93 8.75-23-2.05-5.98-7.38-10.62-11.75-15 0 0-23-23-23-23 6.12-4.38 13.32-11.03 13.9-19 .22-3-.18-6.27-1.47-9-3.28-6.94-14.55-17.54-22.43-17.96-11.79-.62-16.32 6.28-24 13.96-4.51-6.29-17.84-18.84-24-25zm-358 286.81c54.83 27.41 104.76 68.4 133.78 123.19 6.67 12.6 18.1 37.26 20.22 51 0 0-10-1.04-10-1.04h-10c-41.3-4.06-88.49-14.97-118.72-45.24-25.34-25.39-38.59-69.64-42.11-104.72 0 0-1.26-20-1.26-20s-.91-12-.91-12v-4s29 12.81 29 12.81z"/></svg>