<svg height="7.11in" viewBox="0 0 711 711" width="7.11in" xmlns="http://www.w3.org/2000/svg"><path d="m49.91 507s-.91-12-.91-12v-28s.91-12 .91-12c2.39-34.23 9.24-67.44 20.09-100 19.56-58.67 50.85-112.66 93.09-158 51.63-55.42 118.8-95.61 190.91-118.02 29.84-9.28 60.81-15.79 92-18.07 0 0 11-.91 11-.91s25-1 25-1 15 1 15 1c26.99.04 63.32 7.95 88 18.86 0 0 21 11.14 21 11.14s-24.31 39-24.31 39c-19.77 30.69-41.55 60.08-63.81 89 0 0-26.47 33-26.47 33-1.92 2.31-9.82 12.24-11.7 13.26-3.59 1.95-7.45-2.97-9.7-5.26 0 0-17.01-17.85-17.01-17.85-3.29-2.78-6.96-4.28-10.43-.72-4.44 4.54-.94 8.93 2.47 12.57 0 0 15.05 16 15.05 16 1.73 1.86 5.97 5.69 6.58 8 .76 2.89-2.23 5.97-3.96 8 0 0-14.71 17-14.71 17-4.48-3.36-9.73-9.72-14-14-2.97-2.97-12.77-13.89-16.04-14.81-4.92-1.37-9.96 3.98-7.9 8.81 1.82 4.27 15.06 17.08 18.94 21 2.16 2.19 7.11 6.7 6.89 10-.23 3.49-11.07 14.12-13.88 17-2.33 2.39-7.83 9.8-11.01 9.8-2.93 0-6.89-4.73-8.72-6.8-3.57-4.04-15.81-17.94-20.28-19.16-4.5-1.22-9.7 3.72-7.45 9.16 1.59 3.86 14.94 16.43 18.87 21 1.38 1.6 4.76 5.11 5.25 7 .91 3.54-4.45 8.64-6.71 11-5.6 5.86-21.19 21.87-26.96 26 0 0-28-28.89-28-28.89-1.38-1.22-3.14-2.77-5-3.15-3.45-.69-7.15 2.72-7.55 6.04-.53 4.33 4.79 9.2 7.55 12 6.06 6.13 18.27 18.39 23 25 0 0-23 20-23 20-5-6.61-11.25-12.03-16.96-18 0 0-7.13-7.96-7.13-7.96-3.11-3.13-7.39-6.6-11.77-3.44-6.07 4.38-1.77 9.46 1.84 13.4 0 0 16.02 17 16.02 17 1.74 1.74 6.09 5.73 6.66 8 .81 3.19-2.6 5.6-4.66 7.42 0 0-18 16.21-18 16.21-4.64 3.06-7.82-1.33-10.83-4.63 0 0-23.45-24.29-23.45-24.29-5.86-4.2-12.2 1.21-10.88 6.29.67 2.55 4.51 6.98 6.33 9 0 0 16.41 17 16.41 17 2 2.31 6.9 6.79 6.08 10-.7 2.78-10.06 10.34-12.66 12.58 0 0-34 29-34 29-29.81 25.18-60.78 49.38-92 72.79 0 0-54 38.63-54 38.63-25.77-31.74-36.28-70.84-39.09-111zm585.94-388c11.17 15.39 20.77 37.56 25.52 56 18.17 70.61 10.45 148.97-14.69 217-22.03 59.61-57.06 114.48-103.68 157.91-50.96 47.48-114.19 81.47-181 100.51-33.59 9.58-63.26 14.29-98 16.67 0 0-12 .91-12 .91-44.22.07-91.34-3.81-131-25.31-6.59-3.57-11.93-7.39-18-11.69v-2s50-36.13 50-36.13 91-71.95 91-71.95 52-43.92 52-43.92 15.91 16 15.91 16c3.04 3.26 6.43 7.92 10.09 10.34 6.63 4.36 11.05-2.06 11-5.34-.05-3.56-4.57-7.49-6.83-10 0 0-19.17-21-19.17-21s28-25 28-25 27.17 28.34 27.17 28.34c6.38 4.65 11.54-1.45 11.29-5.34-.17-2.73-3.17-5.97-4.89-8 0 0-15.53-16-15.53-16-2.18-2.28-6.67-6.52-5.72-10 .74-2.67 8.38-9.7 10.68-12 3.26-3.25 5.21-5.29 9-8 0 0 13.83 14 13.83 14 3.38 3.73 9.03 10.76 13.17 13.26 6.35 3.84 11.89-2.03 10.22-7.26-1-3.12-4.92-6.62-7.18-9 0 0-11.04-12-11.04-12-1.95-1.97-6.8-6.15-6.8-9 0-2.96 5.71-7.91 7.8-10 0 0 26-26 26-26s30 30.57 30 30.57c7.37 5.31 12.27-2.46 11.16-6.57-.94-3.45-7.48-9.27-10.15-12 0 0-21.01-23-21.01-23s18.72-20 18.72-20c1.81-2.05 5.24-6.8 8.19-6.8 2.46 0 6.37 5.03 8.1 6.8 0 0 12.82 13 12.82 13 2.61 2.88 5.66 7.12 9.17 8.82 6.11 2.96 12.6-3.42 8.45-9.82-6.27-9.67-22.32-21.51-28.45-32 0 0 21-23 21-23s22 23 22 23c2.35 2.35 6.86 7.3 10 8.16 4.57 1.24 8.87-3.78 7.78-8.16-.93-3.75-6.99-9.2-9.78-12 0 0-21-23-21-23s30.6-37 30.6-37c24.55-30.69 47.77-62.42 69.73-95 0 0 28.67-45 28.67-45 7.26 3.43 12.23 10.64 16.85 17z"/></svg>