<svg height="512" viewBox="0 0 512 512" width="512" xmlns="http://www.w3.org/2000/svg"><path d="m121 247s25-37 25-37 84.33-125 84.33-125 25-37 25-37c2.05-3.06 7.68-12.65 10.76-13.76 3.25-1.16 8.28 3.01 10.91 4.76-2.18 5.7-6.28 10.92-9.67 16 0 0-19 28-19 28-2.1 3.15-10.15 13.75-9.61 17 .47 2.8 4.23 5.64 6.28 7.42 0 0 17 15.58 17 15.58s44-59 44-59 11 7 11 7-15.37 22-15.37 22-29.63 39-29.63 39 28 25 28 25c2.58-5.57 8.08-11.21 12.08-16 0 0 22.67-27 22.67-27 2.2-2.64 10.91-13.94 13.42-14.67 3.72-1.08 8.88 5.07 10.83 7.67 0 0-50 59-50 59 5.1 2.41 10.68 8.11 15 12 1.77 1.59 4.4 4.37 7 4.12 2.9-.28 10.57-9.59 12.91-12.12 0 0 34.51-37.94 34.51-37.94 6.97-7.18 13.55 2.5 12.43 5.94-1.13 3.46-10.7 12.75-13.57 16 0 0-36.28 40-36.28 40s29 25 29 25 44-46 44-46c5.47-5.47 9.87-13.23 16.84-4.98.69.83 1.55 1.9 1.82 2.98 1.01 4-8.85 12.19-11.66 15 0 0-42 42-42 42 6.74 4.68 12.95 10.54 19 16.08 1.95 1.79 5.11 5.5 8 5.16 2.49-.29 9.63-7.61 12-9.66 0 0 33-30 33-30 5.92-5.15 13.35-16.68 19.8-5.58 3.19 5.5-4.13 10.48-7.8 13.72 0 0-35 31.7-35 31.7s-75 68.41-75 68.41-51 46.2-51 46.2-30 27.25-30 27.25c-2.88 2.54-7.89 8.97-12 7.55-1.81-.62-10.86-8.98-13-10.88 0 0-29-25.79-29-25.79s-67-59.32-67-59.32-42-36.84-42-36.84c2.04-5.26 8.56-13.85 12-19zm93-114c-1.51 2.27-5.34 7.22-4.99 9.91.31 2.33 3.35 4.64 4.99 6.16 4.8 4.44 12.03 11.89 18 13.93 0 0 23-31 23-31s-24-22-24-22c-5.96 4.69-12.56 16.33-17 23zm50 8s-15.37 21-15.37 21c-1.42 1.88-5.72 7.06-6.16 9-.82 3.63 3.2 6.21 5.53 8.28 5.56 4.94 13.13 13.38 20 15.72 0 0 24-30 24-30-5.31-5.27-22.18-21.25-28-24zm-66 50.07c1.68 1.51 4.53 4.56 6.91 4.59 2.17.04 3.74-2.17 4.96-3.68 0 0 10.53-13.98 10.53-13.98 1.19-1.65 2.91-3.63 2.27-5.83-.51-1.77-4.24-4.85-5.67-6.17-4.67-4.29-11.16-11.01-17-13 0 0-16 26-16 26 4.93 3.53 9.47 8 14 12.07zm85.41 4.93c-1.82 2.2-5.66 5.94-4.96 9 .56 2.4 3.76 4.86 5.55 6.42 5.07 4.43 7.12 6.85 13 10.58 5.94-5.94 22.86-23.32 26-30 0 0-20-18-20-18-5.81 4.53-14.53 15.9-19.59 22zm-50.41-14s-11 15-11 15c-1.48 1.89-4.71 5.64-4.96 8-.34 3.17 2.85 5.81 4.96 7.72 5.83 5.24 11.55 10.8 18 15.28 4.77-5.2 17.24-18.94 19-25 0 0-26-21-26-21zm-66.33 21s-2.8 7-2.8 7 5.13 6.42 5.13 6.42 14 11.58 14 11.58c4.32-6.83 13.03-15.76 15-23 0 0-20-18-20-18s-11.33 16-11.33 16zm147.05 20s-5.52 7.99-5.52 7.99 5.8 7.17 5.8 7.17 20 16.84 20 16.84 19-19 19-19 6.8-8.91 6.8-8.91-5.8-7.09-5.8-7.09-20-18-20-18-20.28 21-20.28 21zm-57.85 6c-1.62 1.9-4.96 5.26-4.76 7.91.18 2.49 5.05 6.35 6.89 8.07 2.09 1.95 7.06 6.91 10 6.84 2.55-.06 5.22-3.08 6.83-4.82 4.95-5.36 10.26-10.84 14.17-17 0 0-19-17-19-17-4.72 4.13-9.89 11.03-14.13 16zm-63.87 8s15 13.08 15 13.08c1.69 1.55 4.8 4.87 6.96 5.43 2.41.63 3.79-1.01 5.29-2.58 2.66-2.81 12.39-13.29 11.42-16.92-.66-2.45-4.76-5.46-6.67-7.18 0 0-15-13.83-15-13.83s-17 22-17 22zm-45.18-3.01c-.15 3.8 9.19 10.91 12.18 13.23 1.61 1.25 3.61 3.08 5.83 2.44 1.78-.5 3.7-3.23 4.8-4.66 1.45-1.91 4.45-5.51 4.26-7.99-.19-2.6-3.1-4.68-4.89-6.29-4.68-4.19-8.18-8.1-14-10.72-1.8 2.88-8.07 11.2-8.18 13.99zm204.18 22.01c-1.77 1.79-5.8 5.33-5.8 7.96 0 2.88 8.47 9.6 10.8 11.62 2.64 2.29 8.64 8.84 12 8.52 2.83-.26 7.91-5.17 10-7.13 0 0 19-16.97 19-16.97v-2s-25-22-25-22c-5.98 4.28-15.43 14.39-21 20zm-32 14c1.56-1.6 4.8-4.53 4.8-6.91 0-2.83-8.51-9.53-10.8-11.51-2.73-2.37-10.63-10.48-13.96-10.4-2.63.07-5.43 4-7.13 5.82-4.85 5.18-9.8 10.18-13.91 16 0 0 26 22 26 22s15-15 15-15zm-163.17-8c.44-2.88-1.95-4.96-3.85-6.72-4.23-3.92-8.57-8.16-13.98-10.28 0 0-11 19-11 19s18 14 18 14c1.98-3.14 10.5-13.8 10.83-16zm20.28-2c.19 2.65 3.05 4.94 4.89 6.58 5.13 4.53 10.43 9.49 16 13.42 0 0 11-15 11-15s-22-19-22-19c-2.84 2.36-10.17 10.21-9.89 14zm54.65-1c-1.48 1.82-3.98 4.47-3.73 6.99.28 2.88 4.88 6.19 6.97 8.08 2.05 1.86 5.96 6.04 8.91 5.82 2.49-.18 6.34-5.05 8.09-6.89 2.11-2.22 7.89-7.87 7.82-10.99-.06-2.32-2.28-4.01-3.84-5.43 0 0-11.98-10.58-11.98-10.58-4.86 3.55-8.46 8.35-12.24 13zm-76.76 29c6.55 4.96 14.68 14.51 22 17 0 0 13-17 13-17s-21-19-21-19-14 19-14 19zm105-5c-1.61 1.7-4.63 4.49-4.66 6.99-.05 3.05 7.3 8.74 9.66 10.85 2.41 2.15 10.22 9.79 13 9.82 2.31.04 4.21-2.07 5.68-3.59 3.94-4.09 10-10.16 12.32-15.07 0 0-24-21-24-21-5.12 3.7-7.72 7.46-12 12zm61 4c-1.63 1.67-4.8 4.51-4.8 7 0 3.4 6.36 7.99 8.8 10.16 2.59 2.32 8.56 8.59 12 8.75 2.89.12 6.05-3.11 8-4.95 5.1-4.82 10.9-9.25 15-14.96 0 0-23-21-23-21-5.38 3.85-11.27 10.17-16 15zm-103-12c-1.8 2.4-8.24 9.77-8.7 12-.98 4.71 11.83 13.92 15.7 16 0 0 11-14 11-14s-18-14-18-14zm-100 8.17s21 18.83 21 18.83 45 40.17 45 40.17 35 31.41 35 31.41 25 22.35 25 22.35c2.45 2.24 7.17 5.24 5.83 9.07-.72 2.08-4.91 6.14-6.55 8 0 0-13.3 15-13.3 15-5.88 6.31-11.29 13.03-17.98 18.54-16.26 13.38-34.16 20.09-55 21.55-3.44.24-5.4.98-9 .73-17.48-1.24-29.31-3.96-45-12.08-38.38-19.85-57.18-66.46-47.1-107.74 5.06-20.73 14.77-34.6 29.12-50 5.4-5.79 15.91-19.35 21.98-22.66 4.55.19 7.68 3.84 11 6.83zm69.32 29.83c-.88 3.89 11.11 14.59 14.64 13.66 1.97-.51 4-3.2 5.32-4.66 3.47-3.86 6.66-6.73 9.72-11 0 0-16-14-16-14-3.06 2.39-12.89 12.52-13.68 16zm57.68-14c-2.47 3.45-10.29 9.99-8.83 13.91.87 2.35 13.16 12.69 15.83 14.92 1.61 1.33 3.76 3.22 6 3.06 4.2-.29 10.31-8.32 12-11.89 0 0-25-20-25-20zm43 22s22 19 22 19 12.98-12.09 12.98-12.09 3.82-5.87 3.82-5.87-4.8-6.21-4.8-6.21-15-13.83-15-13.83c-6.39 4.57-14.43 12.61-19 19zm-74.84 16c.11 2.64 3.02 4.96 4.84 6.58 5.13 4.53 10.43 9.49 16 13.42 0 0 16-17 16-17s-23-20-23-20c-3.11 2.71-14.01 13.16-13.84 17zm73.84-2.42c-1.71-1.45-4.62-4.29-6.96-4.24-3.26.06-10.13 8.99-12.04 11.66 0 0 13 11.15 13 11.15 1.75 1.53 4.55 4.48 7 4.51 3.28.05 10.92-7.99 13-10.66 0 0-14-12.42-14-12.42zm-30 43.45c2.07 1.74 4.07 3.82 7 2.8 1.75-.6 12.38-10.22 13.46-11.92.33-1.03.5-1.76 0-2.91-.48-2.66-5.36-6.29-7.46-8.16-2.31-2.07-6.74-6.95-10-6.73-4.33.29-14.14 11.96-16 15.89 0 0 13 11.03 13 11.03z"/></svg>