<?xml version="1.0" encoding="utf-8"?>
<!-- Generator: Adobe Illustrator 16.0.0, SVG Export Plug-In . SVG Version: 6.00 Build 0)  -->
<!DOCTYPE svg PUBLIC "-//W3C//DTD SVG 1.1//EN" "http://www.w3.org/Graphics/SVG/1.1/DTD/svg11.dtd">
<svg version="1.1" id="Layer_1" xmlns="http://www.w3.org/2000/svg" xmlns:xlink="http://www.w3.org/1999/xlink" x="0px" y="0px"
	 width="50px" height="50px" viewBox="0 0 50 50" enable-background="new 0 0 50 50" xml:space="preserve">
<rect fill="transparent" width="50" height="50"/>
<g>
	<g>
		<g>
			<g>
				<g>
					<g>
						<circle fill="#FFFFFF" cx="19.066" cy="4.449" r="2.889"/>
						<path fill="#FFFFFF" d="M18.78,32.025c-0.37,0.369-0.553,0.854-0.55,1.341c0,0,0,0.001,0,0.003v6.996
							c0,0.928,0.751,1.683,1.682,1.683c0.927,0,1.681-0.755,1.682-1.683v-4.467l0,0v-0.275c-0.007-0.698,0.261-1.354,0.752-1.848
							l1.973-1.969h0.001l0.811-0.812c0.11-0.11,0.287-0.11,0.396,0c0.109,0.107,0.109,0.285,0,0.396
							c-0.004,0.006-0.012,0.006-0.016,0.01l-0.406,0.404h0.002l-1.62,1.617l-0.372,0.373l0,0l-0.375,0.374
							c-0.399,0.396-0.596,0.922-0.591,1.445c0,0.004,0,0.006,0,0.009v11.259c0,0.979,0.793,1.774,1.774,1.774
							c0.978,0,1.773-0.797,1.773-1.774v-9.964l1.371-1.372c0.005-0.005,0.009-0.007,0.014-0.011l2.503-2.504
							c0.302-0.301,0.483-0.67,0.558-1.059l-6.96-4.353L18.78,32.025z"/>
						<path fill="#FFFFFF" d="M34.779,21.249c0.013-0.336-0.106-0.677-0.363-0.933l-3.062-3.063c-0.24-0.239-0.552-0.36-0.865-0.366
							v-0.001H23.83l-3.265-3.266V8.024c0-0.153-0.029-0.3-0.08-0.435c-0.434,0.196-0.914,0.309-1.419,0.309
							c-0.34,0-0.672-0.049-0.99-0.144c-0.018,0.087-0.029,0.178-0.029,0.27v6.567c0,0.002,0,0.005,0,0.008
							c0,0.022,0.002,0.044,0.004,0.068c0.002,0.032,0.005,0.063,0.009,0.095c0.032,0.271,0.146,0.534,0.354,0.742l4.771,4.771
							v6.186l6.995,4.372V20.344l2.282,2.285v5.855c0,0.643,0.521,1.16,1.161,1.16s1.159-0.52,1.159-1.16V21.26
							C34.781,21.258,34.779,21.253,34.779,21.249z"/>
						<circle fill="#FFFFFF" cx="26.684" cy="12.857" r="2.844"/>
						<path fill="#FFFFFF" d="M16.002,6.032H9.894l1.606,8.173h4.378l1.345-6.843C17.01,7.228,16.81,7.07,16.627,6.888
							C16.372,6.632,16.163,6.344,16.002,6.032z"/>
					</g>
				</g>
			</g>
		</g>
	</g>
</g>
</svg>
