<?xml version="1.0" encoding="UTF-8" standalone="no"?>
<!DOCTYPE svg PUBLIC "-//W3C//DTD SVG 20010904//EN"
              "http://www.w3.org/TR/2001/REC-SVG-20010904/DTD/svg10.dtd">

<svg xmlns="http://www.w3.org/2000/svg"
     width="5.68889in" height="5.68889in"
     viewBox="0 0 512 512">
  <path id="Selection"
        fill="black"
        d="M 470.00,37.18
           C 497.16,61.08 492.01,105.64 460.00,122.68
             449.58,128.22 441.35,128.13 430.00,128.00
             426.01,127.95 418.93,126.26 416.00,127.30
             411.17,129.03 401.03,139.97 397.00,144.00
             397.00,144.00 361.00,179.00 361.00,179.00
             361.00,179.00 341.00,198.01 341.00,198.01
             341.00,198.01 306.00,233.00 306.00,233.00
             306.00,233.00 288.00,250.00 288.00,250.00
             285.24,252.76 281.25,256.33 279.95,260.00
             278.72,263.17 279.99,270.89 279.95,275.00
             279.95,275.00 281.00,297.00 281.00,297.00
             281.00,297.00 283.00,348.00 283.00,348.00
             283.00,348.00 284.00,363.00 284.00,363.00
             284.00,363.00 284.91,380.00 284.91,380.00
             285.10,382.78 284.66,386.44 286.02,388.90
             287.70,391.93 297.17,396.80 301.00,400.18
             310.85,408.88 317.84,421.70 318.00,435.00
             318.18,450.99 315.72,464.10 303.91,475.91
             279.56,500.26 235.31,494.89 218.89,464.00
             209.95,447.18 211.02,424.60 222.04,409.00
             225.07,404.71 228.80,400.91 233.00,397.76
             236.29,395.29 240.50,393.48 241.07,388.99
             241.07,388.99 241.07,380.00 241.07,380.00
             241.07,380.00 240.00,344.00 240.00,344.00
             240.00,344.00 239.00,329.00 239.00,329.00
             239.00,329.00 238.00,299.00 238.00,299.00
             238.00,299.00 237.00,284.00 237.00,284.00
             237.00,284.00 237.00,276.00 237.00,276.00
             236.98,272.32 236.98,268.29 235.07,265.02
             231.83,259.49 217.24,253.87 211.00,250.75
             211.00,250.75 142.00,216.75 142.00,216.75
             142.00,216.75 120.00,206.22 120.00,206.22
             117.50,205.04 111.34,201.62 109.00,201.38
             105.52,201.02 97.81,206.05 94.00,207.54
             86.71,210.39 79.72,211.04 72.00,211.00
             46.13,210.88 22.04,190.70 22.00,164.00
             21.99,156.44 21.36,149.28 23.75,142.00
             29.79,123.55 49.42,108.23 69.00,108.00
             69.00,108.00 78.00,108.00 78.00,108.00
             97.11,108.23 113.41,120.12 121.73,137.00
             127.31,148.32 124.79,156.87 129.43,161.37
             131.61,163.49 148.07,171.28 152.00,173.25
             152.00,173.25 204.00,198.75 204.00,198.75
             204.00,198.75 239.00,216.25 239.00,216.25
             243.51,218.50 248.98,222.64 254.00,219.76
             257.80,217.58 265.54,209.42 269.00,206.00
             269.00,206.00 289.00,187.00 289.00,187.00
             289.00,187.00 309.00,167.04 309.00,167.04
             309.00,167.04 319.00,157.99 319.00,157.99
             319.00,157.99 343.00,134.04 343.00,134.04
             343.00,134.04 357.00,121.00 357.00,121.00
             357.00,121.00 375.00,103.00 375.00,103.00
             377.11,100.89 381.80,96.56 382.89,94.00
             383.76,91.95 382.01,81.79 382.00,78.00
             381.96,50.23 397.29,30.56 425.00,25.44
             441.13,23.37 457.47,26.15 470.00,37.18 Z" />
</svg>
