<svg height="5.68889in" viewBox="0 0 512 512" width="5.68889in" xmlns="http://www.w3.org/2000/svg"><path d="m470 37.18c27.16 23.9 22.01 68.46-10 85.5-10.42 5.54-18.65 5.45-30 5.32-3.99-.05-11.07-1.74-14-.7-4.83 1.73-14.97 12.67-19 16.7 0 0-36 35-36 35s-20 19.01-20 19.01-35 34.99-35 34.99-18 17-18 17c-2.76 2.76-6.75 6.33-8.05 10-1.23 3.17.04 10.89 0 15 0 0 1.05 22 1.05 22s2 51 2 51 1 15 1 15 .91 17 .91 17c.19 2.78-.25 6.44 1.11 8.9 1.68 3.03 11.15 7.9 14.98 11.28 9.85 8.7 16.84 21.52 17 34.82.18 15.99-2.28 29.1-14.09 40.91-24.35 24.35-68.6 18.98-85.02-11.91-8.94-16.82-7.87-39.4 3.15-55 3.03-4.29 6.76-8.09 10.96-11.24 3.29-2.47 7.5-4.28 8.07-8.77v-8.99s-1.07-36-1.07-36-1-15-1-15-1-30-1-30-1-15-1-15v-8c-.02-3.68-.02-7.71-1.93-10.98-3.24-5.53-17.83-11.15-24.07-14.27 0 0-69-34-69-34s-22-10.53-22-10.53c-2.5-1.18-8.66-4.6-11-4.84-3.48-.36-11.19 4.67-15 6.16-7.29 2.85-14.28 3.5-22 3.46-25.87-.12-49.96-20.3-50-47-.01-7.56-.64-14.72 1.75-22 6.04-18.45 25.67-33.77 45.25-34h9c19.11.23 35.41 12.12 43.73 29 5.58 11.32 3.06 19.87 7.7 24.37 2.18 2.12 18.64 9.91 22.57 11.88 0 0 52 25.5 52 25.5s35 17.5 35 17.5c4.51 2.25 9.98 6.39 15 3.51 3.8-2.18 11.54-10.34 15-13.76 0 0 20-19 20-19s20-19.96 20-19.96 10-9.05 10-9.05 24-23.95 24-23.95 14-13.04 14-13.04 18-18 18-18c2.11-2.11 6.8-6.44 7.89-9 .87-2.05-.88-12.21-.89-16-.04-27.77 15.29-47.44 43-52.56 16.13-2.07 32.47.71 45 11.74z"/></svg>