<?xml version="1.0" encoding="UTF-8" standalone="no"?>
<!DOCTYPE svg PUBLIC "-//W3C//DTD SVG 20010904//EN"
              "http://www.w3.org/TR/2001/REC-SVG-20010904/DTD/svg10.dtd">

<svg xmlns="http://www.w3.org/2000/svg"
     width="7.11in" height="7.11in"
     viewBox="0 0 711 711">
  <path id="Selection"
        fill="black" 
        d="M 661.00,54.00
           C 661.00,54.00 661.00,179.00 661.00,179.00
             661.00,180.95 661.12,184.06 660.40,185.83
             659.03,189.18 644.73,199.65 641.00,202.75
             621.45,219.04 602.99,236.01 585.00,254.00
             541.93,297.07 505.27,346.45 476.31,400.00
             468.65,414.17 461.98,429.05 456.00,444.00
             456.00,444.00 446.00,469.00 446.00,469.00
             439.86,451.40 420.23,416.11 410.42,399.00
             404.35,388.41 390.06,363.34 383.00,355.00
             383.00,355.00 347.00,380.00 347.00,380.00
             347.00,380.00 291.00,417.31 291.00,417.31
             291.00,417.31 253.00,443.00 253.00,443.00
             268.03,444.26 293.29,454.90 307.00,461.75
             343.94,480.22 380.20,509.46 407.83,540.00
             407.83,540.00 430.58,567.00 430.58,567.00
             430.58,567.00 447.00,588.00 447.00,588.00
             447.00,588.00 457.67,572.00 457.67,572.00
             457.67,572.00 480.66,538.00 480.66,538.00
             513.18,490.19 548.61,443.41 591.00,403.91
             606.15,389.80 621.42,376.08 638.00,363.63
             643.77,359.29 654.82,350.62 661.00,348.00
             661.00,348.00 661.00,657.00 661.00,657.00
             661.00,657.00 232.00,657.00 232.00,657.00
             232.00,657.00 232.00,54.00 232.00,54.00
             232.00,54.00 661.00,54.00 661.00,54.00 Z
           M 206.00,152.00
           C 206.00,152.00 206.00,217.00 206.00,217.00
             206.00,217.00 206.00,442.00 206.00,442.00
             206.00,442.00 206.00,517.00 206.00,517.00
             206.00,517.00 206.00,539.00 206.00,539.00
             206.00,543.00 206.49,547.24 205.00,551.00
             205.00,551.00 196.88,516.00 196.88,516.00
             196.88,516.00 179.88,445.00 179.88,445.00
             179.88,445.00 140.12,278.00 140.12,278.00
             140.12,278.00 123.12,207.00 123.12,207.00
             123.12,207.00 115.00,173.00 115.00,173.00
             115.00,173.00 173.00,140.30 173.00,140.30
             173.00,140.30 205.00,122.00 205.00,122.00
             206.93,126.87 206.00,145.62 206.00,152.00 Z
           M 97.00,287.00
           C 97.00,287.00 115.02,346.00 115.02,346.00
             115.02,346.00 149.72,459.00 149.72,459.00
             149.72,459.00 161.02,496.00 161.02,496.00
             161.02,496.00 167.00,516.00 167.00,516.00
             167.00,516.00 153.63,500.00 153.63,500.00
             153.63,500.00 134.63,475.00 134.63,475.00
             134.63,475.00 74.63,396.00 74.63,396.00
             74.63,396.00 52.63,367.00 52.63,367.00
             52.63,367.00 45.19,355.00 45.19,355.00
             45.19,355.00 48.75,346.00 48.75,346.00
             48.75,346.00 56.78,329.00 56.78,329.00
             56.78,329.00 79.26,283.00 79.26,283.00
             79.26,283.00 89.00,263.00 89.00,263.00
             89.00,263.00 97.00,287.00 97.00,287.00 Z" />
</svg>
