<svg height="7.11in" viewBox="0 0 711 711" width="7.11in" xmlns="http://www.w3.org/2000/svg"><path d="m661 54v125c0 1.95.12 5.06-.6 6.83-1.37 3.35-15.67 13.82-19.4 16.92-19.55 16.29-38.01 33.26-56 51.25-43.07 43.07-79.73 92.45-108.69 146-7.66 14.17-14.33 29.05-20.31 44 0 0-10 25-10 25-6.14-17.6-25.77-52.89-35.58-70-6.07-10.59-20.36-35.66-27.42-44 0 0-36 25-36 25s-56 37.31-56 37.31-38 25.69-38 25.69c15.03 1.26 40.29 11.9 54 18.75 36.94 18.47 73.2 47.71 100.83 78.25 0 0 22.75 27 22.75 27s16.42 21 16.42 21 10.67-16 10.67-16 22.99-34 22.99-34c32.52-47.81 67.95-94.59 110.34-134.09 15.15-14.11 30.42-27.83 47-40.28 5.77-4.34 16.82-13.01 23-15.63v309h-429v-603zm-455 98v65 225 75 22c0 4 .49 8.24-1 12 0 0-8.12-35-8.12-35s-17-71-17-71-39.76-167-39.76-167-17-71-17-71-8.12-34-8.12-34 58-32.7 58-32.7 32-18.3 32-18.3c1.93 4.87 1 23.62 1 30zm-109 135s18.02 59 18.02 59 34.7 113 34.7 113 11.3 37 11.3 37 5.98 20 5.98 20-13.37-16-13.37-16-19-25-19-25-60-79-60-79-22-29-22-29-7.44-12-7.44-12 3.56-9 3.56-9 8.03-17 8.03-17 22.48-46 22.48-46 9.74-20 9.74-20 8 24 8 24z"/></svg>