<svg enable-background="new 0 0 512 512" height="512" viewBox="0 0 512 512" width="512" xmlns="http://www.w3.org/2000/svg"><path d="m45 166.7c.1-36.2 10.6-68.8 34.1-96.7 3.3-4 7.2-7.6 11.1-11 10.1-8.8 19.9-18.2 30.8-26 12.3-8.9 23.9-12.6 38.9-2.2 6.3 4.3 12.4 9.4 16.9 15.5 9.8 13.3 18.2 27.6 27.8 41 7.3 10.2 12.4 21.2 15.5 33.2 4.2 16.3 1.2 31.2-11 43.2-7.8 7.6-16.7 14.1-25.1 21.2-6.2 5.2-12.9 10.1-18.4 16-5.1 5.5-5.9 13-5.7 20.5.4 10.4 4.2 19.6 8.9 28.8 9.7 19.1 22.2 36.4 36.1 52.6 6.8 7.9 14.1 15.5 21.3 23.1 14.5 15.3 30.5 29 49.1 39 12.1 6.5 25.3 10.7 38.5 4.3 7.2-3.5 13.2-9.3 19.4-14.5 8.4-7 16-15 24.8-21.6 15.8-11.9 33.1-12.1 50.2-3.3 9.8 5 19.3 11 27.9 17.9 13.5 10.8 26.2 22.4 38.9 34.2 4.2 3.9 7.5 9.1 10.4 14.1 7.4 13 6.7 25.8-3.8 36.3-18.1 18.2-37 35.6-60.7 46.5-20.7 9.5-42.3 14.1-65.1 13.9-37.8-.3-72.3-12.1-104.1-31.6-14.7-9-29-18.9-42.5-29.6-13.9-11-27.2-22.9-39.6-35.5-15-15.2-28.8-31.7-43.3-47.5-15.4-16.8-27.3-36.1-39.8-55-17.3-26.2-29.6-54.4-36.5-84.9-3-13.8-5.4-41.8-5-41.9z"/></svg>