<svg enable-background="new 0 0 512 512" viewBox="0 0 512 512" xmlns="http://www.w3.org/2000/svg"><path d="m423.266 63.198c-48.471 0-55.395 41.546-55.395 55.395s0 27.698 13.849 27.698 13.849-13.849 13.849-27.698 6.924-27.698 27.698-27.698 27.698 13.849 27.698 27.698c0 69.244-83.093 110.79-124.639 110.79h-138.489c-41.546 0-124.639-41.546-124.639-110.79 0-13.849 6.924-27.698 27.698-27.698s27.698 13.849 27.698 27.698 0 27.698 13.849 27.698 13.849-13.849 13.849-27.698-6.924-55.395-55.395-55.395c-34.622 0-55.395 27.698-55.395 55.395 0 83.093 96.942 138.488 152.337 138.488h138.488c55.395 0 152.337-55.395 152.337-138.488-.003-27.698-20.776-55.395-55.398-55.395z"/><path d="m381.72 395.568h-249.278c-7.645 0-13.849 6.197-13.849 13.849v55.395c0 7.645 6.204 13.849 13.849 13.849h249.278c7.645 0 13.849-6.204 13.849-13.849v-55.395c-.001-7.651-6.205-13.849-13.849-13.849zm-55.395 55.396h-138.488v-27.698h138.488z"/><path d="m326.325 367.871h-138.488s-41.546 0-41.546 27.698h221.581c-.001-27.698-41.547-27.698-41.547-27.698zm-96.942-41.546h55.395c7.645 0 13.849-6.204 13.849-13.849 0-7.651-6.204-13.849-13.849-13.849h-55.395c-7.645 0-13.849 6.197-13.849 13.849 0 7.644 6.205 13.849 13.849 13.849z"/><path d="m381.72 63.198c0-13.856 0-27.698-13.849-27.698s-207.732 0-221.581 0-13.849 13.842-13.849 27.698c0 235.429 96.942 207.732 96.942 235.429v27.698c0 27.698-41.546 13.849-41.546 41.546h138.488c0-27.698-41.546-13.849-41.546-41.546v-27.698c-.001-27.698 96.941 0 96.941-235.429zm-152.337 138.481c-7.651 0-13.849-6.204-13.849-13.849s6.197-13.849 13.849-13.849h13.849v-50.444l-4.951 4.958c-5.193 5.193-13.613 5.193-18.8 0-5.193-5.186-5.193-13.613 0-18.8l25.62-25.627c2.375-4.182 6.827-7.028 11.979-7.028h13.849v13.849 13.849 69.244h13.849c7.645 0 13.849 6.204 13.849 13.849s-6.204 13.849-13.849 13.849h-55.395z"/></svg>