<?xml version="1.0" encoding="utf-8"?>
<!-- Generator: Adobe Illustrator 19.1.0, SVG Export Plug-In . SVG Version: 6.00 Build 0)  -->
<svg version="1.1" id="Layer_3" xmlns="http://www.w3.org/2000/svg" xmlns:xlink="http://www.w3.org/1999/xlink" x="0px" y="0px"
	 viewBox="0 0 512 512" enable-background="new 0 0 512 512" xml:space="preserve">
<g>
</g>
<g>
</g>
<g>
</g>
<g>
</g>
<g>
</g>
<g>
</g>
<g>
</g>
<g>
</g>
<g>
</g>
<g>
</g>
<g>
</g>
<g>
</g>
<g>
</g>
<g>
</g>
<g>
	<g id="Handles_1_">
		<g>
			<path d="M423.266,63.198c-48.471,0-55.395,41.546-55.395,55.395s0,27.698,13.849,27.698s13.849-13.849,13.849-27.698
				s6.924-27.698,27.698-27.698s27.698,13.849,27.698,27.698c0,69.244-83.093,110.79-124.639,110.79H187.837
				c-41.546,0-124.639-41.546-124.639-110.79c0-13.849,6.924-27.698,27.698-27.698s27.698,13.849,27.698,27.698
				s0,27.698,13.849,27.698c13.849,0,13.849-13.849,13.849-27.698s-6.924-55.395-55.395-55.395
				c-34.622,0-55.395,27.698-55.395,55.395c0,83.093,96.942,138.488,152.337,138.488h138.488
				c55.395,0,152.337-55.395,152.337-138.488C478.661,90.895,457.888,63.198,423.266,63.198z"/>
		</g>
	</g>
	<path d="M381.72,395.568H132.442c-7.645,0-13.849,6.197-13.849,13.849v55.395c0,7.645,6.204,13.849,13.849,13.849H381.72
		c7.645,0,13.849-6.204,13.849-13.849v-55.395C395.568,401.766,389.364,395.568,381.72,395.568z M326.325,450.964H187.837v-27.698
		h138.488V450.964z"/>
	<g id="Base_2_">
		<g>
			<path d="M326.325,367.871H187.837c0,0-41.546,0-41.546,27.698h221.581C367.871,367.871,326.325,367.871,326.325,367.871z
				 M229.383,326.325h55.395c7.645,0,13.849-6.204,13.849-13.849c0-7.651-6.204-13.849-13.849-13.849h-55.395
				c-7.645,0-13.849,6.197-13.849,13.849C215.534,320.12,221.739,326.325,229.383,326.325z"/>
		</g>
	</g>
	<path d="M381.72,63.198c0-13.856,0-27.698-13.849-27.698c-13.849,0-207.732,0-221.581,0c-13.849,0-13.849,13.842-13.849,27.698
		c0,235.429,96.942,207.732,96.942,235.429v27.698c0,27.698-41.546,13.849-41.546,41.546h138.488
		c0-27.698-41.546-13.849-41.546-41.546v-27.698C284.778,270.929,381.72,298.627,381.72,63.198z M229.383,201.679
		c-7.651,0-13.849-6.204-13.849-13.849s6.197-13.849,13.849-13.849h13.849v-50.444l-4.951,4.958c-5.193,5.193-13.613,5.193-18.8,0
		c-5.193-5.186-5.193-13.613,0-18.8l25.62-25.627c2.375-4.182,6.827-7.028,11.979-7.028h13.849v13.849v13.849v69.244h13.849
		c7.645,0,13.849,6.204,13.849,13.849s-6.204,13.849-13.849,13.849H229.383z"/>
	<g>
	</g>
</g>
</svg>
