<svg enable-background="new 0 0 511.9 511.9" viewBox="0 0 511.9 511.9" xmlns="http://www.w3.org/2000/svg"><path d="m496.5 125.2v145.6s-31.2 6.1-37.6 6.9-26.5 7.3-41.1-6.7c-22.5-21.5-102.3-101-102.3-101s-13.8-13.5-35.9-1.8c-20.3 10.7-50.4 26.4-62.9 32.5-23.8 12.6-43.4-7.4-43.4-22.7 0-11.9 7.4-19.9 18-25.8 28.7-17.4 89-51.3 114.2-64.6 15.3-8.1 26.3-8.8 47.3 8.9 25.9 21.7 48.9 41.6 48.9 41.6s7.5 6.3 19.5 3.7c29.2-6.3 75.3-16.6 75.3-16.6zm-317.9 246.7c3.9-9.9 2.6-21-4.8-28.7-6.7-6.8-16.4-8.6-25.7-6.5 2.6-9.2 1.2-19-5.5-25.9-6.7-6.8-16.4-8.6-25.7-6.5 2.6-9.2 1.1-19-5.6-25.9-10.5-10.8-28.6-10.3-40.6 1.1-11.9 11.4-19.5 32-8.9 44.1s22.7 4.7 32 2.6c-2.6 9.2-10.3 17.7-.8 29.8 9.5 12 22.7 4.7 32 2.6-2.6 9.2-10 18.6-.8 29.7 9.2 11.2 24.3 5.2 34.3 2.1-3.8 9.9-12.1 20.6-1.5 32.5 10.6 12 35 6.5 46.9-4.9s13-29.4 2.6-40.2c-7.2-7.3-18-9-27.9-5.9zm217.7-75.7c-86.3-86.3-45.7-45.7-92.1-92.2 0 0-14-13.9-32.3-5.8-12.9 5.7-29.5 13.4-42 19.2-13.7 7.2-23.6 9.4-28.3 9.4-26.6-.2-48.1-21.5-48.1-48.1 0-17.2 9.1-32.2 22.8-40.7 19.2-13.3 63.3-36.7 63.3-36.7s-13.4-17-42.9-17c-29.4 0-90.9 40.3-90.9 40.3s-17.4 11.2-42.3 1.1l-48-16.7v166.6s13.7 4 26 9c2.8-7.9 7.3-15.2 13.5-21.3 20.4-19.4 54.2-19.6 72.8-.5 5.6 5.8 9.5 12.7 11.5 20.4 7.5 2.3 14.3 6.4 19.7 12 5.6 5.8 9.5 12.7 11.5 20.4 7.5 2.3 14.2 6.4 19.7 12 6.2 6.3 10.3 14 12.2 22.3 7.8 2.3 14.9 6.5 20.6 12.3 11.2 11.5 15.1 27 12.7 42h.1c.2.2 6.9 7.7 11.1 12 8.2 8.2 21.7 8.2 29.9 0s8.2-21.6 0-29.9c-.3-.3-29.7-31-27.3-33.4 2.3-2.4 39.8 36.6 40.5 37.3 8.2 8.2 21.6 8.2 29.9 0 8.2-8.2 8.2-21.6 0-29.9-.4-.4-2.1-2-2.7-2.6 0 0-37.1-33.1-34.3-35.9 2.9-2.8 48.9 40.2 49 40.2 8.3 7.5 21 7.4 29-.6 7.8-7.8 7.9-20 1-28.3-.1-.4-35.1-37-32.4-39.7 2.8-2.8 37.4 32.9 37.5 32.9 8.2 8.2 21.6 8.2 29.9 0 8.2-8.2 8.2-21.6 0-29.9-.3-.1-.5-.2-.6-.2z" fill="#030104"/></svg>