<?xml version="1.0" encoding="utf-8"?>
<!-- Generator: Adobe Illustrator 19.1.0, SVG Export Plug-In . SVG Version: 6.00 Build 0)  -->
<svg version="1.1" id="Layer_1" xmlns="http://www.w3.org/2000/svg" xmlns:xlink="http://www.w3.org/1999/xlink" x="0px" y="0px"
	 viewBox="0 0 512 512" width="512px" height="512px" enable-background="new 0 0 512 512" xml:space="preserve">
<g id="icomoon-ignore">
</g>
<path d="M359.32,179.49"/>
<path d="M284.5,423.167V364.5h84.667v53.237l87.414-36.153l-47.664-116.677c-13.604,20.455-29.265,36.528-40.416,42.926
	c0,27.333,0,27.333,0,27.333h-84V312.5c0,0-1.209-28.487,26.667-48c12.667-9.333,48.659-42.667,15.329-74.667
	c-7.996-6.667-36.324-20.667-58.827,24.667c-10.503,1.333-74.503,1.333-74.503,1.333s0.647-127.3,151.446-108.336l-32.025-78.395
	L69.6,120.597l143.993,361.482l142.445-58.912H284.5z"/>
</svg>
