<?xml version="1.0" encoding="utf-8"?>
<!-- Generator: Adobe Illustrator 16.0.0, SVG Export Plug-In . SVG Version: 6.00 Build 0)  -->
<!DOCTYPE svg PUBLIC "-//W3C//DTD SVG 1.1//EN" "http://www.w3.org/Graphics/SVG/1.1/DTD/svg11.dtd">
<svg version="1.1" id="Layer_1" xmlns="http://www.w3.org/2000/svg" xmlns:xlink="http://www.w3.org/1999/xlink" x="0px" y="0px"
	 width="50px" height="50px" viewBox="0 0 50 50" enable-background="new 0 0 50 50" xml:space="preserve">
<rect x="0" y="0" fill="transparent" width="50" height="50"/>
<g>
	<g>
		<g>
			<path fill="#ffffff" d="M36.961,5.168c-1.65-1.159-3.934-0.754-5.087,0.896c-1.16,1.653-0.761,3.936,0.896,5.089
				c1.654,1.159,3.936,0.757,5.09-0.895C39.02,8.601,38.615,6.325,36.961,5.168z"/>
			<circle fill="#ffffff" cx="26.771" cy="43.841" r="4.073"/>
			<path fill="#ffffff" d="M24.733,6.511L24.73,6.506l-6.35-4.441c-0.947-0.667-2.254-0.433-2.918,0.514
				c-0.659,0.944-0.436,2.245,0.505,2.909c0.003,0.003,0.005,0.008,0.009,0.008l3.717,2.6c0.003,0.003,0.005,0.006,0.005,0.006
				l6.351,4.449h0.008l-5.423,7.746l8.039,5.631l4.272-6.101v1.002v2.85l0,0c0,0.257,0.051,0.5,0.135,0.73l-3.359,4.798l0,0
				l-0.935,1.333c-0.517,0.737-0.337,1.753,0.399,2.267c0.738,0.52,1.752,0.34,2.271-0.396l0.934-1.335l0,0l1.625-2.321l1.885-2.694
				l0,0l0.666-0.948c0.179-0.189,0.32-0.41,0.416-0.651c0.201-0.442,0.203-1.118,0.152-1.58v-6.594c0-0.435-0.141-1.186-0.938-1.749
				c-0.793-0.556-8.1-5.672-8.1-5.672L24.733,6.511z"/>
			<path fill="#ffffff" d="M17.711,24.466l-6.237,8.907c-0.687,0.982-0.448,2.331,0.532,3.02c0.979,0.687,2.334,0.444,3.019-0.533
				l6.237-8.907l0.943,0.659L10.479,44.357c-0.687,0.981-0.448,2.332,0.531,3.019c0.98,0.687,2.332,0.448,3.019-0.534L25.754,30.1
				l2.123-3.033l-8.04-5.631L17.711,24.466z"/>
		</g>
	</g>
</g>
</svg>
