<svg enable-background="new 0 0 512 512" height="512" viewBox="0 0 512 512" width="512" xmlns="http://www.w3.org/2000/svg"><path d="m247.797 11.337h20.08c2.199.274 4.391.642 6.598.808 28.337 2.137 55.828 7.483 81.97 19.315 23.569 10.667 46.189 22.563 65.587 40.046 12.008 10.822 23.912 21.594 33.733 34.598 9.924 13.141 19.846 26.233 26.619 41.331 4.893 10.907 9.881 21.832 13.794 33.107 12.048 34.716 14.979 70.384 10.233 106.804-5.726 43.939-22.801 83.126-50.24 117.569-10.343 12.982-22.504 24.678-34.807 35.896-17.296 15.77-37.868 26.918-58.828 36.914-22.653 10.804-46.865 16.992-71.817 19.856-50.537 5.801-99.105-.498-144.92-23.797-20.042-10.192-39.254-21.454-55.784-36.991-12.597-11.84-25.525-23.341-34.953-38.012-7.962-12.39-16.191-24.684-23.095-37.663-12.281-23.087-19.441-47.947-22.663-73.906-.924-7.443-1.649-14.91-2.466-22.366 0-6.136 0-12.271 0-18.407.293-2.464.702-4.921.862-7.395 2.299-35.606 12.39-69.013 29.839-99.959 7.475-13.257 16.171-26.124 26.111-37.612 11.221-12.968 23.893-24.858 36.967-36.006 19.205-16.376 41.937-27.216 64.972-37.002 18.384-7.809 37.898-12.104 57.743-14.565 8.135-1.008 16.308-1.717 24.465-2.563zm-157.181 295.862c20.172.573 39.813 1.174 59.459 1.6 1.466.032 3.178-.916 4.403-1.881 8.287-6.529 16.399-13.28 24.709-19.779 13.398-10.477 26.858-20.878 40.412-31.151 2.459-1.864 3.151-3.536 2.419-6.605-5.461-22.905-10.671-45.87-16.15-68.771-.35-1.462-2.08-3.275-3.524-3.692-20.479-5.919-41.029-11.588-61.53-17.43-2.344-.668-3.852-.207-5.467 1.547-6.309 6.849-12.693 13.63-19.141 20.35-12.913 13.458-25.944 26.804-38.741 40.37-1.243 1.318-1.932 3.974-1.63 5.803 1.881 11.407 4.109 22.757 6.237 34.124 2.819 15.054 5.651 30.106 8.544 45.515zm77.384 11.955c10.338 21.174 20.485 42.053 30.802 62.846.592 1.193 2.473 2.133 3.918 2.456 10.334 2.31 20.729 4.347 31.069 6.628 17.771 3.922 35.551 7.815 53.254 12.032 5.485 1.307 8.938 1.431 12.858-4.306 11.379-16.652 23.881-32.541 36.104-48.605 1.735-2.28 1.591-4.005.582-6.385-7.227-17.047-14.459-34.093-21.38-51.265-1.325-3.287-2.821-5.061-6.384-5.96-22.963-5.794-45.87-11.814-68.758-17.901-2.567-.683-4.402-.384-6.507 1.217-16.941 12.883-33.956 25.669-50.965 38.462-4.673 3.515-9.405 6.952-14.593 10.781zm51.1-159.218c.718-.273 1.774-.59 2.757-1.06 17.794-8.51 35.594-17.008 53.332-25.632 1.176-.572 2.39-2.005 2.708-3.26 4.319-17.013 8.521-34.057 12.599-51.129.278-1.164-.264-3.025-1.113-3.869-3.53-3.51-7.218-6.881-11.042-10.072-12.202-10.182-24.434-20.331-36.823-30.283-1.435-1.152-4.106-1.738-5.905-1.316-23.057 5.415-46.073 11.008-69.051 16.748-1.908.477-4.009 1.985-5.104 3.625-8.421 12.616-16.655 25.357-24.815 38.143-.795 1.246-1.254 3.185-.934 4.59 3.092 13.58 6.36 27.121 9.666 40.651.265 1.085.954 2.507 1.841 2.917 2.856 1.32 5.838 2.46 8.877 3.278 19.91 5.358 39.848 10.613 59.778 15.897.943.251 1.898.455 3.229.772zm137.645 31.961c1.424-.237 2.11-.361 2.799-.464 16.267-2.43 32.488-5.259 48.822-7.097 6.92-.779 9.892-3.058 11.546-10.155 4.583-19.658 10.369-39.034 15.532-58.561.381-1.44.154-3.708-.759-4.699-2.892-3.139-6.15-5.965-9.432-8.716-17.814-14.929-35.7-29.773-53.489-44.731-1.841-1.548-3.351-1.859-5.582-.918-10.214 4.31-20.468 8.53-30.763 12.642-8.021 3.203-16.093 6.286-24.209 9.237-2.54.923-3.676 2.331-4.111 5.022-2.07 12.792-3.93 25.642-6.723 38.283-1.672 7.567-1.673 13.793 5.479 18.424 1.081.7 1.565 2.256 2.518 3.228 15.296 15.614 30.616 31.204 45.961 46.769.806.82 1.889 1.367 2.411 1.736zm54.989 149.144c.437-.37 1.888-1.112 2.615-2.298 2.753-4.494 5.197-9.176 7.89-13.708 11.089-18.659 22.065-37.389 33.452-55.865 3.256-5.284 6.058-9.871.804-15.327-.624-.648-.687-1.801-1.169-2.627-9.174-15.74-18.416-31.441-27.514-47.225-1.264-2.193-2.51-2.668-4.975-2.205-15.052 2.827-30.099 5.742-45.241 8.004-6.566.981-10.418 3.341-13.475 9.78-9.899 20.851-20.839 41.207-31.291 61.799-.611 1.204-1.028 3.038-.558 4.177 6.563 15.936 13.257 31.819 20.069 47.65.482 1.12 2.066 2.376 3.245 2.495 18.292 1.849 36.601 3.521 56.148 5.35zm-151.676 145.671c.026.411.052.823.078 1.234 17.472-1.535 34.949-3.013 52.404-4.719 1.361-.133 3.193-1.609 3.732-2.907 2.026-4.872 3.786-9.878 5.25-14.948.458-1.586.227-3.879-.634-5.259-8.256-13.223-16.782-26.277-25.057-39.489-1.539-2.457-3.305-3.701-6.142-4.217-31.477-5.732-62.942-11.53-94.381-17.465-3.011-.568-5.101.286-7.155 2.137-2.145 1.933-4.212 3.974-6.498 5.726-10.731 8.226-21.487 16.42-32.329 24.497-2.105 1.568-3.128 3.129-2.89 5.868.494 5.69.425 11.434 1.033 17.108.186 1.737 1.434 3.864 2.859 4.884 12.017 8.602 25.89 13.375 39.655 18.091 22.66 7.763 46.163 10.342 70.075 9.459zm-239.588-264.77c-3.742 21-4.003 41.645-.558 62.287 3.586 21.487 9.196 42.408 18.898 62.025 1.571 3.176 3.889 6.157 6.443 8.627 3.333 3.224 6.068 2.536 8.268-1.502 5.854-10.747 11.396-21.674 17.593-32.218 2.893-4.921 3.393-9.331 2.027-14.861-5.644-22.832-10.773-45.792-16.201-68.678-.405-1.706-1.324-4.206-2.592-4.647-11.141-3.871-22.416-7.359-33.878-11.033zm472.382 32.837c-4.158 2.26-7.696 4.42-11.433 6.149-3.719 1.72-6.209 4.348-8.179 7.912-5.314 9.613-10.865 19.097-16.375 28.601-9.004 15.529-18 31.063-27.134 46.515-1.354 2.29-1.329 3.749.453 5.794 4.741 5.44 9.17 11.15 13.803 16.686 3.739 4.468 7.594 8.84 12.161 14.141 27.984-37.663 36.963-79.946 36.704-125.798zm-405.125-151.982c6.443-1.666 12.802-4.116 19.348-4.818 10.33-1.106 15.28-6.19 16.156-16.423.429-5.015 2.269-9.91 3.516-15.047-17.464 7.675-29.923 20.064-39.02 36.288z"/></svg>