<?xml version="1.0" encoding="UTF-8" standalone="no"?>
<!DOCTYPE svg PUBLIC "-//W3C//DTD SVG 20010904//EN"
              "http://www.w3.org/TR/2001/REC-SVG-20010904/DTD/svg10.dtd">

<svg xmlns="http://www.w3.org/2000/svg"
     width="7.11in" height="7.11in"
     viewBox="0 0 711 711">
  <path id="Selection"
        fill="black" 
        d="M 621.00,221.00
           C 621.00,223.48 620.79,226.62 622.02,228.83
             623.36,231.25 627.73,234.37 630.00,236.12
             630.00,236.12 645.00,247.88 645.00,247.88
             665.53,263.68 688.16,276.26 689.26,305.00
             689.50,311.39 688.75,319.14 686.10,325.00
             678.78,341.14 658.09,350.23 641.00,347.56
             624.98,345.06 619.24,338.81 607.00,329.21
             607.00,329.21 428.00,190.35 428.00,190.35
             428.00,190.35 382.00,154.65 382.00,154.65
             374.65,148.96 366.77,141.47 357.00,141.04
             346.02,140.56 339.21,147.44 331.00,153.63
             331.00,153.63 284.00,190.00 284.00,190.00
             284.00,190.00 129.00,309.88 129.00,309.88
             129.00,309.88 101.00,331.42 101.00,331.42
             88.66,341.03 76.53,350.80 60.00,351.00
             53.25,351.08 48.43,351.15 42.00,348.53
             35.21,345.75 28.63,339.95 24.44,334.00
             10.94,314.86 14.29,293.07 29.29,276.00
             34.75,269.79 47.90,260.58 55.00,255.00
             55.00,255.00 107.00,214.58 107.00,214.58
             107.00,214.58 269.00,88.79 269.00,88.79
             269.00,88.79 329.00,42.21 329.00,42.21
             334.77,37.69 348.21,25.54 355.00,25.12
             361.26,24.74 366.33,30.03 371.00,33.65
             371.00,33.65 403.00,58.65 403.00,58.65
             403.00,58.65 491.00,127.42 491.00,127.42
             491.00,127.42 532.00,159.00 532.00,159.00
             532.00,159.00 532.00,113.00 532.00,113.00
             532.00,113.00 533.00,95.00 533.00,95.00
             533.00,95.00 621.00,95.00 621.00,95.00
             621.00,95.00 621.00,221.00 621.00,221.00 Z
           M 89.00,408.00
           C 89.00,406.07 88.88,402.92 89.60,401.17
             90.98,397.82 100.70,391.35 104.00,388.87
             104.00,388.87 148.00,355.87 148.00,355.87
             148.00,355.87 293.00,247.13 293.00,247.13
             293.00,247.13 335.00,215.63 335.00,215.63
             338.11,213.30 351.46,202.80 354.00,202.07
             357.43,201.10 360.45,203.98 363.00,205.87
             363.00,205.87 383.00,220.87 383.00,220.87
             383.00,220.87 466.00,283.13 466.00,283.13
             466.00,283.13 585.00,372.37 585.00,372.37
             585.00,372.37 609.00,390.37 609.00,390.37
             618.25,397.31 621.98,397.34 622.00,408.00
             622.00,408.00 622.00,666.00 622.00,666.00
             622.00,666.00 445.00,666.00 445.00,666.00
             445.00,666.00 445.00,529.00 445.00,529.00
             445.00,529.00 445.00,498.00 445.00,498.00
             445.00,498.00 443.40,489.60 443.40,489.60
             443.40,489.60 435.00,488.00 435.00,488.00
             435.00,488.00 305.00,488.00 305.00,488.00
             305.00,488.00 276.00,488.00 276.00,488.00
             276.00,488.00 267.60,489.60 267.60,489.60
             267.60,489.60 266.00,498.00 266.00,498.00
             266.00,498.00 266.00,666.00 266.00,666.00
             266.00,666.00 89.00,666.00 89.00,666.00
             89.00,666.00 89.00,408.00 89.00,408.00 Z" />
</svg>
