<svg height="7.11in" viewBox="0 0 711 711" width="7.11in" xmlns="http://www.w3.org/2000/svg"><path d="m621 221c0 2.48-.21 5.62 1.02 7.83 1.34 2.42 5.71 5.54 7.98 7.29 0 0 15 11.76 15 11.76 20.53 15.8 43.16 28.38 44.26 57.12.24 6.39-.51 14.14-3.16 20-7.32 16.14-28.01 25.23-45.1 22.56-16.02-2.5-21.76-8.75-34-18.35 0 0-179-138.86-179-138.86s-46-35.7-46-35.7c-7.35-5.69-15.23-13.18-25-13.61-10.98-.48-17.79 6.4-26 12.59 0 0-47 36.37-47 36.37s-155 119.88-155 119.88-28 21.54-28 21.54c-12.34 9.61-24.47 19.38-41 19.58-6.75.08-11.57.15-18-2.47-6.79-2.78-13.37-8.58-17.56-14.53-13.5-19.14-10.15-40.93 4.85-58 5.46-6.21 18.61-15.42 25.71-21 0 0 52-40.42 52-40.42s162-125.79 162-125.79 60-46.58 60-46.58c5.77-4.52 19.21-16.67 26-17.09 6.26-.38 11.33 4.91 16 8.53 0 0 32 25 32 25s88 68.77 88 68.77 41 31.58 41 31.58v-46s1-18 1-18h88zm-532 187c0-1.93-.12-5.08.6-6.83 1.38-3.35 11.1-9.82 14.4-12.3 0 0 44-33 44-33s145-108.74 145-108.74 42-31.5 42-31.5c3.11-2.33 16.46-12.83 19-13.56 3.43-.97 6.45 1.91 9 3.8 0 0 20 15 20 15s83 62.26 83 62.26 119 89.24 119 89.24 24 18 24 18c9.25 6.94 12.98 6.97 13 17.63v258h-177v-137-31s-1.6-8.4-1.6-8.4-8.4-1.6-8.4-1.6h-130-29s-8.4 1.6-8.4 1.6-1.6 8.4-1.6 8.4v168h-177z"/></svg>