<svg height="5.68889in" viewBox="0 0 512 512" width="5.68889in" xmlns="http://www.w3.org/2000/svg"><path d="m476 38v436h-309v-436zm-327 70v50 173 46c0 5.92 1.21 15.04-2 20 0 0-10.88-46-10.88-46s-20-84-20-84-20-84-20-84-14.12-59-14.12-59 65-37 65-37c3.27 5.05 2 14.93 2 21zm139 16.53c-23.1 17.88-17.81 52.36 7 65.68 6.66 3.57 14.44 5.49 22 4.5 26.99-3.51 43.56-32.07 31.24-56.71-2.2-4.39-4.68-8.35-8.33-11.7-10.56-9.72-21.33-10.35-34.91-9-6.39 1.21-11.8 3.2-17 7.23zm-223 64.47s11.28 36 11.28 36 28.74 94 28.74 94 15.98 53 15.98 53c-6.87-3.74-16.23-18.32-21.42-25 0 0-47.21-62-47.21-62s-14.93-20-14.93-20c-1.82-2.6-4.78-6.77-4.84-10-.06-3.01 6.48-16.4 8.18-20 0 0 22.22-46 22.22-46zm296 179.72c-2.4 1.34-5.94 3.82-8.69 2.17-2.74-1.65-2.3-6.14-2.31-8.89v-111c-.01-7.19-.96-16.92-5.11-22.96-8.56-12.47-30.03-11.72-42.89-7.69-21.98 6.89-39.82 24.97-45 47.65 0 0 31-16 31-16v128c.01 4.55-.02 7.6 1.55 12 6.41 18.02 25.49 18.79 41.45 15.33 22.95-4.98 43.77-25.43 49-48.33-5.78 1.69-13.53 6.65-19 9.72z"/></svg>