<svg height="5.68889in" viewBox="0 0 512 512" width="5.68889in" xmlns="http://www.w3.org/2000/svg"><path d="m212 24.85c25.8 1.27 51.51 6.66 76 14.82 102.54 34.15 180.52 124.69 198.41 231.33 0 0 3.68 33 3.68 33s.91 10 .91 10c.05 4.75.71 12.02-2.51 15.77-3.96 4.64-12.31 4.26-15.75-.83-1.87-2.76-1.72-5.77-1.74-8.94v-4s-.91-10-.91-10c-1.18-17.11-3.55-33.33-7.72-50-26.04-104.17-111.06-185.34-216.37-206.4-12.01-2.4-23.81-3.85-36-4.69 0 0-10-.91-10-.91-3.62-.04-9.85.48-12.96-1.17-6.78-3.62-7.06-13.66.98-17.98 7.88-2.03 16.05-.25 23.98 0zm3 58.88s33 5.06 33 5.06c69.17 14.92 128.32 63.35 159.75 126.21 11.99 23.98 23.81 61.12 24.25 88 .13 8.05 4.71 25.61-6.02 28.57-5.82 1.61-11.65-1.5-12.75-7.57 0 0-2.51-31-2.51-31-2.79-20.73-8.5-39.81-16.72-59-24.43-57-74.56-100.87-133-120.33-15.27-5.09-38.99-10.48-55-10.67-4.5-.05-13.19.6-16.97-1.31-7.97-4.03-7.41-13.67 0-17.96 6.15-1.5 19.47-.79 25.97 0zm12 59.39c56.06 12.92 105.62 52 130.74 103.88 9.6 19.82 18.74 49.94 19.26 72 .17 7.42 4.08 21.75-6.02 24.57-4.97 1.39-10.8-.33-12.47-5.61 0 0-1.93-22.96-1.93-22.96-2.49-18.19-6.19-34.2-13.89-51-23.34-50.97-65.15-87.18-119.69-100.87-8.98-2.26-23.89-5.02-33-5.13-4.78-.05-10.68.61-14.79-2.23-6.61-4.56-4.98-13.29 1.81-17.03 11.6-2.83 37.93 1.6 49.98 4.38zm-5 54.55c17.45 5.81 32.99 14.31 47 26.33 53.1 45.59 66.33 122.28 31.57 183-8.22 14.37-19.04 26.96-31.57 37.72-12.67 10.87-27.35 19.22-43 24.96-11.29 4.14-23.01 7.01-35 8.28h-9c-3.15.34-4.69.97-8 .72 0 0-29-3.13-29-3.13-21.95-4.41-46.13-16.19-63-30.84-20.47-17.77-35.07-38.97-43.65-64.71-18.96-56.95.63-123.65 48.65-160.1 17.99-13.66 39.64-23.71 62-27.47 0 0 17-2.01 17-2.01 16.49-2 40.24 2 56 7.25zm29 38.13c-15.38-12.14-34.72-20.33-54-23.72-4.22-.74-19.56-2.79-22.96-1.48-2.81 1.08-5.11 4.18-7.09 6.4-4.83 5.4-9.31 11.1-13.52 17-16.98 23.76-36.25 61.07-21.43 90 0 0 37-24.95 37-24.95 24.95-15.83 68.44-39.49 96-49.05-2.95-6.24-8.69-10-14-14.2zm-157 4.95c-4.54 3.8-14.36 12.77-16.12 18.25-.8 1.92.09 12.78 0 16 .34 17.97 5.76 37.83 13.44 54 0 0 10.68 19 10.68 19 3.42-2 16.39-11.66 17.19-15.09.55-2.33-3.27-10.94-4.15-13.91-2.47-8.31-2.05-12.6-2.04-21 .03-21.18 12.5-46.64 24-64 0 0 15-21 15-21-20.01 1.68-42.91 15.13-58 27.75zm150 32.94c-24.4 11.17-48.62 24.13-71 38.98-8.21 5.45-26.28 16.47-32 23.33 14.63 13.4 32.93 19.19 52 23 26.45 5.29 53.13 6.04 80 6 0 0 23-1 23-1 5.17-25.72 4.49-51.38-5.45-76-3.91-9.67-9.49-17.99-14.55-27-8.2 1.29-23.91 8.99-32 12.69zm-191.21 44.31c-.68 3.25-1.55 11.76 0 14.47 0 0 14.21 10.42 14.21 10.42s16.42 15.95 16.42 15.95c2.21 2.03 4.87 3.16 6.85 0 1.53-2.46-.01-4.72-1.29-6.84 0 0-8.22-14-8.22-14-9.15-17.99-15.74-38.66-15.76-59-6.55 9.04-10.82 27.85-12.21 39zm58.21 41c5.19 8.18 15.05 18.05 22 25 16.8 16.79 35.69 31.78 55 45.58 0 0 19 13.28 19 13.28 2.6 1.85 8.04 5.93 11 6.54 5.22 1.08 19.29-7.29 24-10.21 19.12-11.86 43.75-38.83 49-61.19 0 0-35 1-35 1s-15-1-15-1c-16.33-.03-34.96-2.37-51-5.6-22.14-4.46-43.68-12.23-60-28.4 0 0-19 15-19 15zm-56.35 3c2.37 10.34 4.49 15.34 8.35 25 2.67-2.2 11.7-10.97 12.09-14 .36-2.73-2.71-6.07-4.38-8-5.09-5.9-10.47-10.41-16.71-15-1.56 4.07-.3 7.86.65 12zm41.58 13c-.21 2.47 3.76 9.49 5.02 12 3.97 7.96 6.83 15.46 9.33 24 0 0 5.22 22 5.22 22 .57 2.87 1.09 8.51 2.8 10.61 2.7 3.32 14.05 7.29 18.4 8.72 18.55 6.1 29 5.89 48 5.67 4.92-.06 11.61-.76 16-3-25.29-16.86-49.74-35.35-72-56.09 0 0-28-29.91-28-29.91-2.09 1.57-4.52 3.1-4.77 6zm-24.36 25c-.48 3.15 3.43 7.59 5.26 10 5.84 7.68 16.85 18.63 24.87 24-3.17-16.85-8.49-34.05-17-49-3.52 2.52-12.48 10.7-13.13 15z"/></svg>