<?xml version="1.0" encoding="UTF-8" standalone="no"?>
<!DOCTYPE svg PUBLIC "-//W3C//DTD SVG 20010904//EN"
              "http://www.w3.org/TR/2001/REC-SVG-20010904/DTD/svg10.dtd">

<svg xmlns="http://www.w3.org/2000/svg"
     width="5.68889in" height="5.68889in"
     viewBox="0 0 512 512">
  <path id="Selection"
        fill="black"
        d="M 212.00,24.85
           C 237.80,26.12 263.51,31.51 288.00,39.67
             390.54,73.82 468.52,164.36 486.41,271.00
             486.41,271.00 490.09,304.00 490.09,304.00
             490.09,304.00 491.00,314.00 491.00,314.00
             491.05,318.75 491.71,326.02 488.49,329.77
             484.53,334.41 476.18,334.03 472.74,328.94
             470.87,326.18 471.02,323.17 471.00,320.00
             471.00,320.00 471.00,316.00 471.00,316.00
             471.00,316.00 470.09,306.00 470.09,306.00
             468.91,288.89 466.54,272.67 462.37,256.00
             436.33,151.83 351.31,70.66 246.00,49.60
             233.99,47.20 222.19,45.75 210.00,44.91
             210.00,44.91 200.00,44.00 200.00,44.00
             196.38,43.96 190.15,44.48 187.04,42.83
             180.26,39.21 179.98,29.17 188.02,24.85
             195.90,22.82 204.07,24.60 212.00,24.85 Z
           M 215.00,83.73
           C 215.00,83.73 248.00,88.79 248.00,88.79
             317.17,103.71 376.32,152.14 407.75,215.00
             419.74,238.98 431.56,276.12 432.00,303.00
             432.13,311.05 436.71,328.61 425.98,331.57
             420.16,333.18 414.33,330.07 413.23,324.00
             413.23,324.00 410.72,293.00 410.72,293.00
             407.93,272.27 402.22,253.19 394.00,234.00
             369.57,177.00 319.44,133.13 261.00,113.67
             245.73,108.58 222.01,103.19 206.00,103.00
             201.50,102.95 192.81,103.60 189.03,101.69
             181.06,97.66 181.62,88.02 189.03,83.73
             195.18,82.23 208.50,82.94 215.00,83.73 Z
           M 227.00,143.12
           C 283.06,156.04 332.62,195.12 357.74,247.00
             367.34,266.82 376.48,296.94 377.00,319.00
             377.17,326.42 381.08,340.75 370.98,343.57
             366.01,344.96 360.18,343.24 358.51,337.96
             358.51,337.96 356.58,315.00 356.58,315.00
             354.09,296.81 350.39,280.80 342.69,264.00
             319.35,213.03 277.54,176.82 223.00,163.13
             214.02,160.87 199.11,158.11 190.00,158.00
             185.22,157.95 179.32,158.61 175.21,155.77
             168.60,151.21 170.23,142.48 177.02,138.74
             188.62,135.91 214.95,140.34 227.00,143.12 Z
           M 222.00,197.67
           C 239.45,203.48 254.99,211.98 269.00,224.00
             322.10,269.59 335.33,346.28 300.57,407.00
             292.35,421.37 281.53,433.96 269.00,444.72
             256.33,455.59 241.65,463.94 226.00,469.68
             214.71,473.82 202.99,476.69 191.00,477.96
             191.00,477.96 182.00,477.96 182.00,477.96
             178.85,478.30 177.31,478.93 174.00,478.68
             174.00,478.68 145.00,475.55 145.00,475.55
             123.05,471.14 98.87,459.36 82.00,444.71
             61.53,426.94 46.93,405.74 38.35,380.00
             19.39,323.05 38.98,256.35 87.00,219.90
             104.99,206.24 126.64,196.19 149.00,192.43
             149.00,192.43 166.00,190.42 166.00,190.42
             182.49,188.42 206.24,192.42 222.00,197.67 Z
           M 251.00,235.80
           C 235.62,223.66 216.28,215.47 197.00,212.08
             192.78,211.34 177.44,209.29 174.04,210.60
             171.23,211.68 168.93,214.78 166.95,217.00
             162.12,222.40 157.64,228.10 153.43,234.00
             136.45,257.76 117.18,295.07 132.00,324.00
             132.00,324.00 169.00,299.05 169.00,299.05
             193.95,283.22 237.44,259.56 265.00,250.00
             262.05,243.76 256.31,240.00 251.00,235.80 Z
           M 94.00,240.75
           C 89.46,244.55 79.64,253.52 77.88,259.00
             77.08,260.92 77.97,271.78 77.88,275.00
             78.22,292.97 83.64,312.83 91.32,329.00
             91.32,329.00 102.00,348.00 102.00,348.00
             105.42,346.00 118.39,336.34 119.19,332.91
             119.74,330.58 115.92,321.97 115.04,319.00
             112.57,310.69 112.99,306.40 113.00,298.00
             113.03,276.82 125.50,251.36 137.00,234.00
             137.00,234.00 152.00,213.00 152.00,213.00
             131.99,214.68 109.09,228.13 94.00,240.75 Z
           M 244.00,273.69
           C 219.60,284.86 195.38,297.82 173.00,312.67
             164.79,318.12 146.72,329.14 141.00,336.00
             155.63,349.40 173.93,355.19 193.00,359.00
             219.45,364.29 246.13,365.04 273.00,365.00
             273.00,365.00 296.00,364.00 296.00,364.00
             301.17,338.28 300.49,312.62 290.55,288.00
             286.64,278.33 281.06,270.01 276.00,261.00
             267.80,262.29 252.09,269.99 244.00,273.69 Z
           M 52.79,318.00
           C 52.11,321.25 51.24,329.76 52.79,332.47
             52.79,332.47 67.00,342.89 67.00,342.89
             67.00,342.89 83.42,358.84 83.42,358.84
             85.63,360.87 88.29,362.00 90.27,358.84
             91.80,356.38 90.26,354.12 88.98,352.00
             88.98,352.00 80.76,338.00 80.76,338.00
             71.61,320.01 65.02,299.34 65.00,279.00
             58.45,288.04 54.18,306.85 52.79,318.00 Z
           M 111.00,359.00
           C 116.19,367.18 126.05,377.05 133.00,384.00
             149.80,400.79 168.69,415.78 188.00,429.58
             188.00,429.58 207.00,442.86 207.00,442.86
             209.60,444.71 215.04,448.79 218.00,449.40
             223.22,450.48 237.29,442.11 242.00,439.19
             261.12,427.33 285.75,400.36 291.00,378.00
             291.00,378.00 256.00,379.00 256.00,379.00
             256.00,379.00 241.00,378.00 241.00,378.00
             224.67,377.97 206.04,375.63 190.00,372.40
             167.86,367.94 146.32,360.17 130.00,344.00
             130.00,344.00 111.00,359.00 111.00,359.00 Z
           M 54.65,362.00
           C 57.02,372.34 59.14,377.34 63.00,387.00
             65.67,384.80 74.70,376.03 75.09,373.00
             75.45,370.27 72.38,366.93 70.71,365.00
             65.62,359.10 60.24,354.59 54.00,350.00
             52.44,354.07 53.70,357.86 54.65,362.00 Z
           M 96.23,375.00
           C 96.02,377.47 99.99,384.49 101.25,387.00
             105.22,394.96 108.08,402.46 110.58,411.00
             110.58,411.00 115.80,433.00 115.80,433.00
             116.37,435.87 116.89,441.51 118.60,443.61
             121.30,446.93 132.65,450.90 137.00,452.33
             155.55,458.43 166.00,458.22 185.00,458.00
             189.92,457.94 196.61,457.24 201.00,455.00
             175.71,438.14 151.26,419.65 129.00,398.91
             129.00,398.91 101.00,369.00 101.00,369.00
             98.91,370.57 96.48,372.10 96.23,375.00 Z
           M 71.87,400.00
           C 71.39,403.15 75.30,407.59 77.13,410.00
             82.97,417.68 93.98,428.63 102.00,434.00
             98.83,417.15 93.51,399.95 85.00,385.00
             81.48,387.52 72.52,395.70 71.87,400.00 Z" />
</svg>
