<?xml version="1.0" encoding="UTF-8" standalone="no"?>
<!DOCTYPE svg PUBLIC "-//W3C//DTD SVG 20010904//EN"
              "http://www.w3.org/TR/2001/REC-SVG-20010904/DTD/svg10.dtd">

<svg xmlns="http://www.w3.org/2000/svg"
     width="7.11in" height="7.11in"
     viewBox="0 0 711 711">
  <path id="Selection"
        fill="black" 
        d="M 139.00,387.58
           C 110.97,377.00 87.51,360.93 67.09,339.00
             32.38,301.74 16.42,252.25 17.00,202.00
             17.00,202.00 17.91,192.00 17.91,192.00
             19.74,166.92 26.52,143.47 37.75,121.00
             62.26,71.98 105.80,36.49 159.00,23.13
             168.69,20.69 183.10,18.12 193.00,18.00
             222.19,17.66 243.42,19.50 271.00,30.45
             345.14,59.87 390.92,133.11 390.00,212.00
             389.88,222.04 387.08,245.66 384.00,255.00
             384.00,255.00 410.00,246.02 410.00,246.02
             423.86,241.73 447.60,237.17 462.00,237.00
             462.00,237.00 482.00,237.00 482.00,237.00
             510.28,237.04 545.66,246.91 571.00,259.26
             593.47,270.21 613.40,285.40 631.00,303.00
             712.92,384.92 719.50,519.16 648.34,610.00
             625.43,639.24 600.03,658.35 567.00,674.75
             546.11,685.12 509.32,694.96 486.00,695.00
             486.00,695.00 461.00,695.00 461.00,695.00
             449.60,694.98 433.15,692.15 422.00,689.37
             380.79,679.12 350.29,661.47 319.00,632.83
             319.00,632.83 296.00,607.00 296.00,607.00
             291.59,616.89 284.00,627.68 277.08,636.00
             230.36,692.18 146.56,702.10 88.00,658.52
             35.77,619.65 16.81,550.65 39.05,490.00
             45.85,471.48 59.44,449.65 74.04,436.42
             92.31,419.87 113.72,406.86 138.00,401.42
             138.00,401.42 158.00,398.09 158.00,398.09
             163.81,397.69 167.09,398.68 173.00,397.00
             173.00,397.00 139.00,387.58 139.00,387.58 Z
           M 240.00,41.42
           C 240.00,41.42 220.00,38.00 220.00,38.00
             220.00,38.00 211.00,38.00 211.00,38.00
             207.13,37.65 205.29,36.85 201.00,37.09
             161.04,39.36 126.81,50.75 96.00,77.13
             85.97,85.72 85.72,85.94 77.13,96.00
             75.22,98.24 71.70,101.92 71.73,105.00
             71.75,107.47 74.31,110.96 75.67,113.00
             80.07,119.58 85.49,126.34 91.01,132.00
             95.74,136.85 102.01,144.17 108.00,147.00
             122.64,120.93 153.77,91.03 179.00,75.05
             179.00,75.05 202.00,62.74 202.00,62.74
             215.00,56.42 239.70,47.66 254.00,47.00
             250.99,43.06 244.63,42.45 240.00,41.42 Z
           M 268.00,53.92
           C 256.87,54.66 243.73,57.21 233.00,60.29
             195.07,71.18 162.87,92.44 136.85,122.00
             130.30,129.43 116.93,144.53 115.00,154.00
             115.00,154.00 121.00,157.00 121.00,157.00
             132.25,140.13 143.06,126.01 158.00,112.09
             193.21,79.29 237.90,61.00 286.00,61.00
             282.28,55.21 274.39,53.49 268.00,53.92 Z
           M 301.00,70.21
           C 301.00,70.21 277.00,70.21 277.00,70.21
             266.80,70.02 253.93,72.16 244.00,74.63
             208.71,83.41 182.65,99.35 157.00,125.00
             146.84,135.16 133.88,149.84 128.00,163.00
             144.29,170.84 150.63,175.33 169.00,180.57
             183.78,184.79 193.34,185.07 208.00,187.00
             213.14,177.84 221.00,167.98 227.87,160.00
             256.50,126.74 284.67,108.04 325.00,92.00
             321.59,86.17 307.42,72.15 301.00,70.21 Z
           M 335.82,105.69
           C 333.21,104.84 328.50,106.85 326.00,107.81
             326.00,107.81 304.00,117.75 304.00,117.75
             277.69,130.94 254.74,150.37 236.08,173.00
             232.67,177.14 221.17,191.38 220.60,196.00
             220.26,198.79 221.97,202.41 223.00,205.00
             223.00,205.00 225.00,205.00 225.00,205.00
             230.12,195.88 239.95,184.04 246.87,176.00
             268.28,151.14 294.92,130.75 326.00,119.69
             326.00,119.69 343.00,115.00 343.00,115.00
             341.60,112.13 339.03,106.74 335.82,105.69 Z
           M 62.28,139.00
           C 68.14,146.03 74.39,152.64 81.00,158.96
             101.50,178.56 130.90,196.35 158.00,204.97
             170.40,208.92 180.36,210.70 193.00,213.00
             193.00,213.00 196.00,205.00 196.00,205.00
             196.00,205.00 186.00,203.39 186.00,203.39
             176.47,201.70 166.13,199.49 157.00,196.31
             116.23,182.10 84.92,157.09 60.00,122.00
             53.08,128.95 57.01,132.66 62.28,139.00 Z
           M 327.00,293.17
           C 331.79,288.85 339.73,282.43 345.00,278.72
             349.08,275.85 358.16,270.81 360.44,266.82
             362.59,263.07 366.02,248.79 367.00,244.00
             368.92,234.55 369.44,225.55 370.09,216.00
             370.09,216.00 370.92,208.00 370.92,208.00
             370.92,208.00 370.09,200.00 370.09,200.00
             370.09,200.00 367.92,178.00 367.92,178.00
             365.98,166.49 362.70,154.85 358.40,144.00
             357.21,141.00 354.57,133.55 352.36,131.60
             348.98,128.60 341.93,131.14 338.00,132.13
             327.06,134.88 315.79,139.82 306.00,145.43
             303.35,146.94 296.64,150.49 295.67,153.32
             294.82,155.79 297.78,164.14 298.58,167.00
             298.58,167.00 306.20,199.00 306.20,199.00
             312.81,233.27 315.00,268.19 315.00,303.00
             320.53,300.38 322.58,297.16 327.00,293.17 Z
           M 190.00,231.13
           C 151.33,225.76 116.92,210.51 86.00,186.77
             75.33,178.57 69.36,172.37 60.00,163.00
             55.75,158.74 51.24,152.53 46.00,150.00
             43.25,158.42 40.77,167.27 39.25,176.00
             38.69,179.21 37.60,183.91 38.56,187.00
             39.97,191.50 46.60,197.60 50.00,201.00
             50.00,201.00 76.00,225.25 76.00,225.25
             106.70,250.96 142.92,275.11 183.00,282.39
             194.85,284.54 203.17,284.00 215.00,284.00
             215.00,265.92 212.32,250.64 209.00,233.00
             209.00,233.00 190.00,231.13 190.00,231.13 Z
           M 280.35,165.04
           C 279.39,167.78 281.76,173.20 282.66,176.00
             282.66,176.00 289.12,199.00 289.12,199.00
             298.41,238.13 302.00,277.90 302.00,318.00
             306.53,313.88 305.99,311.79 306.00,306.00
             306.00,306.00 306.00,279.00 306.00,279.00
             306.00,279.00 305.00,264.00 305.00,264.00
             304.82,248.36 302.50,232.48 300.27,217.00
             297.97,201.05 292.52,173.77 287.00,159.00
             284.51,160.46 281.37,162.13 280.35,165.04 Z
           M 238.33,211.00
           C 236.06,214.41 230.10,222.29 229.71,226.00
             229.71,226.00 232.75,243.00 232.75,243.00
             232.75,243.00 236.09,271.00 236.09,271.00
             236.09,271.00 237.00,281.00 237.00,281.00
             237.28,304.96 235.14,326.46 230.74,350.00
             230.74,350.00 224.00,378.00 224.00,378.00
             235.11,377.49 247.49,373.87 258.00,370.33
             262.07,368.96 269.65,366.54 272.61,363.61
             272.61,363.61 283.68,345.00 283.68,345.00
             289.58,335.55 292.98,334.36 293.00,323.00
             293.00,323.00 293.00,295.00 293.00,295.00
             293.00,295.00 292.00,283.00 292.00,283.00
             292.00,283.00 292.00,275.00 292.00,275.00
             290.56,255.28 287.68,235.39 283.80,216.00
             281.57,204.85 276.32,181.86 272.00,172.00
             261.70,179.38 245.64,200.06 238.33,211.00 Z
           M 41.02,214.00
           C 41.02,214.00 67.00,239.58 67.00,239.58
             96.91,265.50 133.98,293.07 173.00,302.87
             183.42,305.49 194.21,307.87 205.00,308.00
             207.43,308.02 212.35,308.46 213.98,306.40
             215.50,304.48 215.00,295.77 215.00,293.00
             215.00,293.00 207.00,293.66 207.00,293.66
             207.00,293.66 200.00,293.04 200.00,293.04
             155.20,291.09 114.21,266.72 80.00,239.40
             67.27,229.23 48.15,212.37 38.00,200.00
             33.92,205.54 36.86,209.65 41.02,214.00 Z
           M 38.92,239.00
           C 41.30,253.39 46.32,269.92 52.76,283.00
             61.39,300.56 72.30,316.97 86.04,330.99
             111.54,357.00 156.06,378.94 193.00,379.00
             193.00,379.00 201.00,379.00 201.00,379.00
             201.00,379.00 207.58,355.00 207.58,355.00
             207.58,355.00 214.00,317.00 214.00,317.00
             143.27,317.00 85.57,270.57 38.00,223.00
             36.30,227.44 38.14,234.29 38.92,239.00 Z
           M 454.00,270.17
           C 446.01,270.93 437.79,272.45 430.00,274.37
             426.67,275.20 419.91,276.49 417.50,278.70
             415.16,280.84 411.34,289.90 412.05,293.00
             412.53,295.10 415.38,299.10 416.67,301.00
             420.71,306.97 428.23,316.34 434.00,320.43
             440.16,324.80 447.00,320.42 454.00,319.00
             463.37,317.11 473.79,317.70 483.00,320.15
             486.49,321.09 498.95,326.50 501.00,326.13
             504.31,325.53 508.61,319.62 510.74,317.00
             516.39,310.05 523.43,298.67 525.78,290.00
             526.78,286.29 526.47,279.62 523.44,276.84
             521.00,274.60 512.48,273.26 509.00,272.61
             497.72,270.50 477.20,268.24 466.00,269.28
             466.00,269.28 454.00,270.17 454.00,270.17 Z
           M 397.73,313.14
           C 396.54,317.46 406.15,328.71 409.00,332.00
             410.13,333.30 412.76,336.51 414.17,337.26
             417.40,338.98 420.41,335.93 419.66,333.00
             419.16,331.03 416.41,328.45 415.00,327.00
             415.00,327.00 408.61,320.00 408.61,320.00
             408.61,320.00 401.00,310.00 401.00,310.00
             399.49,310.85 398.27,311.19 397.73,313.14 Z
           M 524.19,329.00
           C 522.66,330.91 517.82,336.07 517.34,337.98
             516.68,340.54 518.38,341.56 520.00,343.00
             520.00,343.00 536.34,325.00 536.34,325.00
             536.34,325.00 541.08,316.00 541.08,316.00
             541.08,316.00 538.00,310.00 538.00,310.00
             538.00,310.00 524.19,329.00 524.19,329.00 Z
           M 364.00,333.25
           C 364.00,333.25 341.00,338.31 341.00,338.31
             341.00,338.31 327.00,350.83 327.00,350.83
             327.00,350.83 307.61,367.17 307.61,367.17
             307.61,367.17 299.14,383.00 299.14,383.00
             299.14,383.00 291.53,404.00 291.53,404.00
             291.53,404.00 295.70,414.00 295.70,414.00
             295.70,414.00 306.00,434.00 306.00,434.00
             312.21,431.20 318.41,424.78 324.00,420.42
             334.23,412.45 344.87,405.12 356.00,398.45
             363.33,394.05 372.15,389.37 380.00,386.00
             382.81,384.79 393.91,380.43 395.52,379.01
             397.71,377.06 400.00,366.59 401.45,363.00
             402.16,361.23 403.99,357.73 404.05,356.00
             404.17,352.36 399.57,348.63 397.29,346.00
             392.52,340.50 386.17,332.47 383.00,326.00
             383.00,326.00 364.00,333.25 364.00,333.25 Z
           M 538.00,350.00
           C 535.18,352.83 530.33,356.68 530.52,361.00
             530.62,363.28 535.11,377.87 536.56,379.30
             538.15,380.87 542.74,382.33 545.00,383.28
             545.00,383.28 563.00,391.26 563.00,391.26
             578.44,398.79 593.28,408.32 607.00,418.63
             607.00,418.63 625.00,433.15 625.00,433.15
             626.98,434.87 630.02,438.26 632.91,437.55
             635.61,436.89 642.79,426.64 645.17,424.00
             648.01,420.84 656.34,413.67 657.08,410.00
             657.73,406.79 652.82,394.50 651.40,391.00
             645.60,376.75 638.22,362.43 629.12,350.00
             627.04,347.16 621.46,339.28 618.91,337.73
             615.48,335.37 610.78,337.03 607.00,337.73
             607.00,337.73 590.00,337.73 590.00,337.73
             582.54,337.99 576.04,336.82 569.00,334.30
             563.42,332.31 561.09,330.14 555.00,329.00
             550.49,336.85 544.36,343.62 538.00,350.00 Z
           M 250.00,393.12
           C 250.00,393.12 226.00,397.84 226.00,397.84
             226.00,397.84 213.00,399.00 213.00,399.00
             213.00,399.00 196.00,400.00 196.00,400.00
             208.84,403.40 218.81,405.92 231.00,411.78
             231.00,411.78 253.00,424.00 253.00,424.00
             253.00,424.00 262.00,390.00 262.00,390.00
             262.00,390.00 250.00,393.12 250.00,393.12 Z
           M 332.00,437.21
           C 327.99,440.37 315.85,449.40 314.92,454.00
             314.53,455.94 315.43,458.17 316.00,460.00
             316.00,460.00 344.00,437.42 344.00,437.42
             360.47,424.59 378.61,413.76 398.00,406.00
             398.00,406.00 397.00,399.00 397.00,399.00
             374.20,406.91 350.87,422.33 332.00,437.21 Z
           M 622.22,457.00
           C 621.08,452.39 609.06,443.45 605.00,440.20
             590.42,428.52 574.72,418.11 558.00,409.75
             550.56,406.04 543.15,401.91 535.02,400.00
             534.73,402.08 533.87,405.55 535.02,407.36
             536.23,409.24 550.91,415.69 554.00,417.25
             567.11,423.85 585.43,436.09 597.00,445.21
             603.19,450.09 614.89,461.16 621.00,464.00
             621.67,461.91 622.76,459.20 622.22,457.00 Z
           M 419.04,441.71
           C 415.81,438.78 411.64,433.58 409.04,430.00
             407.46,427.83 405.92,424.85 402.91,424.69
             400.16,424.54 392.68,428.41 390.00,429.75
             380.00,434.74 371.09,440.08 362.00,446.58
             351.85,453.83 342.25,461.80 333.00,470.17
             329.98,472.90 322.92,479.40 321.60,483.00
             320.71,485.40 320.95,494.94 321.00,498.00
             321.15,506.16 325.03,508.02 331.00,512.80
             331.00,512.80 355.00,530.33 355.00,530.33
             368.46,539.30 388.71,550.18 404.00,555.33
             407.00,556.34 418.69,560.50 421.00,560.53
             425.39,560.58 432.73,552.62 437.00,549.75
             440.88,547.14 446.59,544.28 451.00,542.70
             452.94,542.00 456.79,541.16 458.01,539.44
             459.15,537.64 458.23,534.12 458.01,532.00
             458.01,532.00 458.01,516.00 458.01,516.00
             458.01,516.00 457.00,501.00 457.00,501.00
             457.00,501.00 456.00,460.00 456.00,460.00
             441.07,457.00 430.42,452.07 419.04,441.71 Z
           M 616.00,498.00
           C 615.99,495.26 616.26,489.34 615.40,487.00
             613.79,482.63 599.27,470.63 595.00,467.08
             575.97,451.25 549.44,433.18 526.00,425.00
             519.20,437.09 509.25,446.62 497.00,453.11
             493.54,454.94 488.78,456.78 485.00,457.85
             482.98,458.42 479.30,459.02 477.90,460.72
             476.42,462.77 477.44,466.64 477.90,469.00
             477.90,469.00 477.90,487.00 477.90,487.00
             477.90,487.00 479.04,501.00 479.04,501.00
             479.04,501.00 479.04,517.00 479.04,517.00
             479.04,517.00 480.00,527.00 480.00,527.00
             480.03,529.52 479.52,536.43 480.99,538.26
             482.32,539.92 486.87,540.44 489.00,541.01
             493.99,542.37 499.50,544.50 504.00,547.04
             508.94,549.83 520.67,560.05 524.00,560.59
             527.09,561.10 531.26,559.06 534.00,557.74
             534.00,557.74 551.00,549.25 551.00,549.25
             551.00,549.25 594.00,527.75 594.00,527.75
             594.00,527.75 618.00,516.00 618.00,516.00
             618.00,516.00 616.00,498.00 616.00,498.00 Z
           M 78.59,495.00
           C 83.16,523.42 89.93,538.16 115.00,554.31
             121.01,558.18 125.65,560.61 132.00,563.75
             135.23,565.35 137.37,566.90 141.00,566.00
             128.98,557.46 115.98,547.99 106.17,537.00
             92.52,521.71 79.87,492.35 77.00,472.00
             75.14,476.74 77.71,489.52 78.59,495.00 Z
           M 316.35,533.99
           C 317.61,537.65 330.36,547.34 334.00,550.12
             354.34,565.62 383.20,582.32 408.00,589.00
             408.00,589.00 412.00,577.00 412.00,577.00
             387.76,571.47 358.47,554.59 338.00,540.66
             338.00,540.66 318.00,526.00 318.00,526.00
             316.79,528.32 315.43,531.33 316.35,533.99 Z
           M 595.00,552.69
           C 573.63,564.30 557.35,571.18 534.00,578.00
             534.00,578.00 537.00,590.00 537.00,590.00
             558.70,585.05 587.08,570.21 606.00,558.42
             606.00,558.42 620.00,549.14 620.00,549.14
             621.77,547.84 624.62,546.06 625.19,543.82
             625.79,541.49 623.96,538.08 623.00,536.00
             623.00,536.00 595.00,552.69 595.00,552.69 Z
           M 313.05,575.00
           C 317.69,582.39 322.97,589.34 328.59,596.00
             352.21,624.00 389.99,648.79 426.00,657.00
             420.69,649.06 416.59,645.28 412.31,636.00
             412.31,636.00 406.28,620.50 406.28,620.50
             404.31,618.28 397.94,616.21 395.00,614.99
             387.56,611.89 380.02,608.54 373.00,604.58
             355.96,594.95 347.64,589.40 332.00,577.63
             332.00,577.63 311.00,561.00 311.00,561.00
             307.68,566.73 309.82,569.85 313.05,575.00 Z
           M 617.00,583.12
           C 604.09,592.62 590.32,600.60 576.00,607.75
             576.00,607.75 551.00,618.58 551.00,618.58
             547.99,619.71 540.55,621.75 538.56,623.70
             536.89,625.33 533.72,634.95 532.19,638.00
             527.56,647.27 524.35,649.44 519.00,657.00
             525.15,656.13 530.17,654.30 536.00,652.33
             567.05,641.88 590.24,625.31 612.99,602.00
             619.76,595.06 634.77,577.11 637.00,568.00
             637.00,568.00 617.00,583.12 617.00,583.12 Z" />
</svg>
