<svg enable-background="new 0 0 511.9 511.9" viewBox="0 0 511.9 511.9" xmlns="http://www.w3.org/2000/svg"><path d="m259 205.3c-26.3 0-48 20.8-50.2 46h100.4c-2.2-25.2-23.9-46-50.2-46z"/><path d="m189.2 43.6h146.9v26.7h-146.9z"/><path d="m259 321c-32.1 0-58.8-25.1-63.2-54.8h-110.5v188.8c0 10.5 8.5 19 19 19h71.6v-33.8c0-3.7 2.5-6.3 6.3-6.3h161.3c3.7 0 6.2 2.5 6.2 6.3v33.8h60.8c9 0 16.4-7.3 16.4-16.4v-191.4h-104.7c-4.4 29.7-31.1 54.8-63.2 54.8z"/><path d="m349.5 43.6v33.8c0 3.7-2.5 6.3-6.2 6.3h-161.2c-3.7 0-6.3-2.5-6.3-6.3v-33.8h-71.3c-10.6 0-19.2 8.6-19.2 19.2v188.6h110.1c2.3-32.7 29.9-59.5 63.7-59.5 33.7 0 61.4 26.8 63.7 59.5h104v-191.4c0-9.1-7.3-16.4-16.4-16.4z"/><path d="m259 307.5c24.7 0 45.3-19.1 49.6-41.3h-99.2c4.3 22.3 24.9 41.3 49.6 41.3z"/><path d="m189.2 447.3h146.9v26.7h-146.9z"/></svg>