<svg height="7.11in" viewBox="0 0 711 711" width="7.11in" xmlns="http://www.w3.org/2000/svg"><path d="m139 387.58c-28.03-10.58-51.49-26.65-71.91-48.58-34.71-37.26-50.67-86.75-50.09-137 0 0 .91-10 .91-10 1.83-25.08 8.61-48.53 19.84-71 24.51-49.02 68.05-84.51 121.25-97.87 9.69-2.44 24.1-5.01 34-5.13 29.19-.34 50.42 1.5 78 12.45 74.14 29.42 119.92 102.66 119 181.55-.12 10.04-2.92 33.66-6 43 0 0 26-8.98 26-8.98 13.86-4.29 37.6-8.85 52-9.02h20c28.28.04 63.66 9.91 89 22.26 22.47 10.95 42.4 26.14 60 43.74 81.92 81.92 88.5 216.16 17.34 307-22.91 29.24-48.31 48.35-81.34 64.75-20.89 10.37-57.68 20.21-81 20.25h-25c-11.4-.02-27.85-2.85-39-5.63-41.21-10.25-71.71-27.9-103-56.54 0 0-23-25.83-23-25.83-4.41 9.89-12 20.68-18.92 29-46.72 56.18-130.52 66.1-189.08 22.52-52.23-38.87-71.19-107.87-48.95-168.52 6.8-18.52 20.39-40.35 34.99-53.58 18.27-16.55 39.68-29.56 63.96-35 0 0 20-3.33 20-3.33 5.81-.4 9.09.59 15-1.09 0 0-34-9.42-34-9.42zm101-346.16s-20-3.42-20-3.42h-9c-3.87-.35-5.71-1.15-10-.91-39.96 2.27-74.19 13.66-105 40.04-10.03 8.59-10.28 8.81-18.87 18.87-1.91 2.24-5.43 5.92-5.4 9 .02 2.47 2.58 5.96 3.94 8 4.4 6.58 9.82 13.34 15.34 19 4.73 4.85 11 12.17 16.99 15 14.64-26.07 45.77-55.97 71-71.95 0 0 23-12.31 23-12.31 13-6.32 37.7-15.08 52-15.74-3.01-3.94-9.37-4.55-14-5.58zm28 12.5c-11.13.74-24.27 3.29-35 6.37-37.93 10.89-70.13 32.15-96.15 61.71-6.55 7.43-19.92 22.53-21.85 32 0 0 6 3 6 3 11.25-16.87 22.06-30.99 37-44.91 35.21-32.8 79.9-51.09 128-51.09-3.72-5.79-11.61-7.51-18-7.08zm33 16.29h-24c-10.2-.19-23.07 1.95-33 4.42-35.29 8.78-61.35 24.72-87 50.37-10.16 10.16-23.12 24.84-29 38 16.29 7.84 22.63 12.33 41 17.57 14.78 4.22 24.34 4.5 39 6.43 5.14-9.16 13-19.02 19.87-27 28.63-33.26 56.8-51.96 97.13-68-3.41-5.83-17.58-19.85-24-21.79zm34.82 35.48c-2.61-.85-7.32 1.16-9.82 2.12 0 0-22 9.94-22 9.94-26.31 13.19-49.26 32.62-67.92 55.25-3.41 4.14-14.91 18.38-15.48 23-.34 2.79 1.37 6.41 2.4 9h2c5.12-9.12 14.95-20.96 21.87-29 21.41-24.86 48.05-45.25 79.13-56.31 0 0 17-4.69 17-4.69-1.4-2.87-3.97-8.26-7.18-9.31zm-273.54 33.31c5.86 7.03 12.11 13.64 18.72 19.96 20.5 19.6 49.9 37.39 77 46.01 12.4 3.95 22.36 5.73 35 8.03 0 0 3-8 3-8s-10-1.61-10-1.61c-9.53-1.69-19.87-3.9-29-7.08-40.77-14.21-72.08-39.22-97-74.31-6.92 6.95-2.99 10.66 2.28 17zm264.72 154.17c4.79-4.32 12.73-10.74 18-14.45 4.08-2.87 13.16-7.91 15.44-11.9 2.15-3.75 5.58-18.03 6.56-22.82 1.92-9.45 2.44-18.45 3.09-28 0 0 .83-8 .83-8s-.83-8-.83-8-2.17-22-2.17-22c-1.94-11.51-5.22-23.15-9.52-34-1.19-3-3.83-10.45-6.04-12.4-3.38-3-10.43-.46-14.36.53-10.94 2.75-22.21 7.69-32 13.3-2.65 1.51-9.36 5.06-10.33 7.89-.85 2.47 2.11 10.82 2.91 13.68 0 0 7.62 32 7.62 32 6.61 34.27 8.8 69.19 8.8 104 5.53-2.62 7.58-5.84 12-9.83zm-137-62.04c-38.67-5.37-73.08-20.62-104-44.36-10.67-8.2-16.64-14.4-26-23.77-4.25-4.26-8.76-10.47-14-13-2.75 8.42-5.23 17.27-6.75 26-.56 3.21-1.65 7.91-.69 11 1.41 4.5 8.04 10.6 11.44 14 0 0 26 24.25 26 24.25 30.7 25.71 66.92 49.86 107 57.14 11.85 2.15 20.17 1.61 32 1.61 0-18.08-2.68-33.36-6-51 0 0-19-1.87-19-1.87zm90.35-66.09c-.96 2.74 1.41 8.16 2.31 10.96 0 0 6.46 23 6.46 23 9.29 39.13 12.88 78.9 12.88 119 4.53-4.12 3.99-6.21 4-12v-27s-1-15-1-15c-.18-15.64-2.5-31.52-4.73-47-2.3-15.95-7.75-43.23-13.27-58-2.49 1.46-5.63 3.13-6.65 6.04zm-42.02 45.96c-2.27 3.41-8.23 11.29-8.62 15 0 0 3.04 17 3.04 17s3.34 28 3.34 28 .91 10 .91 10c.28 23.96-1.86 45.46-6.26 69 0 0-6.74 28-6.74 28 11.11-.51 23.49-4.13 34-7.67 4.07-1.37 11.65-3.79 14.61-6.72 0 0 11.07-18.61 11.07-18.61 5.9-9.45 9.3-10.64 9.32-22v-28s-1-12-1-12v-8c-1.44-19.72-4.32-39.61-8.2-59-2.23-11.15-7.48-34.14-11.8-44-10.3 7.38-26.36 28.06-33.67 39zm-197.31 3s25.98 25.58 25.98 25.58c29.91 25.92 66.98 53.49 106 63.29 10.42 2.62 21.21 5 32 5.13 2.43.02 7.35.46 8.98-1.6 1.52-1.92 1.02-10.63 1.02-13.4 0 0-8 .66-8 .66s-7-.62-7-.62c-44.8-1.95-85.79-26.32-120-53.64-12.73-10.17-31.85-27.03-42-39.4-4.08 5.54-1.14 9.65 3.02 14zm-2.1 25c2.38 14.39 7.4 30.92 13.84 44 8.63 17.56 19.54 33.97 33.28 47.99 25.5 26.01 70.02 47.95 106.96 48.01h8s6.58-24 6.58-24 6.42-38 6.42-38c-70.73 0-128.43-46.43-176-94-1.7 4.44.14 11.29.92 16zm415.08 31.17c-7.99.76-16.21 2.28-24 4.2-3.33.83-10.09 2.12-12.5 4.33-2.34 2.14-6.16 11.2-5.45 14.3.48 2.1 3.33 6.1 4.62 8 4.04 5.97 11.56 15.34 17.33 19.43 6.16 4.37 13-.01 20-1.43 9.37-1.89 19.79-1.3 29 1.15 3.49.94 15.95 6.35 18 5.98 3.31-.6 7.61-6.51 9.74-9.13 5.65-6.95 12.69-18.33 15.04-27 1-3.71.69-10.38-2.34-13.16-2.44-2.24-10.96-3.58-14.44-4.23-11.28-2.11-31.8-4.37-43-3.33 0 0-12 .89-12 .89zm-56.27 42.97c-1.19 4.32 8.42 15.57 11.27 18.86 1.13 1.3 3.76 4.51 5.17 5.26 3.23 1.72 6.24-1.33 5.49-4.26-.5-1.97-3.25-4.55-4.66-6 0 0-6.39-7-6.39-7s-7.61-10-7.61-10c-1.51.85-2.73 1.19-3.27 3.14zm126.46 15.86c-1.53 1.91-6.37 7.07-6.85 8.98-.66 2.56 1.04 3.58 2.66 5.02 0 0 16.34-18 16.34-18s4.74-9 4.74-9-3.08-6-3.08-6-13.81 19-13.81 19zm-160.19 4.25s-23 5.06-23 5.06-14 12.52-14 12.52-19.39 16.34-19.39 16.34-8.47 15.83-8.47 15.83-7.61 21-7.61 21 4.17 10 4.17 10 10.3 20 10.3 20c6.21-2.8 12.41-9.22 18-13.58 10.23-7.97 20.87-15.3 32-21.97 7.33-4.4 16.15-9.08 24-12.45 2.81-1.21 13.91-5.57 15.52-6.99 2.19-1.95 4.48-12.42 5.93-16.01.71-1.77 2.54-5.27 2.6-7 .12-3.64-4.48-7.37-6.76-10-4.77-5.5-11.12-13.53-14.29-20 0 0-19 7.25-19 7.25zm174 16.75c-2.82 2.83-7.67 6.68-7.48 11 .1 2.28 4.59 16.87 6.04 18.3 1.59 1.57 6.18 3.03 8.44 3.98 0 0 18 7.98 18 7.98 15.44 7.53 30.28 17.06 44 27.37 0 0 18 14.52 18 14.52 1.98 1.72 5.02 5.11 7.91 4.4 2.7-.66 9.88-10.91 12.26-13.55 2.84-3.16 11.17-10.33 11.91-14 .65-3.21-4.26-15.5-5.68-19-5.8-14.25-13.18-28.57-22.28-41-2.08-2.84-7.66-10.72-10.21-12.27-3.43-2.36-8.13-.7-11.91 0h-17c-7.46.26-13.96-.91-21-3.43-5.58-1.99-7.91-4.16-14-5.3-4.51 7.85-10.64 14.62-17 21zm-288 43.12s-24 4.72-24 4.72-13 1.16-13 1.16-17 1-17 1c12.84 3.4 22.81 5.92 35 11.78 0 0 22 12.22 22 12.22s9-34 9-34-12 3.12-12 3.12zm82 44.09c-4.01 3.16-16.15 12.19-17.08 16.79-.39 1.94.51 4.17 1.08 6 0 0 28-22.58 28-22.58 16.47-12.83 34.61-23.66 54-31.42 0 0-1-7-1-7-22.8 7.91-46.13 23.33-65 38.21zm290.22 19.79c-1.14-4.61-13.16-13.55-17.22-16.8-14.58-11.68-30.28-22.09-47-30.45-7.44-3.71-14.85-7.84-22.98-9.75-.29 2.08-1.15 5.55 0 7.36 1.21 1.88 15.89 8.33 18.98 9.89 13.11 6.6 31.43 18.84 43 27.96 6.19 4.88 17.89 15.95 24 18.79.67-2.09 1.76-4.8 1.22-7zm-203.18-15.29c-3.23-2.93-7.4-8.13-10-11.71-1.58-2.17-3.12-5.15-6.13-5.31-2.75-.15-10.23 3.72-12.91 5.06-10 4.99-18.91 10.33-28 16.83-10.15 7.25-19.75 15.22-29 23.59-3.02 2.73-10.08 9.23-11.4 12.83-.89 2.4-.65 11.94-.6 15 .15 8.16 4.03 10.02 10 14.8 0 0 24 17.53 24 17.53 13.46 8.97 33.71 19.85 49 25 3 1.01 14.69 5.17 17 5.2 4.39.05 11.73-7.91 16-10.78 3.88-2.61 9.59-5.47 14-7.05 1.94-.7 5.79-1.54 7.01-3.26 1.14-1.8.22-5.32 0-7.44v-16s-1.01-15-1.01-15-1-41-1-41c-14.93-3-25.58-7.93-36.96-18.29zm196.96 56.29c-.01-2.74.26-8.66-.6-11-1.61-4.37-16.13-16.37-20.4-19.92-19.03-15.83-45.56-33.9-69-42.08-6.8 12.09-16.75 21.62-29 28.11-3.46 1.83-8.22 3.67-12 4.74-2.02.57-5.7 1.17-7.1 2.87-1.48 2.05-.46 5.92 0 8.28v18s1.14 14 1.14 14v16s.96 10 .96 10c.03 2.52-.48 9.43.99 11.26 1.33 1.66 5.88 2.18 8.01 2.75 4.99 1.36 10.5 3.49 15 6.03 4.94 2.79 16.67 13.01 20 13.55 3.09.51 7.26-1.53 10-2.85 0 0 17-8.49 17-8.49s43-21.5 43-21.5 24-11.75 24-11.75-2-18-2-18zm-537.41-3c4.57 28.42 11.34 43.16 36.41 59.31 6.01 3.87 10.65 6.3 17 9.44 3.23 1.6 5.37 3.15 9 2.25-12.02-8.54-25.02-18.01-34.83-29-13.65-15.29-26.3-44.65-29.17-65-1.86 4.74.71 17.52 1.59 23zm237.76 38.99c1.26 3.66 14.01 13.35 17.65 16.13 20.34 15.5 49.2 32.2 74 38.88 0 0 4-12 4-12-24.24-5.53-53.53-22.41-74-36.34 0 0-20-14.66-20-14.66-1.21 2.32-2.57 5.33-1.65 7.99zm278.65 18.7c-21.37 11.61-37.65 18.49-61 25.31 0 0 3 12 3 12 21.7-4.95 50.08-19.79 69-31.58 0 0 14-9.28 14-9.28 1.77-1.3 4.62-3.08 5.19-5.32.6-2.33-1.23-5.74-2.19-7.82 0 0-28 16.69-28 16.69zm-281.95 22.31c4.64 7.39 9.92 14.34 15.54 21 23.62 28 61.4 52.79 97.41 61-5.31-7.94-9.41-11.72-13.69-21 0 0-6.03-15.5-6.03-15.5-1.97-2.22-8.34-4.29-11.28-5.51-7.44-3.1-14.98-6.45-22-10.41-17.04-9.63-25.36-15.18-41-26.95 0 0-21-16.63-21-16.63-3.32 5.73-1.18 8.85 2.05 14zm303.95 8.12c-12.91 9.5-26.68 17.48-41 24.63 0 0-25 10.83-25 10.83-3.01 1.13-10.45 3.17-12.44 5.12-1.67 1.63-4.84 11.25-6.37 14.3-4.63 9.27-7.84 11.44-13.19 19 6.15-.87 11.17-2.7 17-4.67 31.05-10.45 54.24-27.02 76.99-50.33 6.77-6.94 21.78-24.89 24.01-34 0 0-20 15.12-20 15.12z" fill="#fff"/></svg>