<?xml version="1.0" encoding="UTF-8" standalone="no"?>
<!DOCTYPE svg PUBLIC "-//W3C//DTD SVG 20010904//EN"
              "http://www.w3.org/TR/2001/REC-SVG-20010904/DTD/svg10.dtd">

<svg xmlns="http://www.w3.org/2000/svg"
     width="0.833406in" height="0.833406in"
     viewBox="0 0 100 100">
  <path id="Selection"
        fill="white"
        d="M 6.02,74.77
           C 4.55,72.37 5.00,65.05 5.00,62.00
             5.00,62.00 5.00,30.00 5.00,30.00
             5.18,20.60 10.15,21.01 18.00,21.00
             18.00,21.00 62.00,21.00 62.00,21.00
             67.72,20.99 69.55,21.22 73.91,16.94
             76.75,14.16 81.12,7.04 85.85,8.66
             87.88,9.35 88.52,11.07 87.84,13.02
             86.66,16.38 77.53,24.78 76.14,27.42
             75.74,29.03 75.99,32.19 76.14,34.00
             76.14,34.00 76.14,65.00 76.14,65.00
             75.99,68.19 76.29,72.09 74.26,74.77
             71.53,78.39 67.03,77.99 63.00,78.00
             63.00,78.00 33.00,78.00 33.00,78.00
             26.13,78.13 24.79,80.13 20.17,84.98
             17.85,87.42 14.34,91.40 10.45,89.42
             5.54,86.93 14.00,79.65 16.00,78.00
             12.48,77.97 8.14,78.24 6.02,74.77 Z
           M 22.00,28.00
           C 18.99,28.02 14.93,27.75 12.89,30.43
             11.17,32.70 11.88,36.32 12.12,39.00
             12.12,39.00 12.12,58.00 12.12,58.00
             11.97,60.59 11.31,65.63 12.12,67.77
             13.20,69.34 14.41,70.10 16.05,70.57
             22.52,72.43 29.25,66.00 32.40,61.00
             35.11,56.72 34.20,43.95 33.00,39.00
             35.51,40.46 42.06,45.54 44.00,45.83
             46.85,46.26 49.13,43.81 50.96,41.98
             53.61,39.35 60.84,31.02 63.00,28.00
             63.00,28.00 22.00,28.00 22.00,28.00 Z
           M 95.00,39.00
           C 95.00,39.00 95.00,65.00 95.00,65.00
             94.95,67.56 95.00,72.37 90.94,70.83
             87.55,69.55 81.69,62.48 80.58,59.00
             79.74,56.47 79.71,45.48 80.58,43.00
             82.09,38.79 87.25,33.52 90.95,31.17
             96.00,30.66 94.99,35.12 95.00,39.00 Z
           M 54.99,48.00
           C 54.99,48.00 34.00,71.00 34.00,71.00
             34.00,71.00 59.00,71.00 59.00,71.00
             61.56,70.96 64.50,71.02 66.57,69.26
             69.41,66.85 68.99,62.37 69.00,59.00
             69.00,59.00 69.00,34.00 69.00,34.00
             69.00,34.00 54.99,48.00 54.99,48.00 Z" />
</svg>
