<svg height=".833406in" viewBox="0 0 100 100" width=".833406in" xmlns="http://www.w3.org/2000/svg"><path d="m6.02 74.77c-1.47-2.4-1.02-9.72-1.02-12.77v-32c.18-9.4 5.15-8.99 13-9h44c5.72-.01 7.55.22 11.91-4.06 2.84-2.78 7.21-9.9 11.94-8.28 2.03.69 2.67 2.41 1.99 4.36-1.18 3.36-10.31 11.76-11.7 14.4-.4 1.61-.15 4.77 0 6.58v31c-.15 3.19.15 7.09-1.88 9.77-2.73 3.62-7.23 3.22-11.26 3.23h-30c-6.87.13-8.21 2.13-12.83 6.98-2.32 2.44-5.83 6.42-9.72 4.44-4.91-2.49 3.55-9.77 5.55-11.42-3.52-.03-7.86.24-9.98-3.23zm15.98-46.77c-3.01.02-7.07-.25-9.11 2.43-1.72 2.27-1.01 5.89-.77 8.57v19c-.15 2.59-.81 7.63 0 9.77 1.08 1.57 2.29 2.33 3.93 2.8 6.47 1.86 13.2-4.57 16.35-9.57 2.71-4.28 1.8-17.05.6-22 2.51 1.46 9.06 6.54 11 6.83 2.85.43 5.13-2.02 6.96-3.85 2.65-2.63 9.88-10.96 12.04-13.98zm73 11v26c-.05 2.56 0 7.37-4.06 5.83-3.39-1.28-9.25-8.35-10.36-11.83-.84-2.53-.87-13.52 0-16 1.51-4.21 6.67-9.48 10.37-11.83 5.05-.51 4.04 3.95 4.05 7.83zm-40.01 9s-20.99 23-20.99 23h25c2.56-.04 5.5.02 7.57-1.74 2.84-2.41 2.42-6.89 2.43-10.26v-25s-14.01 14-14.01 14z" fill="#fff"/></svg>