<svg enable-background="new 0 0 511.9 511.9" fill="#ee8d08" viewBox="0 0 511.9 511.9" xmlns="http://www.w3.org/2000/svg"><path d="m353 111.7h-298.5c-16.5 0-29.8 13.4-29.8 29.8v223.8c0 16.5 13.4 29.8 29.8 29.8h298.5c16.5 0 29.8-13.4 29.8-29.8v-223.7c0-16.5-13.4-29.9-29.8-29.9zm0 223.9c0 16.5-13.4 29.8-29.8 29.8h-238.8c-16.5 0-29.8-13.4-29.8-29.8v-164.2c0-16.5 13.4-29.8 29.8-29.8h238.8c16.5 0 29.8 13.4 29.8 29.8zm123.3-178.4c-6.4-1.9-13.2.5-16.8 6l-46.9 53v89.5l46.9 53c2.8 4.2 7.6 6.7 12.5 6.7 1.4 0 2.9-.2 4.3-.6 6.3-1.9 10.9-7.7 10.9-14.3v-179.1c.1-6.5-4.5-12.3-10.9-14.2zm-302.4 163.4 74.6-59.7-74.6-59.7z"/></svg>