<?xml version="1.0" encoding="utf-8"?>
<!-- Generator: Adobe Illustrator 19.1.0, SVG Export Plug-In . SVG Version: 6.00 Build 0)  -->
<svg version="1.1" id="Layer_2" xmlns="http://www.w3.org/2000/svg" xmlns:xlink="http://www.w3.org/1999/xlink" x="0px" y="0px"
	 viewBox="0 0 512 512" width="512px" height= "512px" fill="white" style="enable-background:new 0 0 512 512;" xml:space="preserve">
<g>
	<path d="M402.9,53.6c3.8-4.3,6.9-7.8,9.9-11.3c12.5-14.1,30.5-14.6,43.5-1c6.6,6.9,13,13.9,19.3,21c11.5,13,12,31.4,1.4,45.3
		c-23.6,30.9-47,61.9-70.7,92.7c-2.8,3.6-4.1,7.2-4.1,11.9c0.1,83.1,0.1,166.2,0.1,249.3c0,13.2-5.4,18.8-18.3,18.8
		c-104.2,0-208.4,0-312.7,0c-13.3,0-18.5-5.4-18.5-19.1c0-137,0.1-274-0.1-410.9c0-11.9,6.1-18.9,18.2-18.9
		c104.2,0.3,208.4,0.2,312.7,0.2c13.8,0,18.1,4.3,18.8,18.6C402.4,51,402.6,51.7,402.9,53.6z M233.6,127.4
		c30,33.5,60.2,67.2,90.7,101.2c45.1-50.9,89.8-101.3,133.6-150.9c-6.2-6.5-11.8-12.5-17.8-18.7c-38.4,37.1-77.2,74.5-116.1,112.1
		c-23.4-22.3-46.4-44.3-69.2-66.1C247.7,112.6,240.9,119.7,233.6,127.4z M254.4,255.5c-28.6,0-57.2,0-85.9,0c-4,0-7.5,0.8-9.5,4.7
		c-5.4,10.9,0.4,21,12,21c55,0,110.1,0,165.1,0c11.8,0,13.9-2.2,13.8-14.4c0-8.7-2.5-11.3-10.8-11.3
		C311,255.4,282.7,255.5,254.4,255.5z M254.9,327.3c-28.8,0-57.6,0-86.4,0c-4,0-7.5,0.8-9.4,4.8c-5.3,11,0.5,21,12.2,21
		c55,0,110.1,0,165.1,0c11.7,0,13.8-2.2,13.8-14.4c0-8.7-2.5-11.2-10.9-11.2C311.1,327.3,283,327.3,254.9,327.3z M258.6,209.3
		c0.2-0.4,0.5-0.9,0.7-1.3c-6.7-7.8-13.3-15.7-20.1-23.5c-0.6-0.7-2.2-0.9-3.3-0.9c-23,0-46-0.2-69.1,0.1c-2.5,0-6.7,2.1-7,3.8
		c-1,5.5-1.5,11.5-0.3,16.8c1.1,4.8,6.4,4.9,10.7,4.9c18.8,0,37.6,0,56.4,0C237.3,209.3,247.9,209.3,258.6,209.3z M122.8,183.6
		c-10.4,0-12.3,1.9-12.3,12.3c0,10.9,2.2,13.4,12.1,13.4c10.2,0,12.6-2.5,12.6-12.9C135.2,185.5,133.3,183.6,122.8,183.6z
		 M135.2,268.1c0-10.4-2-12.7-11-12.7c-12.1,0-13.7,1.5-13.8,12.4c0,10.8,2.2,13.3,12.2,13.3C132.8,281.1,135.2,278.7,135.2,268.1z
		 M122.7,327.3c-10.4,0-12.3,1.9-12.3,12.3c0,10.9,2.2,13.3,12.2,13.3c10.2,0,12.6-2.5,12.6-12.9
		C135.2,329.2,133.3,327.3,122.7,327.3z"/>
</g>
</svg>
