<svg enable-background="new 0 0 511.9 511.9" viewBox="0 0 511.9 511.9" xmlns="http://www.w3.org/2000/svg"><path d="m47.8 387.3h125.9 15.4 137.6 15.4 125.9c9.3 0 16.8-7.5 16.8-16.9v-122c0-9.3-7.5-16.8-16.8-16.8h-125.8v-103.3c0-9.3-7.5-16.8-16.9-16.8h-134.7c-9.3 0-16.9 7.5-16.9 16.8v74.2h-125.9c-9.3 0-16.8 7.5-16.8 16.8v151c0 9.5 7.5 17 16.8 17zm332.5-57.1 8.3-1c2.3-.3 4.4 1.2 5.1 3.4.8 2.6 2.1 4.8 3.8 6.4 2.5 2.4 5.5 3.6 9 3.6 3.8 0 7-1.5 9.6-4.3 2.6-2.9 3.9-6.7 3.9-11.6 0-4.6-1.2-8.3-3.7-11s-5.5-4-9.1-4c-.7 0-1.5 0-2.3.1-3.1.3-5.7-2.4-5.3-5.5l.6-4.3c.3-2.2 2.1-3.9 4.3-4.1 3.2-.4 5.7-1.4 7.6-3.1 2.6-2.3 3.9-5.3 3.9-9.1 0-3.2-.9-5.8-2.9-7.7-1.9-1.9-4.5-2.9-7.6-2.9s-5.8 1.1-8 3.2c-1.4 1.4-2.5 3.2-3.2 5.4-.8 2.3-3 3.7-5.4 3.3l-7.2-1.2c-2.9-.5-4.7-3.4-3.8-6.2 1-3.4 2.4-6.2 4-8.5 2.4-3.5 5.7-6.2 9.9-8.1 4.2-2 9-3 14.3-3 9 0 16.2 2.9 21.7 8.6 4.5 4.7 6.7 10 6.7 16 0 8.4-4.6 15.1-13.8 20.1 5.5 1.2 9.9 3.8 13.2 7.9s4.9 9 4.9 14.8c0 8.4-3.1 15.6-9.2 21.5s-13.8 8.9-22.9 8.9c-8.7 0-15.9-2.5-21.6-7.5-4.4-3.8-7.3-8.5-8.9-14.1-.7-2.8 1.2-5.7 4.1-6zm-146.8-159.4c0-1.9 1.1-3.7 2.9-4.4 4-1.7 8.2-4.3 12.7-7.8 4.7-3.7 8.1-7.8 10.4-12.5.8-1.7 2.5-2.8 4.4-2.8h6.9c2.7 0 4.8 2.2 4.8 4.8v86.5c0 2.7-2.2 4.8-4.8 4.8h-8.8c-2.7 0-4.8-2.2-4.8-4.8v-64.3c-5 4.7-10.6 8.4-16.9 11.2-3.2 1.5-6.8-.9-6.8-4.4zm-156.5 150.4c1.1-4.3 2.8-8.4 5.2-12.4 3.5-5.8 10.4-13.4 20.7-23 8.3-7.7 13.4-12.9 15.2-15.7 2.5-3.8 3.8-7.5 3.8-11.2 0-4.1-1.1-7.2-3.3-9.5-2.2-2.2-5.2-3.3-9.1-3.3-3.8 0-6.9 1.2-9.1 3.5-1.6 1.6-2.7 4-3.4 7.2-.5 2.4-2.7 4-5.2 3.8l-8.6-.8c-2.9-.3-4.8-3-4.2-5.8 1.6-7.4 4.7-12.8 9.4-16.4 5.7-4.4 12.9-6.6 21.6-6.6 9.5 0 16.9 2.5 22.3 7.6s8.1 11.4 8.1 19c0 4.3-.8 8.4-2.3 12.3-1.6 3.9-4 8-7.3 12.2-2.2 2.8-6.2 6.9-12 12.2s-9.5 8.8-11 10.6c-1.6 1.7-2.8 3.4-3.8 5.1h31.6c2.7 0 4.8 2.2 4.8 4.8v7.4c0 2.7-2.2 4.8-4.8 4.8h-53.9c-3.1.2-5.5-2.8-4.7-5.8z"/></svg>