<?xml version="1.0" encoding="utf-8"?>
<!-- Generator: Adobe Illustrator 19.1.0, SVG Export Plug-In . SVG Version: 6.00 Build 0)  -->
<svg version="1.1" id="Layer_3" xmlns="http://www.w3.org/2000/svg" xmlns:xlink="http://www.w3.org/1999/xlink" x="0px" y="0px"
	 viewBox="-49 141 512 512" style="enable-background:new -49 141 512 512;" xml:space="preserve">
<g>
	<path d="M-13,355.1c0-47.2-0.1-94.4,0-141.5c0.1-29,17.4-50.1,45.7-56c2.5-0.5,5.2-0.5,7.7-0.5c66.4-0.1,132.7-0.2,199.1,0
		c25.6,0,48.6,17.9,53,44.2c0.8,4.7,1.7,9.4,1.7,14.1c0.1,94,0.3,187.9-0.1,281.9c-0.1,23.7-10.7,41.9-32.8,52.1
		c-5.1,2.3-11,4.1-16.6,4.1c-69.6,0.3-139.1,0.5-208.7,0.1c-20-0.1-40.3-16.1-46.4-37.5c-1.9-6.8-2.7-14.1-2.7-21.2
		C-13.2,448.3-13.1,401.7-13,355.1C-13.1,355.1-13.1,355.1-13,355.1z M23.5,355.4c0,47.4,0,94.7,0.1,142.1c0,3.3,0.3,6.8,1.5,9.8
		c3.8,9.2,11.8,10.6,20.6,10.6c48.6,0,97.1,0,145.7,0c15.4,0,30.8-0.1,46.2,0c9,0,16-3.2,19-12.2c1.1-3.3,1.3-7,1.3-10.6
		c0.1-93.5,0.1-187.1,0.1-280.6c0-14-7.1-21-21.3-21.1c-64.7,0-129.5,0.1-194.2-0.2c-10.3-0.1-19.2,8.2-19.1,19.4
		C23.7,260.3,23.5,307.8,23.5,355.4z"/>
	<path d="M312.6,215.8c7,1.7,13,3,18.9,4.6c19.1,5,38.2,10.3,57.4,15.2c16.2,4.1,30.7,10.5,39.7,25.5c7,11.8,11.2,24.4,7.5,38.4
		c-6.1,23.4-12.4,46.6-18.4,70c-4.8,18.4-9.1,36.9-13.9,55.3c-4.7,17.8-10,35.4-14.7,53.1c-4.9,18.3-9.2,36.8-14.1,55.2
		c-4.9,18.7-9.3,37.7-15.6,56c-5.7,16.7-18.4,27.2-35.6,32.3c-12.7,3.8-24.6,1.6-36.9-2.1c-14-4.2-28.3-7.4-42.4-11.1
		c-22.2-5.9-44.4-11.9-66.6-17.8c-18-4.7-36-9.2-54-13.9c-2.6-0.7-5.1-2-7.7-4.3c2.2-0.1,4.3-0.3,6.5-0.3c41,0,81.9-0.4,122.9,0.2
		c8.2,0.1,16.5,3.6,24.7,5.8c10.9,2.9,21.6,6.7,32.7,9c13.4,2.9,21.7-3,25.4-18c2.9-12,5.9-23.9,9.1-35.8c4-15.3,8.1-30.5,12.2-45.8
		c4.8-18,9.7-35.9,14.4-53.9c3.9-14.9,7.6-29.9,11.5-44.8c3.1-11.5,6.6-22.8,9.7-34.3c3.9-14.5,7.5-29.1,11.2-43.7
		c1.1-4.4,1.4-9.3,3.4-13.2c4.8-9.2-2-21.9-13.7-25.1c-19.3-5.3-38.6-10.4-57.9-15.5c-4.2-1.1-8.5-1.8-12.6-3
		c-1.2-0.4-2.9-1.9-2.9-2.9C312.5,239.4,312.6,228.1,312.6,215.8z"/>
	<path d="M366.7,338.9c-0.2,0.2-2.3,2.8-2.9,2.5c-3.3-1.7-8.9,0.2-9.5-6.1c-0.9-9.6-1.7-9.9-10.6-11.9c-4.5-1-7.5,0.3-9.2,4.2
		c-1.7,3.9-4.5,4.6-8.2,4c-5.7-0.9-6.8-2.9-3.6-7.9c8-12.5,16.1-25,24-37.6c2.2-3.5,5.1-4.7,8.6-3.2c4,1.7,9.3,1.7,9.4,8.6
		C364.8,306.8,365.9,321.9,366.7,338.9z M351.5,315.4c3.1-5.9,2.9-11.8-0.8-15.2c-2.3,4.1-4.6,8.1-7,12.3
		C346.8,313.7,349.2,314.6,351.5,315.4z"/>
	<path d="M148.2,390.5c2.7,19.5,11.2,35.5,17,53.4c-16.8,0-32.2,0-48.9,0c6.1-17.9,11.7-34.7,17.4-51.5c-0.6-0.4-1.1-0.7-1.7-1.1
		c-3.3,2-6.6,3.8-9.8,5.9c-18.1,11.4-33.3,8.5-46.9-2.1c-14-10.9-17.6-30.5-10.7-47.6c6.8-17.1,18.2-30.9,31.3-43.2
		c12.7-12,26.3-23,39.6-34.4c2.7-2.3,5.3-3.3,8.9-0.6c22.5,16.8,43.7,34.9,60.4,57.6c9.5,12.8,16.3,26.5,14.6,43.4
		c-1.5,14.7-14.6,28.8-28.9,32.5C174.3,407.1,162,400.3,148.2,390.5z"/>
	<path d="M204.4,253.4c-3.2,12.2-7.3,14.6-16,9.9c5.1-16.2,10.1-32.6,15.4-48.9c0.4-1.2,2.5-2.4,3.9-2.7c2.5-0.4,5.2-0.1,7.8-0.2
		c3.6-0.2,5.1,1.6,6.2,5c4.6,14.5,9.2,29,14.4,43.3c1.4,3.9,0,4.6-2.9,5.3c-6.9,1.5-9.8-0.5-11.7-7.5c-0.5-1.7-2.7-3.8-4.4-4.1
		C213.1,253,208.9,253.4,204.4,253.4z M213.3,227.8c-0.7,0-1.3,0-2,0c-1.2,4.9-2.3,9.8-3.7,15.4c4-0.2,6.4-0.3,9.9-0.5
		C215.9,237.1,214.6,232.4,213.3,227.8z"/>
	<path d="M92.4,447.2c-2.5,8.3-4.7,16.2-7.2,24c-2.3,7.1-4.9,14.1-7.1,21.3c-1.5,4.8-3.6,8.3-9.4,8c-7.2-0.4-9.4-2.5-11.2-8.9
		c-3.7-12.7-7.9-25.2-11.8-37.9c-0.6-2-1-4.1-1.5-6.1c8.6-3,10.8-2.2,13.9,5.7c2.4,6.1,7.7,5.1,12.2,4.6c2.6-0.3,6.2-2.3,7.2-4.5
		C80.9,445.5,81.6,444.8,92.4,447.2z M67.1,483c0.8-0.2,1.6-0.4,2.5-0.5c1.1-4.7,2.2-9.4,3.3-14.5c-3.7,0-6.4,0-10.3,0
		C64.3,473.5,65.7,478.2,67.1,483z"/>
</g>
</svg>
