<svg enable-background="new -49 141 512 512" viewBox="-49 141 512 512" xmlns="http://www.w3.org/2000/svg"><path d="m-13 355.1c0-47.2-.1-94.4 0-141.5.1-29 17.4-50.1 45.7-56 2.5-.5 5.2-.5 7.7-.5 66.4-.1 132.7-.2 199.1 0 25.6 0 48.6 17.9 53 44.2.8 4.7 1.7 9.4 1.7 14.1.1 94 .3 187.9-.1 281.9-.1 23.7-10.7 41.9-32.8 52.1-5.1 2.3-11 4.1-16.6 4.1-69.6.3-139.1.5-208.7.1-20-.1-40.3-16.1-46.4-37.5-1.9-6.8-2.7-14.1-2.7-21.2-.1-46.6 0-93.2.1-139.8-.1 0-.1 0 0 0zm36.5.3c0 47.4 0 94.7.1 142.1 0 3.3.3 6.8 1.5 9.8 3.8 9.2 11.8 10.6 20.6 10.6h145.7c15.4 0 30.8-.1 46.2 0 9 0 16-3.2 19-12.2 1.1-3.3 1.3-7 1.3-10.6.1-93.5.1-187.1.1-280.6 0-14-7.1-21-21.3-21.1-64.7 0-129.5.1-194.2-.2-10.3-.1-19.2 8.2-19.1 19.4.3 47.7.1 95.2.1 142.8z"/><path d="m312.6 215.8c7 1.7 13 3 18.9 4.6 19.1 5 38.2 10.3 57.4 15.2 16.2 4.1 30.7 10.5 39.7 25.5 7 11.8 11.2 24.4 7.5 38.4-6.1 23.4-12.4 46.6-18.4 70-4.8 18.4-9.1 36.9-13.9 55.3-4.7 17.8-10 35.4-14.7 53.1-4.9 18.3-9.2 36.8-14.1 55.2-4.9 18.7-9.3 37.7-15.6 56-5.7 16.7-18.4 27.2-35.6 32.3-12.7 3.8-24.6 1.6-36.9-2.1-14-4.2-28.3-7.4-42.4-11.1-22.2-5.9-44.4-11.9-66.6-17.8-18-4.7-36-9.2-54-13.9-2.6-.7-5.1-2-7.7-4.3 2.2-.1 4.3-.3 6.5-.3 41 0 81.9-.4 122.9.2 8.2.1 16.5 3.6 24.7 5.8 10.9 2.9 21.6 6.7 32.7 9 13.4 2.9 21.7-3 25.4-18 2.9-12 5.9-23.9 9.1-35.8 4-15.3 8.1-30.5 12.2-45.8 4.8-18 9.7-35.9 14.4-53.9 3.9-14.9 7.6-29.9 11.5-44.8 3.1-11.5 6.6-22.8 9.7-34.3 3.9-14.5 7.5-29.1 11.2-43.7 1.1-4.4 1.4-9.3 3.4-13.2 4.8-9.2-2-21.9-13.7-25.1-19.3-5.3-38.6-10.4-57.9-15.5-4.2-1.1-8.5-1.8-12.6-3-1.2-.4-2.9-1.9-2.9-2.9-.3-11.5-.2-22.8-.2-35.1z"/><path d="m366.7 338.9c-.2.2-2.3 2.8-2.9 2.5-3.3-1.7-8.9.2-9.5-6.1-.9-9.6-1.7-9.9-10.6-11.9-4.5-1-7.5.3-9.2 4.2s-4.5 4.6-8.2 4c-5.7-.9-6.8-2.9-3.6-7.9 8-12.5 16.1-25 24-37.6 2.2-3.5 5.1-4.7 8.6-3.2 4 1.7 9.3 1.7 9.4 8.6.1 15.3 1.2 30.4 2 47.4zm-15.2-23.5c3.1-5.9 2.9-11.8-.8-15.2-2.3 4.1-4.6 8.1-7 12.3 3.1 1.2 5.5 2.1 7.8 2.9z"/><path d="m148.2 390.5c2.7 19.5 11.2 35.5 17 53.4-16.8 0-32.2 0-48.9 0 6.1-17.9 11.7-34.7 17.4-51.5-.6-.4-1.1-.7-1.7-1.1-3.3 2-6.6 3.8-9.8 5.9-18.1 11.4-33.3 8.5-46.9-2.1-14-10.9-17.6-30.5-10.7-47.6 6.8-17.1 18.2-30.9 31.3-43.2 12.7-12 26.3-23 39.6-34.4 2.7-2.3 5.3-3.3 8.9-.6 22.5 16.8 43.7 34.9 60.4 57.6 9.5 12.8 16.3 26.5 14.6 43.4-1.5 14.7-14.6 28.8-28.9 32.5-16.2 4.3-28.5-2.5-42.3-12.3z"/><path d="m204.4 253.4c-3.2 12.2-7.3 14.6-16 9.9 5.1-16.2 10.1-32.6 15.4-48.9.4-1.2 2.5-2.4 3.9-2.7 2.5-.4 5.2-.1 7.8-.2 3.6-.2 5.1 1.6 6.2 5 4.6 14.5 9.2 29 14.4 43.3 1.4 3.9 0 4.6-2.9 5.3-6.9 1.5-9.8-.5-11.7-7.5-.5-1.7-2.7-3.8-4.4-4.1-4-.5-8.2-.1-12.7-.1zm8.9-25.6c-.7 0-1.3 0-2 0-1.2 4.9-2.3 9.8-3.7 15.4 4-.2 6.4-.3 9.9-.5-1.6-5.6-2.9-10.3-4.2-14.9z"/><path d="m92.4 447.2c-2.5 8.3-4.7 16.2-7.2 24-2.3 7.1-4.9 14.1-7.1 21.3-1.5 4.8-3.6 8.3-9.4 8-7.2-.4-9.4-2.5-11.2-8.9-3.7-12.7-7.9-25.2-11.8-37.9-.6-2-1-4.1-1.5-6.1 8.6-3 10.8-2.2 13.9 5.7 2.4 6.1 7.7 5.1 12.2 4.6 2.6-.3 6.2-2.3 7.2-4.5 3.4-7.9 4.1-8.6 14.9-6.2zm-25.3 35.8c.8-.2 1.6-.4 2.5-.5 1.1-4.7 2.2-9.4 3.3-14.5-3.7 0-6.4 0-10.3 0 1.7 5.5 3.1 10.2 4.5 15z"/></svg>