<?xml version="1.0" encoding="utf-8"?>
<!-- Generator: Adobe Illustrator 14.0.0, SVG Export Plug-In . SVG Version: 6.00 Build 43363)  -->
<!DOCTYPE svg PUBLIC "-//W3C//DTD SVG 1.1//EN" "http://www.w3.org/Graphics/SVG/1.1/DTD/svg11.dtd">
<svg version="1.1" xmlns="http://www.w3.org/2000/svg" xmlns:xlink="http://www.w3.org/1999/xlink" x="0px" y="0px" width="512px"
	 height="512px" viewBox="0 0 512 512" enable-background="new 0 0 512 512" xml:space="preserve">
<g id="Layer_1">
</g>
<g id="amfb">
	<g>
		<path d="M256,43.089c-87.991,0-159.322,71.331-159.322,159.322c0,87.991,71.331,159.321,159.322,159.321
			c87.991,0,159.321-71.33,159.321-159.321C415.321,114.42,343.991,43.089,256,43.089 M186.354,293.641
			c-7.289,0-13.2-5.912-13.2-13.203c0-7.289,5.912-13.201,13.2-13.201c7.29,0,13.202,5.912,13.202,13.201
			C199.556,287.729,193.644,293.641,186.354,293.641 M257.219,317.376c-9.799,0-17.745-7.945-17.745-17.746
			s7.945-17.746,17.745-17.746c9.802,0,17.747,7.945,17.747,17.746S267.021,317.376,257.219,317.376 M330.47,295.002
			c-7.29,0-13.201-5.912-13.201-13.201c0-7.291,5.911-13.201,13.201-13.201s13.201,5.91,13.201,13.201
			C343.671,289.09,337.76,295.002,330.47,295.002 M382.543,200.48c-33.258-3.379-30.47,28.001-28.539,33.795
			c0,0,25.105-21.363,28.484,0c0.966,12.553-11.104,12.553-16.415,10.622c-7.725-3.862-12.712,2.514-16.897,5.793
			c-4.827,3.862-11.587,2.896-14.001,1.448c-18.346-8.69-29.221,13.51-31.863,17.859c-4.466,7.97-21.967,5.797-26.956,0.675
			c-14.967-14.487-33.875-4.533-37.738-0.675c-10.621,11.581-25.587,2.418-26.553-4.341c-3.862-18.829-22.691-16.897-27.519-14.966
			c-8.69,1.931-16.415,0.965-18.697,0c-7.594-4.828-15.098-2.897-17.688-2.897c-18.039-0.965-14.79-17.38-12.376-21.243
			c9.173-13.035,20.76,5.311,19.312,9.656c1.689,0.845,9.173-1.689,10.621-9.173c1.931-17.863-16.415-29.45-35.243-26.553
			c0,0-14.174-2.91-14.748-22.822C127.445,110.8,185.787,59.989,256,59.989c60.212,0,111.695,37.365,132.531,90.172
			c0.008,0.017,0.015,0.035,0.022,0.053c0.728,1.85,1.412,3.721,2.064,5.608C399.396,183.084,387.005,201.833,382.543,200.48"/>
		<path d="M211.099,389.734h0.037c0.566,17.825,11.523,33.021,27.01,39.747v10.461v0.475v6.769h0.014
			c0.305,12.062,8.174,21.726,17.841,21.726c9.668,0,17.535-9.663,17.841-21.726h0.014v-6.769v-0.475v-10.461
			c15.487-6.726,26.443-21.92,27.01-39.747h0.037v-14.486h-89.802V389.734z"/>
	</g>
</g>
</svg>
