<svg enable-background="new 0 0 512 512" height="512" viewBox="0 0 512 512" width="512" xmlns="http://www.w3.org/2000/svg"><path d="m256 48.498c-114.6 0-207.502 92.901-207.502 207.502s92.902 207.502 207.502 207.502 207.503-92.901 207.503-207.502-92.902-207.502-207.503-207.502m0 370.838c-8.834 0-17.501-.71-25.955-2.061-62.316-96.267 13.259-123.782 37.539-115.978 48.289 16.096 30.404 42.923 35.771 47.395 6.259 5.365 18.777 6.26 20.565 3.576 7.155 2.684 17.886-.894 21.302-6.26 3.416-5.365-14.146-134.582-22.195-153.807.894.894 16.097-14.31 22.195-21.462-17.15 2.683-21.302 2.683-32.926 1.789.895-17.885 0-24.144 5.365-35.77-13.414 8.049-16.095 12.52-22.356 24.145-117.167 2.773-174.209 63.715-201.888 110.792-.493-5.166-.754-10.4-.754-15.695 0-90.208 73.129-163.336 163.337-163.336s163.336 73.128 163.336 163.336c.001 90.207-73.128 163.336-163.336 163.336"/></svg>