<?xml version="1.0" encoding="utf-8"?>
<!-- Generator: Adobe Illustrator 14.0.0, SVG Export Plug-In . SVG Version: 6.00 Build 43363)  -->
<!DOCTYPE svg PUBLIC "-//W3C//DTD SVG 1.1//EN" "http://www.w3.org/Graphics/SVG/1.1/DTD/svg11.dtd">
<svg version="1.1" xmlns="http://www.w3.org/2000/svg" xmlns:xlink="http://www.w3.org/1999/xlink" x="0px" y="0px" width="512px"
	 height="512px" viewBox="0 0 512 512" enable-background="new 0 0 512 512" xml:space="preserve">
<g id="Layer_1">
</g>
<g id="amfb">
	<g>
		<path d="M28.724,412.653c35.9-51.136,93.665-111.743,215.825-62.5c122.162,49.242,199.042,49.242,238.726,5.682
			c0,0-55.959,112.105-153.498,96.007C232.239,435.743,112.144,335.001,28.724,412.653z"/>
		<path d="M100.217,324.634c-6.401-14.595-10.833-30.25-12.938-46.636c12.529,14.273,25.049,26.734,37.625,37.45
			c5.007-1.311,10.218-2.354,15.636-3.112c-17.12-13.581-35.355-31.479-54.649-55.036c-0.003-0.435-0.016-0.864-0.016-1.299
			c0-3.489,0.118-6.952,0.324-10.39c25.171,29.949,50.137,50.832,73.491,65.323c24.214-0.223,52.195,5.096,84.752,18.22
			c11.375,4.585,22.356,8.742,32.952,12.478c0.215-0.022,0.438-0.045,0.646-0.068c0.002,0.1-0.002,0.195-0.002,0.295
			c5.98,2.102,11.832,4.062,17.568,5.896c0.639-28.162-5.295-61.809-28.311-92.701c7.092-11.315,26.773-30.62,55.215-50.113
			c3.857-2.643,7.701-5.168,11.521-7.582c16.818,29.57,41.771,81.615,20.076,165.246c4.178,0.737,8.268,1.375,12.273,1.918
			c22.545-87.833-4.145-142.581-21.822-173.559c4.6-2.677,9.143-5.163,13.611-7.464c21.727,35.456,40.486,95.084,13.574,181.702
			c18.398,2.138,34.898,2.152,49.584,0.109c20.85-31.298,33.012-68.881,33.012-109.309c0-109.034-88.391-197.423-197.424-197.423
			c-109.034,0-197.424,88.39-197.424,197.423c0,29.477,6.471,57.439,18.052,82.559C84.521,333.346,92.055,328.634,100.217,324.634z
			 M402.725,166.552c16,26.025,25.234,56.657,25.234,89.449c0,21.328-3.916,41.736-11.047,60.566
			c6.293-50.856,6.742-105.341-24.717-147.268C395.832,168.188,399.346,167.271,402.725,166.552z M392.01,151.094
			c-23.473,6.375-51.379,20.105-79.439,39.338c-22.322,15.298-50.174,38.338-60.932,56.529c-3.428-0.24-8.394-0.713-14.495-1.641
			c38.042-74.079,104.936-93.758,146.672-103.996C386.666,144.476,389.396,147.735,392.01,151.094z M349.029,111.856
			c4.467,2.859,8.787,5.928,12.959,9.178c-121.477-13.053-175.03,76.103-188.657,103.913c-3.26-1.667-6.534-3.459-9.806-5.386
			C181.554,186.3,230.163,105.001,349.029,111.856z M256.918,84.959c24.455,0,47.709,5.144,68.748,14.392
			c-43.238,1.748-81.224,15.395-113.314,40.8c-31.803,25.178-50.122,56.091-59.241,72.798
			c-15.684-10.729-30.912-24.823-43.843-43.322C138.963,118.976,193.964,84.959,256.918,84.959z M100.324,187.122
			c23.765,30.65,56.674,53.508,96.014,66.511c25.818,8.532,47.266,10.541,56.175,11.015c3.313,4.372,6.225,8.813,8.791,13.296
			c-97.664-3.086-145.904-54.384-164.721-81.618C97.743,193.212,98.992,190.146,100.324,187.122z"/>
	</g>
</g>
</svg>
