<?xml version="1.0" encoding="utf-8"?>
<!-- Generator: Adobe Illustrator 14.0.0, SVG Export Plug-In . SVG Version: 6.00 Build 43363)  -->
<!DOCTYPE svg PUBLIC "-//W3C//DTD SVG 1.1//EN" "http://www.w3.org/Graphics/SVG/1.1/DTD/svg11.dtd">
<svg version="1.1" xmlns="http://www.w3.org/2000/svg" xmlns:xlink="http://www.w3.org/1999/xlink" x="0px" y="0px" width="512px"
	 height="512px" viewBox="0 0 512 512" enable-background="new 0 0 512 512" xml:space="preserve">
<g id="Layer_1">
</g>
<g id="amfb">
	<g>
		<path d="M263.28,47.39c-48.412,13.1-97.929,38.483-138.826,78.144c-39.302,38.113-65.108,84.041-79.333,129.506l208.738,208.738
			c48.469-13.32,97.585-38.445,137.595-77.244c40.193-38.978,65.4-86.143,78.339-132.632L263.28,47.39z"/>
		<path d="M478.883,206.641c6.229-58.052-6.443-109.918-32.256-136.536c-1.182-1.219-2.439-2.396-3.731-3.553l-3.948-2.808
			l-5.626-4.56c-28.07-18.629-72.933-26.364-122.725-20.828L478.883,206.641z"/>
		<path d="M34.572,300.842c-8.651,58.11,1.597,110.57,26.441,138.566l8.879,8.438c28.246,22.789,79.76,32.319,136.955,25.271
			L34.572,300.842z"/>
	</g>
</g>
</svg>
