<svg enable-background="new 0 0 512 512" height="512" viewBox="0 0 512 512" width="512" xmlns="http://www.w3.org/2000/svg"><path clip-rule="evenodd" d="m468.98 256-11.227-19.598h-49.636l21.637-37.774-11.227-19.604h-22.457l-32.869 57.377h-73.511l36.755-64.156h65.737l11.227-19.604-11.227-19.599h-43.284l24.823-43.319-11.226-19.598h-22.464l-24.812 43.319-21.647-37.774h-22.453l-11.231 19.6 32.868 57.372-36.756 64.156-36.756-64.156 32.868-57.372-11.226-19.598h-22.458l-21.637 37.774-24.824-43.319h-22.453l-11.232 19.598 24.819 43.319h-43.285l-11.226 19.599 11.226 19.604h65.743l36.756 64.156-73.512-.005-32.869-57.372h-22.457l-11.232 19.604 21.642 37.769h-49.636l-11.231 19.601 11.231 19.599h49.636l-21.642 37.773 11.232 19.604 22.458-.006 32.869-57.371h73.512l-36.756 64.155h-65.743l-11.226 19.599 11.226 19.598h43.285l-24.819 43.319 11.226 19.604h22.458l24.824-43.325 21.637 37.779h22.458l11.232-19.604-32.874-57.372 36.756-64.157 36.756 64.157-32.863 57.372 11.227 19.604h22.453l21.642-37.773 24.818 43.319h22.464l11.226-19.599-24.823-43.325h43.284l11.232-19.598-11.232-19.599h-65.737l-36.755-64.155h73.511l32.869 57.371h22.458l11.227-19.598-21.637-37.773h49.636z" fill-rule="evenodd"/></svg>