<svg enable-background="new 0 0 512 512" height="512" viewBox="0 0 512 512" width="512" xmlns="http://www.w3.org/2000/svg"><path d="m417.209 151.917c18.229 12.684 36.053 21.347 49.502 26.892-.662-41.598-12.181-77.171-31.725-97.324-18.914-19.504-53.074-30.562-93.602-31.406 11.486 40.575 36.879 74.737 75.825 101.838"/><path d="m86.369 355.938c-14.679-9.165-28.987-15.897-41.08-20.732-.048 40.724 10.565 75.465 29.796 95.296 18.787 19.372 53.426 30.428 94.602 31.42-12.462-43.61-40.398-79.188-83.318-105.984"/><path d="m399.951 175.035c-45.965-31.983-76.14-74.402-88.539-123.908-59.543 5.464-127.416 31.338-180.065 82.396-51.694 50.13-78.519 114.658-85.411 172.222 15.021 5.465 34.271 13.873 54.178 26.302 50.591 31.586 83.886 75.885 97.277 128.982 61.388-5.148 131.544-30.996 184.625-82.47 51.021-49.477 76.334-113.003 82.206-170.016-15.565-5.763-39.54-16.299-64.271-33.508m-33.09 51.18-5.841 5.869c-4.371 4.393-11.541 4.409-15.935.038l-21.168-21.072-25.094 25.21 20.119 20.026c4.392 4.371 4.408 11.54.037 15.933l-5.841 5.869c-4.371 4.392-11.541 4.407-15.935.037l-20.119-20.027-21.821 21.924 22.37 22.267c4.392 4.372 4.408 11.541.036 15.934l-5.84 5.869c-4.371 4.392-11.541 4.408-15.934.037l-22.371-22.268-19.001 19.09 19.923 19.83c4.391 4.373 4.408 11.541.037 15.934l-5.841 5.869c-4.371 4.392-11.541 4.408-15.933.037l-19.923-19.831-13.46 13.522c-4.372 4.393-11.542 4.408-15.934.037l-5.869-5.842c-4.392-4.371-4.408-11.541-.037-15.933l13.46-13.523-22.836-22.729c-4.392-4.373-4.408-11.541-.037-15.933l5.842-5.869c4.371-4.393 11.541-4.409 15.933-.036l22.836 22.729 19.001-19.09-20.385-20.294c-4.392-4.373-4.408-11.542-.037-15.934l5.842-5.869c4.371-4.392 11.541-4.408 15.933-.037l20.389 20.294 21.822-21.924-22.64-22.535c-4.392-4.373-4.408-11.541-.037-15.934l5.841-5.869c4.371-4.392 11.542-4.408 15.933-.037l22.639 22.536 25.094-25.21-21.59-21.489c-4.392-4.372-4.408-11.542-.036-15.934l5.84-5.869c4.372-4.392 11.541-4.408 15.935-.037l21.59 21.491 6.548-6.579c4.371-4.393 11.541-4.408 15.933-.037l5.868 5.841c4.392 4.372 4.41 11.542.038 15.933l-6.55 6.578 21.17 21.073c4.391 4.373 4.407 11.542.036 15.934"/></svg>