<svg enable-background="new 0 0 512 512" height="512" viewBox="0 0 512 512" width="512" xmlns="http://www.w3.org/2000/svg"><path d="m256 302.334c-46.179 0-83.615 37.435-83.615 83.614s37.436 83.614 83.615 83.614c46.178 0 83.614-37.436 83.614-83.614 0-46.179-37.435-83.614-83.614-83.614m-36.551 131.493c-3.826 0-6.928-3.104-6.928-6.93 0-3.825 3.103-6.929 6.928-6.929 3.826 0 6.928 3.104 6.928 6.929 0 3.827-3.102 6.93-6.928 6.93m37.191 12.456c-5.143 0-9.312-4.17-9.312-9.312 0-5.145 4.169-9.314 9.312-9.314 5.145 0 9.314 4.17 9.314 9.314 0 5.142-4.17 9.312-9.314 9.312m38.444-11.741c-3.826 0-6.929-3.104-6.929-6.929 0-3.826 3.103-6.929 6.929-6.929s6.928 3.103 6.928 6.929c0 3.825-3.102 6.929-6.928 6.929m27.327-49.608c-17.453-1.772-15.989 14.696-14.977 17.737 0 0 13.176-11.213 14.949 0 .506 6.588-5.829 6.588-8.616 5.574-4.053-2.027-6.671 1.319-8.866 3.04-2.535 2.026-6.082 1.521-7.349.76-9.629-4.561-15.335 7.091-16.722 9.373-2.345 4.183-11.529 3.043-14.146.354-7.855-7.604-17.779-2.38-19.807-.354-5.573 6.079-13.429 1.27-13.935-2.277-2.027-9.882-11.909-8.869-14.443-7.855-4.561 1.014-8.614.508-9.812 0-3.985-2.533-7.923-1.521-9.282-1.521-9.467-.506-7.763-9.121-6.496-11.148 4.813-6.841 10.895 2.787 10.135 5.068.887.443 4.814-.888 5.574-4.814 1.013-9.374-8.614-15.455-18.497-13.937 0 0-7.438-1.526-7.74-11.977 6.15-35.088 36.769-61.755 73.619-61.755 31.6 0 58.62 19.61 69.555 47.324.005.01.007.019.011.027.382.971.741 1.953 1.083 2.943 4.607 14.309-1.895 24.15-4.238 23.438"/><path d="m49.78 334.123c-2.512-17.086 6.22-37.286 22.779-34.292 16.558 2.997 10.214 18.809 9.427 23.907-.789 5.099 4.823 13.033 15.96 5.674 11.136-7.356 38.554-29.36 52.937-43.374 14.382-14.017 90.226-73.37 119.842-97.343 0 0 93.052-70.276 112.46-86.333 19.409-16.057 65.342-53.261 65.342-53.261s6.407-5.073 13.06 2.918c6.654 7.991-20.202 27.482-20.202 27.482l-135.683 116.305-144.918 123.033s-48.843 43.938-72.367 45.362-35.715-13.254-38.637-30.078z"/><path d="m459.17 336.975c2.838-17.032-5.491-37.401-22.086-34.735-16.59 2.668-10.561 18.604-9.873 23.715.688 5.113-5.066 12.935-16.046 5.356-10.978-7.574-37.933-30.119-52.024-44.412-14.09-14.297-88.68-75.138-117.791-99.692 0 0-91.561-72.102-110.631-88.539-19.072-16.438-64.221-54.543-64.221-54.543s-6.3-5.199-13.097 2.658c-6.798 7.857 19.644 27.876 19.644 27.876l133.241 118.963 142.338 125.873s47.926 44.895 71.387 46.786c23.463 1.887 35.919-12.545 39.159-29.306z"/></svg>