<?xml version="1.0" encoding="utf-8"?>
<!-- Generator: Adobe Illustrator 19.1.0, SVG Export Plug-In . SVG Version: 6.00 Build 0)  -->
<svg version="1.1" id="Layer_8" xmlns="http://www.w3.org/2000/svg" xmlns:xlink="http://www.w3.org/1999/xlink" x="0px" y="0px"
	 viewBox="0 0 512 512" width="512px" height="512px" style="enable-background:new 0 0 512 512;" xml:space="preserve">
<style type="text/css">
	.st0{fill:none;}
</style>
<path d="M264.2,36.9c23.3,11.8,43.9,35.8,44.9,57.3c1.3,27.8-0.5,37.3,2.4,41.7c2.5,3.7,5.7,3.7,8.7,7.4c2.1,2.5,4,6.6,3.6,13.6
	c0.3,5,0,12-2.4,19.9c-3,9.7-8,16.6-11.9,21.8c-6.9,9.3-9,8.8-13.5,16.4c-4.1,7-3.8,9.9-7.2,17.5c0,0-4.8,10.6-14.7,21.4
	c-15.3,16.5-39,22.2-48.9,24V27.5C235,27.6,249.3,29.3,264.2,36.9z"/>
<path d="M186.2,36.9c-23.3,11.8-43.9,35.8-44.9,57.3c-1.3,27.8-1.2,28.5-1.2,28.5c0.6,3.8,1.7,8.9-1.2,13.3
	c-2.5,3.7-5.7,3.7-8.7,7.4c-2.1,2.5-4,6.6-3.6,13.6c-0.3,5,0,12,2.4,19.9c3,9.7,8,16.6,11.9,21.8c6.9,9.3,9,8.8,13.5,16.4
	c4.1,7,3.8,9.9,7.2,17.5c0,0,4.8,10.6,14.7,21.4c15.3,16.5,39,22.2,48.9,24V27.5C215.3,27.6,201.1,29.3,186.2,36.9z"/>
<path d="M154.4,251.6c1,1.7,23.8,39.8,69.2,40.5c29.6,0.5,57.3-15.1,72-40.5c16.3,6.6,32.6,13.3,48.9,19.9
	c-7.7,3.1-53.5,22.2-72.4,72.5c-14.5,38.5-4.4,72.3-0.8,82.6c-49.2,5.8-113.2,7.4-185.3-7c-24.7-4.9-47.4-11.1-68-17.9
	c0-12,1.5-57.9,37.4-98.6C93.3,259.9,142.9,252.9,154.4,251.6z"/>
<path class="st0" d="M334.1,367.4c-7.9,0-14.3,6.3-14.3,14v10.9c0,7.7,6.4,14,14.3,14h34.6v-39H334.1z"/>
<path class="st0" d="M443.1,367.4h-34.6v39h34.6c7.9,0,14.3-6.3,14.3-14v-10.9C457.4,373.7,451,367.4,443.1,367.4z"/>
<path d="M387.4,279.9c-58.9,0-106.6,45.8-106.6,102.3c0,56.5,47.7,102.3,106.6,102.3S494,438.7,494,382.2
	C494,325.7,446.3,279.9,387.4,279.9z M457.4,392.3c0,7.7-6.4,14-14.3,14h-34.6v33.9c0,7.7-6.4,14-14.3,14h-11.1
	c-7.9,0-14.3-6.3-14.3-14v-33.9h-34.6c-7.9,0-14.3-6.3-14.3-14v-10.9c0-7.7,6.4-14,14.3-14h34.6v-33.9c0-7.7,6.4-14,14.3-14h11.1
	c7.9,0,14.3,6.3,14.3,14v33.9h34.6c7.9,0,14.3,6.3,14.3,14V392.3z"/>
</svg>
