<svg enable-background="new 0 0 512 512" height="512" viewBox="0 0 512 512" width="512" xmlns="http://www.w3.org/2000/svg"><path d="m264.2 36.9c23.3 11.8 43.9 35.8 44.9 57.3 1.3 27.8-.5 37.3 2.4 41.7 2.5 3.7 5.7 3.7 8.7 7.4 2.1 2.5 4 6.6 3.6 13.6.3 5 0 12-2.4 19.9-3 9.7-8 16.6-11.9 21.8-6.9 9.3-9 8.8-13.5 16.4-4.1 7-3.8 9.9-7.2 17.5 0 0-4.8 10.6-14.7 21.4-15.3 16.5-39 22.2-48.9 24v-250.4c9.8.1 24.1 1.8 39 9.4z"/><path d="m186.2 36.9c-23.3 11.8-43.9 35.8-44.9 57.3-1.3 27.8-1.2 28.5-1.2 28.5.6 3.8 1.7 8.9-1.2 13.3-2.5 3.7-5.7 3.7-8.7 7.4-2.1 2.5-4 6.6-3.6 13.6-.3 5 0 12 2.4 19.9 3 9.7 8 16.6 11.9 21.8 6.9 9.3 9 8.8 13.5 16.4 4.1 7 3.8 9.9 7.2 17.5 0 0 4.8 10.6 14.7 21.4 15.3 16.5 39 22.2 48.9 24v-250.5c-9.9.1-24.1 1.8-39 9.4z"/><path d="m154.4 251.6c1 1.7 23.8 39.8 69.2 40.5 29.6.5 57.3-15.1 72-40.5 16.3 6.6 32.6 13.3 48.9 19.9-7.7 3.1-53.5 22.2-72.4 72.5-14.5 38.5-4.4 72.3-.8 82.6-49.2 5.8-113.2 7.4-185.3-7-24.7-4.9-47.4-11.1-68-17.9 0-12 1.5-57.9 37.4-98.6 37.9-43.2 87.5-50.2 99-51.5z"/><path d="m334.1 367.4c-7.9 0-14.3 6.3-14.3 14v10.9c0 7.7 6.4 14 14.3 14h34.6v-39h-34.6z" fill="none"/><path d="m443.1 367.4h-34.6v39h34.6c7.9 0 14.3-6.3 14.3-14v-10.9c0-7.8-6.4-14.1-14.3-14.1z" fill="none"/><path d="m387.4 279.9c-58.9 0-106.6 45.8-106.6 102.3s47.7 102.3 106.6 102.3 106.6-45.8 106.6-102.3-47.7-102.3-106.6-102.3zm70 112.4c0 7.7-6.4 14-14.3 14h-34.6v33.9c0 7.7-6.4 14-14.3 14h-11.1c-7.9 0-14.3-6.3-14.3-14v-33.9h-34.6c-7.9 0-14.3-6.3-14.3-14v-10.9c0-7.7 6.4-14 14.3-14h34.6v-33.9c0-7.7 6.4-14 14.3-14h11.1c7.9 0 14.3 6.3 14.3 14v33.9h34.6c7.9 0 14.3 6.3 14.3 14z"/></svg>