<svg enable-background="new 0 0 512 512" height="512" viewBox="0 0 512 512" width="512" xmlns="http://www.w3.org/2000/svg"><path d="m402.9 53.6c3.8-4.3 6.9-7.8 9.9-11.3 12.5-14.1 30.5-14.6 43.5-1 6.6 6.9 13 13.9 19.3 21 11.5 13 12 31.4 1.4 45.3-23.6 30.9-47 61.9-70.7 92.7-2.8 3.6-4.1 7.2-4.1 11.9.1 83.1.1 166.2.1 249.3 0 13.2-5.4 18.8-18.3 18.8-104.2 0-208.4 0-312.7 0-13.3 0-18.5-5.4-18.5-19.1 0-137 .1-274-.1-410.9 0-11.9 6.1-18.9 18.2-18.9 104.2.3 208.4.2 312.7.2 13.8 0 18.1 4.3 18.8 18.6 0 .8.2 1.5.5 3.4zm-169.3 73.8c30 33.5 60.2 67.2 90.7 101.2 45.1-50.9 89.8-101.3 133.6-150.9-6.2-6.5-11.8-12.5-17.8-18.7-38.4 37.1-77.2 74.5-116.1 112.1-23.4-22.3-46.4-44.3-69.2-66.1-7.1 7.6-13.9 14.7-21.2 22.4zm20.8 128.1c-28.6 0-57.2 0-85.9 0-4 0-7.5.8-9.5 4.7-5.4 10.9.4 21 12 21h165.1c11.8 0 13.9-2.2 13.8-14.4 0-8.7-2.5-11.3-10.8-11.3-28.1-.1-56.4 0-84.7 0zm.5 71.8c-28.8 0-57.6 0-86.4 0-4 0-7.5.8-9.4 4.8-5.3 11 .5 21 12.2 21h165.1c11.7 0 13.8-2.2 13.8-14.4 0-8.7-2.5-11.2-10.9-11.2-28.2-.2-56.3-.2-84.4-.2zm3.7-118c.2-.4.5-.9.7-1.3-6.7-7.8-13.3-15.7-20.1-23.5-.6-.7-2.2-.9-3.3-.9-23 0-46-.2-69.1.1-2.5 0-6.7 2.1-7 3.8-1 5.5-1.5 11.5-.3 16.8 1.1 4.8 6.4 4.9 10.7 4.9h56.4c10.7.1 21.3.1 32 .1zm-135.8-25.7c-10.4 0-12.3 1.9-12.3 12.3 0 10.9 2.2 13.4 12.1 13.4 10.2 0 12.6-2.5 12.6-12.9 0-10.9-1.9-12.8-12.4-12.8zm12.4 84.5c0-10.4-2-12.7-11-12.7-12.1 0-13.7 1.5-13.8 12.4 0 10.8 2.2 13.3 12.2 13.3 10.2 0 12.6-2.4 12.6-13zm-12.5 59.2c-10.4 0-12.3 1.9-12.3 12.3 0 10.9 2.2 13.3 12.2 13.3 10.2 0 12.6-2.5 12.6-12.9 0-10.8-1.9-12.7-12.5-12.7z"/></svg>