<svg height="256" viewBox="0 0 256 256" width="256" xmlns="http://www.w3.org/2000/svg"><path d="m37 51.07c-3.89 1.57-7.83 2.07-12 1.89-19.31-.84-30.71-22.21-21.59-38.96 4.36-7.99 11.07-11.64 19.59-13.54 31.05-4.01 41.82 39.35 14 50.61zm214.91 22.93c5.1 14.28 4.11 21.4 4.09 36-.04 26.14-17.02 54.07-35 72-11.06 11.02-30.15 24.34-46 26.52-7.03.97-13.43-7.95-18-12.52 0 0-13.04-14-13.04-14s-28.96-29-28.96-29-39-39-39-39c-3.25-3.25-15.49-14.66-16.68-18-.9-2.51.39-6.48 1.11-9 2.22-7.79 4.57-12.88 8.35-20 11.35-21.37 37.74-41.09 60.22-49.58 8.68-3.27 14-4.32 23-5.98 42.72-5.48 85.5 22.15 99.91 62.56zm-177.91 61s29 29 29 29 29 29 29 29 17 18 17 18c-8.63 0-14.56-.55-23-2.66-8.42-2.11-9.99-4.22-20-4.34-5.48-.06-9.99-.01-14.99 2.67-3.75 2.02-6.16 5.29-9.04 8.33-7.19 7.57-13.73 15.73-20.09 24-7.09 9.21-10.33 17.33-22.88 16.98-12.03-.32-28.09-15.79-28.53-27.98-.3-8.42 7.71-13.75 13.53-18.4 0 0 25-20.19 25-20.19 3.64-3.06 10.68-8.6 12.99-12.41 3.97-6.54 3.39-19.83 1.38-27 0 0-4.63-13-4.63-13-1.31-4.73-2.51-14.04-2.74-19 0 0 18 17 18 17z"/></svg>