<?xml version="1.0" encoding="utf-8"?>
<!-- Generator: Adobe Illustrator 16.0.0, SVG Export Plug-In . SVG Version: 6.00 Build 0)  -->
<!DOCTYPE svg PUBLIC "-//W3C//DTD SVG 1.1//EN" "http://www.w3.org/Graphics/SVG/1.1/DTD/svg11.dtd">
<svg version="1.1" id="Layer_1" xmlns="http://www.w3.org/2000/svg" xmlns:xlink="http://www.w3.org/1999/xlink" x="0px" y="0px"
	 width="50px" height="50px" viewBox="0 0 50 50" enable-background="new 0 0 50 50" xml:space="preserve">
<rect x="0" y="0" fill="transparent" width="50" height="50"/>
<g>
	<g>
		<g>
			<path fill="#FFFFFF" d="M37.581,14.9l0.556,0.357c0.2,0.129,0.473,0.071,0.604-0.131c0.131-0.207,0.072-0.476-0.131-0.608
				l-0.559-0.354L37.581,14.9z"/>
			<path fill="#FFFFFF" d="M23.885,21.912l9.014-1.95c0.406-0.045,0.791-0.249,1.055-0.591c0.023-0.029,0.049-0.062,0.066-0.094
				c0.004-0.006,0.008-0.01,0.015-0.016l0,0c0.007-0.008,0.01-0.014,0.016-0.023l3.726-5.783c0.463-0.72,0.256-1.681-0.465-2.143
				c-0.719-0.468-1.679-0.259-2.144,0.461l-3.385,5.253l-8.553,1.851c-0.837,0.182-1.369,1.009-1.188,1.845
				C22.221,21.561,23.047,22.092,23.885,21.912z"/>
			<path fill="#FFFFFF" d="M23.593,13.363c-0.866,1.339-0.481,3.123,0.858,3.983c1.34,0.863,3.126,0.476,3.988-0.863
				c0.863-1.338,0.477-3.12-0.862-3.986C26.238,11.637,24.453,12.024,23.593,13.363z"/>
			<path fill="#FFFFFF" d="M33.139,24.812c0.35,0.224,0.75,0.292,1.129,0.218c0.037-0.003,0.069-0.008,0.104-0.015l4.656-1.008
				c0.832-0.18,1.367-1.006,1.187-1.844c-0.183-0.839-1.01-1.37-1.843-1.191l-4.089,0.885l-1.815-1.17l-8.45,1.829
				c-1.169,0.253-2.327-0.49-2.581-1.664c-0.014-0.066-0.024-0.135-0.033-0.204l-4.044,6.274l6.512,4.196l5.59-8.674L33.139,24.812z
				"/>
			<path fill="#FFFFFF" d="M17.616,42.1l2.752,1.771c0.791,0.51,1.852,0.279,2.363-0.51c0.513-0.799,0.282-1.854-0.511-2.365
				l-2.755-1.771L17.616,42.1z"/>
			<path fill="#FFFFFF" d="M15.6,29.654l-4.15,6.439c-0.511,0.797-0.283,1.854,0.512,2.365c0.008,0.003,0.017,0.006,0.025,0.01
				l1.389,0.897l0.756-1.175c0.069-0.076,0.135-0.153,0.196-0.246l4.144-6.438l0.501,0.318c-0.013,0.021-0.027,0.038-0.042,0.06
				l-8.869,13.768c-0.568,0.889-0.314,2.062,0.57,2.634c0.884,0.569,2.061,0.313,2.632-0.572l8.869-13.766
				c0.094-0.146,0.164-0.302,0.213-0.458l0.934-1.452l-6.512-4.195L15.6,29.654z"/>
			<path fill="#FFFFFF" d="M28.878,9.293l5.052,3.251l0.478-0.732l-5.054-3.256c0.525-1.289-0.101-2.944-1.543-3.872
				c-1.595-1.029-3.586-0.787-4.439,0.539c-0.854,1.325-0.251,3.239,1.344,4.268C26.157,10.418,27.924,10.306,28.878,9.293z"/>
			<path fill="transparent" d="M24.107,5.699c0.592-0.917,2.038-1.042,3.227-0.277c1.188,0.766,1.673,2.133,1.08,3.053
				c-0.589,0.918-2.038,1.041-3.226,0.275C24.003,7.987,23.516,6.617,24.107,5.699z"/>
			<g>
				<path fill="#FFFFFF" d="M33.626,5.749c-1.354-0.002-2.455-1.101-2.457-2.457c0.002-1.355,1.104-2.454,2.457-2.456
					c1.353,0.002,2.452,1.101,2.456,2.456C36.078,4.647,34.979,5.746,33.626,5.749z"/>
				<circle fill="transparent" cx="33.626" cy="3.292" r="1.749"/>
				<path fill="#FFFFFF" d="M31.952,4.048c0.301-0.386,0.757-0.412,1.207-0.327c0.425,0.08,0.582,0.37,0.926,0.562
					c0.509,0.286,1.078,0.243,1.511-0.16c0.211-0.198-0.104-0.514-0.316-0.317c-0.613,0.573-1.475-0.417-2.166-0.547
					c-0.538-0.103-1.133,0.03-1.477,0.473C31.461,3.956,31.775,4.275,31.952,4.048L31.952,4.048z"/>
			</g>
		</g>
	</g>
</g>
</svg>
