<?xml version="1.0" encoding="utf-8"?>
<!-- Generator: Adobe Illustrator 19.1.0, SVG Export Plug-In . SVG Version: 6.00 Build 0)  -->
<svg version="1.1" id="Layer_2" xmlns="http://www.w3.org/2000/svg" xmlns:xlink="http://www.w3.org/1999/xlink" x="0px" y="0px"
	 viewBox="0 0 512 512" enable-background="new 0 0 512 512" xml:space="preserve">
<g>
	<path d="M21.854,262.202c4.001-4.483,23.018-6.022,37.26-9.447c4.912-1.181,10.075-1.703,15.121-1.692
		c17.476,0.04,34.975-0.022,52.414,0.958c6.492,0.365,12.815,3.604,19.263,5.339c11.096,2.987,19.173-2.068,24.993-11.412
		c26.727-42.912,59.228-80.846,92.104-118.484c10.86-12.433,21.507-25.078,31.948-37.899c2.165-2.658,3.524-6.389,4.302-9.861
		c1.223-5.456,1.735-11.101,2.369-16.688c0.832-7.334,4.567-12.042,10.832-15.335c2.798-1.471,5.141-4.389,7.046-7.142
		c5.307-7.666,10.496-8.61,17.087-2.322c4.178,3.986,7.198,6.302,10.624-1.287c1.741-3.857,6.263-6.331,9.528-9.43
		c3.958,0,7.916,0,11.873,0c0.91,3.371,2.267,6.687,2.652,10.123c1.627,14.555,10.378,23.421,21.506,30.488
		c11.429,7.258,20.691,16.314,25.262,30.095c5.792,17.462,18.287,28.756,33.089,37.676c13.814,8.325,27.817,16.335,41.314,25.194
		c5.862,3.847,5.084,16.143-0.469,20.893c-6.398,5.472-12.788,10.954-19.233,16.366c-8.705,7.31-17.455,11.363-29.613,7.965
		c-9.804-2.741-20.689-1.411-31.097-1.509c-5.968-0.056-11.535,0.556-15.546-6.05c-1.266-2.085-5.959-2.445-9.125-2.592
		c-12.026-0.557-24.077-1.037-36.099-0.711c-2.314,0.063-5.545,3.432-6.635,6.061c-7.055,17.011-13.4,34.346-20.417,51.375
		c-16.483,40.002-34.772,79.277-49.368,120.015c-28.56,79.711-14.893,99.632-31.884,108.268
		C183.644,511.301,2.41,283.99,21.854,262.202z"/>
</g>
</svg>
