<svg enable-background="new 0 0 512 512" viewBox="0 0 512 512" xmlns="http://www.w3.org/2000/svg"><path d="m21.854 262.202c4.001-4.483 23.018-6.022 37.26-9.447 4.912-1.181 10.075-1.703 15.121-1.692 17.476.04 34.975-.022 52.414.958 6.492.365 12.815 3.604 19.263 5.339 11.096 2.987 19.173-2.068 24.993-11.412 26.727-42.912 59.228-80.846 92.104-118.484 10.86-12.433 21.507-25.078 31.948-37.899 2.165-2.658 3.524-6.389 4.302-9.861 1.223-5.456 1.735-11.101 2.369-16.688.832-7.334 4.567-12.042 10.832-15.335 2.798-1.471 5.141-4.389 7.046-7.142 5.307-7.666 10.496-8.61 17.087-2.322 4.178 3.986 7.198 6.302 10.624-1.287 1.741-3.857 6.263-6.331 9.528-9.43h11.873c.91 3.371 2.267 6.687 2.652 10.123 1.627 14.555 10.378 23.421 21.506 30.488 11.429 7.258 20.691 16.314 25.262 30.095 5.792 17.462 18.287 28.756 33.089 37.676 13.814 8.325 27.817 16.335 41.314 25.194 5.862 3.847 5.084 16.143-.469 20.893-6.398 5.472-12.788 10.954-19.233 16.366-8.705 7.31-17.455 11.363-29.613 7.965-9.804-2.741-20.689-1.411-31.097-1.509-5.968-.056-11.535.556-15.546-6.05-1.266-2.085-5.959-2.445-9.125-2.592-12.026-.557-24.077-1.037-36.099-.711-2.314.063-5.545 3.432-6.635 6.061-7.055 17.011-13.4 34.346-20.417 51.375-16.483 40.002-34.772 79.277-49.368 120.015-28.56 79.711-14.893 99.632-31.884 108.268-59.311 30.144-240.545-197.167-221.101-218.955z"/></svg>