<?xml version="1.0" encoding="utf-8"?>
<!-- Generator: Adobe Illustrator 19.1.0, SVG Export Plug-In . SVG Version: 6.00 Build 0)  -->
<svg version="1.1" xmlns="http://www.w3.org/2000/svg" xmlns:xlink="http://www.w3.org/1999/xlink" x="0px" y="0px"
	 viewBox="0 0 512 512" enable-background="new 0 0 512 512" xml:space="preserve">
<g id="Layer_4">
	<path d="M294.309,397.255c0,16.56,0,32.465,0,49.214c8.097,0,16.177-0.144,24.25,0.037c9.687,0.217,19.401,0.371,29.032,1.301
		c2.704,0.261,5.153,3.157,7.719,4.845c-2.449,1.63-4.701,3.993-7.393,4.718c-3.951,1.064-8.217,1.292-12.35,1.298
		c-52.407,0.075-104.814,0.106-157.221-0.048c-5.124-0.015-10.305-1.053-15.332-2.182c-1.658-0.372-2.913-2.532-4.353-3.874
		c1.455-1.323,2.723-3.413,4.402-3.823c4.667-1.14,9.492-2.089,14.277-2.202c12.314-0.291,24.639-0.091,36.96-0.087
		c1.696,0.001,3.392,0,5.477,0c0-16.522,0-32.542,0-49.411c-6.791,0-13.325-0.009-19.859,0.001
		c-47.717,0.078-95.435,0.218-143.152,0.206c-14.363-0.004-21.267-7.235-21.265-21.559c0.014-92.663,0.019-185.327,0.014-277.99
		c-0.001-12.629,7.74-20.447,20.391-20.447c103.934-0.001,207.869,0.007,311.803,0.011c29.67,0.001,59.339-0.014,89.009-0.002
		c14.845,0.006,21.824,6.771,21.832,21.557c0.033,62.123-0.045,124.246-0.042,186.369c0.001,29.844,0.067,59.687,0.154,89.531
		c0.045,15.641-6.724,22.52-22.388,22.524c-51.881,0.011-103.762,0.009-155.642,0.013
		C298.607,397.255,296.583,397.255,294.309,397.255z M55.572,97.246c0,77.792,0,155.407,0,233.251c135.388,0,270.424,0,405.689,0
		c0-77.964,0-155.411,0-233.251C325.789,97.246,190.881,97.246,55.572,97.246z M269.228,366.909
		c0.236-6.568-5.279-12.556-11.794-12.804c-6.803-0.259-12.258,4.896-12.516,11.827c-0.254,6.835,4.911,12.528,11.631,12.82
		C263.167,379.04,268.987,373.604,269.228,366.909z"/>
	<rect x="186.5" y="79" fill="none" width="367" height="358"/>
	<text transform="matrix(1 0 0 1 186.5 291.9971)" display="none" font-family="'MyriadPro-Regular'" font-size="300px">v</text>
	
		<image display="none" overflow="visible" width="170" height="170" xlink:href="../../Desktop/Basketball-Icon2.png"  transform="matrix(0.7706 0 0 0.7706 15.5 33.5)">
	</image>
</g>
<g id="Layer_2">
	<g>
		<path display="none" d="M151.54,323.542c0-73.027,0-146.054,0-219.081c73.027,0,146.054,0,219.081,0c0,73.027,0,146.054,0,219.081
			C297.594,323.542,224.567,323.542,151.54,323.542z M262.379,298.973c0.026,1.054,0.052,2.108,0.078,3.162
			c3.306,0,6.637,0.263,9.916-0.039c63.175-5.818,100.029-76.546,68.129-131.291c-16.961-29.108-42.475-44.504-76.572-45.051
			c-2.248-0.036-5.287-1.445-6.533-3.218c-2.979-4.235-6.56-7.126-11.677-6.555c-5.294,0.591-10.461,2.935-11.696,8.587
			c-1.246,5.702-5.014,7.642-9.544,9.951c-30.399,15.498-46.582,40.71-49.83,74.418c-0.187,1.941,1.204,4.034,1.86,6.056
			c0.769-0.097,1.537-0.193,2.306-0.29c2.201-35.851,18.622-61.965,51.951-78.088c-0.359,4.949-0.889,8.548-0.818,12.135
			c0.106,5.292-0.302,10.86,1.19,15.803c3.02,10.005,7.556,19.544,10.743,29.508c3.146,9.836,7.707,20.133,0.967,30.102
			c-5.42,8.016-3.697,15.768-1.136,23.873c0.477,1.509,0.555,3.143,0.817,4.719c-0.565,0.554-1.129,1.109-1.694,1.663
			c-2.641-1.776-5.16-3.781-7.957-5.261c-2.557-1.354-6.443-3.81-7.955-2.879c-5.594,3.447-11.023,7.592-15.323,12.516
			c-1.986,2.274-1.222,6.95-1.705,10.536c3.035-0.645,6.114-1.139,9.086-2.001c1.389-0.403,2.546-2.151,3.853-2.204
			c6.345-0.262,12.711-0.285,19.055-0.036c0.908,0.036,1.739,2.016,2.606,3.096c-1.064,0.784-2.041,1.742-3.206,2.32
			c-4.765,2.364-9.709,4.392-14.35,6.972c-3.771,2.096-6.971,3.031-10.285-0.724c-2.049-2.322-5.253-3.682-6.88-0.217
			c-3.423,7.292-6.2,14.906-8.825,22.532c-0.409,1.19,1.054,4.045,2.252,4.482c1.223,0.446,3.912-0.679,4.699-1.917
			c3.358-5.279,6.717-10.063,14.112-8.759c0.651,0.115,1.483-0.641,2.195-1.054c3.14-1.82,6.064-4.374,9.444-5.343
			c6.134-1.757,12.642-2.196,18.794-3.903c5.246-1.455,13.047,0.324,13.397-8.838c0.019-0.506,0.933-0.922,1.139-1.486
			c1.26-3.455,3.803-7.104,3.412-10.389c-2.009-16.866,2.995-32.652,6.49-48.686c0.346-1.587,1.336-3.034,2.275-5.089
			c2.445,1.753,4.864,2.909,6.489,4.761c5.112,5.825,12.063,6.74,19.041,8.033c6.058,1.123,12.308,2.073,17.95,4.381
			c8.866,3.626,8.679,4.081,11.324-4.976c-2.149-0.792-4.354-2.346-6.499-2.268c-9.831,0.36-18.282-4.076-26.971-7.47
			c-3.31-1.293-6.179-4.002-8.905-6.448c-6.136-5.506-12.212-11.102-17.947-17.015c-1.274-1.313-1.651-4.18-1.357-6.172
			c0.467-3.164,2.27-6.13,2.738-9.294c0.668-4.518-1.366-8.561-5.794-9.48c-3.122-0.649-7.956-0.151-9.782,1.866
			c-2.248,2.483-2.395,7.041-2.977,10.776c-0.245,1.572,0.723,3.333,1.139,5.007c-0.49,0.315-0.979,0.631-1.469,0.946
			c-1.858-1.512-4.748-2.675-5.397-4.595c-2.955-8.747-9.367-16.187-9.334-26.127c0.014-4.254-1.674-8.513-2.889-14.165
			c7.442,3.988,14.153,5.781,18.624-0.574c3.231-4.592,6.835-5.08,11.387-4.714c4.045,0.325,8.121,0.564,12.106,1.273
			c42.154,7.509,70.787,45.083,68.322,89.54c-2.183,39.376-36.535,73.389-76.867,76.192
			C267.505,297.745,264.951,298.491,262.379,298.973z"/>
		<path d="M262.379,298.973c2.572-0.482,5.126-1.228,7.719-1.408c40.331-2.803,74.684-36.816,76.867-76.192
			c2.465-44.457-26.167-82.031-68.322-89.54c-3.985-0.71-8.062-0.948-12.106-1.273c-4.552-0.366-8.156,0.122-11.387,4.714
			c-4.471,6.355-11.182,4.562-18.624,0.574c1.214,5.652,2.903,9.911,2.889,14.165c-0.034,9.941,6.379,17.38,9.334,26.127
			c0.649,1.92,3.539,3.083,5.397,4.595c0.49-0.315,0.979-0.631,1.469-0.946c-0.416-1.675-1.384-3.436-1.139-5.007
			c0.581-3.735,0.729-8.293,2.977-10.776c1.826-2.017,6.66-2.515,9.782-1.866c4.428,0.92,6.462,4.962,5.794,9.48
			c-0.468,3.164-2.271,6.13-2.738,9.294c-0.294,1.991,0.084,4.858,1.357,6.172c5.735,5.913,11.811,11.509,17.947,17.015
			c2.726,2.446,5.595,5.155,8.905,6.448c8.689,3.395,17.14,7.83,26.971,7.47c2.145-0.079,4.35,1.476,6.499,2.268
			c-2.645,9.058-2.458,8.602-11.324,4.976c-5.642-2.307-11.892-3.258-17.95-4.381c-6.978-1.293-13.929-2.208-19.041-8.033
			c-1.625-1.852-4.045-3.008-6.489-4.761c-0.939,2.055-1.929,3.502-2.275,5.089c-3.495,16.034-8.499,31.82-6.49,48.686
			c0.391,3.286-2.151,6.934-3.412,10.389c-0.206,0.564-1.12,0.98-1.139,1.486c-0.35,9.162-8.152,7.383-13.397,8.838
			c-6.153,1.707-12.661,2.145-18.794,3.903c-3.38,0.969-6.304,3.522-9.444,5.343c-0.712,0.413-1.544,1.169-2.195,1.054
			c-7.395-1.303-10.754,3.481-14.112,8.759c-0.788,1.238-3.477,2.363-4.699,1.917c-1.198-0.437-2.661-3.292-2.252-4.482
			c2.624-7.626,5.401-15.241,8.825-22.532c1.627-3.465,4.83-2.105,6.88,0.217c3.314,3.755,6.514,2.82,10.285,0.724
			c4.641-2.579,9.585-4.608,14.35-6.972c1.166-0.578,2.143-1.536,3.206-2.32c-0.867-1.08-1.698-3.061-2.606-3.096
			c-6.344-0.249-12.71-0.226-19.055,0.036c-1.307,0.054-2.463,1.801-3.853,2.204c-2.972,0.862-6.051,1.356-9.086,2.001
			c0.483-3.587-0.281-8.262,1.705-10.536c4.3-4.923,9.729-9.069,15.323-12.516c1.512-0.932,5.398,1.525,7.955,2.879
			c2.797,1.481,5.317,3.485,7.957,5.261c0.565-0.554,1.129-1.109,1.694-1.663c-0.262-1.576-0.34-3.211-0.817-4.719
			c-2.562-8.105-4.284-15.857,1.136-23.873c6.74-9.969,2.179-20.266-0.967-30.102c-3.187-9.963-7.723-19.503-10.743-29.508
			c-1.492-4.943-1.084-10.511-1.19-15.803c-0.072-3.587,0.458-7.186,0.818-12.135c-33.329,16.122-49.75,42.236-51.951,78.088
			c-0.769,0.097-1.537,0.193-2.306,0.29c-0.657-2.022-2.047-4.115-1.86-6.056c3.248-33.709,19.43-58.921,49.83-74.418
			c4.53-2.309,8.298-4.249,9.544-9.951c1.236-5.652,6.402-7.996,11.696-8.587c5.117-0.571,8.699,2.32,11.677,6.555
			c1.247,1.772,4.285,3.182,6.533,3.218c34.097,0.546,59.611,15.943,76.572,45.051c31.9,54.745-4.954,125.473-68.129,131.291
			c-3.279,0.302-6.609,0.039-9.916,0.039C262.431,301.081,262.405,300.027,262.379,298.973z"/>
	</g>
</g>
</svg>
