<svg enable-background="new 0 0 512 512" viewBox="0 0 512 512" xmlns="http://www.w3.org/2000/svg"><path d="m294.309 397.255v49.214c8.097 0 16.177-.144 24.25.037 9.687.217 19.401.371 29.032 1.301 2.704.261 5.153 3.157 7.719 4.845-2.449 1.63-4.701 3.993-7.393 4.718-3.951 1.064-8.217 1.292-12.35 1.298-52.407.075-104.814.106-157.221-.048-5.124-.015-10.305-1.053-15.332-2.182-1.658-.372-2.913-2.532-4.353-3.874 1.455-1.323 2.723-3.413 4.402-3.823 4.667-1.14 9.492-2.089 14.277-2.202 12.314-.291 24.639-.091 36.96-.087 1.696.001 3.392 0 5.477 0 0-16.522 0-32.542 0-49.411-6.791 0-13.325-.009-19.859.001-47.717.078-95.435.218-143.152.206-14.363-.004-21.267-7.235-21.265-21.559.014-92.663.019-185.327.014-277.99-.001-12.629 7.74-20.447 20.391-20.447 103.934-.001 207.869.007 311.803.011 29.67.001 59.339-.014 89.009-.002 14.845.006 21.824 6.771 21.832 21.557.033 62.123-.045 124.246-.042 186.369.001 29.844.067 59.687.154 89.531.045 15.641-6.724 22.52-22.388 22.524-51.881.011-103.762.009-155.642.013-2.025 0-4.049 0-6.323 0zm-238.737-300.009v233.251h405.689c0-77.964 0-155.411 0-233.251-135.472 0-270.38 0-405.689 0zm213.656 269.663c.236-6.568-5.279-12.556-11.794-12.804-6.803-.259-12.258 4.896-12.516 11.827-.254 6.835 4.911 12.528 11.631 12.82 6.618.288 12.438-5.148 12.679-11.843z"/><path d="m186.5 79h367v358h-367z" fill="none"/><path d="m262.379 298.973c2.572-.482 5.126-1.228 7.719-1.408 40.331-2.803 74.684-36.816 76.867-76.192 2.465-44.457-26.167-82.031-68.322-89.54-3.985-.71-8.062-.948-12.106-1.273-4.552-.366-8.156.122-11.387 4.714-4.471 6.355-11.182 4.562-18.624.574 1.214 5.652 2.903 9.911 2.889 14.165-.034 9.941 6.379 17.38 9.334 26.127.649 1.92 3.539 3.083 5.397 4.595.49-.315.979-.631 1.469-.946-.416-1.675-1.384-3.436-1.139-5.007.581-3.735.729-8.293 2.977-10.776 1.826-2.017 6.66-2.515 9.782-1.866 4.428.92 6.462 4.962 5.794 9.48-.468 3.164-2.271 6.13-2.738 9.294-.294 1.991.084 4.858 1.357 6.172 5.735 5.913 11.811 11.509 17.947 17.015 2.726 2.446 5.595 5.155 8.905 6.448 8.689 3.395 17.14 7.83 26.971 7.47 2.145-.079 4.35 1.476 6.499 2.268-2.645 9.058-2.458 8.602-11.324 4.976-5.642-2.307-11.892-3.258-17.95-4.381-6.978-1.293-13.929-2.208-19.041-8.033-1.625-1.852-4.045-3.008-6.489-4.761-.939 2.055-1.929 3.502-2.275 5.089-3.495 16.034-8.499 31.82-6.49 48.686.391 3.286-2.151 6.934-3.412 10.389-.206.564-1.12.98-1.139 1.486-.35 9.162-8.152 7.383-13.397 8.838-6.153 1.707-12.661 2.145-18.794 3.903-3.38.969-6.304 3.522-9.444 5.343-.712.413-1.544 1.169-2.195 1.054-7.395-1.303-10.754 3.481-14.112 8.759-.788 1.238-3.477 2.363-4.699 1.917-1.198-.437-2.661-3.292-2.252-4.482 2.624-7.626 5.401-15.241 8.825-22.532 1.627-3.465 4.83-2.105 6.88.217 3.314 3.755 6.514 2.82 10.285.724 4.641-2.579 9.585-4.608 14.35-6.972 1.166-.578 2.143-1.536 3.206-2.32-.867-1.08-1.698-3.061-2.606-3.096-6.344-.249-12.71-.226-19.055.036-1.307.054-2.463 1.801-3.853 2.204-2.972.862-6.051 1.356-9.086 2.001.483-3.587-.281-8.262 1.705-10.536 4.3-4.923 9.729-9.069 15.323-12.516 1.512-.932 5.398 1.525 7.955 2.879 2.797 1.481 5.317 3.485 7.957 5.261.565-.554 1.129-1.109 1.694-1.663-.262-1.576-.34-3.211-.817-4.719-2.562-8.105-4.284-15.857 1.136-23.873 6.74-9.969 2.179-20.266-.967-30.102-3.187-9.963-7.723-19.503-10.743-29.508-1.492-4.943-1.084-10.511-1.19-15.803-.072-3.587.458-7.186.818-12.135-33.329 16.122-49.75 42.236-51.951 78.088-.769.097-1.537.193-2.306.29-.657-2.022-2.047-4.115-1.86-6.056 3.248-33.709 19.43-58.921 49.83-74.418 4.53-2.309 8.298-4.249 9.544-9.951 1.236-5.652 6.402-7.996 11.696-8.587 5.117-.571 8.699 2.32 11.677 6.555 1.247 1.772 4.285 3.182 6.533 3.218 34.097.546 59.611 15.943 76.572 45.051 31.9 54.745-4.954 125.473-68.129 131.291-3.279.302-6.609.039-9.916.039-.033-1.056-.059-2.11-.085-3.164z"/></svg>