<?xml version="1.0" encoding="utf-8"?>
<!-- Generator: Adobe Illustrator 16.0.0, SVG Export Plug-In . SVG Version: 6.00 Build 0)  -->
<!DOCTYPE svg PUBLIC "-//W3C//DTD SVG 1.1//EN" "http://www.w3.org/Graphics/SVG/1.1/DTD/svg11.dtd">
<svg version="1.1" id="Layer_1" xmlns="http://www.w3.org/2000/svg" xmlns:xlink="http://www.w3.org/1999/xlink" x="0px" y="0px"
	 width="50px" height="50px" viewBox="0 0 50 50" enable-background="new 0 0 50 50" xml:space="preserve" fill="#830001">
<rect fill="transparent" width="50" height="50"/>
<g>
	<g>
		<g>
			<g>
				<g>
					<g>
						<path fill="#FFFFFF" d="M47.741,38.578L33.439,24.279l-0.328-0.328c-0.256,0.333-0.58,0.605-0.957,0.798
							c-0.299,0.156-0.639,0.256-0.973,0.293c-0.104,0.013-0.211,0.019-0.316,0.019c-0.762,0.001-1.475-0.295-2.014-0.833
							c-0.164-0.164-0.306-0.347-0.42-0.542c-0.065-0.107-0.123-0.216-0.176-0.33c-0.016-0.04-0.031-0.079-0.048-0.12
							c-0.009-0.021-0.019-0.043-0.024-0.064L18.099,33.259c-1.005,1.007-1.007,2.64,0,3.646c0.036,0.035,0.073,0.068,0.11,0.103
							c0.036,0.038,0.068,0.077,0.107,0.116l7.293,7.291c0.959,0.96,2.516,0.962,3.477,0c0.959-0.96,0.959-2.52,0-3.479
							l-5.394-5.393l6.701-6.702l13.543,13.54c1.053,1.051,2.752,1.053,3.807,0C48.79,41.332,48.79,39.628,47.741,38.578z"/>
						<path fill="#FFFFFF" d="M15.675,10.829c-0.179,0.549-0.825,0.936-1.362,1.013c-0.284,0.041-0.639,0.024-0.919-0.036
							c-0.156-0.033-0.277-0.096-0.442-0.103c-0.341-0.011-0.623,0.143-0.917,0.274c-0.36,0.16-0.71,0.295-1.083,0.404
							c-0.316,0.092-0.637,0.191-0.836,0.474c-0.161,0.226-0.43,0.512-0.587,0.764c-0.18,0.288-0.428,0.491-0.734,0.587
							c-0.305,0.095-0.741,0.13-1.045,0.035c-0.39-0.122-0.402-0.677-0.42-1.021c-0.024-0.476-0.091-1.14,0.468-1.184
							c0.691-0.059,1.367-0.101,2.054-0.205c0.516-0.078,1.549-0.073,1.61-0.775c0.053-0.609-0.597-1.24-1.078-1.503
							c-0.376-0.206-0.773-0.178-1.182-0.186C8.797,9.361,8.336,9.383,7.975,9.169C7.796,9.064,7.67,8.928,7.584,8.772
							C7.715,7.938,8.098,7.137,8.74,6.495c1.612-1.613,4.227-1.613,5.84,0c0.559,0.559,0.948,1.274,1.114,2.049
							C15.856,9.301,15.915,10.079,15.675,10.829z M13.744,8.495c-0.5,0-0.906,0.406-0.906,0.907c0,0.499,0.407,0.904,0.906,0.904
							c0.501,0,0.906-0.406,0.906-0.904C14.65,8.9,14.245,8.495,13.744,8.495z"/>
						<path fill="#FFFFFF" d="M28.021,16.564c-0.72,0.396-1.543,0.623-2.422,0.623c-1.869,0-3.495-1.017-4.369-2.525
							c0.874-1.508,2.5-2.525,4.369-2.525c0.879,0,1.702,0.228,2.422,0.622V16.564z M24.687,13.139c-0.212,0-0.386,0.271-0.386,0.6
							v1.849c0,0.329,0.174,0.599,0.386,0.599s0.386-0.271,0.386-0.599v-1.849C25.072,13.41,24.898,13.139,24.687,13.139z
							 M26.516,13.139c-0.213,0-0.387,0.271-0.387,0.6v1.849c0,0.329,0.174,0.599,0.387,0.599s0.387-0.271,0.387-0.599v-1.849
							C26.9,13.41,26.729,13.139,26.516,13.139z"/>
						<path fill="#FFFFFF" d="M31.498,8.656c-0.229-0.061-0.352-0.101-1.021-0.101h-8.449c-0.952-0.019-1.91,0.332-2.638,1.061
							l-7.51,7.51l-0.002,0.001c-0.731,0.733-1.082,1.699-1.057,2.657v5.526H3.505c-1.122-0.001-2.032,0.911-2.032,2.034
							c0,1.118,0.91,2.029,2.032,2.029h9.493c0.718,0,1.349-0.373,1.71-0.939c0.199-0.27,0.321-0.599,0.321-0.959v-4.202
							c0.008-0.002,0.017-0.003,0.023-0.007v-1.47c0-0.514,0.417-0.929,0.931-0.929c0.259,0,0.527,0.141,0.695,0.311l2.47,2.473
							l3.19,3.19l5.684-5.683v-2.297l-1.114-1.116c-0.015,0.003-0.026,0.005-0.04,0.008c-0.038,0.009-0.076,0.016-0.114,0.024
							c-0.063,0.012-0.13,0.027-0.192,0.037c-0.041,0.008-0.084,0.014-0.125,0.02c-0.062,0.009-0.129,0.02-0.193,0.027
							c-0.03,0.003-0.062,0.005-0.094,0.008c-0.18,0.018-0.36,0.03-0.543,0.03c-0.122,0-0.243-0.007-0.361-0.015
							c-0.029-0.001-0.06-0.003-0.089-0.006c-0.084-0.007-0.169-0.015-0.253-0.024c-0.047-0.007-0.092-0.015-0.139-0.021
							c-0.063-0.01-0.126-0.02-0.19-0.031c-0.058-0.012-0.117-0.022-0.173-0.034c-0.043-0.009-0.087-0.021-0.131-0.032
							c-1.514-0.366-2.847-1.336-3.646-2.716l-0.207-0.357l0.207-0.356c0.601-1.04,1.506-1.845,2.563-2.338
							c0.354-0.165,0.725-0.294,1.107-0.385c0.032-0.007,0.062-0.015,0.094-0.023c0.068-0.014,0.136-0.027,0.205-0.04
							c0.05-0.008,0.101-0.017,0.151-0.024c0.057-0.01,0.117-0.019,0.175-0.026c0.067-0.007,0.133-0.014,0.2-0.02
							c0.047-0.003,0.094-0.008,0.14-0.011c0.116-0.008,0.231-0.012,0.348-0.012c0.131,0,0.258,0.006,0.388,0.016
							c0.039,0.002,0.077,0.007,0.116,0.009c0.091,0.008,0.181,0.019,0.269,0.031c0.044,0.005,0.088,0.012,0.131,0.018
							c0.107,0.018,0.216,0.038,0.319,0.06c0.062,0.014,0.127,0.031,0.188,0.047c0.062,0.016,0.123,0.033,0.183,0.05
							c0.069,0.02,0.138,0.041,0.204,0.064c0.041,0.013,0.082,0.028,0.125,0.043c0.451,0.16,0.884,0.375,1.279,0.639v9.818
							c-0.002,1.137,0.924,2.062,2.063,2.062c1.137,0,2.062-0.925,2.062-2.062V10.619C32.928,9.7,32.326,8.921,31.498,8.656z"/>
					</g>
				</g>
			</g>
		</g>
	</g>
</g>
</svg>
