<svg enable-background="new 0 0 512 512" fill="#830001" height="512" viewBox="0 0 512 512" width="512" xmlns="http://www.w3.org/2000/svg"><path d="m227.639 105.602c-76.248 12.907-128.411 80.36-116.511 150.664 11.899 70.303 83.358 116.832 159.604 103.926 76.247-12.906 128.41-80.361 116.51-150.663-11.899-70.304-83.357-116.833-159.603-103.927"/><path d="m456.939 248.668-4.837-37.103c-13.422-102.947-113.185-174.815-222.825-160.519-109.64 14.295-187.639 109.34-174.216 212.288l4.837 37.101c13.422 102.947 113.185 174.815 222.825 160.519 109.639-14.295 187.639-109.338 174.216-212.286m-183.313 128.622c-86.488 14.64-167.544-38.14-181.042-117.887-13.5-79.745 45.671-156.26 132.16-170.9 86.488-14.639 167.545 38.14 181.044 117.886 13.498 79.747-45.673 156.261-132.162 170.901"/></svg>