<?xml version="1.0" encoding="utf-8"?>
<!-- Generator: Adobe Illustrator 14.0.0, SVG Export Plug-In . SVG Version: 6.00 Build 43363)  -->
<!DOCTYPE svg PUBLIC "-//W3C//DTD SVG 1.1//EN" "http://www.w3.org/Graphics/SVG/1.1/DTD/svg11.dtd">
<svg version="1.1" xmlns="http://www.w3.org/2000/svg" xmlns:xlink="http://www.w3.org/1999/xlink" x="0px" y="0px" width="512px"
	 height="512px" viewBox="0 0 512 512" enable-background="new 0 0 512 512" xml:space="preserve" fill="#830001">
<g id="Layer_1">
</g>
<g id="amfb">
	<path d="M256,45.241c-116.399,0-210.759,94.36-210.759,210.76c0,116.399,94.36,210.759,210.759,210.759
		c116.399,0,210.76-94.36,210.76-210.759C466.76,139.601,372.399,45.241,256,45.241 M87.445,256
		c0-93.09,75.464-168.555,168.555-168.555c93.09,0,168.555,75.464,168.555,168.555c0,0.95-0.02,1.897-0.036,2.844
		c-30.005,0.301-102.871,0.903-118.183-0.138c-19.396-1.32-43.409-7.786-88.665-83.521c-3.694-8.312-18.472-29.574-50.797,10.149
		c-7.389,7.399-19.155,21.358-45.872,22.177c-5.234,0.308-10.16,8.004,0,9.236c4.925,1.231,11.594,1.46,17.856,4.002
		c2.463,1.847,19.704-1.54,31.402-4.311c11.699-2.771,30.479-6.465,37.56,17.548s47.411,101.594,66.498,132.381
		c2.646,5.879,11.465,15.129,2.073,56.955c-6.686,0.806-13.488,1.231-20.391,1.231C162.91,424.556,87.445,349.091,87.445,256
		 M307.766,416.443c9.519-20.678,30.297-49.531,71.194-45.17C359.661,391.853,335.257,407.579,307.766,416.443"/>
</g>
</svg>
