<?xml version="1.0" encoding="utf-8"?>
<!-- Generator: Adobe Illustrator 14.0.0, SVG Export Plug-In . SVG Version: 6.00 Build 43363)  -->
<!DOCTYPE svg PUBLIC "-//W3C//DTD SVG 1.1//EN" "http://www.w3.org/Graphics/SVG/1.1/DTD/svg11.dtd">
<svg version="1.1" xmlns="http://www.w3.org/2000/svg" xmlns:xlink="http://www.w3.org/1999/xlink" x="0px" y="0px" width="512px"
	 height="512px" viewBox="0 0 512 512" enable-background="new 0 0 512 512" xml:space="preserve" fill="#830001">
<g id="Layer_1">
</g>
<g id="amfb">
	<g>
		<path d="M280.73,279.104c-2.316-2.768-5.412-4.932-9.285-6.494c-3.877-1.559-8.684-2.34-14.421-2.34
			c-5.738,0-10.547,0.781-14.421,2.34c-3.876,1.562-6.972,3.727-9.286,6.494c-2.317,2.77-3.978,6.115-4.983,10.041
			c-1.007,3.926-1.51,8.256-1.51,12.986c0,4.33,0.578,8.381,1.736,12.156c1.156,3.773,2.969,7.047,5.437,9.814
			c2.465,2.77,5.587,4.959,9.361,6.568c3.775,1.611,8.329,2.416,13.666,2.416c5.233,0,9.763-0.805,13.589-2.416
			c3.824-1.609,6.971-3.799,9.438-6.568c2.467-2.768,4.277-6.041,5.438-9.814c1.154-3.775,1.736-7.826,1.736-12.156
			c0-4.73-0.506-9.061-1.512-12.986S283.045,281.873,280.73,279.104z"/>
		<path d="M236.337,225.271c1.911,2.819,4.53,5.084,7.853,6.795c3.322,1.713,7.6,2.566,12.835,2.566
			c5.233,0,9.513-0.854,12.835-2.566c3.322-1.711,5.938-3.976,7.852-6.795c1.91-2.817,3.221-6.04,3.926-9.664
			c0.703-3.624,1.057-7.348,1.057-11.174c0-3.422-0.453-6.743-1.359-9.967c-0.904-3.22-2.391-6.063-4.453-8.531
			c-2.064-2.466-4.734-4.454-8.004-5.965c-3.271-1.51-7.225-2.265-11.853-2.265c-4.733,0-8.709,0.755-11.929,2.265
			c-3.224,1.511-5.866,3.499-7.928,5.965c-2.064,2.468-3.549,5.312-4.455,8.531c-0.905,3.224-1.358,6.545-1.358,9.967
			c0,3.826,0.352,7.55,1.057,11.174C233.114,219.231,234.424,222.454,236.337,225.271z"/>
		<path d="M256,49.477c-114.06,0-206.523,92.464-206.523,206.524c0,114.06,92.464,206.522,206.523,206.522
			c114.061,0,206.523-92.463,206.523-206.522C462.523,141.94,370.061,49.477,256,49.477z M329.881,329.914
			c-3.775,8.055-9.111,14.926-16.006,20.611c-6.896,5.689-15.176,10.094-24.84,13.213s-20.334,4.682-32.011,4.682
			c-11.679,0-22.348-1.562-32.012-4.682s-17.945-7.523-24.84-13.213c-6.896-5.686-12.231-12.557-16.006-20.611
			c-3.775-8.053-5.663-17.01-5.663-26.877c0-5.939,0.68-11.553,2.039-16.838c1.358-5.283,3.522-10.115,6.493-14.494
			c2.968-4.381,6.795-8.279,11.476-11.703c4.681-3.422,10.344-6.291,16.987-8.607c-10.067-4.53-17.542-10.82-22.423-18.875
			c-4.884-8.053-7.324-17.717-7.324-28.992c0-8.556,1.761-16.482,5.285-23.782c3.522-7.298,8.456-13.614,14.798-18.951
			c6.343-5.334,13.866-9.536,22.575-12.608c8.706-3.069,18.245-4.605,28.614-4.605c10.366,0,19.905,1.536,28.614,4.605
			c8.705,3.072,16.232,7.274,22.574,12.608c6.342,5.337,11.273,11.653,14.799,18.951c3.521,7.3,5.283,15.227,5.283,23.782
			c0,11.275-2.467,20.939-7.398,28.992c-4.934,8.055-12.381,14.345-22.348,18.875c6.543,2.316,12.156,5.186,16.836,8.607
			c4.682,3.424,8.506,7.322,11.477,11.703c2.969,4.379,5.158,9.211,6.568,14.494c1.408,5.285,2.113,10.898,2.113,16.838
			C335.543,312.904,333.656,321.861,329.881,329.914z"/>
	</g>
</g>
</svg>
