<?xml version="1.0" encoding="utf-8"?>
<!-- Generator: Adobe Illustrator 14.0.0, SVG Export Plug-In . SVG Version: 6.00 Build 43363)  -->
<!DOCTYPE svg PUBLIC "-//W3C//DTD SVG 1.1//EN" "http://www.w3.org/Graphics/SVG/1.1/DTD/svg11.dtd">
<svg version="1.1" xmlns="http://www.w3.org/2000/svg" xmlns:xlink="http://www.w3.org/1999/xlink" x="0px" y="0px" width="512px"
	 height="512px" viewBox="0 0 512 512" enable-background="new 0 0 512 512" xml:space="preserve" fill="#830001">
<g id="Layer_1">
</g>
<g id="amfb">
	<g>
		<path d="M417.209,151.917c18.229,12.684,36.053,21.347,49.502,26.892c-0.662-41.598-12.181-77.171-31.725-97.324
			c-18.914-19.504-53.074-30.562-93.602-31.406C352.87,90.654,378.263,124.816,417.209,151.917"/>
		<path d="M86.369,355.938c-14.679-9.165-28.987-15.897-41.08-20.732c-0.048,40.724,10.565,75.465,29.796,95.296
			c18.787,19.372,53.426,30.428,94.602,31.42C157.225,418.312,129.289,382.734,86.369,355.938"/>
		<path d="M399.951,175.035c-45.965-31.983-76.14-74.402-88.539-123.908c-59.543,5.464-127.416,31.338-180.065,82.396
			c-51.694,50.13-78.519,114.658-85.411,172.222c15.021,5.465,34.271,13.873,54.178,26.302
			c50.591,31.586,83.886,75.885,97.277,128.982c61.388-5.148,131.544-30.996,184.625-82.47
			c51.021-49.477,76.334-113.003,82.206-170.016C448.657,202.78,424.682,192.244,399.951,175.035 M366.861,226.215l-5.841,5.869
			c-4.371,4.393-11.541,4.409-15.935,0.038l-21.168-21.072l-25.094,25.21l20.119,20.026c4.392,4.371,4.408,11.54,0.037,15.933
			l-5.841,5.869c-4.371,4.392-11.541,4.407-15.935,0.037l-20.119-20.027l-21.821,21.924l22.37,22.267
			c4.392,4.372,4.408,11.541,0.036,15.934l-5.84,5.869c-4.371,4.392-11.541,4.408-15.934,0.037l-22.371-22.268l-19.001,19.09
			l19.923,19.83c4.391,4.373,4.408,11.541,0.037,15.934l-5.841,5.869c-4.371,4.392-11.541,4.408-15.933,0.037l-19.923-19.831
			l-13.46,13.522c-4.372,4.393-11.542,4.408-15.934,0.037l-5.869-5.842c-4.392-4.371-4.408-11.541-0.037-15.933l13.46-13.523
			l-22.836-22.729c-4.392-4.373-4.408-11.541-0.037-15.933l5.842-5.869c4.371-4.393,11.541-4.409,15.933-0.036l22.836,22.729
			l19.001-19.09L191.3,259.829c-4.392-4.373-4.408-11.542-0.037-15.934l5.842-5.869c4.371-4.392,11.541-4.408,15.933-0.037
			l20.389,20.294l21.822-21.924l-22.64-22.535c-4.392-4.373-4.408-11.541-0.037-15.934l5.841-5.869
			c4.371-4.392,11.542-4.408,15.933-0.037l22.639,22.536l25.094-25.21l-21.59-21.489c-4.392-4.372-4.408-11.542-0.036-15.934
			l5.84-5.869c4.372-4.392,11.541-4.408,15.935-0.037l21.59,21.491l6.548-6.579c4.371-4.393,11.541-4.408,15.933-0.037l5.868,5.841
			c4.392,4.372,4.41,11.542,0.038,15.933l-6.55,6.578l21.17,21.073C371.216,214.654,371.232,221.823,366.861,226.215"/>
	</g>
</g>
</svg>
