<?xml version="1.0" encoding="utf-8"?>
<!-- Generator: Adobe Illustrator 14.0.0, SVG Export Plug-In . SVG Version: 6.00 Build 43363)  -->
<!DOCTYPE svg PUBLIC "-//W3C//DTD SVG 1.1//EN" "http://www.w3.org/Graphics/SVG/1.1/DTD/svg11.dtd">
<svg version="1.1" xmlns="http://www.w3.org/2000/svg" xmlns:xlink="http://www.w3.org/1999/xlink" x="0px" y="0px" width="512px"
	 height="512px" viewBox="0 0 512 512" enable-background="new 0 0 512 512" xml:space="preserve" fill="#830001">
<g id="Layer_1">
</g>
<g id="amfb">
	<g>
		<path d="M121.172,205.875c0,0-4.108,125.985,42.452,186.239c2.739,15.063-12.413,13.162-21.272,4.945
			C135.498,390.702,3.031,254.804,121.172,205.875"/>
		<path d="M221.967,56.67c-17.042,0.092-77.907,16.434-83.385,108.34c0,23.737-1.826,226.419,77.298,233.723
			c26.172,1.217,118.079,4.981,132.687,4.62c14.607-0.36,78.517,9.378,90.689-159.219C441.081,221.006,445.95,55.453,221.967,56.67"
			/>
		<polygon points="207.967,419.427 368.043,419.427 368.043,455.337 197.012,455.337 		"/>
	</g>
</g>
</svg>
