<?xml version="1.0" encoding="utf-8"?>
<!-- Generator: Adobe Illustrator 14.0.0, SVG Export Plug-In . SVG Version: 6.00 Build 43363)  -->
<!DOCTYPE svg PUBLIC "-//W3C//DTD SVG 1.1//EN" "http://www.w3.org/Graphics/SVG/1.1/DTD/svg11.dtd">
<svg version="1.1" xmlns="http://www.w3.org/2000/svg" xmlns:xlink="http://www.w3.org/1999/xlink" x="0px" y="0px" width="512px"
	 height="512px" viewBox="0 0 512 512" enable-background="new 0 0 512 512" xml:space="preserve" fill="#830001">
<g id="Layer_1">
</g>
<g id="amfb">
	<path fill-rule="evenodd" clip-rule="evenodd" d="M468.98,256l-11.227-19.598h-49.636l21.637-37.774l-11.227-19.604H396.07
		l-32.869,57.377H289.69l36.755-64.156h65.737l11.227-19.604l-11.227-19.599h-43.284l24.823-43.319l-11.226-19.598h-22.464
		l-24.812,43.319l-21.647-37.774h-22.453L259.888,95.27l32.868,57.372L256,216.798l-36.756-64.156l32.868-57.372l-11.226-19.598
		h-22.458l-21.637,37.774l-24.824-43.319h-22.453l-11.232,19.598l24.819,43.319h-43.285l-11.226,19.599l11.226,19.604h65.743
		l36.756,64.156l-73.512-0.005l-32.869-57.372H93.477l-11.232,19.604l21.642,37.769H54.251L43.02,256l11.231,19.599h49.636
		l-21.642,37.773l11.232,19.604l22.458-0.006l32.869-57.371h73.512l-36.756,64.155h-65.743l-11.226,19.599l11.226,19.598h43.285
		l-24.819,43.319l11.226,19.604h22.458l24.824-43.325l21.637,37.779h22.458l11.232-19.604l-32.874-57.372L256,295.195l36.756,64.157
		l-32.863,57.372l11.227,19.604h22.453l21.642-37.773l24.818,43.319h22.464l11.226-19.599l-24.823-43.325h43.284l11.232-19.598
		l-11.232-19.599h-65.737l-36.755-64.155h73.511l32.869,57.371h22.458l11.227-19.598l-21.637-37.773h49.636L468.98,256z"/>
</g>
</svg>
