<svg enable-background="new 0 0 207.514 207.514" fill="#830001" viewBox="0 0 207.514 207.514" xmlns="http://www.w3.org/2000/svg"><path d="m205.264 41.613-25.552 25.552h-19.127-10.476l-4.67 4.67-17.763 17.763-11.068 11.068-9.359 9.359c-1.4 1.4-3.234 2.1-5.069 2.1-1.902 0-3.806-.753-5.223-2.258-2.691-2.858-2.409-7.417.366-10.193l18.621-18.621 1.426-1.426 17.84-17.84 4.76-4.76v-10.206-19.397l8.835-8.835 16.717-16.717c.221-.221.453-.414.69-.594.057-.043.113-.085.171-.126.237-.168.479-.323.727-.453.02-.011.041-.018.062-.029.235-.119.474-.219.716-.306.061-.022.121-.044.182-.064.257-.083.517-.153.779-.201.036-.007.073-.009.109-.016.236-.039.472-.063.709-.075.061-.003.121-.007.182-.009.264-.005.527.003.788.03.043.005.086.013.129.018.226.028.451.069.672.121.062.015.125.028.187.044.253.067.503.146.745.242.036.014.07.032.105.046.213.089.42.19.622.301.058.032.116.063.172.096.226.133.446.276.655.435.025.019.048.041.072.06.186.147.363.305.533.473.048.047.096.094.142.143.183.193.358.394.517.611.013.018.024.038.038.057.145.203.275.417.396.639.033.061.066.122.097.185.123.246.237.5.328.768.004.013.007.026.011.039.086.257.151.525.204.8.014.073.027.147.039.221.046.294.081.594.088.907l.513 23.996.513.011 23.482.502c1.267.027 2.377.407 3.306 1.006.355.229.692.479.989.769.429.42.795.897 1.089 1.414s.518 1.073.663 1.65c.509 2.022.055 4.296-1.68 6.03zm-104.349 8.602c-31.296 0-56.758 25.462-56.758 56.758s25.462 56.758 56.758 56.758 56.758-25.462 56.758-56.758c0-7.72-1.563-15.076-4.37-21.788l-20.511 20.511c.017.426.047.848.047 1.278 0 17.604-14.321 31.925-31.925 31.925s-31.925-14.322-31.925-31.925c0-17.542 14.223-31.82 31.741-31.92l20.911-20.911c-6.423-2.532-13.414-3.928-20.726-3.928zm89.403 27.557c-2.813 2.813-6.628 4.393-10.607 4.393h-11.476c2.862 7.735 4.438 16.089 4.438 24.807 0 39.568-32.19 71.758-71.758 71.758s-71.758-32.19-71.758-71.758 32.19-71.758 71.758-71.758c8.438 0 16.532 1.479 24.055 4.171v-11.961c0-3.978 1.58-7.794 4.393-10.607l4.745-4.745c-10.397-3.647-21.566-5.64-33.194-5.64-55.438.001-100.54 45.103-100.54 100.541s45.103 100.541 100.541 100.541 100.541-45.103 100.541-100.541c0-12.042-2.136-23.592-6.037-34.301z"/></svg>