<svg enable-background="new 0 0 512 512" fill="#830001" height="512" viewBox="0 0 512 512" width="512" xmlns="http://www.w3.org/2000/svg"><path d="m256 46.731c-115.577 0-209.269 93.693-209.269 209.269 0 115.577 93.692 209.27 209.269 209.27 115.575 0 209.27-93.692 209.27-209.27 0-115.576-93.695-209.269-209.27-209.269m158.671 101.947c-43.379-2.253-84.627 12.839-120.133 44.174-22.793 20.112-36.986 41.285-42.665 50.623-7.764.391-29.322.527-56.063-7.294-14.002-4.096-27.276-9.651-39.792-16.643 18.413-30.632 40.843-55.937 66.778-75.276 22.412-16.711 47.495-29.059 74.551-36.699 28.455-8.036 53.198-9.118 68.112-8.752 19.299 13.463 36.006 30.38 49.212 49.867m-146.86 298.492c24.324-30.804 32.218-72.541 22.798-122.044-6.729-35.357-20.16-64.16-25.029-73.843 5.28-8.595 18.508-28.194 39.384-46.616 9.645-8.512 19.62-15.676 29.896-21.513 22.897 31.864 36.428 64.739 40.237 97.814 3.224 28.005-.466 56.281-10.968 84.048-13.254 35.044-34.195 60.535-44.463 71.676-16.38 5.771-33.778 9.377-51.855 10.478m-76.132-193.732c23.085 6.646 42.479 7.927 54.009 7.927 1.904 0 3.585-.035 5.041-.086 5.108 10.532 16.728 36.694 22.545 67.581 1.882 9.988 3.009 19.543 3.398 28.662-3.561.521-8.251 1.05-13.899 1.328-12.341.609-31.835.107-54.66-5.723-25.637-6.547-50.192-18.354-72.983-35.094-25.761-18.921-49.331-44.258-70.202-75.383 1.584-22.998 7.219-44.879 16.211-64.933 36.948 46.566 79.823 66.878 110.54 75.721m64.321-188.981c34.159 0 66.224 8.953 93.992 24.624-14.786.677-33.761 2.959-54.879 8.88-28.292 7.93-54.522 20.792-77.963 38.227-27.084 20.144-50.461 46.47-69.597 78.317-21.643-13.603-40.863-31.73-57.478-54.254 33.116-57.263 95.018-95.794 165.925-95.794m-191.501 194.814c19.646 27.164 41.477 49.63 65.131 66.943 23.891 17.486 49.667 29.801 76.614 36.601 18.96 4.785 35.743 6.081 48.362 6.081 3.368 0 6.439-.092 9.177-.234 5.12-.269 9.485-.726 13.008-1.205-.604 32.884-11.62 59.585-32.939 79.692-99.048-6.203-177.675-87.668-179.353-187.878m275.12 169.097c10.81-13.989 23.976-34.244 33.582-59.501 11.138-29.286 15.077-59.156 11.707-88.781-3.921-34.461-17.793-68.592-41.257-101.568 25.376-12.334 52.519-16.747 81.129-13.144 14.519 26.981 22.763 57.84 22.763 90.625 0 75.806-44.039 141.319-107.924 172.369"/></svg>