<svg enable-background="new 0 0 512 512" fill="#830001" height="512" viewBox="0 0 512 512" width="512" xmlns="http://www.w3.org/2000/svg"><path d="m337.578 436.965-24.92-6.999c-2.556-.719-4.062-3.397-3.343-5.956l1.32-4.7c.717-2.557 3.397-4.062 5.954-3.343l21.614 6.068c.557-8.028 1.471-16.09 2.768-24.128l-26.655-10.112c-2.482-.941-3.744-3.744-2.801-6.229l1.731-4.565c.943-2.482 3.744-3.742 6.229-2.802l24.259 9.204c2.174-9.849 4.951-19.607 8.37-29.165l-22.417-15.728c-2.176-1.526-2.706-4.554-1.182-6.728l2.806-3.997c1.523-2.175 4.552-2.704 6.726-1.179l19.564 13.723c3.981-9.147 8.605-18.051 13.906-26.604l-17.983-20.931c-1.732-2.015-1.501-5.077.514-6.81l3.703-3.183c2.016-1.731 5.081-1.499 6.811.515l15.4 17.921c4.68-6.398 9.694-12.447 15.048-18.138l-15.11-21.615c-1.52-2.178-.984-5.203 1.193-6.726l4.002-2.798c2.175-1.52 5.203-.984 6.723 1.192l13.707 19.609c5.865-5.325 12.071-10.274 18.605-14.845l-8.999-23.043c-.966-2.475.268-5.29 2.74-6.256l4.548-1.776c2.476-.966 5.289.268 6.257 2.742l7.931 20.31c9.736-5.752 20.094-10.773 31.092-15.003.767-.294 1.544-.578 2.315-.865-10.336-101.896-91.793-182.76-193.951-192.206 3.033 7.482 5.763 15.343 8.148 23.5l25.436-4.65c2.612-.479 5.142 1.269 5.619 3.881l.877 4.804c.479 2.612-1.268 5.141-3.88 5.618l-24.341 4.452c2.061 8.797 3.723 17.864 4.933 27.111l26.307-.63c2.654-.064 4.88 2.056 4.942 4.711l.116 4.881c.064 2.655-2.055 4.88-4.712 4.944l-25.139.603c.774 9.914 1.02 19.974.682 30.075l24.863 2.571c2.641.274 4.58 2.658 4.306 5.3l-.501 4.857c-.274 2.643-2.658 4.58-5.302 4.307l-24.264-2.509c-.907 10.063-2.415 20.116-4.588 30.053l22.523 7.384c2.522.828 3.911 3.57 3.084 6.094l-1.521 4.64c-.827 2.524-3.57 3.911-6.095 3.084l-21.567-7.071c-3.002 10.437-6.777 20.687-11.408 30.622l21.432 13.841c2.231 1.441 2.878 4.444 1.437 6.676l-2.65 4.103c-1.441 2.23-4.443 2.877-6.677 1.436l-20.224-13.059c-4.88 8.709-10.361 16.928-16.43 24.646l19.417 15.62c2.069 1.665 2.401 4.721.736 6.79l-3.06 3.805c-1.667 2.07-4.721 2.399-6.791.736l-19.729-15.874c-7.163 7.781-14.979 14.987-23.473 21.567l18.249 17.329c1.926 1.827 2.006 4.899.176 6.826l-3.362 3.54c-1.829 1.927-4.9 2.006-6.827.178l-20.276-19.252c-5.881 3.894-12.026 7.539-18.447 10.914-3.949 2.075-8 4.043-12.145 5.916l13.899 17.705c1.64 2.091 1.272 5.142-.817 6.78l-3.841 3.017c-2.089 1.64-5.14 1.271-6.78-.817l-16.416-20.914c-10.606 4.01-21.78 7.408-33.503 10.198l11.543 18.432c1.41 2.251.722 5.246-1.53 6.655l-4.138 2.592c-2.251 1.409-5.246.722-6.655-1.529l-14.369-22.944c-7.535 1.405-15.279 2.57-23.223 3.505l10.346 19.613c1.239 2.348.331 5.285-2.019 6.524l-4.318 2.276c-2.349 1.24-5.285.333-6.525-2.019l-13.127-24.885c-2.096.16-4.2.31-6.322.439 36.791 65.795 107.128 110.286 187.868 110.286 28.997 0 56.647-5.752 81.891-16.151-.295-5.94-.404-11.944-.313-17.987"/><path d="m64.586 341.672-8.549-16.206c-1.24-2.351-.331-5.285 2.018-6.524l4.319-2.279c2.349-1.237 5.286-.33 6.525 2.019l11.503 21.805c7.475-.718 14.756-1.656 21.847-2.799l-10.446-16.68c-1.409-2.253-.721-5.246 1.53-6.657l4.139-2.591c2.25-1.409 5.246-.722 6.656 1.53l13.481 21.525c11.142-2.382 21.754-5.328 31.816-8.839l-12.783-16.285c-1.64-2.089-1.272-5.141.817-6.78l3.84-3.014c2.09-1.643 5.142-1.274 6.781.815l15.528 19.784c5.333-2.268 10.495-4.705 15.475-7.321 4.488-2.361 8.815-4.875 13.011-7.514l-14.328-13.605c-1.926-1.828-2.005-4.9-.176-6.827l3.362-3.54c1.828-1.927 4.9-2.005 6.827-.176l16.563 15.727c8.199-6.139 15.74-12.876 22.598-20.208l-17.857-14.367c-2.07-1.666-2.401-4.723-.736-6.79l3.061-3.805c1.665-2.069 4.72-2.401 6.79-.735l18.205 14.646c5.65-7.2 10.741-14.874 15.234-23.027l-20.319-13.123c-2.231-1.441-2.878-4.446-1.438-6.677l2.649-4.101c1.44-2.231 4.444-2.877 6.676-1.437l18.977 12.256c3.911-8.688 7.017-17.417 9.477-26.046l-24.356-7.986c-2.524-.827-3.912-3.569-3.084-6.093l1.52-4.64c.828-2.524 3.57-3.913 6.094-3.085l23.329 7.648c1.87-8.92 3.089-17.64 3.828-26.002l-23.833-2.464c-2.642-.273-4.581-2.658-4.307-5.301l.502-4.856c.272-2.642 2.658-4.581 5.3-4.308l23.173 2.397c.263-9.641-.059-18.595-.681-26.548-.028-.36-.062-.72-.093-1.08l-23.143.556c-2.655.064-4.879-2.056-4.943-4.712l-.117-4.881c-.063-2.655 2.056-4.88 4.711-4.943l21.88-.524c-1.141-8.166-2.661-16.231-4.539-24.102l-23.156 4.234c-2.613.478-5.142-1.269-5.619-3.882l-.878-4.804c-.479-2.613 1.269-5.141 3.882-5.619l21.975-4.018c-2.954-9.791-6.461-19.164-10.462-27.915-118.176.731-213.753 96.745-213.753 215.093 0 30.562 6.388 59.628 17.879 85.958 1.95-.08 3.89-.172 5.818-.277"/><path d="m443.729 268.157 9.532 24.404c.966 2.476-.268 5.289-2.741 6.255l-4.548 1.777c-2.476.966-5.289-.268-6.255-2.741l-8.332-21.333c-5.14 3.81-10.039 7.891-14.692 12.239l13.848 19.81c1.523 2.176.985 5.202-1.191 6.724l-4.001 2.798c-2.177 1.521-5.203.985-6.725-1.191l-12.294-17.589c-4.416 4.917-8.572 10.11-12.447 15.588-.334.471-.648.943-.975 1.418l15.709 18.279c1.731 2.015 1.499 5.078-.516 6.811l-3.703 3.182c-2.014 1.729-5.079 1.498-6.811-.516l-12.814-14.909c-4.284 7.438-7.934 14.972-11.041 22.488l19.652 13.785c2.174 1.523 2.706 4.552 1.179 6.725l-2.803 4c-1.525 2.173-4.552 2.704-6.727 1.179l-16.532-11.599c-2.763 8.367-4.907 16.61-6.558 24.572l20.743 7.87c2.482.942 3.744 3.745 2.802 6.229l-1.731 4.563c-.943 2.483-3.745 3.744-6.229 2.804l-18.141-6.882c-1.146 7.995-1.829 15.55-2.197 22.471l20.764 5.831c56.268-38.798 93.157-103.69 93.157-177.208 0-.549-.018-1.094-.021-1.641-9.677 3.939-18.805 8.541-27.361 13.807"/></svg>