<?xml version="1.0" encoding="utf-8"?>
<!-- Generator: Adobe Illustrator 14.0.0, SVG Export Plug-In . SVG Version: 6.00 Build 43363)  -->
<!DOCTYPE svg PUBLIC "-//W3C//DTD SVG 1.1//EN" "http://www.w3.org/Graphics/SVG/1.1/DTD/svg11.dtd">
<svg version="1.1" xmlns="http://www.w3.org/2000/svg" xmlns:xlink="http://www.w3.org/1999/xlink" x="0px" y="0px" width="512px"
	 height="512px" viewBox="0 0 512 512" enable-background="new 0 0 512 512" xml:space="preserve" fill="#830001">
<g id="Layer_1">
</g>
<g id="amfb">
	<g>
		<path d="M227.639,105.602c-76.248,12.907-128.411,80.36-116.511,150.664c11.899,70.303,83.358,116.832,159.604,103.926
			c76.247-12.906,128.41-80.361,116.51-150.663C375.343,139.225,303.885,92.696,227.639,105.602"/>
		<path d="M456.939,248.668l-4.837-37.103C438.68,108.618,338.917,36.75,229.277,51.046
			C119.637,65.341,41.638,160.386,55.061,263.334l4.837,37.101C73.32,403.382,173.083,475.25,282.723,460.954
			C392.362,446.659,470.362,351.616,456.939,248.668 M273.626,377.29c-86.488,14.64-167.544-38.14-181.042-117.887
			c-13.5-79.745,45.671-156.26,132.16-170.9c86.488-14.639,167.545,38.14,181.044,117.886
			C419.286,286.136,360.115,362.65,273.626,377.29"/>
	</g>
</g>
</svg>
