<svg enable-background="new 0 0 512 512" fill="#830001" height="512" viewBox="0 0 512 512" width="512" xmlns="http://www.w3.org/2000/svg"><path d="m28.724 412.653c35.9-51.136 93.665-111.743 215.825-62.5 122.162 49.242 199.042 49.242 238.726 5.682 0 0-55.959 112.105-153.498 96.007-97.538-16.099-217.633-116.841-301.053-39.189z"/><path d="m100.217 324.634c-6.401-14.595-10.833-30.25-12.938-46.636 12.529 14.273 25.049 26.734 37.625 37.45 5.007-1.311 10.218-2.354 15.636-3.112-17.12-13.581-35.355-31.479-54.649-55.036-.003-.435-.016-.864-.016-1.299 0-3.489.118-6.952.324-10.39 25.171 29.949 50.137 50.832 73.491 65.323 24.214-.223 52.195 5.096 84.752 18.22 11.375 4.585 22.356 8.742 32.952 12.478.215-.022.438-.045.646-.068.002.1-.002.195-.002.295 5.98 2.102 11.832 4.062 17.568 5.896.639-28.162-5.295-61.809-28.311-92.701 7.092-11.315 26.773-30.62 55.215-50.113 3.857-2.643 7.701-5.168 11.521-7.582 16.818 29.57 41.771 81.615 20.076 165.246 4.178.737 8.268 1.375 12.273 1.918 22.545-87.833-4.145-142.581-21.822-173.559 4.6-2.677 9.143-5.163 13.611-7.464 21.727 35.456 40.486 95.084 13.574 181.702 18.398 2.138 34.898 2.152 49.584.109 20.85-31.298 33.012-68.881 33.012-109.309 0-109.034-88.391-197.423-197.424-197.423-109.034 0-197.424 88.39-197.424 197.423 0 29.477 6.471 57.439 18.052 82.559 6.978-5.215 14.512-9.927 22.674-13.927zm302.508-158.082c16 26.025 25.234 56.657 25.234 89.449 0 21.328-3.916 41.736-11.047 60.566 6.293-50.856 6.742-105.341-24.717-147.268 3.637-1.111 7.151-2.028 10.53-2.747zm-10.715-15.458c-23.473 6.375-51.379 20.105-79.439 39.338-22.322 15.298-50.174 38.338-60.932 56.529-3.428-.24-8.394-.713-14.495-1.641 38.042-74.079 104.936-93.758 146.672-103.996 2.85 3.152 5.58 6.411 8.194 9.77zm-42.981-39.238c4.467 2.859 8.787 5.928 12.959 9.178-121.477-13.053-175.03 76.103-188.657 103.913-3.26-1.667-6.534-3.459-9.806-5.386 18.029-33.261 66.638-114.56 185.504-107.705zm-92.111-26.897c24.455 0 47.709 5.144 68.748 14.392-43.238 1.748-81.224 15.395-113.314 40.8-31.803 25.178-50.122 56.091-59.241 72.798-15.684-10.729-30.912-24.823-43.843-43.322 29.695-50.651 84.696-84.668 147.65-84.668zm-156.594 102.163c23.765 30.65 56.674 53.508 96.014 66.511 25.818 8.532 47.266 10.541 56.175 11.015 3.313 4.372 6.225 8.813 8.791 13.296-97.664-3.086-145.904-54.384-164.721-81.618 1.16-3.114 2.409-6.18 3.741-9.204z"/></svg>