<?xml version="1.0" encoding="utf-8"?>
<!-- Generator: Adobe Illustrator 14.0.0, SVG Export Plug-In . SVG Version: 6.00 Build 43363)  -->
<!DOCTYPE svg PUBLIC "-//W3C//DTD SVG 1.1//EN" "http://www.w3.org/Graphics/SVG/1.1/DTD/svg11.dtd">
<svg version="1.1" id="Layer_1" xmlns="http://www.w3.org/2000/svg" xmlns:xlink="http://www.w3.org/1999/xlink" x="0px" y="0px"
	 width="512px" height="512px" viewBox="0 0 512 512" enable-background="new 0 0 512 512" xml:space="preserve" fill="#830001">
<g>
	<path d="M252.42,312.805c-36.847,1.534-52.198,38.38-104.397,38.38c-31.474,0-80.604-29.938-90.583-36.846
		s-9.979-12.283,3.84-32.24c13.817-19.956,27.634-28.403,11.515-42.22c-16.121-13.818-17.657-19.957-2.304-19.957
		s90.583-0.77,153.526,16.502c0,0,56.035,20.344,77.529,36.463c21.496,16.121,34.546,16.89,23.798,3.072
		c-10.747-13.816-74.46-53.735-148.154-68.322C103.499,193.055,74.33,195.358,74.33,195.358s-19.497-16.889-23.95-23.029
		c-4.454-6.145,7.831-8.447,30.859-8.447c23.028,0,143.543-13.048,218.005,29.938c74.462,42.988,93.653,73.691,99.793,73.691
		c6.139,0-9.979-27.633-41.452-51.43c-31.474-23.795-112.075-68.317-176.555-71.387c0,0-21.493-1.536-36.846,0
		c-15.354,1.534-8.446-2.305-10.749-8.447c-2.302-6.139-3.07-10.745,24.565-10.745c27.634,0,151.223,0.768,221.077,53.735
		c69.854,52.966,79.064,106.699,83.67,126.658c-22.261,23.793-65.939,36.846-100.561,36.846
		C309.992,342.742,289.267,311.269,252.42,312.805z"/>
	<path d="M49.476,332.762c2.012-4.605,8.735-0.769,22.552,6.909s42.219,28.403,73.692,28.403c58.341,0,64.225-39.918,110.393-39.918
		c19.045,0,42.365,13.817,56.181,23.028c13.818,9.213,42.22,11.515,85.975,5.375c43.754-6.141,64.48-26.1,64.48-26.1
		c5.373,3.836,0,15.351,0,15.351c-9.98,9.98-47.592,32.241-109.002,32.241c-61.412,0-51.577-30.703-97.634-30.703
		c-46.058,0-33.63,39.148-107.323,39.148c-32.24,0-56.805-18.423-82.904-29.172C39.788,346.579,47.462,337.368,49.476,332.762z"/>
</g>
</svg>
