<?xml version="1.0" encoding="utf-8"?>
<!-- Generator: Adobe Illustrator 14.0.0, SVG Export Plug-In . SVG Version: 6.00 Build 43363)  -->
<!DOCTYPE svg PUBLIC "-//W3C//DTD SVG 1.1//EN" "http://www.w3.org/Graphics/SVG/1.1/DTD/svg11.dtd">
<svg version="1.1" id="quasar-dart" xmlns="http://www.w3.org/2000/svg" xmlns:xlink="http://www.w3.org/1999/xlink" x="0px"
	 y="0px" width="512px" height="512px" viewBox="0 0 512 512" enable-background="new 0 0 512 512" xml:space="preserve" fill="#830001">
<g>
	<path d="M413.03,99.333L413.03,99.333c-4.464-4.462-10.639-1.715-10.639-1.715c0.355-0.356-68.991,55.54-129.834,104.594
		c-47.452,38.259-89.73,72.354-89.73,72.354l25.074,25.072l2.411,2.413h0l2.412,2.411l25.073,25.072
		c0,0,34.095-42.278,72.353-89.729c49.054-60.841,104.951-130.189,104.594-129.834C414.745,109.971,417.492,103.796,413.03,99.333z"
		/>
	<path d="M462.68,155.312c-3.955-19.145-16.596-32.102-39.072-39.072l-89.262,116.747c0,0,44.317,6.976,58.083,5.236
		c13.765-1.741,21.676-9.336,42.879-29.272C456.51,189.014,466.637,174.458,462.68,155.312z"/>
	<path d="M108.709,403.653l-60.23,60.23c0,0,30.453-19.546,65.157-55.306L108.709,403.653L108.709,403.653z"/>
	<path d="M48.478,463.884l60.231-60.23l-4.926-4.926C68.023,433.431,48.478,463.884,48.478,463.884z"/>
	<path d="M119.258,392.105l6.402,6.401c0,0,19.621,17.722,39.452-2.109s59.703-59.703,59.703-59.703l-25.073-25.073L119.258,392.105
		z"/>
	<path d="M174.667,286.549c0,0-39.873,39.873-59.702,59.703c-19.832,19.83-2.111,39.45-2.111,39.45l6.403,6.403l80.483-80.483
		L174.667,286.549z"/>
	<path d="M396.123,88.757c-6.971-22.477-19.929-35.118-39.073-39.073c-19.146-3.956-33.703,6.17-53.639,27.373
		c-19.937,21.202-27.53,29.114-29.271,42.879c-1.741,13.766,5.235,58.083,5.235,58.083L396.123,88.757z"/>
</g>
</svg>
