<?xml version="1.0" encoding="utf-8"?>
<!-- Generator: Adobe Illustrator 14.0.0, SVG Export Plug-In . SVG Version: 6.00 Build 43363)  -->
<!DOCTYPE svg PUBLIC "-//W3C//DTD SVG 1.1//EN" "http://www.w3.org/Graphics/SVG/1.1/DTD/svg11.dtd">
<svg version="1.1" xmlns="http://www.w3.org/2000/svg" xmlns:xlink="http://www.w3.org/1999/xlink" x="0px" y="0px" width="512px"
	 height="512px" viewBox="0 0 512 512" enable-background="new 0 0 512 512" xml:space="preserve" fill="#830001">
<g id="Layer_1">
</g>
<g id="amfb">
	<g>
		<path d="M256,302.334c-46.179,0-83.615,37.435-83.615,83.614c0,46.179,37.436,83.614,83.615,83.614
			c46.178,0,83.614-37.436,83.614-83.614C339.614,339.769,302.179,302.334,256,302.334 M219.449,433.827
			c-3.826,0-6.928-3.104-6.928-6.93c0-3.825,3.103-6.929,6.928-6.929c3.826,0,6.928,3.104,6.928,6.929
			C226.377,430.724,223.275,433.827,219.449,433.827 M256.64,446.283c-5.143,0-9.312-4.17-9.312-9.312
			c0-5.145,4.169-9.314,9.312-9.314c5.145,0,9.314,4.17,9.314,9.314C265.954,442.113,261.784,446.283,256.64,446.283
			 M295.084,434.542c-3.826,0-6.929-3.104-6.929-6.929c0-3.826,3.103-6.929,6.929-6.929s6.928,3.103,6.928,6.929
			C302.012,431.438,298.91,434.542,295.084,434.542 M322.411,384.934c-17.453-1.772-15.989,14.696-14.977,17.737
			c0,0,13.176-11.213,14.949,0c0.506,6.588-5.829,6.588-8.616,5.574c-4.053-2.027-6.671,1.319-8.866,3.04
			c-2.535,2.026-6.082,1.521-7.349,0.76c-9.629-4.561-15.335,7.091-16.722,9.373c-2.345,4.183-11.529,3.043-14.146,0.354
			c-7.855-7.604-17.779-2.38-19.807-0.354c-5.573,6.079-13.429,1.27-13.935-2.277c-2.027-9.882-11.909-8.869-14.443-7.855
			c-4.561,1.014-8.614,0.508-9.812,0c-3.985-2.533-7.923-1.521-9.282-1.521c-9.467-0.506-7.763-9.121-6.496-11.148
			c4.813-6.841,10.895,2.787,10.135,5.068c0.887,0.443,4.814-0.888,5.574-4.814c1.013-9.374-8.614-15.455-18.497-13.937
			c0,0-7.438-1.526-7.74-11.977c6.15-35.088,36.769-61.755,73.619-61.755c31.6,0,58.62,19.61,69.555,47.324
			c0.005,0.01,0.007,0.019,0.011,0.027c0.382,0.971,0.741,1.953,1.083,2.943C331.256,375.805,324.754,385.646,322.411,384.934"/>
		<path d="M49.78,334.123c-2.512-17.086,6.22-37.286,22.779-34.292c16.558,2.997,10.214,18.809,9.427,23.907
			c-0.789,5.099,4.823,13.033,15.96,5.674c11.136-7.356,38.554-29.36,52.937-43.374c14.382-14.017,90.226-73.37,119.842-97.343
			c0,0,93.052-70.276,112.46-86.333c19.409-16.057,65.342-53.261,65.342-53.261s6.407-5.073,13.06,2.918
			c6.654,7.991-20.202,27.482-20.202,27.482L305.702,195.806L160.784,318.839c0,0-48.843,43.938-72.367,45.362
			C64.893,365.625,52.702,350.947,49.78,334.123z"/>
		<path d="M459.17,336.975c2.838-17.032-5.491-37.401-22.086-34.735c-16.59,2.668-10.561,18.604-9.873,23.715
			c0.688,5.113-5.066,12.935-16.046,5.356c-10.978-7.574-37.933-30.119-52.024-44.412c-14.09-14.297-88.68-75.138-117.791-99.692
			c0,0-91.561-72.102-110.631-88.539C111.647,82.23,66.498,44.125,66.498,44.125s-6.3-5.199-13.097,2.658
			c-6.798,7.857,19.644,27.876,19.644,27.876l133.241,118.963l142.338,125.873c0,0,47.926,44.895,71.387,46.786
			C443.474,368.168,455.93,353.736,459.17,336.975z"/>
	</g>
</g>
</svg>
