<?xml version="1.0" encoding="utf-8"?>
<!-- Generator: Adobe Illustrator 14.0.0, SVG Export Plug-In . SVG Version: 6.00 Build 43363)  -->
<!DOCTYPE svg PUBLIC "-//W3C//DTD SVG 1.1//EN" "http://www.w3.org/Graphics/SVG/1.1/DTD/svg11.dtd">
<svg version="1.1" xmlns="http://www.w3.org/2000/svg" xmlns:xlink="http://www.w3.org/1999/xlink" x="0px" y="0px" width="512px"
	 height="512px" viewBox="0 0 512 512" enable-background="new 0 0 512 512" xml:space="preserve" fill="#830001">
<g id="Layer_1">
</g>
<g id="amfb">
	<path d="M256,48.498C141.4,48.498,48.498,141.399,48.498,256S141.4,463.502,256,463.502S463.503,370.601,463.503,256
		S370.601,48.498,256,48.498 M256,419.336c-8.834,0-17.501-0.71-25.955-2.061c-62.316-96.267,13.259-123.782,37.539-115.978
		c48.289,16.096,30.404,42.923,35.771,47.395c6.259,5.365,18.777,6.26,20.565,3.576c7.155,2.684,17.886-0.894,21.302-6.26
		c3.416-5.365-14.146-134.582-22.195-153.807c0.894,0.894,16.097-14.31,22.195-21.462c-17.15,2.683-21.302,2.683-32.926,1.789
		c0.895-17.885,0-24.144,5.365-35.77c-13.414,8.049-16.095,12.52-22.356,24.145c-117.167,2.773-174.209,63.715-201.888,110.792
		c-0.493-5.166-0.754-10.4-0.754-15.695c0-90.208,73.129-163.336,163.337-163.336c90.208,0,163.336,73.128,163.336,163.336
		C419.337,346.207,346.208,419.336,256,419.336"/>
</g>
</svg>
