<svg enable-background="new -49 141 512 512" fill="#830001" viewBox="-49 141 512 512" xmlns="http://www.w3.org/2000/svg"><path d="m209.4 636c-130.5.7-237.9-106.3-238.4-237.5-.5-132 105.5-239.1 237.2-239.5 131.3-.4 238.2 105.6 238.8 236.9.6 132.8-104.9 239.5-237.6 240.1zm-157.6-277.5c.1 18.5 14.7 33.3 33.1 33.5 17.5.2 31.6-14.7 31.8-33.4.1-18.6-14-34.1-31.1-34.1-18.7 0-33.9 15.4-33.8 34zm216.1 28.3c-18.5-.2-33.8 14.7-33.7 32.7.1 17.7 15 32.4 32.9 32.6 18.6.1 33.7-14.5 33.7-32.8-.1-17.8-14.7-32.3-32.9-32.5zm-153.3 79.7c.1 17.4 14.7 31.4 32.4 31.4 17.9-.1 32.6-14.1 32.8-31.3.2-17.5-15-32.1-33.2-31.9-17.8.1-32.1 14.4-32 31.8zm279.6-91c.1-19-10.8-33.5-25.7-34.1-14.6-.6-26.3 12.6-27.8 31.3-1.5 18.3 11 35.6 26 36.2 15.2.7 27.4-14.1 27.5-33.4zm-183.9-111.8c-16.3 0-30 12.7-30.1 27.8 0 15.2 13.3 27.3 30.3 27.3 16.3 0 31-13.2 30.5-27.6-.4-15.1-14.4-27.5-30.7-27.5zm90.3-14.1c.3 18.1 14.2 35.5 31.7 39.5 12 2.7 21.6-4.9 21.7-17.3.2-15.4-12.6-33.1-28.5-39.4-14.3-5.8-25.1 1.7-24.9 17.2zm-86.5 329.9c9.7-3.8 19.4-6.1 27.5-11.2 9.9-6.1 9.2-17.5.2-24.7-13.8-11-41.5-11.1-55.4-.2-9.7 7.6-10.3 18.8.2 25.2 7.9 5 17.7 7.2 27.5 10.9zm-140.6-324.7c.5-12-6.8-17.6-17.6-12.5-19.1 9.1-30.2 25-34.2 45.4-2.1 11 5.4 16.6 16.3 13.3 16.7-5 34.8-28.6 35.5-46.2zm-40.4 230.3c.2 15.7 20.7 42.2 35.9 46.3 10.2 2.8 16.3-2.8 15.4-13.9-1.4-17-19.4-39-35.8-43.8-9.6-2.9-15.6 1.5-15.5 11.4zm105.9-268.5c14.2.1 30.6-4.8 38.6-12.9 3.8-3.8 8.3-11.1 7-14.6-1.7-4.5-8.8-8.7-14.1-9.7-13.7-2.5-26.8 1.1-38.6 8.3-7 4.3-15.3 9.4-12.4 19.1 2.9 9.6 12.6 9.2 19.5 9.8zm251 257.6c.2-10.6-6-15-16-11.6-15 5.2-32.4 29.5-32.4 45.3 0 10 6.2 14.5 15.6 11.4 15-5.1 32.5-29.2 32.8-45.1zm-390.4-104.4c-1.8-8.1-3-15.6-5.3-22.7-.9-2.7-4-6.2-6.4-6.4-2.2-.2-5.8 3.1-7 5.6-7.1 16.1-7.3 32.6-1.2 49.1 1 2.6 4.5 6 6.7 5.9 2.4-.1 5.9-3.4 6.8-6 2.8-8.4 4.4-17.1 6.4-25.5zm290.4-185.3c-8.3-12.3-45-23.3-57.2-16.7-1.5.8-2.6 5.9-1.6 7.4 7.1 10.4 46.1 18 57.1 11.6.8-.5 1.2-1.6 1.7-2.3zm138 195.1c1.4-1.2 2.5-1.6 2.9-2.4 6.4-11.4.9-48.6-8.6-57.2-5.1-4.7-8.4-1.4-8.7 3.5-.5 9.4-1 19.1.7 28.2 1.9 10.2 3.8 21.2 13.7 27.9zm-265.6 236.8c-8.3-13.9-33-25.6-51-25.3-3 .1-5.9 1.8-8.9 2.8 1.7 2.9 2.8 6.8 5.3 8.7 12.9 9.7 27.7 15 43.8 16.3 3.1.1 6.5-1.5 10.8-2.5zm102.7-5.9c15 6 49.4-9.3 54.3-23.5-14.8-5.3-46.4 8.1-54.3 23.5z"/></svg>