<svg enable-background="new 0 0 114 114" viewBox="0 0 114 114" xmlns="http://www.w3.org/2000/svg"><path d="m54.1 2.6h6.2c.4.1.8.2 1.2.2 3.7.6 7.4.9 10.9 2 27.1 7.8 43.5 34.8 38.3 62.6-4.6 24.2-25.3 42.6-49.7 44.1-11.8.7-22.8-1.8-32.7-8.2-13.2-8.4-21.5-20.3-24.6-35.7-.4-2.1-.7-4.2-1-6.3 0-2.7 0-5.5 0-8.2.1-.3.3-.6.3-.9.6-8 2.9-15.4 7-22.2 8.8-14.8 21.6-23.8 38.6-26.6 1.9-.4 3.7-.5 5.5-.8zm3.4 67.2c.3.4.4.8.7 1.1 3.9 3.9 7.8 7.8 11.7 11.7 2.2 2.2 4.7 2.2 6.9 0l5.7-5.7c2.4-2.4 2.4-4.8.1-7.2-2.9-2.9-5.8-5.8-8.7-8.7-1.3-1.3-2.5-2.5-3.9-3.8.6-.6 1.2-1 1.7-1.5 3.7-3.7 7.4-7.4 11.1-11 2.1-2.1 2.1-4.7.1-6.8-2-2-4-4.1-6.1-6.1-2.1-2.1-4.6-2.1-6.8 0-1.5 1.4-2.9 2.9-4.4 4.4-2.7 2.7-5.5 5.5-8.4 8.4-.3-.4-.5-.8-.8-1.1-3.9-3.9-7.8-7.9-11.8-11.8-2.1-2.1-4.6-2.1-6.7 0-2.1 2-4.1 4.1-6.1 6.1-2 2.1-2 4.6.1 6.7l4.8 4.8c2.6 2.6 5.2 5.2 8.1 8-.5.4-.9.6-1.2.9-3.9 3.9-7.7 7.7-11.6 11.6-2.2 2.2-2.2 4.7.1 7l5.7 5.7c2.4 2.3 4.8 2.3 7.2 0 3.9-3.9 7.7-7.7 11.6-11.6 0-.3.3-.6.9-1.1z" fill="#f1f2f2" stroke="#f9f9fa" stroke-miterlimit="10"/></svg>