<?xml version="1.0" encoding="utf-8"?>
<!-- Generator: Adobe Illustrator 19.1.0, SVG Export Plug-In . SVG Version: 6.00 Build 0)  -->
<svg version="1.1" id="Layer_1" xmlns="http://www.w3.org/2000/svg" xmlns:xlink="http://www.w3.org/1999/xlink" x="0px" y="0px"
	 viewBox="0 0 114 114" style="enable-background:new 0 0 114 114;" xml:space="preserve">
<style type="text/css">
	.st0{fill:#F1F2F2;stroke:#F9F9FA;stroke-miterlimit:10;}
</style>
<path class="st0" d="M54.1,2.6c2.1,0,4.1,0,6.2,0c0.4,0.1,0.8,0.2,1.2,0.2c3.7,0.6,7.4,0.9,10.9,2c27.1,7.8,43.5,34.8,38.3,62.6
	c-4.6,24.2-25.3,42.6-49.7,44.1c-11.8,0.7-22.8-1.8-32.7-8.2C15.1,94.9,6.8,83,3.7,67.6c-0.4-2.1-0.7-4.2-1-6.3c0-2.7,0-5.5,0-8.2
	C2.8,52.8,3,52.5,3,52.2c0.6-8,2.9-15.4,7-22.2C18.8,15.2,31.6,6.2,48.6,3.4C50.5,3,52.3,2.9,54.1,2.6z M57.5,69.8
	c0.3,0.4,0.4,0.8,0.7,1.1c3.9,3.9,7.8,7.8,11.7,11.7c2.2,2.2,4.7,2.2,6.9,0c1.9-1.9,3.8-3.8,5.7-5.7c2.4-2.4,2.4-4.8,0.1-7.2
	c-2.9-2.9-5.8-5.8-8.7-8.7c-1.3-1.3-2.5-2.5-3.9-3.8c0.6-0.6,1.2-1,1.7-1.5c3.7-3.7,7.4-7.4,11.1-11c2.1-2.1,2.1-4.7,0.1-6.8
	c-2-2-4-4.1-6.1-6.1c-2.1-2.1-4.6-2.1-6.8,0c-1.5,1.4-2.9,2.9-4.4,4.4c-2.7,2.7-5.5,5.5-8.4,8.4c-0.3-0.4-0.5-0.8-0.8-1.1
	c-3.9-3.9-7.8-7.9-11.8-11.8c-2.1-2.1-4.6-2.1-6.7,0c-2.1,2-4.1,4.1-6.1,6.1c-2,2.1-2,4.6,0.1,6.7c1.6,1.6,3.2,3.2,4.8,4.8
	c2.6,2.6,5.2,5.2,8.1,8c-0.5,0.4-0.9,0.6-1.2,0.9c-3.9,3.9-7.7,7.7-11.6,11.6c-2.2,2.2-2.2,4.7,0.1,7c1.9,1.9,3.8,3.8,5.7,5.7
	c2.4,2.3,4.8,2.3,7.2,0c3.9-3.9,7.7-7.7,11.6-11.6C56.6,70.6,56.9,70.3,57.5,69.8z"/>
</svg>
