<?xml version="1.0" encoding="utf-8"?>
<!-- Generator: Adobe Illustrator 19.1.0, SVG Export Plug-In . SVG Version: 6.00 Build 0)  -->
<svg version="1.1" xmlns="http://www.w3.org/2000/svg" xmlns:xlink="http://www.w3.org/1999/xlink" x="0px" y="0px"
	 viewBox="0 0 100 100" style="enable-background:new 0 0 100 100;" xml:space="preserve">
<style type="text/css">
	.st0{fill:#545554;}
	.st1{display:none;}
	.st2{display:inline;}
</style>
<g id="Layer_1">
	<g>
		<path class="st0" d="M92.8,20.4l-36.7-7l11.6,60.8c0.4,2.1-1,4.2-3.1,4.6l-24.3,4.7l39,7.5c2.1,0.4,4.2-1,4.6-3.1l12-62.7
			C96.3,22.9,94.9,20.8,92.8,20.4z"/>
		<path class="st0" d="M65.8,72.2L54.2,11.5l-0.4-2c-0.4-2.1-2.5-3.5-4.6-3.1L8.3,14.2c-2.1,0.4-3.5,2.5-3.1,4.6l12,62.7
			c0.4,2.1,2.5,3.5,4.6,3.1l16.6-3.2l24.3-4.7C64.8,76.4,66.2,74.4,65.8,72.2z"/>
	</g>
</g>
<g id="Layer_2" class="st1">
	<g class="st2">
		<path class="st0" d="M44.4,58.4c-0.5-1.3-1.4-4.5,0-9.1c1.9-3.2,6.1-11.1,4.4-20.4c-0.5-2.7-1.3-6.7-4.7-9.8
			c-3.4-3.2-7.5-3.9-9.2-4c0,0,0,0,0,0c0,0,0,0,0,0c0,0,0,0,0,0c0,0,0,0,0,0c-1.7,0.2-5.8,0.8-9.2,4c-3.4,3.2-4.2,7.1-4.7,9.8
			c-1.7,9.4,2.5,17.3,4.4,20.4c1.4,4.6,0.5,7.8,0,9.1C23,65.2,14,69.5,3.6,68.2c-0.1,7.1-0.2,14.1-0.2,21.2h31.4h0.3h31.4
			c-0.1-7.1-0.2-14.1-0.2-21.2C55.8,69.5,46.9,65.2,44.4,58.4z"/>
		<polygon class="st0" points="70.6,23.3 60.4,15 61.4,27.8 86.7,79.3 95.8,74.8 		"/>
	</g>
</g>
</svg>
