<svg enable-background="new 0 0 66 66" viewBox="0 0 66 66" xmlns="http://www.w3.org/2000/svg"><g fill="#fff"><path d="m21.8 11.8c2.3 2.3 4.5 4.5 6.9 6.8-.1 0-.2.1-.3.1-5.5 0-11.1 0-16.6 0-.3 0-.4 0-.4-.4 0-5.6 0-11.2 0-16.8 0 0 0-.1 0-.2.1.1.3.2.4.3 1.8 1.8 3.7 3.7 5.5 5.5.2.2.4.3.7.1 3.8-2.3 8-3.8 12.6-4.2 14-1.4 27 7.2 31.4 20.6 2.2 6.9 1.9 13.7-.8 20.5-.1.2-.1.3-.2.5-1.7-1-3.4-2-5.1-3 2.3-6.1 2.3-12.2-.2-18.2-2-4.7-5.2-8.4-9.5-11.1-8.4-5.2-18.1-4.2-24.4-.5z"/><path d="m6 21.2c1.7 1 3.4 2 5.1 3.1-2.5 6.8-2.1 13.4 1.3 19.8 2.3 4.4 5.7 7.7 10.1 10 7.6 3.8 15.2 3.6 22.7-.4-2.3-2.3-4.6-4.6-6.9-6.9h.5 16.5c.4 0 .5.1.5.5v16.5.4c-.2-.2-.3-.3-.4-.4-1.8-1.8-3.7-3.7-5.5-5.5-.2-.3-.4-.3-.7-.1-3.5 2.1-7.2 3.5-11.2 4.1-7.2 1-13.9-.3-20.1-4.2-7.3-4.5-11.9-11-13.6-19.4-1.3-5.8-.7-11.6 1.5-17.1.1-.1.1-.2.2-.4z"/></g></svg>