<?xml version="1.0" encoding="utf-8"?>
<!-- Generator: Adobe Illustrator 19.1.0, SVG Export Plug-In . SVG Version: 6.00 Build 0)  -->
<svg version="1.1" id="Layer_1" xmlns="http://www.w3.org/2000/svg" xmlns:xlink="http://www.w3.org/1999/xlink" x="0px" y="0px"
	 viewBox="0 0 66 66" style="enable-background:new 0 0 66 66;" xml:space="preserve">
<style type="text/css">
	.st0{fill:#FFFFFF;}
</style>
<path class="st0" d="M21.8,11.8c2.3,2.3,4.5,4.5,6.9,6.8c-0.1,0-0.2,0.1-0.3,0.1c-5.5,0-11.1,0-16.6,0c-0.3,0-0.4,0-0.4-0.4
	c0-5.6,0-11.2,0-16.8c0,0,0-0.1,0-0.2c0.1,0.1,0.3,0.2,0.4,0.3c1.8,1.8,3.7,3.7,5.5,5.5c0.2,0.2,0.4,0.3,0.7,0.1
	C21.8,4.9,26,3.4,30.6,3c14-1.4,27,7.2,31.4,20.6c2.2,6.9,1.9,13.7-0.8,20.5c-0.1,0.2-0.1,0.3-0.2,0.5c-1.7-1-3.4-2-5.1-3
	c2.3-6.1,2.3-12.2-0.2-18.2c-2-4.7-5.2-8.4-9.5-11.1C37.8,7.1,28.1,8.1,21.8,11.8z"/>
<path class="st0" d="M6,21.2c1.7,1,3.4,2,5.1,3.1C8.6,31.1,9,37.7,12.4,44.1c2.3,4.4,5.7,7.7,10.1,10c7.6,3.8,15.2,3.6,22.7-0.4
	c-2.3-2.3-4.6-4.6-6.9-6.9c0.2,0,0.3,0,0.5,0c5.5,0,11,0,16.5,0c0.4,0,0.5,0.1,0.5,0.5c0,5.5,0,11,0,16.5c0,0.1,0,0.2,0,0.4
	c-0.2-0.2-0.3-0.3-0.4-0.4c-1.8-1.8-3.7-3.7-5.5-5.5c-0.2-0.3-0.4-0.3-0.7-0.1c-3.5,2.1-7.2,3.5-11.2,4.1c-7.2,1-13.9-0.3-20.1-4.2
	C10.6,53.6,6,47.1,4.3,38.7C3,32.9,3.6,27.1,5.8,21.6C5.9,21.5,5.9,21.4,6,21.2z"/>
</svg>
