<?xml version="1.0" encoding="utf-8"?>
<!-- Generator: Adobe Illustrator 19.1.0, SVG Export Plug-In . SVG Version: 6.00 Build 0)  -->
<svg version="1.1" id="Layer_1" xmlns="http://www.w3.org/2000/svg" xmlns:xlink="http://www.w3.org/1999/xlink" x="0px" y="0px"
	 viewBox="0 0 66 66" style="enable-background:new 0 0 66 66;" xml:space="preserve">
<style type="text/css">
	.st0{fill:#FFFFFF;}
</style>
<path class="st0" d="M21.7,4.8c-0.2,1.3-0.5,2.4-0.6,3.6c-0.1,0.5-0.3,0.6-0.7,0.7c-1.5,0.5-3.1,0.9-4.5,1.6c-1,0.5-2,1.1-2.8,1.9
	c-1.3,1.2-1.3,2.7,0,3.9c1,0.9,2.2,1.7,3.5,2.2c3.5,1.6,7.3,2.2,11.2,2.5c5.4,0.5,10.7,0.3,16-0.8c2.4-0.5,4.8-1.1,7-2.4
	c0.9-0.5,1.7-1.2,2.4-1.9c0.9-1,0.9-2.2,0-3.2c-0.7-0.8-1.5-1.5-2.5-2c-1.6-0.8-3.4-1.3-5.1-1.9c-0.5-0.2-0.7-0.4-0.8-1
	c-0.1-1.1-0.4-2.2-0.6-3.4c0.7,0.2,1.5,0.3,2.3,0.5c2.6,0.7,5.1,1.5,7.3,3c2.6,1.7,4.1,4,3.8,7.2c0,0.5,0,1.1,0,1.6
	c0,1.7-0.5,3.2-1.7,4.4c-0.7,0.7-0.9,1.5-1,2.5c-0.5,4.8-1,9.6-1.5,14.4c-0.5,4.6-0.9,9.3-1.4,13.9c-0.1,1.1-0.2,2.1-0.4,3.1
	c-0.6,2.2-2.2,3.6-4.1,4.7c-2.3,1.3-4.8,2-7.4,2.4C34,63.6,28,63.5,22,61.7c-0.9-0.3-1.8-0.6-2.7-1.1c-3.4-1.6-5.2-4.1-5.4-8
	c-0.3-5.3-1-10.5-1.6-15.8c-0.5-4.6-0.9-9.2-1.4-13.8c0-0.3-0.2-0.7-0.4-0.9c-1.5-1.5-2.2-3.3-2.1-5.5c0-0.4,0-0.9,0-1.3
	c-0.2-3,1.2-5.2,3.6-6.9c2.5-1.8,5.3-2.7,8.3-3.4C20.7,5,21.2,4.9,21.7,4.8z M23.7,53.8c-0.1-1-0.2-2.1-0.3-3.1
	c-0.5-4.7-1-9.3-1.4-14c-0.2-2.4-0.5-4.8-0.7-7.3c-0.1-1.3-0.8-2.3-2.1-2.8c-1.4-0.5-2.3,0.2-2.1,1.7c0.5,4.6,0.9,9.2,1.4,13.8
	c0.4,3.6,0.8,7.2,1.1,10.7c0.2,1.6,1.2,2.7,2.6,2.6C23.2,55.4,23.7,54.8,23.7,53.8z M42.4,53.6c0,1.4,0.6,2,1.9,1.8
	c1.1-0.1,1.9-1,2.1-2.3c0.2-1.5,0.3-2.9,0.5-4.4c0.5-4.6,1-9.2,1.4-13.8c0.2-2.3,0.5-4.6,0.7-6.8c0.1-1.3-0.7-2-1.9-1.6
	c-1.2,0.4-2,1.2-2.3,2.5c-0.1,0.5-0.1,1.1-0.2,1.7c-0.5,4.7-1,9.3-1.4,14C43,47.7,42.7,50.7,42.4,53.6z M31,42.8
	C31,42.8,31,42.8,31,42.8c0,4.1,0,8.3,0,12.4c0,0.7,0.2,1.3,0.8,1.7c0.7,0.5,1.5,0.5,2.2,0.1c0.8-0.4,1-1,1-1.9c0-8.2,0-16.4,0-24.6
	c0-1.4-0.6-2-2.1-2c-1.4,0-2,0.6-2,2C31,34.6,31,38.7,31,42.8z"/>
<path class="st0" d="M33,2.7c1.1,0,2.2,0,3.4,0c3.2,0.1,5.6,2.5,5.7,5.7c0,1.3,0,2.6,0,3.9c0,0.1,0,0.3,0,0.4
	c-0.2,0.7-1.3,1.2-2.6,1.1c-1.1-0.1-1.8-0.7-1.8-1.5c0-1.1,0-2.3,0-3.4c0-1.3-0.5-1.7-1.7-1.7c-2,0-3.9,0-5.9,0
	c-1.3,0-1.8,0.5-1.8,1.8c0,1.1,0,2.2,0,3.3c0,0.2,0,0.4,0,0.6c-0.2,0.7-1.5,1.2-2.6,1c-1-0.1-1.7-0.7-1.7-1.5c0-1.5-0.1-3,0.1-4.4
	c0.2-2.8,2.5-5,5.3-5.1C30.5,2.7,31.8,2.8,33,2.7C33,2.8,33,2.8,33,2.7z"/>
</svg>
