<svg enable-background="new -293 385 24 24" viewBox="-293 385 24 24" xmlns="http://www.w3.org/2000/svg"><path d="m-271.3 390.4c-.2-.8-.3-1.9-.7-2.6-.7-.3-1.7-.5-2.6-.6-1.1-.1-2-.2-3.1-.2-7.2 0-13.1 5.9-13.1 13.2 0 1.1-.1 2.1.2 3.1.2.8.3 1.9.7 2.6.7.3 1.8.5 2.6.7 1.1.1 2 .2 3.1.2 7.2 0 13.1-5.9 13.1-13.2 0-1.1 0-2.1-.2-3.2zm-1.9-1.3c.5 1.3.5 3 .5 4.4v.7c-2.4-1.2-4.4-3.2-5.6-5.7h.7c1.4.1 3.1.1 4.4.6zm-15.3 15.4c-.5-1.3-.6-2.9-.6-4.4 0-.2 0-.5 0-.7 2.4 1.2 4.4 3.2 5.6 5.7-.2 0-.5 0-.7 0-1.4 0-3-.1-4.3-.6zm6 .4c-1.4-2.8-3.7-5-6.4-6.5.8-4.9 4.7-8.9 9.7-9.6 1.4 2.8 3.7 5 6.4 6.5-.8 4.9-4.7 8.8-9.7 9.6z" fill="#fff"/><path d="m-277.8 393.6c-.2-.2-.4-.2-.6 0l-.9.9-.8-.9c-.2-.2-.4-.2-.6 0s-.2.4 0 .6l.9.9-1.1 1.2-.9-.9c-.2-.2-.4-.2-.6 0s-.2.4 0 .6l.9.9-1.1 1.2-.9-.9c-.2-.2-.4-.2-.6 0s-.2.4 0 .6l.9.9-.9.9c-.2.2-.2.4 0 .6s.4.2.6 0l.9-.9.9.9c.2.2.4.2.6 0s.2-.4 0-.6l-.9-.9 1.1-1.2.9.9c.2.2.4.2.6 0s.2-.4 0-.6l-.9-.9 1.1-1.2.9.9c.2.2.4.2.6 0s.2-.4 0-.6l-.9-.9.9-.9c.1-.2.1-.4-.1-.6z" fill="#fcfcfc"/></svg>