<?xml version="1.0" encoding="utf-8"?>
<!-- Generator: Adobe Illustrator 19.0.0, SVG Export Plug-In . SVG Version: 6.00 Build 0)  -->
<svg version="1.1" id="Layer_1" xmlns="http://www.w3.org/2000/svg" xmlns:xlink="http://www.w3.org/1999/xlink" x="0px" y="0px"
	 viewBox="-293 385 24 24" style="enable-background:new -293 385 24 24;" xml:space="preserve">
<style type="text/css">
	.st0{fill:#FFFFFF;}
	.st1{fill:#FCFCFC;}
</style>
<g>
	<path class="st0" d="M-271.3,390.4c-0.2-0.8-0.3-1.9-0.7-2.6c-0.7-0.3-1.7-0.5-2.6-0.6c-1.1-0.1-2-0.2-3.1-0.2
		c-7.2,0-13.1,5.9-13.1,13.2c0,1.1-0.1,2.1,0.2,3.1c0.2,0.8,0.3,1.9,0.7,2.6c0.7,0.3,1.8,0.5,2.6,0.7c1.1,0.1,2,0.2,3.1,0.2
		c7.2,0,13.1-5.9,13.1-13.2C-271.1,392.5-271.1,391.5-271.3,390.4z M-273.2,389.1c0.5,1.3,0.5,3,0.5,4.4c0,0.2,0,0.5,0,0.7
		c-2.4-1.2-4.4-3.2-5.6-5.7c0.2,0,0.5,0,0.7,0C-276.2,388.6-274.5,388.6-273.2,389.1z M-288.5,404.5c-0.5-1.3-0.6-2.9-0.6-4.4
		c0-0.2,0-0.5,0-0.7c2.4,1.2,4.4,3.2,5.6,5.7c-0.2,0-0.5,0-0.7,0C-285.6,405.1-287.2,405-288.5,404.5z M-282.5,404.9
		c-1.4-2.8-3.7-5-6.4-6.5c0.8-4.9,4.7-8.9,9.7-9.6c1.4,2.8,3.7,5,6.4,6.5C-273.6,400.2-277.5,404.1-282.5,404.9z"/>
	<path class="st1" d="M-277.8,393.6c-0.2-0.2-0.4-0.2-0.6,0l-0.9,0.9l-0.8-0.9c-0.2-0.2-0.4-0.2-0.6,0c-0.2,0.2-0.2,0.4,0,0.6
		l0.9,0.9l-1.1,1.2l-0.9-0.9c-0.2-0.2-0.4-0.2-0.6,0c-0.2,0.2-0.2,0.4,0,0.6l0.9,0.9l-1.1,1.2l-0.9-0.9c-0.2-0.2-0.4-0.2-0.6,0
		c-0.2,0.2-0.2,0.4,0,0.6l0.9,0.9l-0.9,0.9c-0.2,0.2-0.2,0.4,0,0.6c0.2,0.2,0.4,0.2,0.6,0l0.9-0.9l0.9,0.9c0.2,0.2,0.4,0.2,0.6,0
		c0.2-0.2,0.2-0.4,0-0.6l-0.9-0.9l1.1-1.2l0.9,0.9c0.2,0.2,0.4,0.2,0.6,0c0.2-0.2,0.2-0.4,0-0.6l-0.9-0.9l1.1-1.2l0.9,0.9
		c0.2,0.2,0.4,0.2,0.6,0c0.2-0.2,0.2-0.4,0-0.6l-0.9-0.9l0.9-0.9C-277.6,394-277.6,393.8-277.8,393.6z"/>
</g>
</svg>
