<?xml version="1.0" encoding="utf-8"?>
<!-- Generator: Adobe Illustrator 14.0.0, SVG Export Plug-In . SVG Version: 6.00 Build 43363)  -->
<!DOCTYPE svg PUBLIC "-//W3C//DTD SVG 1.1//EN" "http://www.w3.org/Graphics/SVG/1.1/DTD/svg11.dtd">
<svg version="1.1" xmlns="http://www.w3.org/2000/svg" xmlns:xlink="http://www.w3.org/1999/xlink" x="0px" y="0px" width="512px"
	 height="512px" viewBox="0 0 512 512" enable-background="new 0 0 512 512" xml:space="preserve" fill="#ffffff">
<g id="Layer_1">
</g>
<g id="amfb">
	<g>
		<defs>
			<rect id="SVGID_1_" x="18.865" y="19.74" width="474.27" height="474.27"/>
		</defs>
		<clipPath id="SVGID_2_">
			<use xlink:href="#SVGID_1_"  overflow="visible"/>
		</clipPath>
		<path clip-path="url(#SVGID_2_)" d="M200.532,336.41c2.631-2.298,5.313-4.663,8.019-7.062l-20.077-21.119
			c-1.755-1.847-1.68-4.793,0.167-6.549c1.846-1.755,4.792-1.68,6.548,0.165l20.278,21.331c6.1-5.478,12.352-11.187,18.736-17.132
			l-18.764-19.738c-1.755-1.847-1.682-4.793,0.166-6.549c1.847-1.755,4.793-1.681,6.547,0.165l18.809,19.785
			c4.921-4.643,9.906-9.414,14.945-14.314l-19.68-20.701c-1.754-1.846-1.681-4.793,0.166-6.548c1.848-1.756,4.793-1.681,6.548,0.165
			l19.584,20.601c7.916-7.804,15.936-15.896,24.011-24.281l-17.169-18.06c-1.756-1.847-1.682-4.794,0.166-6.548
			c1.847-1.755,4.793-1.68,6.547,0.166l16.86,17.735c6.046-6.372,12.108-12.891,18.171-19.564l-17.97-18.902
			c-1.755-1.846-1.68-4.792,0.166-6.548c1.847-1.755,4.792-1.68,6.548,0.166l17.48,18.387c4.782-5.35,9.557-10.794,14.313-16.32
			l-17.819-18.746c-1.756-1.845-1.682-4.792,0.166-6.547c1.847-1.755,4.792-1.681,6.547,0.166l17.148,18.04
			c30.6-36.153,60.176-75.84,85.605-118.092c-58.396-38.754-195.229-26.669-286.106,61.46
			C40.563,235.122,31.964,379.812,78.423,432.163C100.991,416.496,147.097,383.073,200.532,336.41"/>
		<path clip-path="url(#SVGID_2_)" d="M435.62,90.076c-1.095-1.13-2.259-2.22-3.456-3.292
			c-23.931,39.631-52.983,79.67-86.701,119.443l19.754,20.779c1.755,1.846,1.68,4.793-0.166,6.549
			c-1.846,1.754-4.792,1.68-6.548-0.167l-19.099-20.089c-3.325,3.857-6.679,7.711-10.091,11.561c-1.4,1.582-2.823,3.162-4.24,4.742
			l19.455,20.466c1.756,1.846,1.682,4.793-0.165,6.547c-1.847,1.755-4.793,1.681-6.548-0.166l-18.968-19.953
			c-5.943,6.528-11.999,13.048-18.184,19.552l20.09,21.134c1.755,1.846,1.681,4.793-0.165,6.546
			c-1.847,1.756-4.793,1.682-6.549-0.165l-19.789-20.816c-7.828,8.115-15.848,16.202-24.032,24.257l17.395,18.301
			c1.757,1.847,1.683,4.793-0.164,6.549c-1.847,1.754-4.793,1.68-6.548-0.166l-17.306-18.205
			c-4.926,4.782-9.911,9.551-14.956,14.306l18.188,19.131c1.754,1.846,1.68,4.793-0.166,6.549c-1.846,1.754-4.793,1.681-6.548-0.166
			l-18.24-19.187c-6.165,5.732-12.411,11.442-18.742,17.125l16.732,17.602c1.755,1.847,1.681,4.793-0.166,6.547
			c-1.847,1.756-4.793,1.682-6.548-0.165l-16.931-17.811c-2.826,2.506-5.667,5.007-8.524,7.501
			c-52.261,45.624-97.608,78.712-121.046,95.066c54.699,44.13,203.582,34.636,297.864-56.795
			C482.57,288.093,484.416,140.393,435.62,90.076"/>
	</g>
</g>
</svg>
