<svg enable-background="new 0 0 512 512" fill="#fff" height="512" viewBox="0 0 512 512" width="512" xmlns="http://www.w3.org/2000/svg" xmlns:xlink="http://www.w3.org/1999/xlink"><clipPath id="a"><path d="m18.865 19.74h474.27v474.27h-474.27z"/></clipPath><path clip-path="url(#a)" d="m200.532 336.41c2.631-2.298 5.313-4.663 8.019-7.062l-20.077-21.119c-1.755-1.847-1.68-4.793.167-6.549 1.846-1.755 4.792-1.68 6.548.165l20.278 21.331c6.1-5.478 12.352-11.187 18.736-17.132l-18.764-19.738c-1.755-1.847-1.682-4.793.166-6.549 1.847-1.755 4.793-1.681 6.547.165l18.809 19.785c4.921-4.643 9.906-9.414 14.945-14.314l-19.68-20.701c-1.754-1.846-1.681-4.793.166-6.548 1.848-1.756 4.793-1.681 6.548.165l19.584 20.601c7.916-7.804 15.936-15.896 24.011-24.281l-17.169-18.06c-1.756-1.847-1.682-4.794.166-6.548 1.847-1.755 4.793-1.68 6.547.166l16.86 17.735c6.046-6.372 12.108-12.891 18.171-19.564l-17.97-18.902c-1.755-1.846-1.68-4.792.166-6.548 1.847-1.755 4.792-1.68 6.548.166l17.48 18.387c4.782-5.35 9.557-10.794 14.313-16.32l-17.819-18.746c-1.756-1.845-1.682-4.792.166-6.547 1.847-1.755 4.792-1.681 6.547.166l17.148 18.04c30.6-36.153 60.176-75.84 85.605-118.092-58.396-38.754-195.229-26.669-286.106 61.46-96.625 93.7-105.224 238.39-58.765 290.741 22.568-15.667 68.674-49.09 122.109-95.753"/><path clip-path="url(#a)" d="m435.62 90.076c-1.095-1.13-2.259-2.22-3.456-3.292-23.931 39.631-52.983 79.67-86.701 119.443l19.754 20.779c1.755 1.846 1.68 4.793-.166 6.549-1.846 1.754-4.792 1.68-6.548-.167l-19.099-20.089c-3.325 3.857-6.679 7.711-10.091 11.561-1.4 1.582-2.823 3.162-4.24 4.742l19.455 20.466c1.756 1.846 1.682 4.793-.165 6.547-1.847 1.755-4.793 1.681-6.548-.166l-18.968-19.953c-5.943 6.528-11.999 13.048-18.184 19.552l20.09 21.134c1.755 1.846 1.681 4.793-.165 6.546-1.847 1.756-4.793 1.682-6.549-.165l-19.789-20.816c-7.828 8.115-15.848 16.202-24.032 24.257l17.395 18.301c1.757 1.847 1.683 4.793-.164 6.549-1.847 1.754-4.793 1.68-6.548-.166l-17.306-18.205c-4.926 4.782-9.911 9.551-14.956 14.306l18.188 19.131c1.754 1.846 1.68 4.793-.166 6.549-1.846 1.754-4.793 1.681-6.548-.166l-18.24-19.187c-6.165 5.732-12.411 11.442-18.742 17.125l16.732 17.602c1.755 1.847 1.681 4.793-.166 6.547-1.847 1.756-4.793 1.682-6.548-.165l-16.931-17.811c-2.826 2.506-5.667 5.007-8.524 7.501-52.261 45.624-97.608 78.712-121.046 95.066 54.699 44.13 203.582 34.636 297.864-56.795 98.058-95.093 99.904-242.793 51.108-293.11"/></svg>