<svg height="256" viewBox="0 0 256 256" width="256" xmlns="http://www.w3.org/2000/svg"><path d="m94.47 5.3c.77 2.5-2.33 9.31-3.47 11.7 0 0 14 6 14 6s3-12 3-12c4.08.38 12.9 2.62 12.39 8.04-.33 3.44-4.22 7.7-3.19 10.27 1.13 2.85 5.59 2.36 8.8 6.69h2s6-12 6-12c3.71.97 12.06 4.25 11.04 9.04-.7 3.31-5.05 7.26-3.83 10.69 1.04 2.98 7.98 6.23 10.79 7.27 0 0 6-12 6-12 4.04 1.1 11.77 4.74 10.23 10.03-.99 3.41-4.94 6.18-4.79 8.96.16 3.09 7.86 7.8 10.56 9.01 0 0 7-11 7-11 1.82.68 3.16 1.17 4.83 2.24 9.92 6.31 2.36 12.56-3.83 17.76 5.94 2.81 8.2 7.38 11.83 6.55 3.9-.9 7.19-8.93 11.78-6.51 1.07.56 2.55 2.09 3.33 3.01 1.79 2.12 3.59 4.71 2.05 7.49-2.04 3.68-8.54 5.06-4.74 10.29 0 0 2.47 2.52 2.47 2.52 7.72 6.88 9.2-4.6 16.18-2.65 1.7.48 2.84 1.88 3.9 3.19 5.89 7.25-.55 9.64-6.8 13.11 0 0 10 11 10 11s11-8 11-8c1.77 2.81 7.62 9.38 6.13 12.5-1.04 2.17-6.14 4.2-8.38 5.47 0 0-20.75 11.27-20.75 11.27-25.07 13.39-50.25 27.65-74 43.26 0 0-22.17 15.39-22.17 15.39-3 2.21-6.94 5.89-10.83 5.84-4.45-.06-17.7-11.61-22-14.92 0 0-54-40.81-54-40.81s17.03-46 17.03-46 17.12-64.83 17.12-64.83 5.01-19.17 5.01-19.17 2.04-11.83 2.04-11.83 2.8-12.17 2.8-12.17c3.68.18 12.18 1.09 13.47 5.3zm-11.47 38.7c2.36 1.29 8.16 5.2 10.7 4.3 2.3-.82 4.5-8.89 5.3-11.3 0 0-11-6-11-6s-5 13-5 13zm23.01 13.32c.98 1.43 7.18 4.68 8.99 5.68 0 0 6-13 6-13s-11-7-11-7c-1.72 2.87-6.07 11.29-3.99 14.32zm-17.72 6.81c-.92-2.75-6.72-5.11-9.29-6.13 0 0-4 13-4 13s10 4 10 4c.91-2.12 3.97-8.81 3.29-10.87zm45.62 10.63c3.04-.2 7.82-7.71 6.8-10.55-1.08-3-6.89-5.32-9.71-6.21 0 0-7 12-7 12 2.22 1.01 8.16 4.88 9.91 4.76zm-35.91-4.76s-5 10-5 10c2.31 4.45 4.75 5.61 9 8 0 0 6-13 6-13s-10-5-10-5zm46 14s11 6 11 6 7-11 7-11-9-7-9-7c-4.34 3.39-7 6.86-9 12zm-28-1s-6.25 11-6.25 11 8.37 5.88 8.37 5.88c4.38-3.63 5.67-7.34 8.88-11.88 0 0-11-5-11-5zm-41 17c1.62-4.38 10.88-11.75-3-16-4.88 10.88-8.25 11.38 3 16zm88.81-2.01c.41 2.57 6.08 6.43 8.19 8.01 2.09-2.01 8.41-7.09 8.38-10-.04-2.99-6.1-7.13-8.38-9-2.14 2.03-8.66 7.95-8.19 10.99zm-73.81 13.01c5.13-8.6 6.83-10.41-2-16-4.75 7.51-7.39 11.33 2 16zm45-15s-7 11-7 11 8 5 8 5 8-10 8-10-9-6-9-6zm46 18c1.6 1.5 6.15 6.11 8.08 6.6 2.97.76 9.72-4.59 9.72-7.62.01-2.28-4.3-6.87-5.8-8.98-5.72 1.68-8.62 5.28-12 10zm-84 4s8 4 8 4 6-10 6-10-7-6-7-6-7 12-7 12zm-38.75 2c4.13 4.25 1.6 2.04 6.75 5 0 0 5-12 5-12s-7.5-4.62-7.5-4.62c-3.25 7.5-3.26 8.68-4.25 11.62zm93.75-11s-8 10-8 10c1.71 1.46 5.9 5.46 8.12 5.88 6.63-4.88 7.15-6.8 8.88-9.88 0 0-9-6-9-6zm-34 9c-1.1 1.74-5.96 7.23-6.25 8.88-.52 2.91 2.63 4.74 6.5 6 2.34-.6 7.15-7.79 8.75-9.88 0 0-9-5-9-5zm-46 13s6 3 6 3 5-11 5-11-5-4-5-4c-3.98 3.77-4.32 6.95-6 12zm138.8-7.86c-3.58-1.7-10.7 5.34-12.8 7.86 4.41 2.59 5.87 5.39 8.18 6.17 4.07 1.37 10.01-3.6 12.82-6.17 0 0-8.2-7.86-8.2-7.86zm-51.18 8.61c3.88 4.63 3.63 5.25 8 7.75 3.88-2.25 8.38-6.93 10.38-9.5 0 0-8-7-8-7-2.24 1.73-2.62.5-10.38 8.75zm-75.62 8.25c1.22.83 2.73 2.13 4.27 2.21 3.38.15 8.02-5.64 7.04-8.96-.56-1.9-2.78-3.18-4.31-4.25 0 0-7 11-7 11zm47 4c4.98-2.14 9.29-4.16 10.88-9.5 0 0-6.88-5.5-6.88-5.5-6.51 5.74-13.12 9.75-4 15zm-82.12.75s6 3 6 3 5.22-10.45 5-10.75c-.95-1.25-3.89-1.99-6-3.25 0 0-5 11-5 11zm137.12-6.63c-2.56 1.89-7.59 6.13-9 8.88 0 0 7.25 6.88 7.25 6.88s10.75-6.88 10.75-6.88c-3.38-4.71-4-5.25-9-8.88zm-83 1.88s-6 10-6 10 4 3 4 3h2c3.77-5.34 10.04-10.3 0-13zm-38.12 16.12c12.12-9.87 4.5-12 1.12-14.12-8.38 8.75-8.38 10.88-1.12 14.12zm84.87-14.87c-4.75 2.13-5.25 3.87-9.13 9.13 1.49.98 4.31 5.44 6 5 1-.27 4.24-2.44 5.1-2.99 0 0 5.28-4.39 5.28-4.39-1.25-1.42-5.57-5.81-7.25-6.75zm-40.75 15.75v2s4 3 4 3c5.14-2.11 6.87-4.53 10-9-7.83-4.25-6.49-1.85-14 4zm-38 5s5 3 5 3 6-11 6-11-4-3-4-3c-3.82 3.36-5.27 6.28-7 11zm83.38-.5c1.62 2.88 3.87 3.38 7.12 5.62 6.12-3.5 8.14-4.69 10.5-7.12 0 0-7-6-7-6-2.27 1.5-9.93 4.97-10.62 7.5zm-117.76-3.57c2.46.63 12.36 9.08 15.38 11.21 0 0 21.99 16.82 21.99 16.82s19.18 14.53 19.18 14.53c3.03 2.44 15.91 11.32 16.89 13.86 1.07 2.79-3.89 11.37-8.64 9.81-1.72-.57-5.85-4.04-7.49-5.28 0 0-15.93-12.22-15.93-12.22s-20-15.29-20-15.29-20.99-16-20.99-16c-3.87-2.97-8.46-5.6-10.01-10.37 5.03-3.79 6.27-7.93 9.62-7.07zm44.63 11.07s4.75 3.62 4.75 3.62c3.12-2.37 6.88-6.37 8.5-8.87-.85-1.36-5.24-3.09-6.5-3.75 0 0-6.75 9-6.75 9zm49.47-8.22c-4.01-.05-7.24 5.09-8.72 8.22 0 0 3 3 3 3 5.56-1.19 8.55-3.9 11-9-1.26-.63-3.97-2.2-5.28-2.22zm-29.78 9.42c-2.85 0-7.47 4.69-6.6 7.66.53 1.84 2.2 2.38 3.66 3.14 0 0 7-7 7-7-.89-1.72-1.67-3.8-4.06-3.8zm33.06 7.8c7.26 4.74 5.98 2.87 15-2 0 0-5-6-5-6s-10 8-10 8zm-99.58-1.2s20.97 16.12 20.97 16.12 31.32 23.85 31.32 23.85c2.41 1.76 12.08 8.49 13 10.61 1.62 3.74-4.3 9.99-6.76 12.44-10.14 10.05-23.98 14.4-37.95 14.18-5.86-.1-5.74-.83-10.99-2.31-26.6-7.54-40.67-37.06-31.16-62.69 2.38-6.42 5.61-13.89 11.39-17.95 4.22-.53 7.07 3.22 10.18 5.75zm68.58 9.2c6.77 4.06 8.12.15 14-4-6.03-6.61-9.82-1.81-14 4zm13.08 6.31c-.71 2 .5 3.97 2.69 3.91 1.75-.06 7.42-4.11 9.23-5.22v-2s-5-3-5-3c-1.87 1.36-6.18 4.21-6.92 6.31z" fill="#fff"/></svg>