<svg enable-background="new -49.7 653.3 633.5 633.5" viewBox="-49.7 653.3 633.5 633.5" xmlns="http://www.w3.org/2000/svg"><path d="m449.6 786.2c-48.6-48.8-113.3-75.7-182.1-75.7s-133.4 26.9-182.1 75.7-75.4 113.7-75.4 182.7 26.8 133.9 75.4 182.7 113.3 75.7 182.1 75.7 133.4-26.9 182.1-75.7 75.4-113.7 75.4-182.7-26.8-133.9-75.4-182.7zm58.7 182.7c0 53-17.1 102.1-46.1 142-.9-1.6-2.5-2.6-4.4-2.5l-30.2 1c-4.3-4.9-8.4-10-12.3-15.3l24.6 3.2c2.7.4 5.2-1.6 5.6-4.3s-1.5-5.2-4.3-5.6l-33.7-4.4c-2.2-3.3-4.3-6.7-6.2-10.1l22.5 5.7c2.7.7 5.4-.9 6-3.6.7-2.7-.9-5.4-3.6-6l-31.4-8c-2.3-4.6-4.5-9.3-6.5-14l23.4 9c2.6 1 5.4-.3 6.4-2.9s-.3-5.4-2.8-6.4l-31.9-12.2c-1.3-3.6-2.5-7.3-3.6-11l21.5 11.3c2.4 1.3 5.4.3 6.7-2.1s.3-5.4-2.1-6.7l-29.7-15.5c-.9-3.8-1.7-7.5-2.4-11.3l20 13.6c2.3 1.5 5.4.9 6.9-1.3 1.5-2.3 1-5.4-1.3-6.9l-27.6-18.8c-.5-3.9-.9-7.8-1.2-11.7l18.6 16c2.1 1.8 5.2 1.5 7-.5 1.8-2.1 1.5-5.2-.5-7l-25.6-22.1c-.1-4.1 0-8.1.1-12.2l15.5 16.8c1.9 2 5 2.1 7 .3 2-1.9 2.1-5 .3-7l-21.9-23.6c.4-4.2.9-8.3 1.5-12.5l14 19c1.6 2.2 4.7 2.7 6.9 1 2.2-1.6 2.7-4.7 1-7l-19.5-26.7c1-4.8 2.2-9.6 3.5-14.3l11.9 20.7c1.4 2.4 4.4 3.2 6.8 1.8s3.2-4.4 1.8-6.8l-16.5-28.7c1.6-4.7 3.4-9.4 5.3-14l9.4 21.7c1.1 2.5 4 3.7 6.5 2.6s3.7-4 2.6-6.6l-13-29.9c1.9-4 4-7.9 6.1-11.8l6.7 22.3c.8 2.6 3.6 4.1 6.2 3.3s4.1-3.6 3.3-6.2l-9.3-30.9c2.4-3.8 4.9-7.5 7.5-11.1l3.9 21.7c.5 2.7 3.1 4.5 5.8 4s4.5-3.1 4-5.8l-5.4-30.5c1.9-2.4 4-4.7 6-7l1.2 21.2c.2 2.7 2.5 4.8 5.2 4.7 2.7-.2 4.8-2.5 4.7-5.3l-1.5-25.5c43.6 43.7 70.6 104.1 70.6 170.7zm-61 160.5c-3.7-3.3-7.3-6.8-10.8-10.4l20.1-.7c-3 3.9-6.1 7.5-9.3 11.1zm-350.9-330.3-1.4 24.6c-.2 2.7 1.9 5.1 4.7 5.3 2.7.2 5.1-1.9 5.2-4.7l1.2-21.2c2.1 2.3 4.1 4.7 6 7l-5.4 30.5c-.5 2.7 1.3 5.3 4 5.8s5.3-1.3 5.8-4l3.9-21.7c2.6 3.6 5.1 7.3 7.5 11.1l-9.3 30.9c-.8 2.6.7 5.4 3.3 6.2s5.4-.7 6.2-3.3l6.7-22.3c2.2 3.9 4.2 7.8 6.1 11.8l-13 29.9c-1.1 2.5.1 5.5 2.6 6.6s5.4-.1 6.5-2.6l9.4-21.7c1.9 4.6 3.7 9.3 5.3 14l-16.5 28.7c-1.4 2.4-.6 5.4 1.8 6.8s5.4.6 6.8-1.8l12-20.7c1.3 4.7 2.5 9.5 3.5 14.3l-19.5 26.5c-1.6 2.2-1.2 5.3 1 7 2.2 1.6 5.3 1.2 6.9-1l14-19c.6 4.2 1.1 8.3 1.5 12.5l-21.9 23.6c-1.9 2-1.8 5.2.3 7 2 1.9 5.1 1.8 7-.3l15.5-16.8c.1 4.1.2 8.1.1 12.2l-25.6 22.1c-2.1 1.8-2.3 4.9-.5 7s4.9 2.3 7 .5l18.6-16c-.3 3.9-.7 7.8-1.2 11.7l-27.6 18.8c-2.3 1.5-2.9 4.6-1.3 6.9 1.5 2.3 4.6 2.9 6.9 1.3l20-13.6c-.7 3.8-1.5 7.6-2.4 11.3l-29.7 15.5c-2.4 1.3-3.4 4.3-2.1 6.7s4.3 3.4 6.7 2.1l21.5-11.3c-1.1 3.7-2.3 7.3-3.6 11l-31.9 12.2c-2.6 1-3.8 3.9-2.8 6.4 1 2.6 3.9 3.8 6.4 2.9l23.4-9c-2 4.7-4.2 9.4-6.5 14l-31.4 8c-2.7.7-4.3 3.4-3.6 6 .7 2.7 3.4 4.3 6 3.6l22.5-5.7c-2 3.4-4.1 6.8-6.2 10.1l-33.7 4.4c-2.7.4-4.6 2.9-4.3 5.6.4 2.7 2.9 4.6 5.6 4.3l24.6-3.2c-3.9 5.3-8 10.4-12.3 15.3l-30.2-1c-1.7-.1-3.1.7-4.1 1.9-28.7-39.8-45.7-88.7-45.7-141.4 0-65.9 26.6-126 69.7-169.6zm-18 319.3 19.3.6c-3.4 3.4-6.8 6.7-10.4 10-3-3.4-6-7-8.9-10.6zm17.9 20.2c3.9-3.6 7.8-7.2 11.5-11l-.6 21.4c-3.8-3.3-7.4-6.8-10.9-10.4zm18.5 17c1.3-.9 2.1-2.3 2.2-4l1-35.2c3.3-3.8 6.4-7.7 9.5-11.7l2.7 20.1c.4 2.7 2.9 4.6 5.6 4.3 2.7-.4 4.6-2.9 4.3-5.6l-4.1-30.6s0-.1.1-.1c2.8-4.1 5.3-8.3 7.8-12.5l5.5 21.3c.7 2.7 3.4 4.3 6 3.6 2.7-.7 4.3-3.4 3.6-6l-8.1-31.6c2-3.9 3.9-7.9 5.7-11.9l7.2 18.7c1 2.6 3.9 3.8 6.4 2.9 2.6-1 3.8-3.9 2.8-6.4l-11-28.6c1.5-4.1 3-8.2 4.3-12.4l9.7 18.5c1.3 2.4 4.3 3.4 6.7 2.1s3.4-4.3 2.1-6.7l-14.8-27.8c1-4 1.9-8.1 2.7-12.1l11.8 17.4c1.5 2.3 4.6 2.9 6.9 1.3 2.3-1.5 2.9-4.6 1.3-6.9l-17.7-26.1c.5-4 1-7.9 1.3-11.9l13.5 15.7c1.8 2.1 4.9 2.3 7 .5s2.3-4.9.5-7l-20.2-23.6c.1-5.1.1-10.2-.1-15.3l16.3 15.2c2 1.9 5.1 1.8 7-.3 1.9-2 1.8-5.2-.3-7l-24-22.4c-.4-4.1-.9-8.1-1.5-12.2l17.3 12.9c2.2 1.6 5.3 1.2 6.9-1s1.2-5.3-1-7l-25.7-19.1c-1-4.9-2.1-9.7-3.4-14.5l18.3 10.6c2.4 1.4 5.4.6 6.8-1.8s.6-5.4-1.8-6.8l-27.5-16c-1.7-5-3.5-10-5.5-14.9l19.7 8.6c2.5 1.1 5.4-.1 6.5-2.6s-.1-5.5-2.6-6.6l-29.6-13c-2-4.2-4.2-8.3-6.4-12.4l20.9 6.4c2.6.8 5.4-.7 6.2-3.3s-.7-5.4-3.3-6.2l-31.3-9.6c-2.7-4.3-5.6-8.6-8.7-12.7l22.8 4.1c2.7.5 5.3-1.3 5.8-4s-1.3-5.3-4-5.8l-33.6-6.1c-2.2-2.7-4.5-5.3-6.8-7.9l23.8 1.4c2.7.2 5.1-1.9 5.2-4.7.2-2.7-1.9-5.1-4.7-5.3l-25.1-1.5c41.7-34.7 95.2-55.6 153.5-55.6s111.8 20.9 153.5 55.6l-25.8 1.6c-2.7.2-4.8 2.5-4.7 5.3.2 2.7 2.5 4.8 5.2 4.7l23.8-1.4c-2.3 2.6-4.6 5.2-6.8 7.9l-33.6 6.1c-2.7.5-4.5 3.1-4 5.8s3.1 4.5 5.8 4l22.8-4.1c-3 4.2-5.9 8.4-8.7 12.7l-31.3 9.6c-2.6.8-4.1 3.6-3.3 6.2s3.6 4.1 6.2 3.3l20.9-6.4c-2.3 4.1-4.4 8.2-6.4 12.4l-29.6 13c-2.5 1.1-3.7 4-2.6 6.6 1.1 2.5 4 3.7 6.5 2.6l19.7-8.6c-2 4.9-3.8 9.9-5.5 14.9l-27.5 16c-2.4 1.4-3.2 4.4-1.8 6.8s4.4 3.2 6.8 1.8l18.3-10.6c-1.3 4.8-2.4 9.6-3.4 14.5l-25.7 19.1c-2.2 1.6-2.7 4.7-1 7 1.6 2.2 4.7 2.7 6.9 1l17.3-12.9c-.6 4-1.1 8.1-1.5 12.2l-23.7 22.4c-2 1.9-2.1 5-.3 7s5 2.1 7 .3l16.3-15.2c-.2 5.1-.2 10.2-.1 15.3l-20.1 23.6c-1.8 2.1-1.5 5.2.5 7 2.1 1.8 5.2 1.5 7-.5l13.5-15.7c.3 4 .8 8 1.3 11.9l-17.7 26.1c-1.5 2.3-1 5.4 1.3 6.9s5.4.9 6.9-1.3l11.8-17.4c.8 4.1 1.7 8.1 2.7 12.1l-14.5 27.8c-1.3 2.4-.3 5.4 2.1 6.7s5.4.3 6.7-2.1l9.7-18.5c1.3 4.2 2.7 8.3 4.3 12.4l-11 28.6c-1 2.6.3 5.4 2.8 6.4 2.6 1 5.4-.3 6.4-2.9l7.2-18.7c1.8 4 3.7 8 5.7 11.9l-8.1 31.6c-.7 2.7.9 5.4 3.6 6 2.7.7 5.4-.9 6-3.6l5.5-21.3c2.5 4.2 5.1 8.4 7.8 12.5 0 0 0 .1.1.1l-4.1 30.6c-.4 2.7 1.5 5.2 4.3 5.6 2.7.4 5.2-1.6 5.6-4.3l2.7-20.1c3 4 6.2 7.9 9.5 11.7l1 35.2c.1 1.9 1.1 3.4 2.7 4.2-41.5 34.2-94.6 54.7-152.4 54.7-58.1 0-111.3-20.7-152.9-55zm312.3-5.9-.6-22.1c3.8 3.9 7.8 7.7 11.9 11.4-3.7 3.7-7.4 7.3-11.3 10.7z" fill="#fff"/></svg>