<svg enable-background="new 0 0 512 512" fill="#fff" height="512" viewBox="0 0 512 512" width="512" xmlns="http://www.w3.org/2000/svg"><path d="m256 46.082c-115.935 0-209.918 93.984-209.918 209.918 0 115.936 93.984 209.918 209.918 209.918 115.936 0 209.918-93.982 209.918-209.918 0-115.934-93.982-209.918-209.918-209.918m176.526 253.791c-78.094 4.232-138.946-.778-180.931-14.908-20.681-6.958-36.73-16.129-48.027-27.402 35.688-26.975 70.15-48.14 98.58-63.772 44.566-24.508 81.514-39.58 99.715-46.43 22.614 30.314 36.004 67.914 36.004 108.64 0 15.128-1.859 29.82-5.341 43.872m-43.355-167.714c-20.08 7.797-54.405 22.381-95.619 45.017-29.225 16.051-64.673 37.804-101.398 65.578-2.035-3.564-3.713-7.28-5.019-11.153-18.998-56.352 40.007-131.917 65.032-157.419 1.276-.026 2.551-.049 3.833-.049 52.595 0 99.965 22.334 133.171 58.026m-164.572-55.316c-31.19 36.979-74.09 104.657-55.186 160.732 1.989 5.901 4.596 11.485 7.81 16.756-9.167 7.29-18.369 14.958-27.536 23.001-34.489-50.453-36.107-89.812-37.455-122.623-.133-3.241-.265-6.417-.421-9.544 27.189-35.314 67.051-60.362 112.788-68.322m-113.185 204.617c-13.91-14.104-27.415-22.816-37.249-27.954.392-29.168 7.643-56.677 20.225-80.986 1.841 28.473 7.134 62.417 31.488 102.633 2.997 4.948 6.242 9.908 9.715 14.882-3.095 2.866-6.183 5.765-9.258 8.719-4.661-6.155-9.636-11.934-14.921-17.294m1.44 30.624c-7.09 7.211-14.095 14.662-20.973 22.364-8.663-18.091-14.417-37.84-16.67-58.638 10.953 7.17 24.673 18.606 37.643 36.274m-11.406 39.801c7.155-8.192 14.459-16.111 21.874-23.751 11.08 19.162 20.746 43.845 26.428 75.473-19.278-13.901-35.719-31.486-48.302-51.722m69.219 64.747c-3.772-29.25-10.929-55.731-21.358-78.873-3.691-8.192-7.793-15.977-12.284-23.324 3.255-3.159 6.524-6.269 9.805-9.325 32.655 41.268 81.802 83.636 148.879 128.397-12.782 2.847-26.068 4.36-39.709 4.36-30.841 0-59.884-7.687-85.333-21.235m148.521 9.95c-79.889-51.892-128.58-96.023-158.404-134.117 9.27-8.172 18.582-15.946 27.858-23.328 32.291 33.843 96.95 50.887 193.196 50.886 14.254 0 29.215-.379 44.854-1.128-18.336 49.747-57.796 89.266-107.504 107.687"/></svg>