<svg enable-background="new 0 0 512 512" fill="#fff" height="512" viewBox="0 0 512 512" width="512" xmlns="http://www.w3.org/2000/svg"><path d="m214.819 49.375c-2.213.438-4.417.902-6.605 1.41 209.063 57.059 203.438 323.348 6.598 411.84 10.22 2.026 20.704 3.312 31.397 3.803 213.227-93.674 194.328-367.986-31.39-417.053"/><path d="m208.214 50.785c-93.324 21.645-162.875 105.307-162.875 205.215 0 102.248 72.85 187.471 169.472 206.624 120.897-62.244 201.578-343.2-6.597-411.839"/><path d="m256 45.339c-14.088 0-27.851 1.396-41.166 4.034 240.671 6.924 325.1 340.08 31.677 417.067 3.146.139 6.308.222 9.488.222 116.346 0 210.661-94.315 210.661-210.661.001-116.346-94.314-210.662-210.66-210.662"/></svg>