<?xml version="1.0" encoding="utf-8"?>
<!-- Generator: Adobe Illustrator 14.0.0, SVG Export Plug-In . SVG Version: 6.00 Build 43363)  -->
<!DOCTYPE svg PUBLIC "-//W3C//DTD SVG 1.1//EN" "http://www.w3.org/Graphics/SVG/1.1/DTD/svg11.dtd">
<svg version="1.1" xmlns="http://www.w3.org/2000/svg" xmlns:xlink="http://www.w3.org/1999/xlink" x="0px" y="0px" width="512px"
	 height="512px" viewBox="0 0 512 512" enable-background="new 0 0 512 512" xml:space="preserve" fill="#ffffff">
<g id="Layer_1">
</g>
<g id="amfb">
	<g>
		<path d="M214.819,49.375c-2.213,0.438-4.417,0.902-6.605,1.41c209.063,57.059,203.438,323.348,6.598,411.84
			c10.22,2.026,20.704,3.312,31.397,3.803C459.436,372.754,440.537,98.442,214.819,49.375"/>
		<path d="M208.214,50.785C114.89,72.43,45.339,156.092,45.339,256c0,102.248,72.85,187.471,169.472,206.624
			C335.708,400.38,416.389,119.424,208.214,50.785"/>
		<path d="M256,45.339c-14.088,0-27.851,1.396-41.166,4.034c240.671,6.924,325.1,340.08,31.677,417.067
			c3.146,0.139,6.308,0.222,9.488,0.222c116.346,0,210.661-94.315,210.661-210.661C466.661,139.655,372.346,45.339,256,45.339"/>
	</g>
</g>
</svg>
