<svg enable-background="new 0 0 512 512" fill="#fff" height="512" viewBox="0 0 512 512" width="512" xmlns="http://www.w3.org/2000/svg"><path d="m413.03 99.333c-4.464-4.462-10.639-1.715-10.639-1.715.355-.356-68.991 55.54-129.834 104.594-47.452 38.259-89.73 72.354-89.73 72.354l25.074 25.072 2.411 2.413 2.412 2.411 25.073 25.072s34.095-42.278 72.353-89.729c49.054-60.841 104.951-130.189 104.594-129.834.001 0 2.748-6.175-1.714-10.638z"/><path d="m462.68 155.312c-3.955-19.145-16.596-32.102-39.072-39.072l-89.262 116.747s44.317 6.976 58.083 5.236c13.765-1.741 21.676-9.336 42.879-29.272 21.202-19.937 31.329-34.493 27.372-53.639z"/><path d="m108.709 403.653-60.23 60.23s30.453-19.546 65.157-55.306z"/><path d="m48.478 463.884 60.231-60.23-4.926-4.926c-35.76 34.703-55.305 65.156-55.305 65.156z"/><path d="m119.258 392.105 6.402 6.401s19.621 17.722 39.452-2.109 59.703-59.703 59.703-59.703l-25.073-25.073z"/><path d="m174.667 286.549s-39.873 39.873-59.702 59.703c-19.832 19.83-2.111 39.45-2.111 39.45l6.403 6.403 80.483-80.483z"/><path d="m396.123 88.757c-6.971-22.477-19.929-35.118-39.073-39.073-19.146-3.956-33.703 6.17-53.639 27.373-19.937 21.202-27.53 29.114-29.271 42.879-1.741 13.766 5.235 58.083 5.235 58.083z"/></svg>