<svg enable-background="new 0 0 58.875 58.875" height="512" viewBox="0 0 58.875 58.875" width="512" xmlns="http://www.w3.org/2000/svg"><g fill="#fff"><path d="m29.437 58.875c16.232 0 29.438-13.206 29.438-29.438s-13.206-29.437-29.438-29.437-29.437 13.206-29.437 29.437 13.206 29.438 29.437 29.438zm-16.782-35.022c1.399-4.204-.25-8.682-3.739-11.058 2.93-3.606 6.788-6.426 11.208-8.096 1.149 4.067 4.88 7.051 9.315 7.051s8.165-2.984 9.315-7.051c4.564 1.725 8.528 4.679 11.491 8.456-3.529 2.316-5.254 6.763-3.929 10.99 1.328 4.232 5.291 6.899 9.517 6.778-.269 4.824-1.837 9.306-4.358 13.103-3.314-2.618-8.082-2.85-11.674-.254-3.595 2.599-4.869 7.201-3.419 11.172-2.214.603-4.54.931-6.942.931-2.538 0-4.99-.367-7.315-1.038 1.508-3.947.3-8.568-3.255-11.219-3.553-2.648-8.322-2.488-11.673.078-2.475-3.846-3.981-8.372-4.168-13.232 4.218.194 8.226-2.404 9.626-6.611z"/><circle cx="29.437" cy="29.437" r="9.688"/></g></svg>