<?xml version="1.0"?>
<svg xmlns="http://www.w3.org/2000/svg" xmlns:xlink="http://www.w3.org/1999/xlink" version="1.1" id="Capa_1" x="0px" y="0px" width="512px" height="512px" viewBox="0 0 58.875 58.875" style="enable-background:new 0 0 58.875 58.875;" xml:space="preserve" class=""><g><g>
	<g>
		<path d="M29.437,58.875c16.232,0,29.438-13.206,29.438-29.438S45.669,0,29.437,0S0,13.206,0,29.437S13.206,58.875,29.437,58.875z     M12.655,23.853c1.399-4.204-0.25-8.682-3.739-11.058c2.93-3.606,6.788-6.426,11.208-8.096c1.149,4.067,4.88,7.051,9.315,7.051    s8.165-2.984,9.315-7.051c4.564,1.725,8.528,4.679,11.491,8.456c-3.529,2.316-5.254,6.763-3.929,10.99    c1.328,4.232,5.291,6.899,9.517,6.778c-0.269,4.824-1.837,9.306-4.358,13.103c-3.314-2.618-8.082-2.85-11.674-0.254    c-3.595,2.599-4.869,7.201-3.419,11.172c-2.214,0.603-4.54,0.931-6.942,0.931c-2.538,0-4.99-0.367-7.315-1.038    c1.508-3.947,0.3-8.568-3.255-11.219c-3.553-2.648-8.322-2.488-11.673,0.078c-2.475-3.846-3.981-8.372-4.168-13.232    C7.247,30.658,11.255,28.06,12.655,23.853z" data-original="#000000" class="active-path" data-old_color="#FBEBEB" fill="#FFFFFF"/>
		<circle cx="29.437" cy="29.437" r="9.688" data-original="#000000" class="active-path" data-old_color="#FBEBEB" fill="#FFFFFF"/>
	</g>
</g></g> </svg>
