<svg enable-background="new 0 0 512 512" height="512" viewBox="0 0 512 512" width="512" xmlns="http://www.w3.org/2000/svg"><g fill="#fff"><path d="m462.385 104.591c-40.451-55.121-99.945-91.192-167.526-101.566-67.579-10.375-135.154 6.189-190.276 46.64-55.121 40.451-91.192 99.946-101.566 167.526-9.007 58.676 2.305 117.341 31.913 167.861.021.038.044.075.065.113 4.475 7.628 9.358 15.074 14.662 22.302 36.046 49.12 88.52 83.83 147.753 97.735 2.7.634 5.407 1.212 8.119 1.757.565.16 1.142.267 1.728.327 16.171 3.132 32.523 4.708 48.833 4.708 16.423 0 32.793-1.6 48.878-4.719.477-.057.948-.145 1.41-.269 22.363-4.468 44.154-11.912 64.717-22.289 4.93-2.488 6.91-8.501 4.421-13.431-2.488-4.93-8.501-6.91-13.431-4.421-12.385 6.25-25.081 11.307-37.949 15.225l41.461-71.879 81.174-15.247c-7.056 9.731-14.928 19.003-23.621 27.7-3.904 3.906-3.903 10.237.003 14.14 3.906 3.905 10.236 3.902 14.14-.002 15.297-15.303 28.466-32.426 39.313-50.873.08-.133.161-.264.235-.4 17.685-30.201 29.119-63.949 33.333-99.154.037-.245.065-.49.084-.736.356-3.048.672-6.104.919-9.173 4.93-61.242-12.398-122.28-48.792-171.875zm-170.559-81.8c51.806 7.953 98.447 32.298 134.135 69.488l-12.2 104.891-78.389 17.6-69.107-50.209v-75.1l15.397-11.036c4.488-3.217 5.519-9.464 2.302-13.952-3.218-4.488-9.463-5.518-13.952-2.302l-14.407 10.326-68.882-42.145c33.587-10.342 69.341-13.05 105.103-7.561zm-101.18 206.544 32.566-23.66 32.566-23.66 65.132 47.321-24.878 76.567h-80.508v-.001zm-74.231-163.547c14.606-10.719 30.165-19.608 46.395-26.621l82.969 50.764v74.631l-69.107 50.21-78.698-17.669-16.069-100.441c10.359-11.27 21.891-21.614 34.51-30.874zm-93.633 154.437c5.8-37.781 20.325-72.812 42.183-102.857l13.529 84.571-58.454 58.965c-.248-13.48.656-27.079 2.742-40.679zm-.745 67.069 70.339-70.954 78.766 17.684 26.133 80.43-49.186 75.691-97.984-18.809c-14.724-26.173-24.178-54.622-28.068-84.042zm43.742 108.343c-.262-.357-.511-.72-.771-1.077l81.424 15.63 41.588 72.088c-47.565-14.34-90.811-43.813-122.241-86.641zm231.527 92.942c-27.559 4.962-55.483 4.885-82.512.09l-50.263-87.127 49.155-75.642h84.669l49.155 75.643zm164.232-116.738-97.57 18.327-49.202-75.715 26.134-80.43 78.708-17.671 69.77 71.646c-3.947 29.213-13.266 57.733-27.84 83.843zm29.937-110.351-58.122-59.686 10.33-88.809c.866 1.137 1.732 2.273 2.58 3.428 31.578 43.032 46.42 94.31 45.212 145.067z"/><path d="m310.854 43.196c-1.86-1.86-4.439-2.93-7.069-2.93s-5.209 1.07-7.069 2.93-2.93 4.439-2.93 7.069 1.07 5.209 2.93 7.069c1.86 1.87 4.439 2.93 7.069 2.93s5.209-1.06 7.069-2.93c1.86-1.86 2.93-4.439 2.93-7.069s-1.07-5.21-2.93-7.069z"/><path d="m407.439 447.643c-1.86-1.86-4.439-2.93-7.069-2.93s-5.209 1.07-7.069 2.93-2.93 4.439-2.93 7.069 1.07 5.209 2.93 7.069c1.86 1.87 4.438 2.93 7.069 2.93 2.63 0 5.209-1.06 7.069-2.93 1.86-1.86 2.93-4.439 2.93-7.069s-1.07-5.209-2.93-7.069z"/></g></svg>