<svg enable-background="new 0 0 512 512" fill="#fff" height="512" viewBox="0 0 512 512" width="512" xmlns="http://www.w3.org/2000/svg"><path d="m256 43.089c-87.991 0-159.322 71.331-159.322 159.322s71.331 159.321 159.322 159.321 159.321-71.33 159.321-159.321-71.33-159.322-159.321-159.322m-69.646 250.552c-7.289 0-13.2-5.912-13.2-13.203 0-7.289 5.912-13.201 13.2-13.201 7.29 0 13.202 5.912 13.202 13.201 0 7.291-5.912 13.203-13.202 13.203m70.865 23.735c-9.799 0-17.745-7.945-17.745-17.746s7.945-17.746 17.745-17.746c9.802 0 17.747 7.945 17.747 17.746s-7.945 17.746-17.747 17.746m73.251-22.374c-7.29 0-13.201-5.912-13.201-13.201 0-7.291 5.911-13.201 13.201-13.201s13.201 5.91 13.201 13.201c0 7.289-5.911 13.201-13.201 13.201m52.073-94.522c-33.258-3.379-30.47 28.001-28.539 33.795 0 0 25.105-21.363 28.484 0 .966 12.553-11.104 12.553-16.415 10.622-7.725-3.862-12.712 2.514-16.897 5.793-4.827 3.862-11.587 2.896-14.001 1.448-18.346-8.69-29.221 13.51-31.863 17.859-4.466 7.97-21.967 5.797-26.956.675-14.967-14.487-33.875-4.533-37.738-.675-10.621 11.581-25.587 2.418-26.553-4.341-3.862-18.829-22.691-16.897-27.519-14.966-8.69 1.931-16.415.965-18.697 0-7.594-4.828-15.098-2.897-17.688-2.897-18.039-.965-14.79-17.38-12.376-21.243 9.173-13.035 20.76 5.311 19.312 9.656 1.689.845 9.173-1.689 10.621-9.173 1.931-17.863-16.415-29.45-35.243-26.553 0 0-14.174-2.91-14.748-22.822 11.718-66.858 70.06-117.669 140.273-117.669 60.212 0 111.695 37.365 132.531 90.172.008.017.015.035.022.053.728 1.85 1.412 3.721 2.064 5.608 8.779 27.262-3.612 46.011-8.074 44.658"/><path d="m211.099 389.734h.037c.566 17.825 11.523 33.021 27.01 39.747v10.461.475 6.769h.014c.305 12.062 8.174 21.726 17.841 21.726 9.668 0 17.535-9.663 17.841-21.726h.014v-6.769-.475-10.461c15.487-6.726 26.443-21.92 27.01-39.747h.037v-14.486h-89.802v14.486z"/></svg>