<svg enable-background="new 0 0 512 512" fill="#fff" height="512" viewBox="0 0 512 512" width="512" xmlns="http://www.w3.org/2000/svg"><path d="m256 45.241c-116.399 0-210.759 94.36-210.759 210.76 0 116.399 94.36 210.759 210.759 210.759s210.76-94.36 210.76-210.759c0-116.4-94.361-210.76-210.76-210.76m-168.555 210.759c0-93.09 75.464-168.555 168.555-168.555 93.09 0 168.555 75.464 168.555 168.555 0 .95-.02 1.897-.036 2.844-30.005.301-102.871.903-118.183-.138-19.396-1.32-43.409-7.786-88.665-83.521-3.694-8.312-18.472-29.574-50.797 10.149-7.389 7.399-19.155 21.358-45.872 22.177-5.234.308-10.16 8.004 0 9.236 4.925 1.231 11.594 1.46 17.856 4.002 2.463 1.847 19.704-1.54 31.402-4.311 11.699-2.771 30.479-6.465 37.56 17.548s47.411 101.594 66.498 132.381c2.646 5.879 11.465 15.129 2.073 56.955-6.686.806-13.488 1.231-20.391 1.231-93.09.003-168.555-75.462-168.555-168.553m220.321 160.443c9.519-20.678 30.297-49.531 71.194-45.17-19.299 20.58-43.703 36.306-71.194 45.17"/></svg>