<svg enable-background="new 0 0 512 512" fill="#fff" height="512" viewBox="0 0 512 512" width="512" xmlns="http://www.w3.org/2000/svg"><path d="m256 47.754c-115.011 0-208.246 93.234-208.246 208.245s93.235 208.247 208.246 208.247c115.01 0 208.246-93.236 208.246-208.247s-93.236-208.245-208.246-208.245m131.177 69.308c24.099 22.76 42.271 51.723 51.98 84.333l-20.745 9.543-31.235-55.345zm16.714 107.639-17.46 60.018-48.916-1.544-37.416-56.691 17.916-58.637h53.791zm-215.077 67.941 31.854-54.919h63.59l36.579 55.421-29.297 52.626h-70.959zm14.387 61.879-26.975 32.09-47.845-38.382v-44.183l43.775-1.442zm134.584-51.918 46.157 1.457v43.839l-50.122 35.876-24.835-29.436zm-72.08-237.447c38.008 1.901 73.084 14.916 102.062 35.849v47.433h-53.991l-48.071-32.136zm33.739 97.047-17.146 56.109h-60.698l-21.689-53.192 52.509-34.352zm-156.829-60.018c29.15-21.525 64.63-34.963 103.139-36.998l-2.693 48.51-57.786 37.804-42.66-2.509zm38.614 68.522 23.064 56.562-32.437 55.926-46.095 1.521-18.587-60.14 31.263-56.386zm-58.024-52.097v37.022l-32.242 58.151h-21.361c8.324-36.913 27.331-69.774 53.603-95.173m-58.293 137.389c0-7.718.471-15.327 1.361-22.806h23.248l19.451 62.93v51.425l-15.117 9.587c-18.334-29.335-28.943-63.993-28.943-101.136m40.061 117.069 13.042-8.271 52.293 41.949 18.884 28.326c-33.551-12.524-62.637-34.204-84.219-62.004m198.99 61.986h-91.455l-22.842-34.265 29.933-35.609h73.138l28.055 33.25zm21.883-1.137 14.08-30.643 55.625-39.818 15.522 4.204c-21.302 29.532-50.827 52.74-85.227 66.257m77.506-88.458v-49.419l19.079-65.587 21.375-9.832c2.146 11.466 3.283 23.288 3.283 35.377 0 34.393-9.092 66.659-24.994 94.537z"/></svg>