<?xml version="1.0" encoding="utf-8"?>
<!-- Generator: Adobe Illustrator 19.0.0, SVG Export Plug-In . SVG Version: 6.00 Build 0)  -->
<svg version="1.1" id="Capa_1" xmlns="http://www.w3.org/2000/svg" xmlns:xlink="http://www.w3.org/1999/xlink" x="0px" y="0px"
	 viewBox="-157 248 297 297" style="enable-background:new -157 248 297 297;" xml:space="preserve">
<style type="text/css">
	.st0{fill:#FFFDFD;}
	.st1{fill:#FFFFFF;stroke:#FFFFFF;stroke-miterlimit:10;}
</style>
<g>
	<path class="st0" d="M109.2,432.3l-9.3-14.4c-1.5-2.4-4.7-3.1-7.1-1.6l-8.2,4.9l14.7,23l8.2-4.9c1.2-0.7,2-1.8,2.3-3.1
		S109.9,433.4,109.2,432.3z"/>
	<path class="st0" d="M-110.7,416.2c-0.9-0.5-1.8-0.8-2.7-0.8c-1.7,0-3.4,0.8-4.4,2.4l-9.3,14.4c-0.7,1.1-1,2.5-0.6,3.8
		c0.3,1.3,1.1,2.4,2.3,3.1l8.2,4.9l14.7-23L-110.7,416.2z"/>
	<path class="st0" d="M72.2,279.1c-3.5-2.1-8.1-1.1-10.2,2.3l-97.2,151.4c-3.6,5.6-9.1,9.4-15.7,10.9c-6.6,1.5-13.4,0.4-19.1-3
		l-22.9-13.8l-14.7,23l36,21.6c5.6,3.4,12.3,4.4,18.7,3c6.4-1.5,11.9-5.3,15.4-10.7L74.6,289C76.8,285.6,75.7,281.2,72.2,279.1z"/>
	<path class="st1" d="M-24.3,395.2l8.8-13.6l-64.3-100.2c-2.2-3.4-6.8-4.4-10.2-2.3c-3.5,2.1-4.6,6.5-2.4,9.9L-24.3,395.2z"/>
	<path class="st0" d="M52.1,440.7c-5.7,3.4-12.5,4.5-19.1,3c-6.6-1.5-12.2-5.4-15.7-10.9L6.4,415.9l-8.8,13.6l22,34.3
		c3.5,5.4,9,9.2,15.4,10.7c6.4,1.5,13.1,0.4,18.7-3l36-21.6l-14.7-23L52.1,440.7z"/>
	<path class="st0" d="M6.3,486.1h-30.5c-6.8,0-12.4,5.4-12.4,12s5.5,12,12.4,12H6.3c6.8,0,12.4-5.4,12.4-12
		C18.6,491.4,13.1,486.1,6.3,486.1z"/>
</g>
</svg>
