<svg enable-background="new -157 248 297 297" viewBox="-157 248 297 297" xmlns="http://www.w3.org/2000/svg"><g fill="#fffdfd"><path d="m109.2 432.3-9.3-14.4c-1.5-2.4-4.7-3.1-7.1-1.6l-8.2 4.9 14.7 23 8.2-4.9c1.2-.7 2-1.8 2.3-3.1s.1-2.8-.6-3.9z"/><path d="m-110.7 416.2c-.9-.5-1.8-.8-2.7-.8-1.7 0-3.4.8-4.4 2.4l-9.3 14.4c-.7 1.1-1 2.5-.6 3.8.3 1.3 1.1 2.4 2.3 3.1l8.2 4.9 14.7-23z"/><path d="m72.2 279.1c-3.5-2.1-8.1-1.1-10.2 2.3l-97.2 151.4c-3.6 5.6-9.1 9.4-15.7 10.9s-13.4.4-19.1-3l-22.9-13.8-14.7 23 36 21.6c5.6 3.4 12.3 4.4 18.7 3 6.4-1.5 11.9-5.3 15.4-10.7l112.1-174.8c2.2-3.4 1.1-7.8-2.4-9.9z"/></g><path d="m-24.3 395.2 8.8-13.6-64.3-100.2c-2.2-3.4-6.8-4.4-10.2-2.3-3.5 2.1-4.6 6.5-2.4 9.9z" fill="#fff" stroke="#fff" stroke-miterlimit="10"/><g fill="#fffdfd"><path d="m52.1 440.7c-5.7 3.4-12.5 4.5-19.1 3s-12.2-5.4-15.7-10.9l-10.9-16.9-8.8 13.6 22 34.3c3.5 5.4 9 9.2 15.4 10.7s13.1.4 18.7-3l36-21.6-14.7-23z"/><path d="m6.3 486.1h-30.5c-6.8 0-12.4 5.4-12.4 12s5.5 12 12.4 12h30.5c6.8 0 12.4-5.4 12.4-12-.1-6.7-5.6-12-12.4-12z"/></g></svg>