<svg enable-background="new 0 0 512 512" height="512" viewBox="0 0 512 512" width="512" xmlns="http://www.w3.org/2000/svg"><g fill="#fff"><path d="m454.591 304.59-37.974-103.148v-14.386c0-12.794-3.451-25.373-9.979-36.375-14.17-23.883-41.177-37.435-68.787-34.518l-5.15.543c-6.913.729-14.038-.09-20.604-2.371l-12.657-4.395c-13.641-4.736-28.737-4.952-42.508-.608l-9.696 3.059c-10.254 3.235-21.428 2.885-31.46-.988-14.904-5.755-31.423-6.037-46.517-.797l-9.432 3.275c-7.274 2.526-15.143 3.249-22.753 2.094-24.854-3.771-49.665 6.378-64.747 26.492-11.818 15.763-18.327 35.293-18.327 54.994v113.039c0 27.75 22.577 50.327 50.327 50.327h10.976c13.115 0 24.913-5.726 33.04-14.805 8.086 10.923 21.059 18.02 35.662 18.02h16.953c13.837 0 26.211-6.373 34.351-16.334 7.839 9.594 19.608 15.846 32.827 16.296v10.213c0 19.108 15.545 34.653 34.653 34.653h91.963c25.081.001 47.083-16.932 53.506-41.175l7.896-29.807c2.928-11.054 2.388-22.568-1.563-33.298zm-314.937 11.886c0 13.427-10.924 24.351-24.351 24.351h-10.976c-16.723 0-30.327-13.604-30.327-30.327v-12.728c21.389-6.983 44.265-6.983 65.654 0zm85.655 3.216c0 13.427-10.924 24.351-24.351 24.351h-16.953c-13.427 0-24.351-10.924-24.351-24.351v-3.216-18.704c21.389-6.983 44.265-6.983 65.655 0zm9.999-110.692c-5.523 0-10 4.477-10 10v57.904c-21.538-5.835-44.117-5.835-65.655 0v-57.904-3.216c0-5.523-4.477-10-10-10s-10 4.477-10 10v3.216 57.904c-21.537-5.836-44.117-5.836-65.654 0v-8.515-44.146-26.782h.001c0-15.402 5.089-30.672 14.329-42.995 10.656-14.211 28.184-21.382 45.744-18.717 10.81 1.641 21.985.612 32.315-2.974l9.432-3.275c10.627-3.69 22.259-3.491 32.752.561 14.247 5.5 30.116 5.999 44.681 1.404l9.695-3.059c9.696-3.058 20.325-2.907 29.931.428l12.657 4.395c9.326 3.238 19.445 4.402 29.263 3.367l5.15-.543c19.868-2.1 39.293 7.652 49.488 24.833 4.697 7.916 7.179 16.966 7.179 26.17v40.403 40.93 8.515c-21.537-5.836-44.117-5.836-65.654 0v-57.904c0-5.523-4.477-10-10-10s-10 4.477-10 10v57.904c-21.537-5.836-44.117-5.836-65.654 0v-57.904c0-5.523-4.477-10-10-10zm161.309 88.772v13.891c0 17.855-14.526 32.381-32.381 32.381h-8.922c-13.427-.001-24.351-10.925-24.351-24.352v-21.92c21.389-6.983 44.265-6.983 65.654 0zm-126.957 46.271c-13.427 0-24.351-10.924-24.351-24.351v-21.92c21.389-6.983 44.265-6.983 65.654 0v21.92c0 13.427-10.924 24.351-24.351 24.351zm33.129 44.828c-8.08 0-14.653-6.573-14.653-14.653v-10.197c.144.006.285.022.43.022h20.135c15.729 0 29.05 10.484 33.358 24.828zm126.135-26.298c-4.101 15.484-18.153 26.298-34.172 26.298h-32.153c-1.742-9.408-5.882-17.983-11.778-25.055 1.478.149 2.976.227 4.493.227h8.922c24.608 0 45.295-17.061 50.883-39.972 6.376 2.087 11.893 6.466 15.314 12.443l3.688 6.444zm-12.307-58.782v-13.246c0-.005 0-.01 0-.016v-22.141-9.056l19.206 52.168c.214.582.391 1.172.573 1.76-5.744-4.629-12.514-7.894-19.779-9.469z"/><path d="m256 0c-5.523 0-10 4.477-10 10v54c0 5.523 4.477 10 10 10s10-4.477 10-10v-54c0-5.523-4.477-10-10-10z"/><path d="m99.071 84.928-56-56c-3.905-3.905-10.237-3.905-14.143 0-3.905 3.905-3.905 10.237 0 14.143l56.001 56c1.952 1.953 4.512 2.929 7.071 2.929s5.119-.976 7.071-2.929c3.905-3.905 3.905-10.237 0-14.143z"/><path d="m458.196 53.803c-3.905-3.905-10.237-3.905-14.143 0l-52.254 52.254c-3.905 3.905-3.905 10.237 0 14.143 1.953 1.953 4.513 2.929 7.072 2.929s5.119-.976 7.071-2.929l52.254-52.254c3.905-3.905 3.905-10.237 0-14.143z"/><path d="m483.07 28.93c-1.86-1.86-4.44-2.93-7.07-2.93s-5.21 1.07-7.07 2.93-2.93 4.44-2.93 7.07 1.07 5.21 2.93 7.07 4.44 2.93 7.07 2.93 5.21-1.07 7.07-2.93 2.93-4.44 2.93-7.07-1.07-5.21-2.93-7.07z"/><path d="m484.692 474.583-60.472-60.473c-3.905-3.905-10.237-3.905-14.142 0s-3.906 10.237 0 14.142l60.472 60.473c1.953 1.953 4.512 2.929 7.071 2.929s5.119-.977 7.071-2.929c3.905-3.905 3.906-10.237 0-14.142z"/><path d="m113.063 397.266c-3.905-3.904-10.237-3.904-14.142.001l-46.994 46.993c-3.905 3.905-3.905 10.237 0 14.143 1.953 1.953 4.512 2.929 7.071 2.929s5.119-.976 7.071-2.929l46.994-46.994c3.905-3.905 3.905-10.237 0-14.143z"/><path d="m37.49 472.84c-1.87-1.86-4.44-2.92-7.07-2.92-2.64 0-5.21 1.06-7.08 2.92-1.86 1.86-2.92 4.44-2.92 7.08 0 2.63 1.06 5.21 2.92 7.07 1.87 1.86 4.45 2.93 7.08 2.93 2.62 0 5.2-1.07 7.07-2.93 1.86-1.86 2.93-4.44 2.93-7.07 0-2.64-1.07-5.22-2.93-7.08z"/><path d="m256 411.167c-5.523 0-10 4.477-10 10v80.833c0 5.523 4.477 10 10 10s10-4.477 10-10v-80.833c0-5.522-4.477-10-10-10z"/><path d="m502 246h-27.014c-5.523 0-10 4.477-10 10s4.477 10 10 10h27.014c5.523 0 10-4.477 10-10s-4.477-10-10-10z"/><path d="m27.84 246h-17.84c-5.523 0-10 4.477-10 10s4.477 10 10 10h17.84c5.523 0 10-4.477 10-10s-4.477-10-10-10z"/><path d="m191.764 74.789-20.665-49.89c-2.114-5.102-7.964-7.527-13.065-5.412-5.103 2.113-7.525 7.963-5.412 13.065l20.664 49.89c1.595 3.851 5.318 6.176 9.243 6.176 1.275 0 2.572-.245 3.823-.764 5.103-2.113 7.525-7.963 5.412-13.065z"/><path d="m45.551 158.005-22.804-9.445c-5.102-2.112-10.952.31-13.065 5.412s.309 10.952 5.411 13.065l22.804 9.445c1.251.519 2.547.764 3.823.764 3.924 0 7.648-2.325 9.243-6.176 2.113-5.103-.31-10.952-5.412-13.065z"/><path d="m350.54 27.761c-5.104-2.112-10.952.31-13.066 5.412l-13.392 32.33c-2.114 5.103.31 10.953 5.412 13.066 1.252.519 2.548.764 3.823.764 3.924 0 7.647-2.325 9.243-6.175l13.392-32.331c2.114-5.103-.31-10.952-5.412-13.066z"/><path d="m492.32 346.97c-1.86-1.86-4.44-2.93-7.07-2.93s-5.21 1.07-7.07 2.93c-1.87 1.86-2.93 4.44-2.93 7.07 0 2.64 1.06 5.21 2.93 7.07 1.86 1.86 4.44 2.93 7.07 2.93s5.21-1.07 7.07-2.93 2.93-4.43 2.93-7.07c0-2.63-1.07-5.21-2.93-7.07z"/><path d="m197.715 395.099c-5.101-2.113-10.952.31-13.065 5.412l-30.173 72.843c-2.114 5.102.31 10.952 5.412 13.065 1.251.519 2.547.764 3.823.764 3.924 0 7.647-2.325 9.243-6.176l30.173-72.843c2.113-5.101-.31-10.952-5.413-13.065z"/><path d="m359.38 479.447-11.422-27.572c-2.114-5.103-7.964-7.527-13.065-5.412-5.103 2.113-7.526 7.963-5.412 13.065l11.421 27.572c1.595 3.852 5.318 6.176 9.243 6.176 1.275 0 2.572-.245 3.823-.764 5.103-2.113 7.526-7.963 5.412-13.065z"/><path d="m492.514 158.033c-2.114-5.102-7.966-7.527-13.066-5.412l-24.958 10.338c-5.103 2.113-7.526 7.963-5.412 13.065 1.595 3.851 5.318 6.176 9.243 6.176 1.275 0 2.572-.245 3.823-.764l24.958-10.338c5.103-2.113 7.526-7.963 5.412-13.065z"/><path d="m54.446 339.487c-2.114-5.103-7.965-7.527-13.065-5.412l-16.482 6.827c-5.103 2.114-7.526 7.963-5.412 13.065 1.595 3.851 5.318 6.176 9.242 6.176 1.275 0 2.572-.245 3.823-.764l16.482-6.827c5.103-2.114 7.526-7.963 5.412-13.065z"/></g></svg>