<?xml version="1.0"?>
<svg xmlns="http://www.w3.org/2000/svg" xmlns:xlink="http://www.w3.org/1999/xlink" version="1.1" id="Capa_1" x="0px" y="0px" viewBox="0 0 512 512" style="enable-background:new 0 0 512 512;" xml:space="preserve" width="512px" height="512px" class=""><g><g>
	<g>
		<path d="M454.591,304.59l-37.974-103.148v-14.386c0-12.794-3.451-25.373-9.979-36.375c-14.17-23.883-41.177-37.435-68.787-34.518    l-5.15,0.543c-6.913,0.729-14.038-0.09-20.604-2.371l-12.657-4.395c-13.641-4.736-28.737-4.952-42.508-0.608l-9.696,3.059    c-10.254,3.235-21.428,2.885-31.46-0.988c-14.904-5.755-31.423-6.037-46.517-0.797l-9.432,3.275    c-7.274,2.526-15.143,3.249-22.753,2.094c-24.854-3.771-49.665,6.378-64.747,26.492C60.509,158.23,54,177.76,54,197.461V310.5    c0,27.75,22.577,50.327,50.327,50.327h10.976c13.115,0,24.913-5.726,33.04-14.805c8.086,10.923,21.059,18.02,35.662,18.02h16.953    c13.837,0,26.211-6.373,34.351-16.334c7.839,9.594,19.608,15.846,32.827,16.296v10.213c0,19.108,15.545,34.653,34.653,34.653    h91.963c25.081,0.001,47.083-16.932,53.506-41.175l7.896-29.807C459.082,326.834,458.542,315.32,454.591,304.59z M139.654,316.476    c0,13.427-10.924,24.351-24.351,24.351h-10.976C87.604,340.827,74,327.223,74,310.5v-12.728c21.389-6.983,44.265-6.983,65.654,0    V316.476z M225.309,319.692c0,13.427-10.924,24.351-24.351,24.351h-16.953c-13.427,0-24.351-10.924-24.351-24.351v-3.216v-18.704    c21.389-6.983,44.265-6.983,65.655,0V319.692z M235.308,209c-5.523,0-10,4.477-10,10v57.904c-21.538-5.835-44.117-5.835-65.655,0    V219v-3.216c0-5.523-4.477-10-10-10s-10,4.477-10,10V219v57.904c-21.537-5.836-44.117-5.836-65.654,0v-8.515v-44.146v-26.782H74    c0-15.402,5.089-30.672,14.329-42.995c10.656-14.211,28.184-21.382,45.744-18.717c10.81,1.641,21.985,0.612,32.315-2.974    l9.432-3.275c10.627-3.69,22.259-3.491,32.752,0.561c14.247,5.5,30.116,5.999,44.681,1.404l9.695-3.059    c9.696-3.058,20.325-2.907,29.931,0.428l12.657,4.395c9.326,3.238,19.445,4.402,29.263,3.367l5.15-0.543    c19.868-2.1,39.293,7.652,49.488,24.833c4.697,7.916,7.179,16.966,7.179,26.17v40.403v40.93v8.515    c-21.537-5.836-44.117-5.836-65.654,0V219c0-5.523-4.477-10-10-10s-10,4.477-10,10v57.904c-21.537-5.836-44.117-5.836-65.654,0    V219C245.308,213.477,240.831,209,235.308,209z M396.617,297.772v13.891c0,17.855-14.526,32.381-32.381,32.381h-8.922    c-13.427-0.001-24.351-10.925-24.351-24.352v-21.92C352.352,290.789,375.228,290.789,396.617,297.772z M269.66,344.043    c-13.427,0-24.351-10.924-24.351-24.351v-21.92c21.389-6.983,44.265-6.983,65.654,0v21.92c0,13.427-10.924,24.351-24.351,24.351    H269.66z M302.789,388.871c-8.08,0-14.653-6.573-14.653-14.653v-10.197c0.144,0.006,0.285,0.022,0.43,0.022h20.135    c15.729,0,29.05,10.484,33.358,24.828H302.789z M428.924,362.573c-4.101,15.484-18.153,26.298-34.172,26.298h-32.153    c-1.742-9.408-5.882-17.983-11.778-25.055c1.478,0.149,2.976,0.227,4.493,0.227h8.922c24.608,0,45.295-17.061,50.883-39.972    c6.376,2.087,11.893,6.466,15.314,12.443l3.688,6.444L428.924,362.573z M416.617,303.791v-13.246c0-0.005,0-0.01,0-0.016v-22.141    v-9.056l19.206,52.168c0.214,0.582,0.391,1.172,0.573,1.76C430.652,308.631,423.882,305.366,416.617,303.791z" data-original="#000000" class="active-path" data-old_color="#FBFBFB" fill="#FFFFFF"/>
	</g>
</g><g>
	<g>
		<path d="M256,0c-5.523,0-10,4.477-10,10v54c0,5.523,4.477,10,10,10s10-4.477,10-10V10C266,4.477,261.523,0,256,0z" data-original="#000000" class="active-path" data-old_color="#FBFBFB" fill="#FFFFFF"/>
	</g>
</g><g>
	<g>
		<path d="M99.071,84.928l-56-56c-3.905-3.905-10.237-3.905-14.143,0c-3.905,3.905-3.905,10.237,0,14.143l56.001,56    C86.881,101.024,89.441,102,92,102s5.119-0.976,7.071-2.929C102.976,95.166,102.976,88.834,99.071,84.928z" data-original="#000000" class="active-path" data-old_color="#FBFBFB" fill="#FFFFFF"/>
	</g>
</g><g>
	<g>
		<path d="M458.196,53.803c-3.905-3.905-10.237-3.905-14.143,0l-52.254,52.254c-3.905,3.905-3.905,10.237,0,14.143    c1.953,1.953,4.513,2.929,7.072,2.929c2.559,0,5.119-0.976,7.071-2.929l52.254-52.254    C462.101,64.041,462.101,57.709,458.196,53.803z" data-original="#000000" class="active-path" data-old_color="#FBFBFB" fill="#FFFFFF"/>
	</g>
</g><g>
	<g>
		<path d="M483.07,28.93C481.21,27.07,478.63,26,476,26s-5.21,1.07-7.07,2.93C467.07,30.79,466,33.37,466,36s1.07,5.21,2.93,7.07    c1.86,1.86,4.44,2.93,7.07,2.93s5.21-1.07,7.07-2.93c1.86-1.86,2.93-4.44,2.93-7.07S484.93,30.79,483.07,28.93z" data-original="#000000" class="active-path" data-old_color="#FBFBFB" fill="#FFFFFF"/>
	</g>
</g><g>
	<g>
		<path d="M484.692,474.583L424.22,414.11c-3.905-3.905-10.237-3.905-14.142,0c-3.905,3.905-3.906,10.237,0,14.142l60.472,60.473    c1.953,1.953,4.512,2.929,7.071,2.929c2.559,0,5.119-0.977,7.071-2.929C488.597,484.82,488.598,478.488,484.692,474.583z" data-original="#000000" class="active-path" data-old_color="#FBFBFB" fill="#FFFFFF"/>
	</g>
</g><g>
	<g>
		<path d="M113.063,397.266c-3.905-3.904-10.237-3.904-14.142,0.001L51.927,444.26c-3.905,3.905-3.905,10.237,0,14.143    c1.953,1.953,4.512,2.929,7.071,2.929c2.559,0,5.119-0.976,7.071-2.929l46.994-46.994    C116.968,407.504,116.968,401.172,113.063,397.266z" data-original="#000000" class="active-path" data-old_color="#FBFBFB" fill="#FFFFFF"/>
	</g>
</g><g>
	<g>
		<path d="M37.49,472.84c-1.87-1.86-4.44-2.92-7.07-2.92c-2.64,0-5.21,1.06-7.08,2.92c-1.86,1.86-2.92,4.44-2.92,7.08    c0,2.63,1.06,5.21,2.92,7.07c1.87,1.86,4.45,2.93,7.08,2.93c2.62,0,5.2-1.07,7.07-2.93c1.86-1.86,2.93-4.44,2.93-7.07    C40.42,477.28,39.35,474.7,37.49,472.84z" data-original="#000000" class="active-path" data-old_color="#FBFBFB" fill="#FFFFFF"/>
	</g>
</g><g>
	<g>
		<path d="M256,411.167c-5.523,0-10,4.477-10,10V502c0,5.523,4.477,10,10,10s10-4.477,10-10v-80.833    C266,415.645,261.523,411.167,256,411.167z" data-original="#000000" class="active-path" data-old_color="#FBFBFB" fill="#FFFFFF"/>
	</g>
</g><g>
	<g>
		<path d="M502,246h-27.014c-5.523,0-10,4.477-10,10s4.477,10,10,10H502c5.523,0,10-4.477,10-10S507.523,246,502,246z" data-original="#000000" class="active-path" data-old_color="#FBFBFB" fill="#FFFFFF"/>
	</g>
</g><g>
	<g>
		<path d="M27.84,246H10c-5.523,0-10,4.477-10,10s4.477,10,10,10h17.84c5.523,0,10-4.477,10-10S33.363,246,27.84,246z" data-original="#000000" class="active-path" data-old_color="#FBFBFB" fill="#FFFFFF"/>
	</g>
</g><g>
	<g>
		<path d="M191.764,74.789l-20.665-49.89c-2.114-5.102-7.964-7.527-13.065-5.412c-5.103,2.113-7.525,7.963-5.412,13.065    l20.664,49.89c1.595,3.851,5.318,6.176,9.243,6.176c1.275,0,2.572-0.245,3.823-0.764    C191.455,85.741,193.877,79.891,191.764,74.789z" data-original="#000000" class="active-path" data-old_color="#FBFBFB" fill="#FFFFFF"/>
	</g>
</g><g>
	<g>
		<path d="M45.551,158.005l-22.804-9.445c-5.102-2.112-10.952,0.31-13.065,5.412s0.309,10.952,5.411,13.065l22.804,9.445    c1.251,0.519,2.547,0.764,3.823,0.764c3.924,0,7.648-2.325,9.243-6.176C53.076,165.967,50.653,160.118,45.551,158.005z" data-original="#000000" class="active-path" data-old_color="#FBFBFB" fill="#FFFFFF"/>
	</g>
</g><g>
	<g>
		<path d="M350.54,27.761c-5.104-2.112-10.952,0.31-13.066,5.412l-13.392,32.33c-2.114,5.103,0.31,10.953,5.412,13.066    c1.252,0.519,2.548,0.764,3.823,0.764c3.924,0,7.647-2.325,9.243-6.175l13.392-32.331    C358.066,35.724,355.642,29.875,350.54,27.761z" data-original="#000000" class="active-path" data-old_color="#FBFBFB" fill="#FFFFFF"/>
	</g>
</g><g>
	<g>
		<path d="M492.32,346.97c-1.86-1.86-4.44-2.93-7.07-2.93s-5.21,1.07-7.07,2.93c-1.87,1.86-2.93,4.44-2.93,7.07    c0,2.64,1.06,5.21,2.93,7.07c1.86,1.86,4.44,2.93,7.07,2.93s5.21-1.07,7.07-2.93c1.86-1.86,2.93-4.43,2.93-7.07    C495.25,351.41,494.18,348.83,492.32,346.97z" data-original="#000000" class="active-path" data-old_color="#FBFBFB" fill="#FFFFFF"/>
	</g>
</g><g>
	<g>
		<path d="M197.715,395.099c-5.101-2.113-10.952,0.31-13.065,5.412l-30.173,72.843c-2.114,5.102,0.31,10.952,5.412,13.065    c1.251,0.519,2.547,0.764,3.823,0.764c3.924,0,7.647-2.325,9.243-6.176l30.173-72.843    C205.241,403.063,202.818,397.212,197.715,395.099z" data-original="#000000" class="active-path" data-old_color="#FBFBFB" fill="#FFFFFF"/>
	</g>
</g><g>
	<g>
		<path d="M359.38,479.447l-11.422-27.572c-2.114-5.103-7.964-7.527-13.065-5.412c-5.103,2.113-7.526,7.963-5.412,13.065    l11.421,27.572c1.595,3.852,5.318,6.176,9.243,6.176c1.275,0,2.572-0.245,3.823-0.764    C359.071,490.399,361.494,484.549,359.38,479.447z" data-original="#000000" class="active-path" data-old_color="#FBFBFB" fill="#FFFFFF"/>
	</g>
</g><g>
	<g>
		<path d="M492.514,158.033c-2.114-5.102-7.966-7.527-13.066-5.412l-24.958,10.338c-5.103,2.113-7.526,7.963-5.412,13.065    c1.595,3.851,5.318,6.176,9.243,6.176c1.275,0,2.572-0.245,3.823-0.764l24.958-10.338    C492.205,168.985,494.628,163.135,492.514,158.033z" data-original="#000000" class="active-path" data-old_color="#FBFBFB" fill="#FFFFFF"/>
	</g>
</g><g>
	<g>
		<path d="M54.446,339.487c-2.114-5.103-7.965-7.527-13.065-5.412l-16.482,6.827c-5.103,2.114-7.526,7.963-5.412,13.065    c1.595,3.851,5.318,6.176,9.242,6.176c1.275,0,2.572-0.245,3.823-0.764l16.482-6.827C54.137,350.438,56.56,344.589,54.446,339.487    z" data-original="#000000" class="active-path" data-old_color="#FBFBFB" fill="#FFFFFF"/>
	</g>
</g></g> </svg>
