<svg enable-background="new 0 0 512 512" fill="#fff" height="512" viewBox="0 0 512 512" width="512" xmlns="http://www.w3.org/2000/svg"><path d="m263.28 47.39c-48.412 13.1-97.929 38.483-138.826 78.144-39.302 38.113-65.108 84.041-79.333 129.506l208.738 208.738c48.469-13.32 97.585-38.445 137.595-77.244 40.193-38.978 65.4-86.143 78.339-132.632z"/><path d="m478.883 206.641c6.229-58.052-6.443-109.918-32.256-136.536-1.182-1.219-2.439-2.396-3.731-3.553l-3.948-2.808-5.626-4.56c-28.07-18.629-72.933-26.364-122.725-20.828z"/><path d="m34.572 300.842c-8.651 58.11 1.597 110.57 26.441 138.566l8.879 8.438c28.246 22.789 79.76 32.319 136.955 25.271z"/></svg>