<svg enable-background="new 0 0 512 512" fill="#fff" height="512" viewBox="0 0 512 512" width="512" xmlns="http://www.w3.org/2000/svg"><path d="m138.257 206.793c31.061 57.684 60.15 136.076 138.542 136.076s142.486-42.894 139.527-131.64c-2.209-66.252-29.151-112.44-78.359-146.164-25.149-10.811-52.855-16.809-81.967-16.809-84.333 0-156.927 50.252-189.478 122.444 23.139-1.826 53.968 3.098 71.735 36.093z"/><path d="m381.134 90.17c29.029 30.93 66.188 90.256 44.104 178.454-22.106 88.296-185.883 140.166-247.555 45.911-45.729-69.89-58.214-133.175-119.273-122.821-6.581 20.245-10.154 41.847-10.154 64.286 0 114.733 93.01 207.745 207.744 207.745s207.744-93.012 207.744-207.745c0-67.744-32.432-127.907-82.61-165.83z"/></svg>