<?xml version="1.0" encoding="utf-8"?>
<!-- Generator: Adobe Illustrator 14.0.0, SVG Export Plug-In . SVG Version: 6.00 Build 43363)  -->
<!DOCTYPE svg PUBLIC "-//W3C//DTD SVG 1.1//EN" "http://www.w3.org/Graphics/SVG/1.1/DTD/svg11.dtd">
<svg version="1.1" xmlns="http://www.w3.org/2000/svg" xmlns:xlink="http://www.w3.org/1999/xlink" x="0px" y="0px" width="512px"
	 height="512px" viewBox="0 0 512 512" enable-background="new 0 0 512 512" xml:space="preserve" fill="#ffffff">
<g id="Layer_1">
</g>
<g id="amfb">
	<g>
		<path d="M138.257,206.793c31.061,57.684,60.15,136.076,138.542,136.076s142.486-42.894,139.527-131.64
			c-2.209-66.252-29.151-112.44-78.359-146.164C312.818,54.254,285.112,48.256,256,48.256c-84.333,0-156.927,50.252-189.478,122.444
			C89.661,168.874,120.49,173.798,138.257,206.793z"/>
		<path d="M381.134,90.17c29.029,30.93,66.188,90.256,44.104,178.454c-22.106,88.296-185.883,140.166-247.555,45.911
			c-45.729-69.89-58.214-133.175-119.273-122.821C51.829,211.959,48.256,233.561,48.256,256
			c0,114.733,93.01,207.745,207.744,207.745c114.734,0,207.744-93.012,207.744-207.745
			C463.744,188.256,431.312,128.093,381.134,90.17z"/>
	</g>
</g>
</svg>
