<svg enable-background="new 0 0 512 512" fill="#fff" viewBox="0 0 512 512" xmlns="http://www.w3.org/2000/svg"><path d="m489.043 256.899c-.828 131.119-106.58 234.326-234.077 233.619-130.656-.724-232.767-107.726-232.006-235.66.777-130.64 106.12-233.94 233.788-233.378 130.534.574 232.732 107.293 232.295 235.419zm-33.492-74.095c-.083-.784-.039-1.269-.192-1.68-11.991-32.07-30.523-59.709-55.592-82.888-1.169-1.081-2.692-2.109-4.203-2.43-19.299-4.096-38.462-9.501-57.98-11.767-46.805-5.435-92.682.313-137.316 15.6-6.299 2.157-12.458 4.73-18.687 7.113 5.973 22.62 14.02 43.525 24.566 63.423 84.947-29.656 167.842-24 249.404 12.629zm-123.617 72.574c-21.309.636-40.971 3.379-60.512 7.443-5.411 1.126-8.848 2.983-9.794 8.93-.641 4.033-2.389 7.906-3.787 11.798-22.1 61.506-57.488 113.383-109.595 153.142-.826.63-1.517 1.438-2.611 2.49 4.35 2.452 8.078 4.927 12.099 6.747 9.744 4.41 19.652 8.451 29.433 12.779 3.041 1.346 5.412.801 8.158-.981 63.713-41.344 107.129-98.189 129.109-171.33 2.984-9.933 4.91-20.188 7.5-31.018zm-113.669 67.699c11.17-20.767 19.329-41.134 25.525-62.297.385-1.315-.63-3.475-1.641-4.699-4.002-4.845-8.387-9.368-12.406-14.199-33.2-39.897-56.951-84.72-69.028-135.487-2.941-12.361-4.905-24.957-7.354-37.629-.416.143-1.099.218-1.59.568-12.345 8.807-24.731 17.559-36.909 26.595-1.349 1.001-2.192 3.707-2.066 5.538.763 11.083 1.337 22.222 2.961 33.194 8.58 57.98 31.37 109.64 69.43 154.123 10.153 11.869 21.679 22.55 33.078 34.293zm-68.409 86.578c-17.686-13.204-42.177-34.652-64.385-66.687-24.395-35.189-36.117-68.843-42.016-91.215-.383 16.098.897 38.2 7.98 63.232 2.929 10.351 9.285 29.774 22.287 51.532 13.309 22.271 30.167 41.43 50.479 57.46 1.299 1.025 4.227 1.734 5.299.989 6.757-4.698 13.202-9.848 20.356-15.311zm291.424-137.992c-8.915 60.141-31.35 114.029-67.492 162.173 1.028-.223 1.711-.642 2.367-1.1 34.476-24.07 59.96-55.518 76.309-94.415 6.898-16.412 11.45-33.515 13.982-51.131.254-1.769-.791-4.89-2.12-5.535-7.385-3.584-15.043-6.597-23.046-9.992z"/></svg>