<?xml version="1.0" encoding="utf-8"?>
<!-- Generator: Adobe Illustrator 19.1.0, SVG Export Plug-In . SVG Version: 6.00 Build 0)  -->
<svg version="1.1" id="Layer_3" xmlns="http://www.w3.org/2000/svg" xmlns:xlink="http://www.w3.org/1999/xlink" x="0px" y="0px"
	 viewBox="0 0 512 512" enable-background="new 0 0 512 512" xml:space="preserve" fill="#ffffff">
<g>
	<path d="M489.043,256.899c-0.828,131.119-106.58,234.326-234.077,233.619C124.31,489.794,22.199,382.792,22.96,254.858
		c0.777-130.64,106.12-233.94,233.788-233.378C387.282,22.054,489.48,128.773,489.043,256.899z M455.551,182.804
		c-0.083-0.784-0.039-1.269-0.192-1.68c-11.991-32.07-30.523-59.709-55.592-82.888c-1.169-1.081-2.692-2.109-4.203-2.43
		c-19.299-4.096-38.462-9.501-57.98-11.767c-46.805-5.435-92.682,0.313-137.316,15.6c-6.299,2.157-12.458,4.73-18.687,7.113
		c5.973,22.62,14.02,43.525,24.566,63.423C291.094,140.519,373.989,146.175,455.551,182.804z M331.934,255.378
		c-21.309,0.636-40.971,3.379-60.512,7.443c-5.411,1.126-8.848,2.983-9.794,8.93c-0.641,4.033-2.389,7.906-3.787,11.798
		c-22.1,61.506-57.488,113.383-109.595,153.142c-0.826,0.63-1.517,1.438-2.611,2.49c4.35,2.452,8.078,4.927,12.099,6.747
		c9.744,4.41,19.652,8.451,29.433,12.779c3.041,1.346,5.412,0.801,8.158-0.981c63.713-41.344,107.129-98.189,129.109-171.33
		C327.418,276.463,329.344,266.208,331.934,255.378z M218.265,323.077c11.17-20.767,19.329-41.134,25.525-62.297
		c0.385-1.315-0.63-3.475-1.641-4.699c-4.002-4.845-8.387-9.368-12.406-14.199c-33.2-39.897-56.951-84.72-69.028-135.487
		c-2.941-12.361-4.905-24.957-7.354-37.629c-0.416,0.143-1.099,0.218-1.59,0.568c-12.345,8.807-24.731,17.559-36.909,26.595
		c-1.349,1.001-2.192,3.707-2.066,5.538c0.763,11.083,1.337,22.222,2.961,33.194c8.58,57.98,31.37,109.64,69.43,154.123
		C195.34,300.653,206.866,311.334,218.265,323.077z M149.856,409.655c-17.686-13.204-42.177-34.652-64.385-66.687
		c-24.395-35.189-36.117-68.843-42.016-91.215c-0.383,16.098,0.897,38.2,7.98,63.232c2.929,10.351,9.285,29.774,22.287,51.532
		c13.309,22.271,30.167,41.43,50.479,57.46c1.299,1.025,4.227,1.734,5.299,0.989C136.257,420.268,142.702,415.118,149.856,409.655z
		 M441.28,271.663c-8.915,60.141-31.35,114.029-67.492,162.173c1.028-0.223,1.711-0.642,2.367-1.1
		c34.476-24.07,59.96-55.518,76.309-94.415c6.898-16.412,11.45-33.515,13.982-51.131c0.254-1.769-0.791-4.89-2.12-5.535
		C456.941,278.071,449.283,275.058,441.28,271.663z"/>
</g>
</svg>
