<?xml version="1.0"?>
<svg xmlns="http://www.w3.org/2000/svg" xmlns:xlink="http://www.w3.org/1999/xlink" version="1.1" id="Capa_1" x="0px" y="0px" viewBox="0 0 399.1 399.1" style="enable-background:new 0 0 399.1 399.1;" xml:space="preserve" width="512px" height="512px" class=""><g><g>
	<path d="M392.6,258.249h-0.12c-5.996,0-11.52-2.729-15.155-7.486c-6.12-8.01-15.405-12.604-25.475-12.604   c-10.075,0-19.364,4.594-25.485,12.604c-3.27,4.281-8.065,6.912-13.354,7.399c8.879-15.876,14.213-33.417,15.71-51.616   c3.042-1.979,5.716-4.461,7.972-7.417c3.643-4.76,9.168-7.49,15.158-7.49c5.984,0,11.505,2.729,15.146,7.487   c6.121,8.009,15.41,12.603,25.484,12.603h0.12c3.59,0,6.5-2.91,6.5-6.5s-2.91-6.5-6.5-6.5h-0.12c-5.99,0-11.515-2.732-15.158-7.5   c-6.122-8.001-15.406-12.59-25.472-12.59c-8.751,0-16.908,3.468-22.917,9.63c-3.981-66.806-59.585-119.94-127.373-119.94   c-70.364,0-127.61,57.246-127.61,127.61c0,0.546,0.016,1.09,0.023,1.635c-2.077,0.757-4.286,1.155-6.533,1.155   c-5.991,0-11.51-2.73-15.145-7.496c-6.116-8.006-15.404-12.597-25.481-12.597c-10.076,0-19.363,4.592-25.479,12.597   c-2.18,2.854-1.634,6.933,1.219,9.111c2.854,2.181,6.933,1.633,9.111-1.219c3.636-4.76,9.157-7.489,15.149-7.489   s11.514,2.729,15.147,7.484c6.11,8.013,15.397,12.608,25.478,12.608c2.495,0,4.962-0.306,7.362-0.871   c1.48,12.85,4.897,25.266,10.199,37.101c-0.847,0.881-1.65,1.816-2.405,2.804c-3.636,4.758-9.159,7.486-15.155,7.486   s-11.516-2.727-15.144-7.484c-6.116-8.011-15.404-12.605-25.482-12.605c-10.077,0-19.364,4.595-25.48,12.605   c-2.178,2.854-1.631,6.933,1.223,9.11c2.854,2.18,6.935,1.632,9.11-1.222c3.636-4.763,9.157-7.494,15.148-7.494   s11.513,2.731,15.146,7.491c6.105,8.007,15.393,12.599,25.479,12.599c10.08,0,19.369-4.59,25.485-12.594   c3.641-4.764,9.164-7.496,15.154-7.496c5.992,0,11.511,2.73,15.143,7.492c6.106,8.006,15.393,12.598,25.478,12.598   c10.08,0,19.369-4.59,25.485-12.594c3.641-4.764,9.164-7.496,15.155-7.496c5.992,0,11.511,2.73,15.142,7.492   c6.106,8.006,15.393,12.598,25.479,12.598c10.079,0,19.368-4.59,25.484-12.594c3.641-4.764,9.161-7.496,15.146-7.496   s11.504,2.732,15.145,7.496l2.175,2.554c6.036,6.42,14.363,10.043,23.312,10.043c10.073,0,19.358-4.592,25.474-12.597   c3.641-4.764,9.164-7.496,15.155-7.496c5.985,0,11.505,2.732,15.145,7.496c6.116,8.004,15.405,12.594,25.485,12.594h0.12   c3.59,0,6.5-2.91,6.5-6.5S396.19,258.249,392.6,258.249z M300.028,254.633c-1.108-0.808-2.133-1.745-3.061-2.795   c4.26-33.627,2.39-67.32-5.564-100.262l12.489-7.21c7.849,15.511,12.279,33.034,12.279,51.574   C316.17,216.772,310.595,236.936,300.028,254.633z M297.371,133.119l-95.812,55.317l-29.364-16.953   c32.74-24.59,68.482-44.847,106.398-60.335C285.734,117.642,292.047,125.028,297.371,133.119z M129.917,147.074   c30.494-28.056,67.405-48.732,107.29-60.063c10.707,3.513,20.723,8.562,29.786,14.888c-38.158,16.248-74.087,37.25-106.992,62.544   L129.917,147.074z M195.06,199.695v33.91c-37.683-16.08-73.11-36.932-105.49-62.054c2.08-9.558,5.352-18.674,9.658-27.185   L195.06,199.695z M201.56,81.329c3.39,0,6.743,0.157,10.059,0.446c-34.644,13.062-66.549,32.99-93.474,58.503l-12.397-7.157   C126.254,101.95,161.542,81.329,201.56,81.329z M163.855,250.762c-3.636,4.758-9.159,7.486-15.155,7.486   s-11.515-2.727-15.142-7.482c-6.111-8.012-15.397-12.607-25.479-12.607c-4.25,0-8.355,0.826-12.146,2.373   c-5.963-14.07-8.984-29.038-8.984-44.592c0-3.271,0.146-6.508,0.415-9.71c28.188,21.212,58.549,39.306,90.594,54.003   C172.448,242.314,167.567,245.905,163.855,250.762z M214.819,250.767c-1.953-2.562-4.234-4.769-6.759-6.594v-44.479l29.333-16.935   c2.954,23.869,4.11,48.065,3.445,72.095c-3.146,2.191-6.906,3.395-10.877,3.395C223.964,258.249,218.445,255.522,214.819,250.767z    M254.023,242.761c0.05-22.404-1.438-44.878-4.433-67.044l30.058-17.354c6.201,27.389,8.003,55.297,5.381,83.21   c-4.402-2.221-9.317-3.414-14.438-3.414C264.626,238.159,258.942,239.782,254.023,242.761z" data-original="#000000" class="active-path" data-old_color="#F8F7F7" fill="#FFFFFF"/>
	<path d="M392.6,317.769h-0.12c-5.996,0-11.52-2.729-15.155-7.486c-6.115-8.004-15.4-12.594-25.475-12.594   c-10.08,0-19.369,4.59-25.485,12.594c-3.636,4.759-9.155,7.488-15.145,7.488s-11.51-2.729-15.146-7.488l-2.176-2.554   c-6.035-6.418-14.361-10.04-23.309-10.04c-10.074,0-19.359,4.59-25.476,12.594c-3.636,4.758-9.159,7.486-15.154,7.486   c-5.996,0-11.516-2.728-15.142-7.481c-6.105-8.007-15.393-12.599-25.479-12.599c-10.08,0-19.369,4.59-25.485,12.594   c-3.636,4.758-9.159,7.486-15.155,7.486s-11.515-2.728-15.142-7.482c-6.106-8.006-15.393-12.598-25.479-12.598   c-10.079,0-19.368,4.59-25.484,12.594c-3.636,4.758-9.159,7.486-15.155,7.486s-11.516-2.727-15.145-7.486   c-6.116-8.006-15.404-12.597-25.481-12.597c-10.076,0-19.363,4.592-25.479,12.597c-2.18,2.854-1.634,6.933,1.219,9.111   c2.854,2.181,6.933,1.633,9.111-1.219c3.636-4.76,9.157-7.489,15.149-7.489s11.514,2.729,15.146,7.484   c6.105,8.007,15.393,12.599,25.479,12.599c10.08,0,19.369-4.59,25.485-12.594c3.636-4.758,9.159-7.486,15.154-7.486   c5.996,0,11.516,2.728,15.143,7.482c6.106,8.006,15.393,12.598,25.478,12.598c10.08,0,19.369-4.59,25.485-12.594   c3.636-4.758,9.159-7.486,15.155-7.486s11.516,2.727,15.142,7.482c6.106,8.006,15.393,12.598,25.479,12.598   c10.079,0,19.368-4.59,25.484-12.594c3.636-4.758,9.156-7.486,15.146-7.486s11.509,2.729,15.145,7.486l2.176,2.554   c6.035,6.42,14.362,10.042,23.311,10.042c10.073,0,19.358-4.591,25.474-12.596c3.636-4.758,9.159-7.486,15.155-7.486   c5.989,0,11.51,2.729,15.145,7.486c6.116,8.004,15.405,12.594,25.485,12.594h0.12c3.59,0,6.5-2.91,6.5-6.5   S396.19,317.769,392.6,317.769z" data-original="#000000" class="active-path" data-old_color="#F8F7F7" fill="#FFFFFF"/>
</g></g> </svg>
