<svg enable-background="new 0 0 399.1 399.1" height="512" viewBox="0 0 399.1 399.1" width="512" xmlns="http://www.w3.org/2000/svg"><g fill="#fff"><path d="m392.6 258.249h-.12c-5.996 0-11.52-2.729-15.155-7.486-6.12-8.01-15.405-12.604-25.475-12.604-10.075 0-19.364 4.594-25.485 12.604-3.27 4.281-8.065 6.912-13.354 7.399 8.879-15.876 14.213-33.417 15.71-51.616 3.042-1.979 5.716-4.461 7.972-7.417 3.643-4.76 9.168-7.49 15.158-7.49 5.984 0 11.505 2.729 15.146 7.487 6.121 8.009 15.41 12.603 25.484 12.603h.12c3.59 0 6.5-2.91 6.5-6.5s-2.91-6.5-6.5-6.5h-.12c-5.99 0-11.515-2.732-15.158-7.5-6.122-8.001-15.406-12.59-25.472-12.59-8.751 0-16.908 3.468-22.917 9.63-3.981-66.806-59.585-119.94-127.373-119.94-70.364 0-127.61 57.246-127.61 127.61 0 .546.016 1.09.023 1.635-2.077.757-4.286 1.155-6.533 1.155-5.991 0-11.51-2.73-15.145-7.496-6.116-8.006-15.404-12.597-25.481-12.597-10.076 0-19.363 4.592-25.479 12.597-2.18 2.854-1.634 6.933 1.219 9.111 2.854 2.181 6.933 1.633 9.111-1.219 3.636-4.76 9.157-7.489 15.149-7.489s11.514 2.729 15.147 7.484c6.11 8.013 15.397 12.608 25.478 12.608 2.495 0 4.962-.306 7.362-.871 1.48 12.85 4.897 25.266 10.199 37.101-.847.881-1.65 1.816-2.405 2.804-3.636 4.758-9.159 7.486-15.155 7.486s-11.516-2.727-15.144-7.484c-6.116-8.011-15.404-12.605-25.482-12.605-10.077 0-19.364 4.595-25.48 12.605-2.178 2.854-1.631 6.933 1.223 9.11 2.854 2.18 6.935 1.632 9.11-1.222 3.636-4.763 9.157-7.494 15.148-7.494s11.513 2.731 15.146 7.491c6.105 8.007 15.393 12.599 25.479 12.599 10.08 0 19.369-4.59 25.485-12.594 3.641-4.764 9.164-7.496 15.154-7.496 5.992 0 11.511 2.73 15.143 7.492 6.106 8.006 15.393 12.598 25.478 12.598 10.08 0 19.369-4.59 25.485-12.594 3.641-4.764 9.164-7.496 15.155-7.496 5.992 0 11.511 2.73 15.142 7.492 6.106 8.006 15.393 12.598 25.479 12.598 10.079 0 19.368-4.59 25.484-12.594 3.641-4.764 9.161-7.496 15.146-7.496s11.504 2.732 15.145 7.496l2.175 2.554c6.036 6.42 14.363 10.043 23.312 10.043 10.073 0 19.358-4.592 25.474-12.597 3.641-4.764 9.164-7.496 15.155-7.496 5.985 0 11.505 2.732 15.145 7.496 6.116 8.004 15.405 12.594 25.485 12.594h.12c3.59 0 6.5-2.91 6.5-6.5s-2.913-6.499-6.503-6.499zm-92.572-3.616c-1.108-.808-2.133-1.745-3.061-2.795 4.26-33.627 2.39-67.32-5.564-100.262l12.489-7.21c7.849 15.511 12.279 33.034 12.279 51.574-.001 20.832-5.576 40.996-16.143 58.693zm-2.657-121.514-95.812 55.317-29.364-16.953c32.74-24.59 68.482-44.847 106.398-60.335 7.141 6.494 13.454 13.88 18.778 21.971zm-167.454 13.955c30.494-28.056 67.405-48.732 107.29-60.063 10.707 3.513 20.723 8.562 29.786 14.888-38.158 16.248-74.087 37.25-106.992 62.544zm65.143 52.621v33.91c-37.683-16.08-73.11-36.932-105.49-62.054 2.08-9.558 5.352-18.674 9.658-27.185zm6.5-118.366c3.39 0 6.743.157 10.059.446-34.644 13.062-66.549 32.99-93.474 58.503l-12.397-7.157c20.506-31.171 55.794-51.792 95.812-51.792zm-37.705 169.433c-3.636 4.758-9.159 7.486-15.155 7.486s-11.515-2.727-15.142-7.482c-6.111-8.012-15.397-12.607-25.479-12.607-4.25 0-8.355.826-12.146 2.373-5.963-14.07-8.984-29.038-8.984-44.592 0-3.271.146-6.508.415-9.71 28.188 21.212 58.549 39.306 90.594 54.003-5.51 2.081-10.391 5.672-14.103 10.529zm50.964.005c-1.953-2.562-4.234-4.769-6.759-6.594v-44.479l29.333-16.935c2.954 23.869 4.11 48.065 3.445 72.095-3.146 2.191-6.906 3.395-10.877 3.395-5.997 0-11.516-2.727-15.142-7.482zm39.204-8.006c.05-22.404-1.438-44.878-4.433-67.044l30.058-17.354c6.201 27.389 8.003 55.297 5.381 83.21-4.402-2.221-9.317-3.414-14.438-3.414-5.965 0-11.649 1.623-16.568 4.602z"/><path d="m392.6 317.769h-.12c-5.996 0-11.52-2.729-15.155-7.486-6.115-8.004-15.4-12.594-25.475-12.594-10.08 0-19.369 4.59-25.485 12.594-3.636 4.759-9.155 7.488-15.145 7.488s-11.51-2.729-15.146-7.488l-2.176-2.554c-6.035-6.418-14.361-10.04-23.309-10.04-10.074 0-19.359 4.59-25.476 12.594-3.636 4.758-9.159 7.486-15.154 7.486-5.996 0-11.516-2.728-15.142-7.481-6.105-8.007-15.393-12.599-25.479-12.599-10.08 0-19.369 4.59-25.485 12.594-3.636 4.758-9.159 7.486-15.155 7.486s-11.515-2.728-15.142-7.482c-6.106-8.006-15.393-12.598-25.479-12.598-10.079 0-19.368 4.59-25.484 12.594-3.636 4.758-9.159 7.486-15.155 7.486s-11.516-2.727-15.145-7.486c-6.116-8.006-15.404-12.597-25.481-12.597-10.076 0-19.363 4.592-25.479 12.597-2.18 2.854-1.634 6.933 1.219 9.111 2.854 2.181 6.933 1.633 9.111-1.219 3.636-4.76 9.157-7.489 15.149-7.489s11.514 2.729 15.146 7.484c6.105 8.007 15.393 12.599 25.479 12.599 10.08 0 19.369-4.59 25.485-12.594 3.636-4.758 9.159-7.486 15.154-7.486 5.996 0 11.516 2.728 15.143 7.482 6.106 8.006 15.393 12.598 25.478 12.598 10.08 0 19.369-4.59 25.485-12.594 3.636-4.758 9.159-7.486 15.155-7.486s11.516 2.727 15.142 7.482c6.106 8.006 15.393 12.598 25.479 12.598 10.079 0 19.368-4.59 25.484-12.594 3.636-4.758 9.156-7.486 15.146-7.486s11.509 2.729 15.145 7.486l2.176 2.554c6.035 6.42 14.362 10.042 23.311 10.042 10.073 0 19.358-4.591 25.474-12.596 3.636-4.758 9.159-7.486 15.155-7.486 5.989 0 11.51 2.729 15.145 7.486 6.116 8.004 15.405 12.594 25.485 12.594h.12c3.59 0 6.5-2.91 6.5-6.5s-2.909-6.5-6.499-6.5z"/></g></svg>