<?xml version="1.0" encoding="iso-8859-1"?>
<!-- Generator: Adobe Illustrator 16.0.0, SVG Export Plug-In . SVG Version: 6.00 Build 0)  -->
<!DOCTYPE svg PUBLIC "-//W3C//DTD SVG 1.1//EN" "http://www.w3.org/Graphics/SVG/1.1/DTD/svg11.dtd">
<svg xmlns="http://www.w3.org/2000/svg" xmlns:xlink="http://www.w3.org/1999/xlink" version="1.1" id="Capa_1" x="0px" y="0px" width="512px" height="512px" viewBox="0 0 444.227 444.227" style="enable-background:new 0 0 444.227 444.227;" xml:space="preserve">
<g>
	<g id="Layer_2_35_">
		<path d="M410.81,319.506l-59.579-34.396l31.143-8.346c5.334-1.43,8.5-6.913,7.07-12.247s-6.915-8.503-12.248-7.071l-50.46,13.521    l-0.75-0.434l-28.933-48.542l28.719-48.183l0.953-0.551l50.472,13.523c0.867,0.232,1.737,0.344,2.595,0.344    c4.415,0,8.456-2.947,9.652-7.415c1.431-5.334-1.735-10.817-7.07-12.247l-31.153-8.348l8.282-4.781    c0.004-0.002,0.007-0.005,0.012-0.008l51.292-29.613c4.783-2.762,6.422-8.877,3.66-13.66c-2.761-4.782-8.878-6.423-13.66-3.66    l-59.579,34.397l8.344-31.142c1.431-5.334-1.735-10.817-7.07-12.247c-5.332-1.43-10.818,1.736-12.247,7.071l-13.521,50.46    l-0.592,0.342l-56.557,0.114l-27.476-48.482v-0.817l36.948-36.948c3.905-3.905,3.905-10.237,0-14.143    c-3.905-3.904-10.237-3.904-14.142,0l-22.806,22.806V69.24V10c0-5.522-4.477-10-10-10c-5.523,0-10,4.478-10,10v59.24v9.556    l-22.798-22.798c-3.905-3.904-10.237-3.904-14.143,0c-3.905,3.905-3.905,10.237,0,14.143l36.94,36.94v0.839l-27.466,48.469    l-56.574-0.114l-0.574-0.331l-13.523-50.471c-1.43-5.335-6.914-8.502-12.247-7.071c-5.335,1.43-8.501,6.913-7.071,12.247    L103,141.801l-8.281-4.781c-0.004-0.002-0.008-0.004-0.012-0.006L43.416,107.4c-4.784-2.761-10.899-1.124-13.66,3.66    c-2.762,4.783-1.123,10.897,3.66,13.66l59.579,34.397l-31.142,8.345c-5.335,1.43-8.501,6.913-7.071,12.247    c1.197,4.468,5.237,7.415,9.653,7.415c0.856,0,1.728-0.111,2.594-0.344l50.461-13.521l0.972,0.562l28.711,48.169l-28.941,48.556    l-0.731,0.423L67.03,257.445c-5.336-1.432-10.818,1.735-12.248,7.07c-1.43,5.334,1.736,10.817,7.071,12.247l31.153,8.349    l-59.585,34.4c-4.783,2.762-6.422,8.877-3.66,13.66c1.852,3.208,5.213,5.002,8.669,5.002c1.696,0,3.416-0.434,4.991-1.342    l51.296-29.615c0.002-0.002,0.005-0.003,0.007-0.004l8.275-4.777l-8.344,31.143c-1.43,5.334,1.736,10.816,7.071,12.246    c0.867,0.232,1.738,0.345,2.595,0.345c4.415-0.001,8.456-2.947,9.653-7.415l13.521-50.46l1.02-0.589l56.13-0.145l27.474,48.514    v1.063l-36.948,36.948c-3.905,3.904-3.905,10.236,0,14.143c3.905,3.904,10.237,3.904,14.143,0l22.806-22.805v9.562v59.24    c0,5.521,4.477,10,10,10s10-4.479,10-10v-59.24v-9.557l22.797,22.799c1.953,1.951,4.512,2.928,7.071,2.928    c2.559,0,5.118-0.977,7.07-2.928c3.905-3.906,3.906-10.238,0-14.145l-36.939-36.939v-1.084l27.467-48.5l56.145,0.145l1.001,0.578    l13.523,50.471c1.197,4.468,5.236,7.415,9.652,7.415c0.856,0,1.729-0.11,2.596-0.345c5.334-1.43,8.5-6.912,7.07-12.246    l-8.347-31.152l8.282,4.781c0.002,0.002,0.005,0.002,0.007,0.004l51.296,29.615c1.575,0.908,3.294,1.342,4.991,1.342    c3.456,0,6.817-1.794,8.669-5.002C417.231,328.383,415.593,322.267,410.81,319.506z M276.821,227.111l13.666,22.926    l-48.374-27.928l48.159-27.806l-13.451,22.567C274.94,220.025,274.94,223.957,276.821,227.111z M167.405,216.871l-13.443-22.554    l48.151,27.801l-48.382,27.933l13.673-22.939C169.285,223.957,169.285,220.025,167.405,216.871z M222.117,223.506    c-0.281,0-0.556,0.02-0.831,0.042c-0.117-0.247-0.237-0.494-0.376-0.735c-0.143-0.248-0.3-0.481-0.46-0.712    c0.155-0.224,0.318-0.439,0.457-0.68c0.141-0.243,0.262-0.492,0.38-0.742c0.272,0.022,0.545,0.042,0.824,0.042    c0.281,0,0.556-0.02,0.831-0.042c0.117,0.247,0.237,0.494,0.376,0.735c0.141,0.242,0.305,0.461,0.46,0.688    c-0.158,0.229-0.313,0.46-0.457,0.706c-0.14,0.243-0.262,0.491-0.379,0.741C222.668,223.525,222.395,223.506,222.117,223.506z     M253.764,176.4c0.006,0,0.014,0,0.021,0l27.596-0.056l-49.271,28.446v-56.318l12.954,22.858    C246.839,174.465,250.163,176.4,253.764,176.4z M190.443,176.4c0.007,0,0.013,0,0.02,0c3.601,0,6.924-1.937,8.7-5.069    l12.945-22.845v56.309l-49.278-28.45L190.443,176.4z M190.463,267.546c-0.008,0-0.017,0-0.026,0l-27.13,0.069l48.809-28.18v56.053    l-12.952-22.871C197.39,269.482,194.065,267.546,190.463,267.546z M253.789,267.546c-0.009,0-0.018,0-0.026,0    c-3.602,0-6.926,1.938-8.702,5.071l-12.944,22.857v-56.044l48.815,28.185L253.789,267.546z" fill="#FFFFFF"/>
	</g>
</g>
<g>
</g>
<g>
</g>
<g>
</g>
<g>
</g>
<g>
</g>
<g>
</g>
<g>
</g>
<g>
</g>
<g>
</g>
<g>
</g>
<g>
</g>
<g>
</g>
<g>
</g>
<g>
</g>
<g>
</g>
</svg>
