<svg enable-background="new 0 0 444.227 444.227" height="512" viewBox="0 0 444.227 444.227" width="512" xmlns="http://www.w3.org/2000/svg"><path d="m410.81 319.506-59.579-34.396 31.143-8.346c5.334-1.43 8.5-6.913 7.07-12.247s-6.915-8.503-12.248-7.071l-50.46 13.521-.75-.434-28.933-48.542 28.719-48.183.953-.551 50.472 13.523c.867.232 1.737.344 2.595.344 4.415 0 8.456-2.947 9.652-7.415 1.431-5.334-1.735-10.817-7.07-12.247l-31.153-8.348 8.282-4.781c.004-.002.007-.005.012-.008l51.292-29.613c4.783-2.762 6.422-8.877 3.66-13.66-2.761-4.782-8.878-6.423-13.66-3.66l-59.579 34.397 8.344-31.142c1.431-5.334-1.735-10.817-7.07-12.247-5.332-1.43-10.818 1.736-12.247 7.071l-13.521 50.46-.592.342-56.557.114-27.476-48.482v-.817l36.948-36.948c3.905-3.905 3.905-10.237 0-14.143-3.905-3.904-10.237-3.904-14.142 0l-22.806 22.806v-9.563-59.24c0-5.522-4.477-10-10-10s-10 4.478-10 10v59.24 9.556l-22.798-22.798c-3.905-3.904-10.237-3.904-14.143 0-3.905 3.905-3.905 10.237 0 14.143l36.94 36.94v.839l-27.466 48.469-56.574-.114-.574-.331-13.523-50.471c-1.43-5.335-6.914-8.502-12.247-7.071-5.335 1.43-8.501 6.913-7.071 12.247l8.347 31.152-8.281-4.781c-.004-.002-.008-.004-.012-.006l-51.291-29.614c-4.784-2.761-10.899-1.124-13.66 3.66-2.762 4.783-1.123 10.897 3.66 13.66l59.579 34.397-31.142 8.345c-5.335 1.43-8.501 6.913-7.071 12.247 1.197 4.468 5.237 7.415 9.653 7.415.856 0 1.728-.111 2.594-.344l50.461-13.521.972.562 28.711 48.169-28.941 48.556-.731.423-50.471-13.524c-5.336-1.432-10.818 1.735-12.248 7.07-1.43 5.334 1.736 10.817 7.071 12.247l31.153 8.349-59.585 34.4c-4.783 2.762-6.422 8.877-3.66 13.66 1.852 3.208 5.213 5.002 8.669 5.002 1.696 0 3.416-.434 4.991-1.342l51.296-29.615c.002-.002.005-.003.007-.004l8.275-4.777-8.344 31.143c-1.43 5.334 1.736 10.816 7.071 12.246.867.232 1.738.345 2.595.345 4.415-.001 8.456-2.947 9.653-7.415l13.521-50.46 1.02-.589 56.13-.145 27.474 48.514v1.063l-36.948 36.948c-3.905 3.904-3.905 10.236 0 14.143 3.905 3.904 10.237 3.904 14.143 0l22.806-22.805v9.562 59.24c0 5.521 4.477 10 10 10s10-4.479 10-10v-59.24-9.557l22.797 22.799c1.953 1.951 4.512 2.928 7.071 2.928s5.118-.977 7.07-2.928c3.905-3.906 3.906-10.238 0-14.145l-36.939-36.939v-1.084l27.467-48.5 56.145.145 1.001.578 13.523 50.471c1.197 4.468 5.236 7.415 9.652 7.415.856 0 1.729-.11 2.596-.345 5.334-1.43 8.5-6.912 7.07-12.246l-8.347-31.152 8.282 4.781c.002.002.005.002.007.004l51.296 29.615c1.575.908 3.294 1.342 4.991 1.342 3.456 0 6.817-1.794 8.669-5.002 2.76-4.782 1.122-10.898-3.661-13.659zm-133.989-92.395 13.666 22.926-48.374-27.928 48.159-27.806-13.451 22.567c-1.881 3.155-1.881 7.087 0 10.241zm-109.416-10.24-13.443-22.554 48.151 27.801-48.382 27.933 13.673-22.939c1.881-3.155 1.881-7.087.001-10.241zm54.712 6.635c-.281 0-.556.02-.831.042-.117-.247-.237-.494-.376-.735-.143-.248-.3-.481-.46-.712.155-.224.318-.439.457-.68.141-.243.262-.492.38-.742.272.022.545.042.824.042.281 0 .556-.02.831-.042.117.247.237.494.376.735.141.242.305.461.46.688-.158.229-.313.46-.457.706-.14.243-.262.491-.379.741-.274-.024-.547-.043-.825-.043zm31.647-47.106h.021l27.596-.056-49.271 28.446v-56.318l12.954 22.858c1.775 3.135 5.099 5.07 8.7 5.07zm-63.321 0h.02c3.601 0 6.924-1.937 8.7-5.069l12.945-22.845v56.309l-49.278-28.45zm.02 91.146c-.008 0-.017 0-.026 0l-27.13.069 48.809-28.18v56.053l-12.952-22.871c-1.774-3.135-5.099-5.071-8.701-5.071zm63.326 0c-.009 0-.018 0-.026 0-3.602 0-6.926 1.938-8.702 5.071l-12.944 22.857v-56.044l48.815 28.185z" fill="#fff"/></svg>