<?xml version="1.0" standalone="no"?>
<!DOCTYPE svg PUBLIC "-//W3C//DTD SVG 1.1//EN" "http://www.w3.org/Graphics/SVG/1.1/DTD/svg11.dtd" >
<svg xmlns="http://www.w3.org/2000/svg">
<metadata>
<json>
<![CDATA[
{
	"fontFamily": "icomoon",
	"majorVersion": 1,
	"minorVersion": 0,
	"version": "Version 1.0",
	"fontId": "icomoon",
	"psName": "icomoon",
	"subFamily": "Regular",
	"fullName": "icomoon",
	"description": "Font generated by IcoMoon."
}
]]>
</json>
</metadata>
<defs>
<font id="icomoon" horiz-adv-x="1024">
<font-face units-per-em="1024" ascent="960" descent="-64" />
<missing-glyph horiz-adv-x="1024" />
<glyph unicode="&#x20;" horiz-adv-x="512" d="" />
<glyph unicode="&#xe900;" d="M603.136 380.805c23.429-35.471 34.202-64.43 53.125-88.248 18.924-23.777 79.176-99.594 79.176-99.594s9.81-11.592 26.849 1.925c17.039 13.558 7.967 25.723 7.967 25.723s-60.211 75.837-79.155 99.635c-18.924 23.757-44.728 40.796-73.994 71.619-25.887 27.259-50.831 58.921-56.75 66.499 0.43 0.655 0.43 1.577-0.082 2.232l-92.918 116.797 1.208 0.942c2.478 1.966 2.888 5.55 0.922 8.049l-0.922 1.167c-1.966 2.458-5.55 2.867-8.049 0.901l-13.783-10.957c-2.478-1.966-2.867-5.55-0.901-8.028l0.901-1.167c1.987-2.478 5.55-2.888 8.049-0.922l1.188 0.963 92.856-116.797c0.594-0.799 1.679-0.963 2.499-0.43 6.083-7.66 31.15-39.035 51.814-70.308z" />
<glyph unicode="&#xe901;" d="M551.24 451.092c6.164-7.639 31.232-39.014 51.896-70.308 23.429-35.492 34.202-64.43 53.125-88.248 18.924-23.777 79.176-99.594 79.176-99.594s9.81-11.571 26.849 1.946c17.039 13.537 7.967 25.723 7.967 25.723s-60.211 75.796-79.155 99.615c-18.924 23.757-44.728 40.796-73.994 71.619-25.887 27.259-50.831 58.921-56.75 66.499l-9.441-7.434c0.082 0.061 0.225 0.102 0.328 0.184z" />
<glyph unicode="&#xe902;" d="M869.847 404.050c0-33.865-27.453-61.317-61.317-61.317s-61.317 27.453-61.317 61.317c0 33.865 27.453 61.317 61.317 61.317s61.317-27.453 61.317-61.317z" />
<glyph unicode="&#xe903;" d="M768.287 363.54c0.492-0.43 0.737-0.963 0.512-1.229-0.020-0.041-0.061-0.041-0.102-0.082 0.573-0.963 2.294-3.686 4.403-4.28 0 0 0.307-0.082 0.43-0.43 0.164-0.328 4.239-3.256 5.775-3.912 0.266 0.041 0.614 0 0.983-0.164 0.696-0.287 1.208-0.717 1.044-1.024-0.123-0.348-0.758-0.389-1.393-0.082-0.471 0.184-0.881 0.451-1.004 0.758-1.004 0.102-3.686 0.655-6.39 4.055 0 0-0.84-0.43-1.679 0.451-0.881 0.901-2.13 2.437-2.437 4.628-0.266 0.041-0.553 0.246-0.881 0.43-0.43 0.43-0.717 0.983-0.492 1.249 0.164 0.246 0.696 0.041 1.229-0.369z" />
<glyph unicode="&#xe904;" d="M770.273 365.793c0.553-0.43 0.881-0.881 0.676-1.126v0c0.614-0.983 2.97-4.076 4.198-4.69 1.413-0.696 1.72-0.86 2.273-1.27 0.471-0.41 2.806-2.068 3.912-2.601 0.287 0.205 0.758 0.164 1.29-0.082 0.696-0.246 1.147-0.635 1.024-0.983s-0.758-0.389-1.372-0.123c-0.512 0.225-0.942 0.492-1.024 0.799-1.126 0.205-4.096 0.963-6.308 3.092 0 0-1.044 0.082-1.618 0.594-0.594 0.471-2.724 2.355-2.908 5.018-0.266 0.020-0.532 0.184-0.84 0.348-0.532 0.43-0.881 0.881-0.696 1.167 0.287 0.307 0.881 0.246 1.393-0.143z" />
<glyph unicode="&#xe905;" d="M772.444 368.927c0.43-0.266 0.696-0.676 0.696-0.983 0.492-0.696 2.826-3.891 4.772-4.649 0 0 4.669-2.744 6.431-3.502 0.287 0 0.614-0.041 1.044-0.205 0.594-0.266 1.085-0.676 0.963-1.024-0.082-0.307-0.717-0.348-1.393-0.102-0.328 0.102-0.553 0.328-0.737 0.43-1.004 0.041-3.789 0.512-6.492 2.806 0 0-0.922-0.246-2.007 0.553-1.004 0.758-2.621 2.97-2.847 5.161-0.287-0.123-0.737-0.082-1.208 0.225-0.512 0.389-0.84 0.881-0.594 1.208 0.205 0.389 0.799 0.389 1.372 0.082z" />
<glyph unicode="&#xe906;" d="M774.717 372.695c0.553-0.348 0.86-0.86 0.676-1.229 0.717-1.024 2.847-3.768 4.157-4.28 1.638-0.676 1.27-0.143 2.355-0.594 1.004-0.471 3.727-1.802 5.202-2.13 0.246 0.041 0.594 0 1.004-0.143 0.676-0.287 1.167-0.717 1.024-1.024-0.102-0.348-0.737-0.348-1.413-0.102-0.43 0.164-0.758 0.41-0.922 0.635-0.471-0.184-1.208-0.287-2.048-0.082-1.393 0.369-3.85 1.372-4.485 1.843-0.635 0.389-0.676-0.287-1.761 0.246-1.044 0.43-3.727 2.888-3.686 5.386-0.246-0.020-0.553 0.041-0.881 0.225-0.553 0.328-0.86 0.881-0.676 1.208 0.266 0.369 0.86 0.369 1.454 0.041z" />
<glyph unicode="&#xe907;" d="M776.499 376.873c0.492-0.246 0.819-0.676 0.799-1.044 0.532-0.676 2.335-3.031 3.789-3.625 1.638-0.573 1.843-0.246 3.686-1.065 1.638-0.799 4.28-1.352 5.243-1.556 0.205 0.041 0.43 0.041 0.635-0.020 0.676-0.143 1.188-0.532 1.085-0.963-0.123-0.43-0.696-0.573-1.331-0.451-0.389 0.082-0.655 0.287-0.86 0.451-0.676-0.184-1.884-0.43-2.806-0.041-1.352 0.451-3.523 1.372-4.301 1.413-0.758 0.041-1.905 0.041-2.417 0.451-0.512 0.389-2.683 2.785-2.99 4.915-0.307-0.123-0.717-0.082-1.167 0.123-0.594 0.307-0.942 0.84-0.717 1.229 0.102 0.451 0.778 0.512 1.352 0.184z" />
<glyph unicode="&#xe908;" d="M778.22 381.522c0.532-0.266 0.881-0.717 0.799-1.106 0.532-0.532 2.621-2.56 3.748-3.072 1.27-0.614 0.84 0.102 2.13-0.041 1.167-0.143 5.53-1.208 6.84-1.29 0.246 0.225 0.594 0.287 1.065 0.246 0.655-0.102 1.188-0.43 1.147-0.881-0.123-0.43-0.676-0.696-1.29-0.573-0.573 0.061-1.024 0.389-1.106 0.717-0.471-0.307-1.434-0.758-2.335-0.86-1.27-0.225-2.99-0.287-4.301 0.676-0.287 0.205-1.044 0.041-1.27-0.471-0.328-0.43-1.393 0.328-1.782 0.676-0.389 0.43-2.642 2.437-3.011 4.608-0.328-0.123-0.696-0.082-1.167 0.123-0.594 0.348-0.942 0.84-0.758 1.249 0.041 0.246 0.717 0.287 1.29 0z" />
<glyph unicode="&#xe909;" d="M779.182 386.888c0.532-0.164 0.922-0.492 0.963-0.881 0.717-0.594 3.195-2.478 4.178-2.867 1.208-0.43 1.72-0.205 3.133 0.102 1.229 0.287 5.181 0.246 6.205 0.246 0.225 0 0.43 0.041 0.635 0.041 0.696-0.041 1.27-0.492 1.208-1.065-0.041-0.492-0.655-0.901-1.372-0.819-0.287 0.020-0.512 0.123-0.758 0.287-0.328-0.266-0.881-0.512-1.475-0.614-1.085-0.266-3.543-0.696-5.53 0.164-0.287 0.102-0.758-0.164-1.004-0.717-0.246-0.492-0.553-0.819-1.208-0.307-0.594 0.512-3.359 2.314-4.137 5.243-0.225-0.287-0.758-0.369-1.29-0.164-0.573 0.205-1.044 0.635-0.922 1.065 0.143 0.369 0.758 0.471 1.372 0.287z" />
<glyph unicode="&#xe90a;" d="M779.776 392.52c0.492-0.184 0.86-0.512 0.922-0.819 0.86-0.451 3.256-1.823 4.198-2.028 1.126-0.205 0.922-0.369 2.376 0.328 1.27 0.553 5.304 0.84 6.676 0.758 0.246 0.225 0.553 0.41 0.963 0.41 0.717 0.041 1.27-0.41 1.29-0.922 0.020-0.451-0.492-0.963-1.27-0.983-0.43 0-0.758 0.102-1.004 0.307-0.43-0.307-1.106-0.717-1.597-0.881-0.84-0.287-4.198-0.43-4.915-0.369-0.737 0.143-1.044-0.471-1.044-0.635 0-0.143-0.205-1.393-0.84-1.106-0.655 0.307-2.642 1.188-3.482 2.13-0.717 0.758-1.311 1.802-1.638 2.437-0.246-0.225-0.676-0.266-1.188-0.082-0.573 0.246-1.065 0.676-0.942 1.085 0.246 0.41 0.86 0.573 1.495 0.369z" />
<glyph unicode="&#xe90b;" d="M792.207 398.602c0.696 0.102 1.597 0.164 2.15 0.246 0.184 0.307 0.512 0.471 0.963 0.532 0.696 0.143 1.311-0.205 1.393-0.717 0.082-0.492-0.43-1.024-1.126-1.147-0.307-0.020-0.492-0.020-0.717 0.041-0.635-0.41-2.13-1.311-3.031-1.495-1.27-0.246-2.97-0.492-3.727-0.43-0.799 0.143-1.044-1.516-1.352-1.679-0.328-0.205-1.27 0-2.15 0.635-0.881 0.573-2.601 1.147-3.625 3.154-0.205-0.41-0.737-0.594-1.29-0.512-0.676 0.123-1.208 0.553-1.167 1.126 0.082 0.471 0.696 0.86 1.372 0.778 0.573-0.102 1.024-0.43 1.147-0.86 0.819-0.369 3.85-1.679 4.792-1.72 1.167-0.041 0.84-0.082 1.638 0.594 0.799 0.737 3.748 1.331 4.731 1.454z" />
<glyph unicode="&#xe90c;" d="M796.078 407.224c0.184-0.451-0.246-1.085-0.901-1.29-0.573-0.205-1.188-0.082-1.413 0.307-0.43-0.43-1.516-1.413-2.273-1.823-0.963-0.43-1.843-1.475-2.806-1.311-0.901 0.123-1.556-0.43-1.72-0.84-0.123-0.43 0-1.475-0.594-1.249-0.553 0.246-4.731 1.27-5.652 2.826-0.266-0.348-0.717-0.532-1.27-0.451-0.676 0.082-1.27 0.553-1.188 1.085 0.041 0.512 0.655 0.901 1.331 0.819 0.389-0.061 0.635-0.184 0.84-0.389 0.287 0.123 0.717 0.164 1.556 0.041 1.393-0.287 3.359-1.27 3.932-1.188s0.778 0.758 1.864 1.29c1.085 0.512 3.564 2.089 5.96 2.089 0.164 0.287 0.43 0.43 0.799 0.614 0.696 0.184 1.372-0.041 1.536-0.532z" />
<glyph unicode="&#xe90d;" d="M794.911 415.273c0.266-0.43-0.041-1.126-0.635-1.475-0.41-0.205-0.86-0.287-1.167-0.143-0.43-0.43-2.519-2.437-4.485-2.867-2.13-0.492-2.642-1.761-2.642-1.761l0.266-1.987c0 0-0.266-0.102-0.922 0.369-0.635 0.451-4.424 1.229-5.181 1.761-0.246-0.205-0.614-0.307-1.044-0.246-0.717 0.082-1.229 0.553-1.229 1.085 0.082 0.492 0.717 0.881 1.352 0.799 0.471-0.041 0.86-0.307 1.085-0.594 0.205 0.102 0.41 0.143 0.553 0.184 0.84 0.020 4.035-0.43 4.649-0.307 0.532 0.184 0.573 0.717 1.516 1.802 0.84 1.188 3.4 2.867 5.693 3.052 0.123 0.184 0.389 0.389 0.532 0.512 0.717 0.348 1.434 0.266 1.659-0.184z" />
<glyph unicode="&#xe90e;" d="M793.313 422.523c0.266-0.471-0.041-1.126-0.655-1.475-0.43-0.246-0.922-0.266-1.27-0.082-0.43-0.553-1.884-2.273-3.277-3.072-1.72-0.922-2.724-1.843-2.724-2.13 0-0.266 0.389-2.13 0.389-2.13s-0.225-0.041-0.512 0.225c-0.287 0.266-2.13 0.819-3.256 0.717-1.106-0.061-2.314-0.041-3.236 0.389-0.205-0.246-0.451-0.43-0.84-0.451-0.655-0.184-1.311 0.164-1.434 0.655-0.123 0.451 0.41 1.004 1.065 1.188 0.266 0.061 0.451 0.061 0.696 0 0.328 0.246 0.758 0.532 1.393 0.573 1.167 0.143 3.318-0.389 4.116-0.082 0.799 0.266 0.84 1.188 1.516 1.761 0.696 0.635 3.686 2.785 5.734 3.277 0.082 0.369 0.348 0.635 0.717 0.881 0.594 0.266 1.352 0.184 1.577-0.246z" />
<glyph unicode="&#xe90f;" d="M791.409 429.609c0.328-0.43 0-1.106-0.532-1.475-0.266-0.123-0.451-0.246-0.655-0.246-0.328-0.307-1.618-1.802-2.499-2.191-1.024-0.43-4.26-2.396-4.383-2.724-0.123-0.369 0.471-2.13 0.471-2.13s0.041-0.43-0.43-0.246c-0.451 0.143-1.802 0.41-2.867 0.205-0.963-0.123-2.314-0.246-3.256 0.041-0.225-0.205-0.43-0.41-0.717-0.43-0.676-0.205-1.331 0-1.495 0.512-0.184 0.471 0.287 1.085 0.963 1.27 0.43 0.143 0.881 0.102 1.167-0.123 0.348 0.307 0.84 0.676 1.27 0.799 0.758 0.246 3.236-0.041 3.83 0.225 0.594 0.246 1.044 0.778 1.393 1.925 0.369 1.106 3.645 3.707 5.55 3.891 0.123 0.328 0.328 0.594 0.635 0.799 0.553 0.369 1.27 0.328 1.556-0.102z" />
<glyph unicode="&#xe910;" d="M788.951 436.183c0.287-0.389 0.041-1.024-0.532-1.454-0.225-0.123-0.43-0.246-0.614-0.328-0.553-0.512-2.048-1.987-2.683-2.54-0.799-0.655-3.482-2.335-3.482-2.683 0-0.389 0.594-2.294 0.594-2.294s-0.41-0.205-0.881-0.102c-0.471 0.143-2.13 0.225-2.601-0.061-0.451-0.246-1.72-0.43-2.99-0.41-0.143-0.348-0.43-0.553-0.84-0.696-0.614-0.307-1.29-0.102-1.495 0.41-0.225 0.471 0.205 1.106 0.84 1.331 0.369 0.102 0.655 0.143 1.004 0.082 0.512 0.471 1.679 1.434 2.56 1.516 1.188 0.225 2.601 0 3.072 0.922 0.553 0.881 2.437 4.198 3.604 4.71 0.717 0.369 1.679 0.512 2.171 0.614 0.102 0.348 0.389 0.532 0.614 0.819 0.676 0.492 1.393 0.532 1.659 0.164z" />
<glyph unicode="&#xe911;" d="M786.35 441.958c0.246-0.328 0-0.922-0.532-1.331-0.143-0.102-0.307-0.184-0.43-0.246-0.717-0.758-3.277-3.461-3.994-3.973-0.922-0.512-1.925-1.393-2.048-1.925l0.676-1.556c0 0-0.983-0.123-1.782-0.348-0.737-0.143-3.973-1.495-5.468-1.638-0.082-0.143-0.246-0.307-0.389-0.389-0.532-0.43-1.188-0.471-1.413-0.205-0.246 0.389 0 0.963 0.512 1.311 0.328 0.246 0.614 0.369 0.901 0.41 0.266 0.43 0.676 1.044 1.29 1.311 1.106 0.594 3.994 0.901 4.444 1.106 0.41 0.225 0.553 0.43 1.004 1.475 0.41 1.065 2.888 4.874 5.181 5.222 0.143 0.205 0.266 0.389 0.492 0.532 0.655 0.532 1.29 0.594 1.556 0.246z" />
<glyph unicode="&#xe912;" d="M783.196 446.239c0.246-0.348 0.020-0.963-0.532-1.352-0.266-0.184-0.532-0.328-0.778-0.348-0.635-0.799-3.031-3.441-5.222-4.69l0.983-1.823c0 0-0.594-0.102-1.229-0.307-0.532-0.184-2.499-1.004-3.154-1.556-0.573-0.43-1.577-0.922-2.212-1.126-0.082-0.205-0.287-0.41-0.43-0.512-0.512-0.43-1.208-0.512-1.393-0.184-0.287 0.348 0 0.942 0.492 1.331 0.348 0.246 0.676 0.389 0.963 0.389 0.225 0.492 0.553 1.27 1.229 1.72 1.188 0.86 2.642 1.188 3.482 1.372 0.84 0.205 0.881 0.676 1.147 1.393 0.307 0.758 1.27 2.99 2.212 3.748 0.717 0.594 1.884 0.901 2.56 1.044 0.082 0.246 0.307 0.471 0.512 0.717 0.471 0.43 1.126 0.512 1.372 0.184z" />
<glyph unicode="&#xe913;" d="M780.964 449.761c0.246-0.369-0.041-0.942-0.553-1.311-0.205-0.102-0.348-0.164-0.451-0.246-0.43-0.573-1.72-2.13-2.724-2.703-1.27-0.717-2.601-2.109-2.785-2.232 0 0 0.328 1.782 1.106 2.97 0.655 1.065 2.028 2.191 3.4 2.601 0.061 0.328 0.328 0.614 0.614 0.86 0.532 0.369 1.167 0.41 1.393 0.061z" />
<glyph unicode="&#xe914;" d="M772.997 440.914c-0.655-0.369-3.604-2.253-3.912-2.54-0.102-0.246-0.307-0.471-0.553-0.635-0.532-0.389-1.188-0.451-1.372-0.102-0.307 0.348 0 0.922 0.492 1.29 0.41 0.287 0.758 0.389 1.106 0.307 0.082 0.471 0.307 1.249 0.799 1.802 0.737 0.922 3.604 1.925 4.936 2.028l1.167-1.679c-0.061 0-1.987-0.082-2.662-0.471z" />
<glyph unicode="&#xe915;" d="M778.179 453.038c0.225-0.266-0.041-0.819-0.532-1.27-0.102-0.082-0.184-0.102-0.287-0.184h0.041c0 0-1.475-1.208-1.884-1.597-0.41-0.43-1.27-1.475-2.335-1.905-1.024-0.41-1.188-1.004-1.147-1.393 0.020-0.451 0.963-1.679 0.963-1.679s-1.72 0-3.031-0.696c-1.126-0.573-2.703-2.499-3.113-3.072-0.123-0.246-0.287-0.512-0.553-0.758-0.471-0.43-1.126-0.573-1.27-0.307-0.287 0.266 0 0.819 0.471 1.229 0.369 0.287 0.676 0.451 0.922 0.451 0.082 0.43 0.287 1.249 0.799 1.884 0.819 1.004 2.355 2.109 3.953 2.294 0 0 0.348 0.901 0.512 1.29 0.205 0.451 2.15 4.403 4.669 4.71 0.102 0.246 0.266 0.471 0.492 0.717 0.532 0.43 1.106 0.532 1.331 0.287z" />
<glyph unicode="&#xe916;" d="M775.721 455.045c0.246-0.287-0.020-0.819-0.512-1.249-0.328-0.246-0.635-0.389-0.881-0.41-0.922-0.614-4.506-3.133-4.874-4.239l1.27-1.454c0 0 0.082-0.389-0.307-0.43-0.43-0.061-2.99-1.044-4.096-2.478-0.328-0.389-0.84-0.983-1.249-1.352-0.041-0.246-0.246-0.553-0.471-0.819-0.471-0.492-1.065-0.655-1.27-0.43-0.266 0.246-0.082 0.819 0.43 1.29 0.369 0.328 0.676 0.471 0.942 0.512 0.020 0.512 0.266 1.249 0.778 2.028 1.208 1.536 3.072 1.925 3.482 2.232 0.43 0.348 0.246 0.614 0.43 1.741 0.307 1.106 2.478 3.584 4.424 3.871 0.082 0.246 0.287 0.573 0.573 0.86 0.532 0.471 1.126 0.594 1.331 0.328z" />
<glyph unicode="&#xe917;" d="M849.019 444.887c-0.492 0.41-0.737 0.963-0.532 1.208 0.041 0.041 0.082 0.041 0.082 0.061-0.532 0.963-2.253 3.686-4.362 4.301 0 0-0.307 0.102-0.43 0.43-0.205 0.287-4.219 3.256-5.755 3.953-0.328-0.041-0.594 0-1.024 0.143-0.655 0.246-1.147 0.717-1.024 1.024 0.143 0.287 0.717 0.348 1.393 0.061 0.512-0.164 0.881-0.471 1.004-0.737 0.963-0.102 3.686-0.696 6.41-4.055 0 0 0.819 0.389 1.679-0.512 0.84-0.881 2.109-2.437 2.417-4.608 0.246-0.020 0.512-0.205 0.86-0.471 0.492-0.41 0.737-0.963 0.492-1.208-0.143-0.225-0.737-0.061-1.208 0.41z" />
<glyph unicode="&#xe918;" d="M846.95 442.614c-0.532 0.369-0.84 0.84-0.676 1.126h0.020c-0.655 0.942-2.99 4.055-4.178 4.649-1.454 0.676-1.72 0.86-2.314 1.29-0.471 0.389-2.785 2.028-3.953 2.58-0.266-0.184-0.758-0.184-1.27 0.061-0.655 0.246-1.167 0.696-1.004 1.004 0.123 0.328 0.717 0.348 1.393 0.102 0.492-0.205 0.881-0.492 1.004-0.778 1.126-0.225 4.116-0.963 6.308-3.113 0 0 1.024-0.143 1.618-0.614 0.553-0.471 2.703-2.376 2.929-5.059 0.246 0 0.512-0.143 0.84-0.348 0.532-0.348 0.881-0.86 0.676-1.106-0.246-0.287-0.799-0.164-1.393 0.205z" />
<glyph unicode="&#xe919;" d="M844.82 439.521c-0.43 0.246-0.696 0.655-0.676 0.963-0.492 0.717-2.806 3.912-4.813 4.608 0 0-4.628 2.744-6.39 3.543-0.328-0.041-0.594 0-0.983 0.184-0.676 0.246-1.188 0.676-1.065 0.983 0.143 0.328 0.758 0.348 1.434 0.102 0.287-0.102 0.532-0.266 0.717-0.43 1.044-0.102 3.809-0.532 6.533-2.785 0 0 0.922 0.184 1.966-0.573 1.024-0.758 2.621-2.97 2.867-5.181 0.307 0.143 0.758 0.061 1.208-0.184 0.512-0.348 0.819-0.901 0.594-1.249-0.205-0.328-0.86-0.328-1.393 0.020z" />
<glyph unicode="&#xe91a;" d="M842.568 435.671c-0.553 0.348-0.84 0.881-0.676 1.249-0.696 0.983-2.867 3.748-4.198 4.28-1.577 0.655-1.249 0.082-2.294 0.614-0.983 0.471-3.748 1.761-5.181 2.13-0.328-0.061-0.635 0-1.044 0.143-0.655 0.246-1.167 0.696-1.044 1.004 0.123 0.328 0.758 0.389 1.413 0.102 0.43-0.143 0.778-0.41 0.942-0.614 0.471 0.143 1.208 0.246 2.007 0.082 1.413-0.348 3.85-1.434 4.526-1.823 0.635-0.389 0.676 0.246 1.761-0.246 1.024-0.451 3.768-2.929 3.666-5.386 0.307 0.041 0.573-0.041 0.901-0.225 0.553-0.348 0.881-0.901 0.655-1.27-0.246-0.307-0.881-0.307-1.434-0.041z" />
<glyph unicode="&#xe91b;" d="M840.806 431.514c-0.512 0.246-0.84 0.635-0.84 1.004-0.512 0.717-2.314 3.072-3.768 3.604-1.638 0.655-1.843 0.287-3.686 1.126-1.638 0.737-4.239 1.352-5.202 1.516-0.266-0.020-0.451-0.020-0.717 0.041-0.614 0.143-1.126 0.532-1.004 0.963 0.082 0.43 0.676 0.614 1.29 0.43 0.43-0.061 0.655-0.246 0.86-0.43 0.676 0.184 1.864 0.389 2.847 0.041 1.331-0.471 3.523-1.413 4.239-1.434 0.778-0.041 1.925-0.082 2.417-0.471 0.553-0.389 2.703-2.785 2.99-4.895 0.287 0.082 0.676 0.082 1.147-0.164 0.573-0.307 0.942-0.799 0.758-1.208-0.143-0.348-0.778-0.389-1.331-0.123z" />
<glyph unicode="&#xe91c;" d="M839.086 426.885c-0.553 0.287-0.881 0.717-0.799 1.126-0.594 0.532-2.662 2.519-3.768 3.072-1.27 0.614-0.86-0.102-2.13 0.020-1.167 0.143-5.53 1.188-6.799 1.27-0.287-0.123-0.635-0.246-1.106-0.164-0.614 0.082-1.147 0.451-1.106 0.881 0.061 0.43 0.594 0.676 1.27 0.573 0.512-0.061 1.004-0.389 1.085-0.696 0.471 0.287 1.434 0.696 2.355 0.84 1.249 0.205 2.97 0.246 4.28-0.676 0.307-0.205 1.044-0.041 1.29 0.43 0.307 0.512 1.331-0.246 1.761-0.635 0.389-0.43 2.621-2.437 3.011-4.628 0.307 0.143 0.717 0.102 1.147-0.102 0.573-0.328 0.963-0.819 0.758-1.208-0.061-0.348-0.676-0.41-1.249-0.102z" />
<glyph unicode="&#xe91d;" d="M838.103 421.519c-0.532 0.184-0.922 0.553-0.963 0.901-0.717 0.573-3.174 2.478-4.198 2.867-1.188 0.43-1.72 0.205-3.092-0.123-1.27-0.307-5.202-0.246-6.246-0.205-0.184-0.061-0.41-0.102-0.635-0.061-0.717 0.061-1.249 0.532-1.208 1.065 0.061 0.512 0.676 0.901 1.352 0.819 0.328-0.041 0.532-0.143 0.758-0.287 0.389 0.246 0.922 0.532 1.495 0.655 1.106 0.205 3.625 0.676 5.55-0.205 0.287-0.123 0.758 0.205 1.004 0.696 0.246 0.512 0.553 0.84 1.208 0.307 0.594-0.492 3.338-2.314 4.137-5.202 0.225 0.287 0.737 0.348 1.27 0.164 0.635-0.205 1.106-0.676 0.922-1.044-0.143-0.41-0.737-0.553-1.352-0.348z" />
<glyph unicode="&#xe91e;" d="M837.53 415.928c-0.471 0.164-0.881 0.492-0.963 0.799-0.84 0.471-3.277 1.843-4.198 2.007-1.147 0.246-0.881 0.389-2.355-0.328-1.27-0.553-5.325-0.799-6.656-0.758-0.266-0.246-0.573-0.369-1.024-0.369-0.655-0.041-1.27 0.369-1.27 0.881s0.532 0.963 1.27 1.004c0.43 0 0.758-0.143 1.024-0.348 0.43 0.307 1.085 0.737 1.618 0.922 0.84 0.287 4.198 0.43 4.915 0.348 0.758-0.143 1.044 0.471 1.044 0.614 0 0.184 0.184 1.413 0.84 1.147 0.635-0.287 2.642-1.167 3.502-2.13 0.655-0.758 1.29-1.843 1.577-2.437 0.287 0.164 0.717 0.205 1.208 0.061 0.614-0.205 1.044-0.655 0.922-1.065-0.246-0.43-0.86-0.573-1.454-0.348z" />
<glyph unicode="&#xe91f;" d="M825.078 409.784c-0.696-0.061-1.618-0.143-2.15-0.205-0.184-0.307-0.492-0.492-0.963-0.532-0.676-0.143-1.311 0.205-1.393 0.717-0.082 0.492 0.43 1.044 1.126 1.126 0.287 0.041 0.471 0 0.676-0.041 0.676 0.43 2.13 1.331 3.072 1.516 1.27 0.246 2.99 0.512 3.727 0.43 0.758-0.164 1.065 1.475 1.331 1.679 0.348 0.164 1.27 0 2.191-0.655 0.881-0.614 2.601-1.147 3.604-3.174 0.225 0.369 0.737 0.594 1.29 0.532 0.676-0.102 1.249-0.573 1.167-1.106-0.061-0.512-0.696-0.881-1.393-0.799-0.553 0.082-1.024 0.43-1.126 0.84-0.819 0.389-3.85 1.72-4.792 1.72-1.188 0.041-0.84 0.102-1.638-0.594s-3.789-1.311-4.731-1.454z" />
<glyph unicode="&#xe920;" d="M821.207 401.203c-0.164 0.471 0.246 1.085 0.922 1.27 0.553 0.205 1.167 0.041 1.372-0.287 0.43 0.43 1.536 1.434 2.294 1.802 0.963 0.451 1.864 1.454 2.785 1.352 0.922-0.123 1.577 0.43 1.72 0.84s0.041 1.475 0.614 1.249c0.553-0.266 4.751-1.27 5.673-2.847 0.246 0.369 0.696 0.532 1.27 0.43 0.655-0.082 1.27-0.512 1.229-1.044-0.102-0.492-0.676-0.922-1.393-0.84-0.328 0.041-0.614 0.164-0.84 0.41-0.246-0.102-0.676-0.164-1.516-0.020-1.413 0.205-3.379 1.27-3.953 1.126-0.594-0.102-0.758-0.737-1.864-1.29-1.065-0.492-3.564-2.048-5.98-2.048-0.143-0.307-0.41-0.512-0.778-0.594-0.717-0.225-1.413-0.041-1.556 0.492z" />
<glyph unicode="&#xe921;" d="M822.313 393.114c-0.246 0.43 0.041 1.126 0.635 1.434 0.43 0.246 0.84 0.287 1.229 0.164 0.43 0.43 2.499 2.437 4.403 2.888 2.13 0.512 2.642 1.741 2.642 1.741l-0.225 2.068c0 0 0.307 0.082 0.942-0.369 0.655-0.471 4.444-1.249 5.202-1.802 0.266 0.184 0.614 0.328 1.024 0.246 0.717-0.061 1.249-0.512 1.208-1.065-0.041-0.492-0.635-0.86-1.331-0.778-0.43 0.020-0.84 0.287-1.065 0.512-0.205-0.041-0.41-0.082-0.573-0.082-0.84-0.041-4.014 0.43-4.628 0.287-0.512-0.205-0.594-0.717-1.475-1.884-0.86-1.085-3.441-2.765-5.714-2.99-0.164-0.205-0.348-0.41-0.553-0.512-0.737-0.389-1.434-0.287-1.72 0.143z" />
<glyph unicode="&#xe922;" d="M823.91 385.884c-0.287 0.451 0.041 1.126 0.676 1.475 0.43 0.246 0.922 0.287 1.27 0.102 0.43 0.532 1.823 2.253 3.256 3.052 1.679 0.881 2.724 1.864 2.724 2.13 0 0.328-0.41 2.15-0.41 2.15s0.246 0 0.512-0.205c0.328-0.307 2.13-0.84 3.277-0.758 1.085 0.082 2.273 0.041 3.154-0.389 0.266 0.266 0.492 0.43 0.881 0.451 0.676 0.184 1.311-0.164 1.413-0.635 0.143-0.471-0.348-1.085-1.024-1.249-0.246-0.041-0.471-0.041-0.696 0-0.287-0.205-0.778-0.512-1.413-0.532-1.147-0.143-3.318 0.389-4.116 0.102-0.778-0.328-0.799-1.208-1.516-1.782-0.676-0.614-3.727-2.826-5.734-3.256-0.061-0.41-0.328-0.696-0.696-0.901-0.594-0.287-1.27-0.205-1.556 0.246z" />
<glyph unicode="&#xe923;" d="M825.876 378.819c-0.287 0.43-0.020 1.106 0.553 1.454 0.246 0.143 0.43 0.225 0.614 0.266 0.307 0.307 1.618 1.823 2.519 2.212 1.024 0.43 4.26 2.396 4.424 2.724 0.123 0.348-0.492 2.068-0.492 2.068s-0.102 0.43 0.41 0.307c0.471-0.164 1.823-0.41 2.826-0.266 0.963 0.143 2.396 0.266 3.318 0 0.164 0.184 0.43 0.348 0.717 0.43 0.655 0.246 1.352 0 1.475-0.471 0.184-0.43-0.246-1.065-0.922-1.27-0.43-0.164-0.881-0.123-1.167 0.123-0.389-0.328-0.84-0.655-1.27-0.799-0.758-0.287-3.195 0.041-3.809-0.246-0.553-0.246-1.004-0.799-1.372-1.925-0.389-1.106-3.666-3.727-5.571-3.912-0.082-0.287-0.328-0.532-0.635-0.737-0.635-0.451-1.352-0.41-1.618 0.041z" />
<glyph unicode="&#xe924;" d="M828.273 372.224c-0.246 0.389 0 1.065 0.553 1.475 0.205 0.143 0.43 0.246 0.594 0.287 0.512 0.573 2.089 2.028 2.683 2.58 0.778 0.676 3.461 2.314 3.461 2.683 0 0.41-0.532 2.273-0.532 2.273s0.348 0.246 0.84 0.082c0.451-0.102 2.13-0.184 2.601 0.123 0.43 0.246 1.761 0.41 2.99 0.328 0.143 0.369 0.43 0.635 0.819 0.758 0.676 0.328 1.352 0.082 1.536-0.43 0.205-0.451-0.184-1.065-0.86-1.331-0.369-0.123-0.676-0.123-0.963-0.041-0.573-0.451-1.72-1.413-2.56-1.597-1.208-0.164-2.642 0-3.133-0.84-0.532-0.922-2.417-4.239-3.584-4.71-0.737-0.369-1.638-0.512-2.191-0.594-0.082-0.369-0.307-0.635-0.635-0.881-0.594-0.512-1.311-0.594-1.618-0.164z" />
<glyph unicode="&#xe925;" d="M830.935 366.49c-0.266 0.328-0.020 0.922 0.492 1.311 0.164 0.102 0.287 0.164 0.43 0.246 0.696 0.758 3.215 3.482 3.973 3.932 0.881 0.573 1.966 1.454 2.028 1.966l-0.676 1.577c0 0 1.004 0.102 1.782 0.287 0.737 0.164 3.994 1.536 5.489 1.679 0.082 0.164 0.225 0.246 0.369 0.43 0.553 0.43 1.208 0.451 1.434 0.164 0.266-0.389 0-0.922-0.532-1.29-0.307-0.287-0.614-0.43-0.901-0.43-0.246-0.43-0.676-1.024-1.27-1.331-1.126-0.553-3.994-0.84-4.444-1.085-0.43-0.225-0.553-0.43-1.004-1.475-0.43-1.065-2.888-4.833-5.202-5.202-0.123-0.225-0.287-0.43-0.471-0.553-0.614-0.532-1.229-0.594-1.495-0.225z" />
<glyph unicode="&#xe926;" d="M834.089 362.168c-0.246 0.389 0 0.963 0.512 1.372 0.287 0.164 0.512 0.307 0.778 0.348 0.676 0.758 3.052 3.441 5.202 4.69l-0.942 1.802c0 0 0.594 0.123 1.208 0.307 0.553 0.205 2.519 1.044 3.195 1.516 0.553 0.492 1.577 1.004 2.191 1.208 0.123 0.184 0.266 0.41 0.43 0.492 0.532 0.43 1.208 0.451 1.413 0.184 0.266-0.328 0.020-0.922-0.512-1.311-0.328-0.287-0.655-0.41-0.983-0.41-0.164-0.471-0.512-1.249-1.249-1.72-1.167-0.84-2.601-1.188-3.441-1.331-0.84-0.225-0.881-0.676-1.167-1.413s-1.27-2.97-2.232-3.768c-0.676-0.553-1.884-0.922-2.519-1.044-0.123-0.246-0.287-0.471-0.512-0.717-0.492-0.451-1.147-0.512-1.372-0.205z" />
<glyph unicode="&#xe927;" d="M836.301 358.687c-0.246 0.328 0.041 0.922 0.573 1.27 0.164 0.102 0.348 0.184 0.471 0.246 0.43 0.594 1.72 2.13 2.724 2.724 1.249 0.676 2.601 2.13 2.765 2.191 0 0-0.328-1.782-1.085-2.929-0.676-1.106-2.068-2.191-3.4-2.642-0.082-0.328-0.348-0.594-0.635-0.84-0.553-0.348-1.188-0.389-1.413-0.020z" />
<glyph unicode="&#xe928;" d="M844.288 367.473c0.635 0.389 3.604 2.273 3.912 2.519 0.102 0.246 0.328 0.43 0.553 0.676 0.553 0.389 1.188 0.43 1.393 0.082 0.246-0.369 0-0.922-0.512-1.27-0.43-0.246-0.758-0.41-1.085-0.328-0.082-0.471-0.328-1.27-0.799-1.802-0.799-0.922-3.625-1.946-4.997-2.048l-1.126 1.638c0.061 0.061 1.925 0.164 2.662 0.532z" />
<glyph unicode="&#xe929;" d="M839.127 355.369c-0.266 0.328 0 0.84 0.512 1.27 0.082 0.041 0.184 0.102 0.287 0.164h-0.041c0 0 1.475 1.208 1.884 1.618s1.27 1.475 2.294 1.884c1.106 0.43 1.229 0.983 1.188 1.413s-0.963 1.638-0.963 1.638 1.72 0.041 3.011 0.717c1.147 0.594 2.724 2.519 3.174 3.011 0.041 0.307 0.246 0.553 0.553 0.799 0.451 0.43 1.085 0.532 1.27 0.348 0.225-0.328-0.020-0.84-0.532-1.27-0.307-0.287-0.614-0.43-0.922-0.43-0.061-0.43-0.225-1.229-0.778-1.884-0.84-0.983-2.355-2.089-3.953-2.273 0 0-0.369-0.881-0.512-1.29-0.205-0.43-2.13-4.362-4.649-4.69-0.082-0.246-0.328-0.451-0.532-0.696-0.492-0.451-1.147-0.594-1.29-0.328z" />
<glyph unicode="&#xe92a;" d="M841.523 353.382c-0.205 0.266 0.041 0.819 0.553 1.27 0.307 0.266 0.635 0.389 0.881 0.43 0.901 0.614 4.506 3.113 4.874 4.219l-1.29 1.475c0 0-0.061 0.348 0.348 0.43 0.43 0.102 2.97 1.065 4.055 2.458 0.307 0.41 0.86 0.963 1.27 1.372 0.041 0.246 0.266 0.492 0.471 0.778 0.471 0.471 1.085 0.676 1.29 0.43 0.225-0.225 0.041-0.819-0.43-1.27-0.307-0.328-0.614-0.471-0.922-0.492-0.041-0.532-0.225-1.27-0.799-2.068-1.126-1.536-3.092-1.925-3.482-2.191-0.43-0.369-0.205-0.635-0.451-1.761-0.287-1.167-2.478-3.564-4.403-3.85-0.041-0.287-0.266-0.573-0.573-0.881-0.553-0.492-1.147-0.635-1.393-0.348z" />
<glyph unicode="&#xe92b;" d="M523.899 761.917c0-40.221-32.606-72.827-72.827-72.827s-72.827 32.606-72.827 72.827c0 40.221 32.606 72.827 72.827 72.827s72.827-32.606 72.827-72.827z" />
<glyph unicode="&#xe92c;" d="M547.553 496.067c15.688-18.227 13.025-43.704-5.96-56.607-18.964-12.923-47.268-8.561-62.996 9.708l-172.831 200.827c-15.688 18.248-13.005 43.725 5.939 56.648 18.944 12.882 47.309 8.52 62.996-9.728l172.851-200.847z" />
<glyph unicode="&#xe92d;" d="M375.030 337.715l-85.074 52.326 143.667 235.561-134.369 82.964-148.787-243.978c-2.458-3.154-4.485-6.41-6.001-9.81l-1.044-1.741 0.246-0.143c-2.13-5.55-2.888-11.244-1.802-16.589l30.351-151.839-125.358-126.116c-13.414-13.476-12.206-37.97 2.662-54.395 14.889-16.445 38.011-18.883 51.425-5.366l134.451 135.25c16.876 14.52 28.447 27.791 25.457 42.742l-8.11 40.571 97.137-65.925 113.93-141.988c11.756-14.623 33.792-14.93 49.009-0.778 15.196 14.213 18.022 37.847 6.246 52.449 0 0-129.823 158.966-133.509 164.803-2.703 4.526-6.083 9.236-10.527 12.001z" />
<glyph unicode="&#xe92e;" d="M544.993 502.866c16.548-18.534 17.183-48.169 1.393-65.843-15.749-17.654-38.748-14.602-59.29-2.949l-129.167 48.108-52.326 160.686c-8.499 21.279-17.162 48.189-1.434 65.864 15.79 17.654 42.168 16.957 58.716-1.597l48.804-156.754 133.304-47.514z" />
<glyph unicode="&#xe92f;" glyph-name="bask" data-tags="bask" d="M449.638 868.884c0-32.677-26.49-59.167-59.167-59.167s-59.167 26.49-59.167 59.167c0 32.677 26.49 59.167 59.167 59.167s59.167-26.49 59.167-59.167zM384.614 304.128c-7.578-7.557-11.325-17.49-11.264-27.464 0 0 0-0.020 0-0.061v-143.278c0-19.005 15.38-34.468 34.447-34.468 18.985 0 34.427 15.462 34.447 34.468v97.116c-0.143 14.295 5.345 27.73 15.401 37.847l57.037 56.955c2.253 2.253 5.878 2.253 8.11 0 2.232-2.191 2.232-5.837 0-8.11-0.082-0.123-0.246-0.123-0.328-0.205l-8.315-8.274h0.041l-48.476-48.415c-8.172-8.11-12.206-18.883-12.104-29.594 0-0.082 0-0.123 0-0.184v-230.584c0-20.050 16.241-36.332 36.332-36.332 20.029 0 36.311 16.323 36.311 36.332v204.063l28.078 28.099c0.102 0.102 0.184 0.143 0.287 0.225l51.261 51.282c6.185 6.164 9.892 13.722 11.428 21.688l-142.541 89.149-90.153-90.255zM712.274 524.82c0.266 6.881-2.171 13.865-7.434 19.108l-62.71 62.73c-4.915 4.895-11.305 7.373-17.715 7.496v0.020h-136.376l-66.867 66.888v114.606c0 3.133-0.594 6.144-1.638 8.909-8.888-4.014-18.719-6.328-29.061-6.328-6.963 0-13.763 1.004-20.275 2.949-0.369-1.782-0.594-3.645-0.594-5.53v-134.492c0-0.041 0-0.102 0-0.164 0-0.451 0.041-0.901 0.082-1.393 0.041-0.655 0.102-1.29 0.184-1.946 0.655-5.55 2.99-10.936 7.25-15.196l97.71-97.71v-126.689l143.258-89.539v214.815l46.735-46.797v-119.91c0-13.169 10.67-23.757 23.777-23.757s23.736 10.65 23.736 23.757v147.948c-0.020 0.041-0.061 0.143-0.061 0.225zM604.733 696.689c0-32.168-26.077-58.245-58.245-58.245s-58.245 26.077-58.245 58.245c0 32.168 26.077 58.245 58.245 58.245s58.245-26.077 58.245-58.245zM327.721 836.465h-125.092l32.891-167.383h89.661l27.546 140.145c-4.362 2.744-8.458 5.98-12.206 9.708-5.222 5.243-9.503 11.141-12.8 17.531z" />
<glyph unicode="&#xe930;" glyph-name="foot" data-tags="foot" d="M756.961 854.159c-33.792 23.736-80.568 15.442-104.182-18.35-23.757-33.853-15.585-80.609 18.35-104.223 33.874-23.736 80.609-15.503 104.243 18.33 23.757 33.935 15.462 80.548-18.412 104.243zM631.685 62.136c0-46.069-37.346-83.415-83.415-83.415s-83.415 37.346-83.415 83.415c0 46.069 37.346 83.415 83.415 83.415s83.415-37.346 83.415-83.415zM506.532 826.655l-0.061 0.102-130.048 90.952c-19.395 13.66-46.162 8.868-59.761-10.527-13.496-19.333-8.929-45.978 10.342-59.576 0.061-0.061 0.102-0.164 0.184-0.164l76.124-53.248c0.061-0.061 0.102-0.123 0.102-0.123l130.232-91.116-111.063-158.638 164.639-115.323 87.491 124.948v-78.889c0-5.263 1.044-10.24 2.765-14.95l-87.941-125.563c-10.588-15.094-6.902-35.901 8.172-46.428 15.114-10.65 35.881-6.963 46.51 8.11l104.653 149.463c3.666 3.871 6.554 8.397 8.52 13.332 4.116 9.052 4.157 22.897 3.113 32.358v135.045c0 8.909-2.888 24.289-19.21 35.82-16.241 11.387-165.888 116.163-165.888 116.163l-68.874 48.251zM362.721 458.936l-127.734-182.415c-14.070-20.111-9.175-47.739 10.895-61.85 20.050-14.070 47.8-9.093 61.829 10.916l127.734 182.415 19.313-13.496-240.148-342.938c-14.070-20.091-9.175-47.759 10.875-61.829 20.070-14.070 47.759-9.175 61.829 10.936l283.607 404.992-164.659 115.323-43.54-62.054z" />
<glyph unicode="&#xe931;" glyph-name="iceh" data-tags="iceh" d="M622.080 483.779c18.33 0 33.198 14.828 33.198 33.137v217.498c0 18.33-14.848 33.075-33.198 33.075-18.248 0-33.116-14.766-33.116-33.075v-217.498c0-18.309 14.868-33.137 33.116-33.137zM147.681 106.435h-50.053c-5.775 0-10.445-4.71-10.445-10.527v-13.312c0-5.693 4.669-10.445 10.445-10.445h50.053c5.796 0 10.486 4.71 10.486 10.445v13.312c0 5.816-4.69 10.527-10.486 10.527zM576.86 506.020l-357.437-357.437c-9.564-9.503-21.504-9.277-42.312-9.277 0 0-109.527 0-118.477 0-8.868 0-16.548-2.662-16.548-13.455v-25.641c0-10.445 4.588-15.77 16.486-15.77h15.155v11.489c0 13.23 10.732 23.962 23.9 23.962h50.053c13.21 0 23.921-10.691 23.921-23.962v-11.284c21.033 0.758 21.422 3.912 33.608 16.077l383.59 383.631c-5.96 6.083-9.994 13.599-11.94 21.668zM525.517 582.41l49.992-49.992-0.082 201.974c0 0.123 0.082 0.184 0.082 0.287l-106.435-106.537c-6.103-5.98-9.81-14.275-9.81-23.45v-197.202l66.232 66.253v108.667zM635.638 472.31l6.042-6.042 119.071 119.050-92.119 92.058v-160.461c0-21.033-13.865-38.789-32.993-44.605zM983.9 146.084l-146.022 146.084v200.684c0 1.004-0.082 1.966-0.164 2.888v0 0.020c-0.164 2.212-0.512 4.26-1.085 6.369 0 0.020 0 0.123-0.041 0.164-1.761 6.881-5.53 12.943-10.588 17.674l-48.497 48.538-245.821-245.903c-0.963-0.942-1.823-1.925-2.56-2.97-13.824-16.568-12.943-41.308 2.58-56.873l180.265-180.101c16.486-16.548 43.274-16.548 59.843-0.061 16.527 16.527 16.527 43.397 0.041 59.904l-143.688 143.708 115.773 115.753v-120.402c0-11.551 5.284-21.791 13.578-28.672 1.147-1.27 2.355-2.601 3.666-3.768 0.041-0.123 0.143-0.205 0.205-0.246l162.673-162.652c16.486-16.548 43.295-16.548 59.761-0.061 16.63 16.609 16.63 43.356 0.082 59.924zM525.517 402.063l-58.737-58.696c6.124-7.393 15.319-12.124 25.62-12.124 18.33 0 33.116 14.807 33.116 33.116v37.704zM531.579 811.868c-29.020 29-76.206 29-105.226 0-29.020-29.020-29.020-76.124 0-105.226 29.020-28.979 76.206-28.979 105.226 0 29 29.082 29 76.186 0 105.226z" />
<glyph unicode="&#xe932;" glyph-name="quasar-amfb" data-tags="quasar-amfb" d="M834.418 656.166c36.458-25.368 72.106-42.694 99.004-53.784-1.324 83.196-24.362 154.342-63.45 194.648-37.828 39.008-106.148 61.124-187.204 62.812 22.972-81.15 73.758-149.474 151.65-203.676zM172.738 248.124c-29.358 18.33-57.974 31.794-82.16 41.464-0.096-81.448 21.13-150.93 59.592-190.592 37.574-38.744 106.852-60.856 189.204-62.84-24.924 87.22-80.796 158.376-166.636 211.968zM799.902 609.93c-91.93 63.966-152.28 148.804-177.078 247.816-119.086-10.928-254.832-62.676-360.13-164.792-103.388-100.26-157.038-229.316-170.822-344.444 30.042-10.93 68.542-27.746 108.356-52.604 101.182-63.172 167.772-151.77 194.554-257.964 122.776 10.296 263.088 61.992 369.25 164.94 102.042 98.954 152.668 226.006 164.412 340.032-31.13 11.526-79.080 32.598-128.542 67.016zM733.722 507.57l-11.682-11.738c-8.742-8.786-23.082-8.818-31.87-0.076l-42.336 42.144-50.188-50.42 40.238-40.052c8.784-8.742 8.816-23.080 0.074-31.866l-11.682-11.738c-8.742-8.784-23.082-8.814-31.87-0.074l-40.238 40.054-43.642-43.848 44.74-44.534c8.784-8.744 8.816-23.082 0.072-31.868l-11.68-11.738c-8.742-8.784-23.082-8.816-31.868-0.074l-44.742 44.536-38.002-38.18 39.846-39.66c8.782-8.746 8.816-23.082 0.074-31.868l-11.682-11.738c-8.742-8.784-23.082-8.816-31.866-0.074l-39.846 39.662-26.92-27.044c-8.744-8.786-23.084-8.816-31.868-0.074l-11.738 11.684c-8.784 8.742-8.816 23.082-0.074 31.866l26.92 27.046-45.672 45.458c-8.784 8.746-8.816 23.082-0.074 31.866l11.684 11.738c8.742 8.786 23.082 8.818 31.866 0.072l45.672-45.458 38.002 38.18-40.77 40.588c-8.784 8.746-8.816 23.084-0.074 31.868l11.684 11.738c8.742 8.784 23.082 8.816 31.866 0.074l40.778-40.588 43.644 43.848-45.28 45.070c-8.784 8.746-8.816 23.082-0.074 31.868l11.682 11.738c8.742 8.784 23.084 8.816 31.866 0.074l45.278-45.072 50.188 50.42-43.18 42.978c-8.784 8.744-8.816 23.084-0.072 31.868l11.68 11.738c8.744 8.784 23.082 8.816 31.87 0.074l43.18-42.982 13.096 13.158c8.742 8.786 23.082 8.816 31.866 0.074l11.736-11.682c8.784-8.744 8.82-23.084 0.076-31.866l-13.1-13.156 42.34-42.146c8.782-8.746 8.814-23.084 0.072-31.868z" />
<glyph unicode="&#xe933;" glyph-name="quasar-archery" data-tags="quasar-archery" d="M1012.897 754.656l-126.089-126.089h-146.079l-211.497-211.497c-6.908-6.908-15.959-10.363-25.014-10.363-9.386 0-18.781 3.716-25.773 11.142-13.279 14.103-11.887 36.6 1.806 50.298l210.446 210.446v146.079l126.089 126.089c1.091 1.091 2.235 2.043 3.405 2.931 0.281 0.212 0.558 0.419 0.844 0.622 1.17 0.829 2.364 1.594 3.587 2.235 0.099 0.054 0.202 0.089 0.306 0.143 1.16 0.587 2.339 1.081 3.533 1.51 0.301 0.109 0.597 0.217 0.898 0.316 1.268 0.41 2.551 0.755 3.844 0.992 0.178 0.035 0.36 0.044 0.538 0.079 1.165 0.192 2.329 0.311 3.499 0.37 0.301 0.015 0.597 0.035 0.898 0.044 1.303 0.025 2.601-0.015 3.888-0.148 0.212-0.025 0.424-0.064 0.637-0.089 1.115-0.138 2.226-0.34 3.316-0.597 0.306-0.074 0.617-0.138 0.923-0.217 1.248-0.331 2.482-0.72 3.676-1.194 0.178-0.069 0.345-0.158 0.518-0.227 1.051-0.439 2.073-0.938 3.069-1.485 0.286-0.158 0.572-0.311 0.849-0.474 1.115-0.656 2.201-1.362 3.232-2.147 0.123-0.094 0.237-0.202 0.355-0.296 0.918-0.725 1.791-1.505 2.63-2.334 0.237-0.232 0.474-0.464 0.701-0.706 0.903-0.952 1.767-1.944 2.551-3.015 0.064-0.089 0.118-0.188 0.188-0.281 0.716-1.002 1.357-2.058 1.954-3.153 0.163-0.301 0.326-0.602 0.479-0.913 0.607-1.214 1.17-2.467 1.619-3.79 0.020-0.064 0.035-0.128 0.054-0.192 0.424-1.268 0.745-2.591 1.007-3.948 0.069-0.36 0.133-0.725 0.192-1.091 0.227-1.451 0.4-2.931 0.434-4.476l2.531-118.411 118.406-2.531c6.252-0.133 11.73-2.008 16.314-4.964 1.752-1.13 3.415-2.364 4.88-3.795 2.117-2.073 3.923-4.426 5.374-6.978s2.556-5.295 3.272-8.142c2.512-9.978 0.271-21.199-8.29-29.756zM497.976 712.209c-154.433 0-280.078-125.645-280.078-280.078s125.645-280.078 280.078-280.078 280.078 125.645 280.078 280.078c0 38.095-7.713 74.394-21.564 107.515l-101.214-101.214c0.084-2.102 0.232-4.185 0.232-6.306 0-86.869-70.669-157.537-157.537-157.537s-157.537 70.673-157.537 157.537c0 86.563 70.185 157.019 156.629 157.513l103.188 103.188c-31.695 12.494-66.193 19.383-102.275 19.383zM939.145 576.226c-13.881-13.881-32.707-21.678-52.341-21.678h-56.63c14.123-38.169 21.9-79.393 21.9-122.413 0-195.253-158.845-354.098-354.098-354.098s-354.098 158.845-354.098 354.098 158.845 354.098 354.098 354.098c41.638 0 81.579-7.298 118.702-20.582v59.023c0 19.63 7.797 38.46 21.678 52.341l23.415 23.415c-51.305 17.997-106.42 27.831-163.799 27.831-273.565-0.005-496.125-222.566-496.125-496.13s222.566-496.13 496.13-496.13 496.13 222.566 496.13 496.13c0 59.423-10.54 116.417-29.79 169.262l-25.171-25.166z" />
<glyph unicode="&#xe934;" glyph-name="quasar-aurl" data-tags="quasar-aurl" d="M401.064 287.18c5.262 4.596 10.626 9.326 16.038 14.124l-40.154 42.238c-3.51 3.694-3.36 9.586 0.334 13.098 3.692 3.51 9.584 3.36 13.096-0.33l40.556-42.662c12.2 10.956 24.704 22.374 37.472 34.264l-37.528 39.476c-3.51 3.694-3.364 9.586 0.332 13.098 3.694 3.51 9.586 3.362 13.094-0.33l37.618-39.57c9.842 9.286 19.812 18.828 29.89 28.628l-39.36 41.402c-3.508 3.692-3.362 9.586 0.332 13.096 3.696 3.512 9.586 3.362 13.096-0.33l39.168-41.202c15.832 15.608 31.872 31.792 48.022 48.562l-34.338 36.12c-3.512 3.694-3.364 9.588 0.332 13.096 3.694 3.51 9.586 3.36 13.094-0.332l33.72-35.47c12.092 12.744 24.216 25.782 36.342 39.128l-35.94 37.804c-3.51 3.692-3.36 9.584 0.332 13.096 3.694 3.51 9.584 3.36 13.096-0.332l34.96-36.774c9.564 10.7 19.114 21.588 28.626 32.64l-35.638 37.492c-3.512 3.69-3.364 9.584 0.332 13.094 3.694 3.51 9.584 3.362 13.094-0.332l34.296-36.080c61.2 72.306 120.352 151.68 171.21 236.184-116.792 77.508-390.458 53.338-572.212-122.92-193.25-187.4-210.448-476.78-117.53-581.482 45.136 31.334 137.348 98.18 244.218 191.506zM871.24 779.848c-2.19 2.26-4.518 4.44-6.912 6.584-47.862-79.262-105.966-159.34-173.402-238.886l39.508-41.558c3.51-3.692 3.36-9.586-0.332-13.098-3.692-3.508-9.584-3.36-13.096 0.334l-38.198 40.178c-6.65-7.714-13.358-15.422-20.182-23.122-2.8-3.164-5.646-6.324-8.48-9.484l38.91-40.932c3.512-3.692 3.364-9.586-0.33-13.094-3.694-3.51-9.586-3.362-13.096 0.332l-37.936 39.906c-11.886-13.056-23.998-26.096-36.368-39.104l40.18-42.268c3.51-3.692 3.362-9.586-0.33-13.092-3.694-3.512-9.586-3.364-13.098 0.33l-39.578 41.632c-15.656-16.23-31.696-32.404-48.064-48.514l34.79-36.602c3.514-3.694 3.366-9.586-0.328-13.098-3.694-3.508-9.586-3.36-13.096 0.332l-34.612 36.41c-9.852-9.564-19.822-19.102-29.912-28.612l36.376-38.262c3.508-3.692 3.36-9.586-0.332-13.098-3.692-3.508-9.586-3.362-13.096 0.332l-36.48 38.374c-12.33-11.464-24.822-22.884-37.484-34.25l33.464-35.204c3.51-3.694 3.362-9.586-0.332-13.094-3.694-3.512-9.586-3.364-13.096 0.33l-33.862 35.622c-5.652-5.012-11.334-10.014-17.048-15.002-104.522-91.248-195.216-157.424-242.092-190.132 109.398-88.26 407.164-69.272 595.728 113.59 196.116 190.186 199.808 485.586 102.216 586.22z" />
<glyph unicode="&#xe935;" glyph-name="quasar-badm" data-tags="quasar-badm" d="M377.88 938.8c3.080-10-9.32-37.24-13.88-46.8 0 0 56-24 56-24s12 48 12 48c16.32-1.52 51.6-10.48 49.56-32.16-1.32-13.76-16.88-30.8-12.76-41.080 4.52-11.4 22.36-9.44 35.2-26.76 0 0 8 0 8 0s24 48 24 48c14.84-3.88 48.24-17 44.16-36.16-2.8-13.24-20.2-29.040-15.32-42.76 4.16-11.92 31.92-24.92 43.16-29.080 0 0 24 48 24 48 16.16-4.4 47.080-18.96 40.92-40.12-3.96-13.64-19.76-24.72-19.16-35.84 0.64-12.36 31.44-31.2 42.24-36.040 0 0 28 44 28 44 7.28-2.72 12.64-4.68 19.32-8.96 39.68-25.24 9.44-50.24-15.32-71.040 23.76-11.24 32.8-29.52 47.32-26.2 15.6 3.6 28.76 35.72 47.12 26.040 4.28-2.24 10.2-8.36 13.32-12.040 7.16-8.48 14.36-18.84 8.2-29.96-8.16-14.72-34.16-20.24-18.96-41.16 0 0 9.88-10.080 9.88-10.080 30.88-27.52 36.8 18.4 64.72 10.6 6.8-1.92 11.36-7.52 15.6-12.76 23.56-29-2.2-38.56-27.2-52.44 0 0 40-44 40-44s44 32 44 32c7.080-11.24 30.48-37.52 24.52-50-4.16-8.68-24.56-16.8-33.52-21.88 0 0-83-45.080-83-45.080-100.28-53.56-201-110.6-296-173.040 0 0-88.68-61.56-88.68-61.56-12-8.84-27.76-23.56-43.32-23.36-17.8 0.24-70.8 46.44-88 59.68 0 0-216 163.24-216 163.24s68.12 184 68.12 184c0 0 68.48 259.32 68.48 259.32s20.040 76.68 20.040 76.68c0 0 8.16 47.32 8.16 47.32s11.2 48.68 11.2 48.68c14.72-0.72 48.72-4.36 53.88-21.2zM332 784c9.44-5.16 32.64-20.8 42.8-17.2 9.2 3.28 18 35.56 21.2 45.2 0 0-44 24-44 24s-20-52-20-52zM424.040 730.72c3.92-5.72 28.72-18.72 35.96-22.72 0 0 24 52 24 52s-44 28-44 28c-6.88-11.48-24.28-45.16-15.96-57.28zM353.16 703.48c-3.68 11-26.88 20.44-37.16 24.52 0 0-16-52-16-52s40-16 40-16c3.64 8.48 15.88 35.24 13.16 43.48zM535.64 660.96c12.16 0.8 31.28 30.84 27.2 42.2-4.32 12-27.56 21.28-38.84 24.84 0 0-28-48-28-48 8.88-4.040 32.64-19.52 39.64-19.040zM392 680c0 0-20-40-20-40 9.24-17.8 19-22.44 36-32 0 0 24 52 24 52s-40 20-40 20zM576 624c0 0 44-24 44-24s28 44 28 44c0 0-36 28-36 28-17.36-13.56-28-27.44-36-48zM464 628c0 0-25-44-25-44s33.48-23.52 33.48-23.52c17.52 14.52 22.68 29.36 35.52 47.52 0 0-44 20-44 20zM300 560c6.48 17.52 43.52 47-12 64-19.52-43.52-33-45.52 12-64zM655.24 568.040c1.64-10.28 24.32-25.72 32.76-32.040 8.36 8.040 33.64 28.36 33.52 40-0.16 11.96-24.4 28.52-33.52 36-8.56-8.12-34.64-31.8-32.76-43.96zM360 516c20.52 34.4 27.32 41.64-8 64-19-30.040-29.56-45.32 8-64zM540 576c0 0-28-44-28-44s32-20 32-20c0 0 32 40 32 40s-36 24-36 24zM724 504c6.4-6 24.6-24.44 32.32-26.4 11.88-3.040 38.88 18.36 38.88 30.48 0.040 9.12-17.2 27.48-23.2 35.92-22.88-6.72-34.48-21.12-48-40zM388 488c0 0 32-16 32-16s24 40 24 40c0 0-28 24-28 24s-28-48-28-48zM233 480c16.52-17 6.4-8.16 27-20 0 0 20 48 20 48s-30 18.48-30 18.48c-13-30-13.040-34.72-17-46.48zM608 524c0 0-32-40-32-40 6.84-5.84 23.6-21.84 32.48-23.52 26.52 19.52 28.6 27.2 35.52 39.52 0 0-36 24-36 24zM472 488c-4.4-6.96-23.84-28.92-25-35.52-2.080-11.64 10.52-18.96 26-24 9.36 2.4 28.6 31.16 35 39.52 0 0-36 20-36 20zM288 436c0 0 24-12 24-12s20 44 20 44c0 0-20 16-20 16-15.92-15.080-17.28-27.8-24-48zM843.2 467.44c-14.32 6.8-42.8-21.36-51.2-31.44 17.64-10.36 23.48-21.56 32.72-24.68 16.28-5.48 40.040 14.4 51.28 24.68 0 0-32.8 31.44-32.8 31.44zM638.48 433c15.52-18.52 14.52-21 32-31 15.52 9 33.52 27.72 41.52 38 0 0-32 28-32 28-8.96-6.92-10.48-2-41.52-35zM336 400c4.88-3.32 10.92-8.52 17.080-8.84 13.52-0.6 32.080 22.56 28.16 35.84-2.24 7.6-11.12 12.72-17.24 17 0 0-28-44-28-44zM524 384c19.92 8.56 37.16 16.64 43.52 38 0 0-27.52 22-27.52 22-26.040-22.96-52.48-39-16-60zM195.52 381c0 0 24-12 24-12s20.88 41.8 20 43c-3.8 5-15.56 7.96-24 13 0 0-20-44-20-44zM744 407.52c-10.24-7.56-30.36-24.52-36-35.52 0 0 29-27.52 29-27.52s43 27.52 43 27.52c-13.52 18.84-16 21-36 35.52zM412 400c0 0-24-40-24-40s16-12 16-12c0 0 8 0 8 0 15.080 21.36 40.16 41.2 0 52zM259.52 335.52c48.48 39.48 18 48 4.48 56.48-33.52-35-33.52-43.52-4.48-56.48zM599 395c-19-8.52-21-15.48-36.52-36.52 5.96-3.92 17.24-21.76 24-20 4 1.080 16.96 9.76 20.4 11.96 0 0 21.12 17.56 21.12 17.56-5 5.68-22.28 23.24-29 27zM436 332c0 0 0-8 0-8s16-12 16-12c20.56 8.44 27.48 18.12 40 36-31.32 17-25.96 7.4-56-16zM284 312c0 0 20-12 20-12s24 44 24 44c0 0-16 12-16 12-15.28-13.44-21.080-25.12-28-44zM617.52 314c6.48-11.52 15.48-13.52 28.48-22.48 24.48 14 32.56 18.76 42 28.48 0 0-28 24-28 24-9.080-6-39.72-19.88-42.48-30zM146.48 328.28c9.84-2.52 49.44-36.32 61.52-44.84 0 0 87.96-67.28 87.96-67.28s76.72-58.12 76.72-58.12c12.12-9.76 63.64-45.28 67.56-55.44 4.28-11.16-15.56-45.48-34.56-39.24-6.88 2.28-23.4 16.16-29.96 21.12 0 0-63.72 48.88-63.72 48.88s-80 61.16-80 61.16c0 0-83.96 64-83.96 64-15.48 11.88-33.84 22.4-40.040 41.48 20.12 15.16 25.080 31.72 38.48 28.28zM325 284c0 0 19-14.48 19-14.48 12.48 9.48 27.52 25.48 34 35.48-3.4 5.44-20.96 12.36-26 15 0 0-27-36-27-36zM522.88 316.88c-16.040 0.2-28.96-20.36-34.88-32.88 0 0 12-12 12-12 22.24 4.76 34.2 15.6 44 36-5.040 2.52-15.88 8.8-21.12 8.88zM403.76 279.2c-11.4 0-29.88-18.76-26.4-30.64 2.12-7.36 8.8-9.52 14.64-12.56 0 0 28 28 28 28-3.56 6.88-6.68 15.2-16.24 15.2zM536 248c29.040-18.96 23.92-11.48 60 8 0 0-20 24-20 24s-40-32-40-32zM137.68 252.8c0 0 83.88-64.48 83.88-64.48s125.28-95.4 125.28-95.4c9.64-7.040 48.32-33.96 52-42.44 6.48-14.96-17.2-39.96-27.040-49.76-40.56-40.2-95.92-57.6-151.8-56.72-23.44 0.4-22.96 3.32-43.96 9.24-106.4 30.16-162.68 148.24-124.64 250.76 9.52 25.68 22.44 55.56 45.56 71.8 16.88 2.12 28.28-12.88 40.72-23zM412 216c27.080-16.24 32.48-0.6 56 16-24.12 26.44-39.28 7.24-56-16zM464.32 190.76c-2.84-8 2-15.88 10.76-15.64 7 0.24 29.68 16.44 36.92 20.88 0 0 0 8 0 8s-20 12-20 12c-7.48-5.44-24.72-16.84-27.68-25.24z" />
<glyph unicode="&#xe936;" glyph-name="quasar-base" data-tags="quasar-base" d="M675.156 86.070l-49.84 13.998c-5.112 1.438-8.124 6.794-6.686 11.912l2.64 9.4c1.434 5.114 6.794 8.124 11.908 6.686l43.228-12.136c1.114 16.056 2.942 32.18 5.536 48.256l-53.31 20.224c-4.964 1.882-7.488 7.488-5.602 12.458l3.462 9.13c1.886 4.964 7.488 7.484 12.458 5.604l48.518-18.408c4.348 19.698 9.902 39.214 16.74 58.33l-44.834 31.456c-4.352 3.052-5.412 9.108-2.364 13.456l5.612 7.994c3.046 4.35 9.104 5.408 13.452 2.358l39.128-27.446c7.962 18.294 17.21 36.102 27.812 53.208l-35.966 41.862c-3.464 4.030-3.002 10.154 1.028 13.62l7.406 6.366c4.032 3.462 10.162 2.998 13.622-1.030l30.8-35.842c9.36 12.796 19.388 24.894 30.096 36.276l-30.22 43.23c-3.040 4.356-1.968 10.406 2.386 13.452l8.004 5.596c4.35 3.040 10.406 1.968 13.446-2.384l27.414-39.218c11.73 10.65 24.142 20.548 37.21 29.69l-17.998 46.086c-1.932 4.95 0.536 10.58 5.48 12.512l9.096 3.552c4.952 1.932 10.578-0.536 12.514-5.484l15.862-40.62c19.472 11.504 40.188 21.546 62.184 30.006 1.534 0.588 3.088 1.156 4.63 1.73-20.672 203.792-183.586 365.52-387.902 384.412 6.066-14.964 11.526-30.686 16.296-47l50.872 9.3c5.224 0.958 10.284-2.538 11.238-7.762l1.754-9.608c0.958-5.224-2.536-10.282-7.76-11.236l-48.682-8.904c4.122-17.594 7.446-35.728 9.866-54.222l52.614 1.26c5.308 0.128 9.76-4.112 9.884-9.422l0.232-9.762c0.128-5.31-4.11-9.76-9.424-9.888l-50.278-1.206c1.548-19.828 2.040-39.948 1.364-60.15l49.726-5.142c5.282-0.548 9.16-5.316 8.612-10.6l-1.002-9.714c-0.548-5.286-5.316-9.16-10.604-8.614l-48.528 5.018c-1.814-20.126-4.83-40.232-9.176-60.106l45.046-14.768c5.044-1.656 7.822-7.14 6.168-12.188l-3.042-9.28c-1.654-5.048-7.14-7.822-12.19-6.168l-43.134 14.142c-6.004-20.874-13.554-41.374-22.816-61.244l42.864-27.682c4.462-2.882 5.756-8.888 2.874-13.352l-5.3-8.206c-2.882-4.46-8.886-5.754-13.354-2.872l-40.448 26.118c-9.76-17.418-20.722-33.856-32.86-49.292l38.834-31.24c4.138-3.33 4.802-9.442 1.472-13.58l-6.12-7.61c-3.334-4.14-9.442-4.798-13.582-1.472l-39.458 31.748c-14.326-15.562-29.958-29.974-46.946-43.134l36.498-34.658c3.852-3.654 4.012-9.798 0.352-13.652l-6.724-7.080c-3.658-3.854-9.8-4.012-13.654-0.356l-40.552 38.504c-11.762-7.788-24.052-15.078-36.894-21.828-7.898-4.15-16-8.086-24.29-11.832l27.798-35.41c3.28-4.182 2.544-10.284-1.634-13.56l-7.682-6.034c-4.178-3.28-10.28-2.542-13.56 1.634l-32.832 41.828c-21.212-8.020-43.56-14.816-67.006-20.396l23.086-36.864c2.82-4.502 1.444-10.492-3.060-13.31l-8.276-5.184c-4.502-2.818-10.492-1.444-13.31 3.058l-28.738 45.888c-15.070-2.81-30.558-5.14-46.446-7.010l20.692-39.226c2.478-4.696 0.662-10.57-4.038-13.048l-8.636-4.552c-4.698-2.48-10.57-0.666-13.050 4.038l-26.254 49.77c-4.192-0.32-8.4-0.62-12.644-0.878 73.582-131.59 214.256-220.572 375.736-220.572 57.994 0 113.294 11.504 163.782 32.302-0.59 11.88-0.808 23.888-0.626 35.974zM129.172 276.656l-17.098 32.412c-2.48 4.702-0.662 10.57 4.036 13.048l8.638 4.558c4.698 2.474 10.572 0.66 13.050-4.038l23.006-43.61c14.95 1.436 29.512 3.312 43.694 5.598l-20.892 33.36c-2.818 4.506-1.442 10.492 3.060 13.314l8.278 5.182c4.5 2.818 10.492 1.444 13.312-3.060l26.962-43.050c22.284 4.764 43.508 10.656 63.632 17.678l-25.566 32.57c-3.28 4.178-2.544 10.282 1.634 13.56l7.68 6.028c4.18 3.286 10.284 2.548 13.562-1.63l31.056-39.568c10.666 4.536 20.99 9.41 30.95 14.642 8.976 4.722 17.63 9.75 26.022 15.028l-28.656 27.21c-3.852 3.656-4.010 9.8-0.352 13.654l6.724 7.080c3.656 3.854 9.8 4.010 13.654 0.352l33.126-31.454c16.398 12.278 31.48 25.752 45.196 40.416l-35.714 28.734c-4.14 3.332-4.802 9.446-1.472 13.58l6.122 7.61c3.33 4.138 9.44 4.802 13.58 1.47l36.41-29.292c11.3 14.4 21.482 29.748 30.468 46.054l-40.638 26.246c-4.462 2.882-5.756 8.892-2.876 13.354l5.298 8.202c2.88 4.462 8.888 5.754 13.352 2.874l37.954-24.512c7.822 17.376 14.034 34.834 18.954 52.092l-48.712 15.972c-5.048 1.654-7.824 7.138-6.168 12.186l3.040 9.28c1.656 5.048 7.14 7.826 12.188 6.17l46.658-15.296c3.74 17.84 6.178 35.28 7.656 52.004l-47.666 4.928c-5.284 0.546-9.162 5.316-8.614 10.602l1.004 9.712c0.544 5.284 5.316 9.162 10.6 8.616l46.346-4.794c0.526 19.282-0.118 37.19-1.362 53.096-0.056 0.72-0.124 1.44-0.186 2.16l-46.286-1.112c-5.31-0.128-9.758 4.112-9.886 9.424l-0.234 9.762c-0.126 5.31 4.112 9.76 9.422 9.886l43.76 1.048c-2.282 16.332-5.322 32.462-9.078 48.204l-46.312-8.468c-5.226-0.956-10.284 2.538-11.238 7.764l-1.756 9.608c-0.958 5.226 2.538 10.282 7.764 11.238l43.95 8.036c-5.908 19.582-12.922 38.328-20.924 55.83-236.352-1.462-427.506-193.49-427.506-430.186 0-61.124 12.776-119.256 35.758-171.916 3.9 0.16 7.78 0.344 11.636 0.554zM887.458 423.686l19.064-48.808c1.932-4.952-0.536-10.578-5.482-12.51l-9.096-3.554c-4.952-1.932-10.578 0.536-12.51 5.482l-16.664 42.666c-10.28-7.62-20.078-15.782-29.384-24.478l27.696-39.62c3.046-4.352 1.97-10.404-2.382-13.448l-8.002-5.596c-4.354-3.042-10.406-1.97-13.45 2.382l-24.588 35.178c-8.832-9.834-17.144-20.22-24.894-31.176-0.668-0.942-1.296-1.886-1.95-2.836l31.418-36.558c3.462-4.030 2.998-10.156-1.032-13.622l-7.406-6.364c-4.028-3.458-10.158-2.996-13.622 1.032l-25.628 29.818c-8.568-14.876-15.868-29.944-22.082-44.976l39.304-27.57c4.348-3.046 5.412-9.104 2.358-13.45l-5.606-8c-3.050-4.346-9.104-5.408-13.454-2.358l-33.064 23.198c-5.526-16.734-9.814-33.22-13.116-49.144l41.486-15.74c4.964-1.884 7.488-7.49 5.604-12.458l-3.462-9.126c-1.886-4.966-7.49-7.488-12.458-5.608l-36.282 13.764c-2.292-15.99-3.658-31.1-4.394-44.942l41.528-11.662c112.536 77.596 186.314 207.38 186.314 354.416 0 1.098-0.036 2.188-0.042 3.282-19.354-7.878-37.61-17.082-54.722-27.614z" />
<glyph unicode="&#xe937;" glyph-name="quasar-bask" data-tags="quasar-bask" d="M512 867.836c-231.87 0-419.836-187.968-419.836-419.836 0-231.872 187.968-419.836 419.836-419.836 231.872 0 419.836 187.964 419.836 419.836 0 231.868-187.964 419.836-419.836 419.836zM865.052 360.254c-156.188-8.464-277.892 1.556-361.862 29.816-41.362 13.916-73.46 32.258-96.054 54.804 71.376 53.95 140.3 96.28 197.16 127.544 89.132 49.016 163.028 79.16 199.43 92.86 45.228-60.628 72.008-135.828 72.008-217.28 0-30.256-3.718-59.64-10.682-87.744zM778.342 695.682c-40.16-15.594-108.81-44.762-191.238-90.034-58.45-32.102-129.346-75.608-202.796-131.156-4.070 7.128-7.426 14.56-10.038 22.306-37.996 112.704 80.014 263.834 130.064 314.838 2.552 0.052 5.102 0.098 7.666 0.098 105.19 0 199.93-44.668 266.342-116.052zM449.198 806.314c-62.38-73.958-148.18-209.314-110.372-321.464 3.978-11.802 9.192-22.97 15.62-33.512-18.334-14.58-36.738-29.916-55.072-46.002-68.978 100.906-72.214 179.624-74.91 245.246-0.266 6.482-0.53 12.834-0.842 19.088 54.378 70.628 134.102 120.724 225.576 136.644zM222.828 397.080c-27.82 28.208-54.83 45.632-74.498 55.908 0.784 58.336 15.286 113.354 40.45 161.972 3.682-56.946 14.268-124.834 62.976-205.266 5.994-9.896 12.484-19.816 19.43-29.764-6.19-5.732-12.366-11.53-18.516-17.438-9.322 12.31-19.272 23.868-29.842 34.588zM225.708 335.832c-14.18-14.422-28.19-29.324-41.946-44.728-17.326 36.182-28.834 75.68-33.34 117.276 21.906-14.34 49.346-37.212 75.286-72.548zM202.896 256.23c14.31 16.384 28.918 32.222 43.748 47.502 22.16-38.324 41.492-87.69 52.856-150.946-38.556 27.802-71.438 62.972-96.604 103.444zM341.334 126.736c-7.544 58.5-21.858 111.462-42.716 157.746-7.382 16.384-15.586 31.954-24.568 46.648 6.51 6.318 13.048 12.538 19.61 18.65 65.31-82.536 163.604-167.272 297.758-256.794-25.564-5.694-52.136-8.72-79.418-8.72-61.682 0-119.768 15.374-170.666 42.47zM638.376 106.836c-159.778 103.784-257.16 192.046-316.808 268.234 18.54 16.344 37.164 31.892 55.716 46.656 64.582-67.686 193.9-101.774 386.392-101.772 28.508 0 58.43 0.758 89.708 2.256-36.672-99.494-115.592-178.532-215.008-215.374z" />
<glyph unicode="&#xe938;" glyph-name="quasar-bevo" data-tags="quasar-bevo" d="M512 867.868c-231.886 0-419.868-187.982-419.868-419.868s187.982-419.868 419.868-419.868c231.886 0 419.87 187.98 419.87 419.868 0 231.886-187.984 419.868-419.87 419.868zM148.24 448c0 7.42 0.25 14.786 0.688 22.096 176.624-210.148 348.548-210.676 407.994-204.064 0.12-8.034-0.054-15.876-0.468-23.474-3.916-0.218-7.902-0.458-12.008-0.714-82.786-5.202-218.408-13.656-396.172 203.394-0.008 0.92-0.034 1.836-0.034 2.762zM707.896 754.556c9.502-6.082 18.692-12.606 27.56-19.518-258.348 27.76-372.242-161.85-401.222-220.996-6.934 3.544-13.894 7.356-20.854 11.456 38.34 70.736 141.72 243.638 394.516 229.058zM630.358 587.448c-47.472-32.536-106.704-81.534-129.584-120.222-7.288 0.51-17.85 1.518-30.826 3.49 80.904 157.544 223.17 199.4 311.934 221.17 6.060-6.702 11.87-13.634 17.424-20.776-49.922-13.56-109.268-42.76-168.948-83.662zM383.164 453.036c54.91-18.146 100.524-22.418 119.47-23.424 7.046-9.298 13.242-18.744 18.698-28.28-207.708 6.562-310.302 115.66-350.32 173.582 2.462 6.622 5.12 13.142 7.954 19.574 50.542-65.188 120.532-113.798 204.198-141.452zM589.58 200.498c10.43 66.788 8.79 163.216-55.506 249.52 15.082 24.064 56.942 65.12 117.428 106.576 8.204 5.62 16.378 10.992 24.504 16.126 41.55-73.060 106.468-210.628 12.030-443.096-39.996-22.164-84.606-37.008-132.034-42.728 13.46 30.138 26.704 69.592 33.578 113.602zM698.396 586.32c9.78 5.692 19.44 10.982 28.946 15.874 50.526-82.452 93.53-226.356 10.22-439.58-4.080-3.228-8.238-6.362-12.458-9.418 80.356 224.676 15.010 360.018-26.708 433.124zM799.702 632.392c7.732 2.362 15.208 4.312 22.39 5.84 34.030-55.348 53.67-120.494 53.67-190.232 0-45.358-8.328-88.764-23.494-128.806 13.382 108.154 14.34 224.030-52.566 313.198zM512 811.76c52.012 0 101.462-10.94 146.21-30.608-91.958-3.716-172.744-32.74-240.99-86.772-67.636-53.546-106.596-119.29-125.99-154.82-33.356 22.818-65.742 52.792-93.242 92.134 63.154 107.722 180.126 180.066 314.012 180.066zM151.224 401.214c69.698-79.398 139.26-132.52 211.182-161.448 52.6-21.154 98.3-25.936 136.42-25.936 17.342 0 33.118 0.988 47.254 1.878 2.738 0.17 5.382 0.336 7.946 0.488-0.434-3.376-0.898-6.7-1.402-9.93-8.066-51.642-25.234-94.958-39.33-122.014-0.43-0.002-0.862-0.018-1.294-0.018-185.046 0.004-337.816 138.18-360.776 316.98z" />
<glyph unicode="&#xe939;" glyph-name="quasar-boxi" data-tags="quasar-boxi" d="M242.344 548.25c0 0-8.216-251.97 84.904-372.478 5.478-30.126-24.826-26.324-42.544-9.89-13.708 12.714-278.642 284.51-42.36 382.368zM443.934 846.66c-34.084-0.184-155.814-32.868-166.77-216.68 0-47.474-3.652-452.838 154.596-467.446 52.344-2.434 236.158-9.962 265.374-9.24 29.214 0.72 157.034-18.756 181.378 318.438 3.65 46.256 13.388 377.362-434.578 374.928zM415.934 121.146h320.152v-71.82h-342.062z" />
<glyph unicode="&#xe93a;" glyph-name="quasar-cric" data-tags="quasar-cric" d="M429.638 861.25c-4.426-0.876-8.834-1.804-13.21-2.82 418.126-114.118 406.876-646.696 13.196-823.68 20.44-4.052 41.408-6.624 62.794-7.606 426.454 187.348 388.656 735.972-62.78 834.106zM416.428 858.43c-186.648-43.29-325.75-210.614-325.75-410.43 0-204.496 145.7-374.942 338.944-413.248 241.794 124.488 403.156 686.4-13.194 823.678zM512 869.322c-28.176 0-55.702-2.792-82.332-8.068 481.342-13.848 650.2-680.16 63.354-834.134 6.292-0.278 12.616-0.444 18.976-0.444 232.692 0 421.322 188.63 421.322 421.322 0.002 232.692-188.628 421.324-421.32 421.324z" />
<glyph unicode="&#xe93b;" glyph-name="quasar-cycl" data-tags="quasar-cycl" d="M504.84 334.39c-73.694-3.068-104.396-76.76-208.794-76.76-62.948 0-161.208 59.876-181.166 73.692s-19.958 24.566 7.68 64.48c27.634 39.912 55.268 56.806 23.030 84.44-32.242 27.636-35.314 39.914-4.608 39.914s181.166 1.54 307.052-33.004c0 0 112.070-40.688 155.058-72.926 42.992-32.242 69.092-33.78 47.596-6.144-21.494 27.632-148.92 107.47-296.308 136.644-147.382 29.164-205.72 24.558-205.72 24.558s-38.994 33.778-47.9 46.058c-8.908 12.29 15.662 16.894 61.718 16.894s287.086 26.096 436.010-59.876c148.924-85.976 187.306-147.382 199.586-147.382 12.278 0-19.958 55.266-82.904 102.86-62.948 47.59-224.15 136.634-353.11 142.774 0 0-42.986 3.072-73.692 0-30.708-3.068-16.892 4.61-21.498 16.894-4.604 12.278-6.14 21.49 49.13 21.49 55.268 0 302.446-1.536 442.154-107.47 139.708-105.932 158.128-213.398 167.34-253.316-44.522-47.586-131.878-73.692-201.122-73.692-104.388-0.002-145.838 62.944-219.532 59.872zM98.952 294.476c4.024 9.21 17.47 1.538 45.104-13.818s84.438-56.806 147.384-56.806c116.682 0 128.45 79.836 220.786 79.836 38.090 0 84.73-27.634 112.362-46.056 27.636-18.426 84.44-23.030 171.95-10.75 87.508 12.282 128.96 52.2 128.96 52.2 10.746-7.672 0-30.702 0-30.702-19.96-19.96-95.184-64.482-218.004-64.482-122.824 0-103.154 61.406-195.268 61.406-92.116 0-67.26-78.296-214.646-78.296-64.48 0-113.61 36.846-165.808 58.344-52.196 21.49-36.848 39.912-32.82 49.124z" />
<glyph unicode="&#xe93c;" glyph-name="quasar-dart" data-tags="quasar-dart" d="M826.060 761.334v0c-8.928 8.924-21.278 3.43-21.278 3.43 0.71 0.712-137.982-111.080-259.668-209.188-94.904-76.518-179.46-144.708-179.46-144.708l109.94-109.936c0 0 68.19 84.556 144.706 179.458 98.108 121.682 209.902 260.378 209.188 259.668 0.002 0 5.496 12.35-3.428 21.276zM925.36 649.376c-7.91 38.29-33.192 64.204-78.144 78.144l-178.524-233.494c0 0 88.634-13.952 116.166-10.472 27.53 3.482 43.352 18.672 85.758 58.544 42.404 39.874 62.658 68.986 54.744 107.278zM217.418 152.694l-120.46-120.46c0 0 60.906 39.092 130.314 110.612l-9.854 9.848zM96.956 32.232l120.462 120.46-9.852 9.852c-71.52-69.406-110.61-130.312-110.61-130.312zM238.516 175.79l12.804-12.802c0 0 39.242-35.444 78.904 4.218s119.406 119.406 119.406 119.406l-50.146 50.146-160.968-160.968zM349.334 386.902c0 0-79.746-79.746-119.404-119.406-39.664-39.66-4.222-78.9-4.222-78.9l12.806-12.806 160.966 160.966-50.146 50.146zM792.246 782.486c-13.942 44.954-39.858 70.236-78.146 78.146-38.292 7.912-67.406-12.34-107.278-54.746-39.874-42.404-55.060-58.228-58.542-85.758-3.482-27.532 10.47-116.166 10.47-116.166l233.496 178.524z" />
<glyph unicode="&#xe93d;" glyph-name="quasar-default" data-tags="quasar-default" d="M846.532 833.604c-96.942 0-110.79-83.092-110.79-110.79s0-55.396 27.698-55.396 27.698 27.698 27.698 55.396 13.848 55.396 55.396 55.396 55.396-27.698 55.396-55.396c0-138.488-166.186-221.58-249.278-221.58h-276.978c-83.092 0-249.278 83.092-249.278 221.58 0 27.698 13.848 55.396 55.396 55.396s55.396-27.698 55.396-55.396 0-55.396 27.698-55.396c27.698 0 27.698 27.698 27.698 55.396s-13.848 110.79-110.79 110.79c-69.244 0-110.79-55.396-110.79-110.79 0-166.186 193.884-276.976 304.674-276.976h276.976c110.79 0 304.674 110.79 304.674 276.976-0.006 55.396-41.552 110.79-110.796 110.79zM763.44 168.864h-498.556c-15.29 0-27.698-12.394-27.698-27.698v-110.79c0-15.29 12.408-27.698 27.698-27.698h498.556c15.29 0 27.698 12.408 27.698 27.698v110.79c-0.002 15.302-12.41 27.698-27.698 27.698zM652.65 58.072h-276.976v55.396h276.976v-55.396zM652.65 224.258h-276.976c0 0-83.092 0-83.092-55.396h443.162c-0.002 55.396-83.094 55.396-83.094 55.396zM458.766 307.35h110.79c15.29 0 27.698 12.408 27.698 27.698 0 15.302-12.408 27.698-27.698 27.698h-110.79c-15.29 0-27.698-12.394-27.698-27.698 0-15.288 12.41-27.698 27.698-27.698zM763.44 833.604c0 27.712 0 55.396-27.698 55.396s-415.464 0-443.162 0c-27.698 0-27.698-27.684-27.698-55.396 0-470.858 193.884-415.464 193.884-470.858v-55.396c0-55.396-83.092-27.698-83.092-83.092h276.976c0 55.396-83.092 27.698-83.092 83.092v55.396c-0.002 55.396 193.882 0 193.882 470.858zM458.766 556.642c-15.302 0-27.698 12.408-27.698 27.698s12.394 27.698 27.698 27.698h27.698v100.888l-9.902-9.916c-10.386-10.386-27.226-10.386-37.6 0-10.386 10.372-10.386 27.226 0 37.6l51.24 51.254c4.75 8.364 13.654 14.056 23.958 14.056h27.698v-193.884h27.698c15.29 0 27.698-12.408 27.698-27.698s-12.408-27.698-27.698-27.698h-110.79z" />
<glyph unicode="&#xe93e;" glyph-name="quasar-fiel" data-tags="quasar-fiel" d="M512 355.332c-92.358 0-167.23-74.87-167.23-167.228s74.872-167.228 167.23-167.228c92.356 0 167.228 74.872 167.228 167.228 0 92.358-74.87 167.228-167.228 167.228zM438.898 92.346c-7.652 0-13.856 6.208-13.856 13.86 0 7.65 6.206 13.858 13.856 13.858 7.652 0 13.856-6.208 13.856-13.858 0-7.654-6.204-13.86-13.856-13.86zM513.28 67.434c-10.286 0-18.624 8.34-18.624 18.624 0 10.29 8.338 18.628 18.624 18.628 10.29 0 18.628-8.34 18.628-18.628 0-10.284-8.34-18.624-18.628-18.624zM590.168 90.916c-7.652 0-13.858 6.208-13.858 13.858 0 7.652 6.206 13.858 13.858 13.858s13.856-6.206 13.856-13.858c0-7.65-6.204-13.858-13.856-13.858zM644.822 190.132c-34.906 3.544-31.978-29.392-29.954-35.474 0 0 26.352 22.426 29.898 0 1.012-13.176-11.658-13.176-17.232-11.148-8.106 4.054-13.342-2.638-17.732-6.080-5.070-4.052-12.164-3.042-14.698-1.52-19.258 9.122-30.67-14.182-33.444-18.746-4.69-8.366-23.058-6.086-28.292-0.708-15.71 15.208-35.558 4.76-39.614 0.708-11.146-12.158-26.858-2.54-27.87 4.554-4.054 19.764-23.818 17.738-28.886 15.71-9.122-2.028-17.228-1.016-19.624 0-7.97 5.066-15.846 3.042-18.564 3.042-18.934 1.012-15.526 18.242-12.992 22.296 9.626 13.682 21.79-5.574 20.27-10.136 1.774-0.886 9.628 1.776 11.148 9.628 2.026 18.748-17.228 30.91-36.994 27.874 0 0-14.876 3.052-15.48 23.954 12.3 70.176 73.538 123.51 147.238 123.51 63.2 0 117.24-39.22 139.11-94.648 0.010-0.020 0.014-0.038 0.022-0.054 0.764-1.942 1.482-3.906 2.166-5.886 9.214-28.618-3.79-48.3-8.476-46.876zM99.56 291.754c-5.024 34.172 12.44 74.572 45.558 68.584 33.116-5.994 20.428-37.618 18.854-47.814-1.578-10.198 9.646-26.066 31.92-11.348 22.272 14.712 77.108 58.72 105.874 86.748 28.764 28.034 180.452 146.74 239.684 194.686 0 0 186.104 140.552 224.92 172.666 38.818 32.114 130.684 106.522 130.684 106.522s12.814 10.146 26.12-5.836c13.308-15.982-40.404-54.964-40.404-54.964l-271.366-232.61-289.836-246.066c0 0-97.686-87.876-144.734-90.724s-71.43 26.508-77.274 60.156zM918.34 286.050c5.676 34.064-10.982 74.802-44.172 69.47-33.18-5.336-21.122-37.208-19.746-47.43 1.376-10.226-10.132-25.87-32.092-10.712-21.956 15.148-75.866 60.238-104.048 88.824-28.18 28.594-177.36 150.276-235.582 199.384 0 0-183.122 144.204-221.262 177.078-38.144 32.876-128.442 109.086-128.442 109.086s-12.6 10.398-26.194-5.316c-13.596-15.714 39.288-55.752 39.288-55.752l266.482-237.926 284.676-251.746c0 0 95.852-89.79 142.774-93.572 46.926-3.774 71.838 25.090 78.318 58.612z" />
<glyph unicode="&#xe93f;" glyph-name="quasar-floo" data-tags="quasar-floo" d="M516.8-30c-261-1.4-475.8 212.6-476.8 475-1 264 211 478.2 474.4 479 262.6 0.8 476.4-211.2 477.6-473.8 1.2-265.6-209.8-479-475.2-480.2zM201.6 525c0.2-37 29.4-66.6 66.2-67 35-0.4 63.2 29.4 63.6 66.8 0.2 37.2-28 68.2-62.2 68.2-37.4 0-67.8-30.8-67.6-68zM633.8 468.4c-37 0.4-67.6-29.4-67.4-65.4 0.2-35.4 30-64.8 65.8-65.2 37.2-0.2 67.4 29 67.4 65.6-0.2 35.6-29.4 64.6-65.8 65zM327.2 309c0.2-34.8 29.4-62.8 64.8-62.8 35.8 0.2 65.2 28.2 65.6 62.6 0.4 35-30 64.2-66.4 63.8-35.6-0.2-64.2-28.8-64-63.6zM886.4 491c0.2 38-21.6 67-51.4 68.2-29.2 1.2-52.6-25.2-55.6-62.6-3-36.6 22-71.2 52-72.4 30.4-1.4 54.8 28.2 55 66.8zM518.6 714.6c-32.6 0-60-25.4-60.2-55.6 0-30.4 26.6-54.6 60.6-54.6 32.6 0 62 26.4 61 55.2-0.8 30.2-28.8 55-61.4 55zM699.2 742.8c0.6-36.2 28.4-71 63.4-79 24-5.4 43.2 9.8 43.4 34.6 0.4 30.8-25.2 66.2-57 78.8-28.6 11.6-50.2-3.4-49.8-34.4zM526.2 83c19.4 7.6 38.8 12.2 55 22.4 19.8 12.2 18.4 35 0.4 49.4-27.6 22-83 22.2-110.8 0.4-19.4-15.2-20.6-37.6 0.4-50.4 15.8-10 35.4-14.4 55-21.8zM245 732.4c1 24-13.6 35.2-35.2 25-38.2-18.2-60.4-50-68.4-90.8-4.2-22 10.8-33.2 32.6-26.6 33.4 10 69.6 57.2 71 92.4zM164.2 271.8c0.4-31.4 41.4-84.4 71.8-92.6 20.4-5.6 32.6 5.6 30.8 27.8-2.8 34-38.8 78-71.6 87.6-19.2 5.8-31.2-3-31-22.8zM376 808.8c28.4-0.2 61.2 9.6 77.2 25.8 7.6 7.6 16.6 22.2 14 29.2-3.4 9-17.6 17.4-28.2 19.4-27.4 5-53.6-2.2-77.2-16.6-14-8.6-30.6-18.8-24.8-38.2 5.8-19.2 25.2-18.4 39-19.6zM878 293.6c0.4 21.2-12 30-32 23.2-30-10.4-64.8-59-64.8-90.6 0-20 12.4-29 31.2-22.8 30 10.2 65 58.4 65.6 90.2zM97.2 502.4c-3.6 16.2-6 31.2-10.6 45.4-1.8 5.4-8 12.4-12.8 12.8-4.4 0.4-11.6-6.2-14-11.2-14.2-32.2-14.6-65.2-2.4-98.2 2-5.2 9-12 13.4-11.8 4.8 0.2 11.8 6.8 13.6 12 5.6 16.8 8.8 34.2 12.8 51zM678 873c-16.6 24.6-90 46.6-114.4 33.4-3-1.6-5.2-11.8-3.2-14.8 14.2-20.8 92.2-36 114.2-23.2 1.6 1 2.4 3.2 3.4 4.6zM954 482.8c2.8 2.4 5 3.2 5.8 4.8 12.8 22.8 1.8 97.2-17.2 114.4-10.2 9.4-16.8 2.8-17.4-7-1-18.8-2-38.2 1.4-56.4 3.8-20.4 7.6-42.4 27.4-55.8zM422.8 9.2c-16.6 27.8-66 51.2-102 50.6-6-0.2-11.8-3.6-17.8-5.6 3.4-5.8 5.6-13.6 10.6-17.4 25.8-19.4 55.4-30 87.6-32.6 6.2-0.2 13 3 21.6 5zM628.2 21c30-12 98.8 18.6 108.6 47-29.6 10.6-92.8-16.2-108.6-47z" />
<glyph unicode="&#xe940;" glyph-name="quasar-foot" data-tags="quasar-foot" d="M512 866.096c-230.908 0-418.094-187.188-418.094-418.096s187.188-418.098 418.094-418.098c230.908 0 418.098 187.19 418.098 418.098s-187.19 418.096-418.098 418.096zM735.974 313.51l-118.518 16.712-71.624 185.688 87.494 115.124 152.034-32.45 49.776-133.412c-17.006-51.858-69.388-117.236-99.162-151.662zM169.464 600.724l92.938 91.65 93.8-15.4v-129.416l-101.648-127.612-72.834 11.498-18.61 154.21c2.006 5.084 4.136 10.102 6.354 15.070zM512.954 822.954l34.86-25.13-24.67-46.206-155.944-55.042-89.546 14.704 16.166 41.694c61.466 44.048 136.79 69.992 218.18 69.992 0.32 0 0.634-0.010 0.954-0.012zM503.768 214.29c-59.91-2.454-110.186 9.708-144.376 21.806-24.936 8.824-44.476 18.634-57.272 25.866-23.702 43.906-31.958 110.34-34.584 140.378l98.71 123.92 158.778-15.12 72.852-188.852-94.108-107.998zM298.538 139.718c-44.47 49.514-13.64 83.532 5.012 97.444 12.576-6.464 28.714-13.828 48.010-20.704 33.060-11.776 80.332-23.626 136.65-23.626 7.574 0 15.316 0.218 23.202 0.678l48.112-57.502-54.732-62.882c-76.568 1.442-147.51 25.838-206.254 66.592zM576.564 123.412c22.352 4.548 106.522 23.706 154.468 62.742l30.792-17.746c-61.392-54.894-140.96-89.868-228.572-94.762l43.312 49.766zM802.578 684.978l-19.42-64.324-152.424 32.532-86.288 93.478 24.194 45.312 81.206 4.834c60.072-23.758 112.528-62.596 152.732-111.832zM147.702 537.044l13.24-109.688-20.938-26.71c-1.956 15.51-2.968 31.314-2.968 47.356-0.002 30.684 3.712 60.496 10.666 89.042zM777.83 183.564l-41.822 24.104 5.738 80.344c24.86 27.71 82.184 95.2 107.454 154.72l36.906-19.918c-6.184-93.156-46.364-177.012-108.276-239.25z" />
<glyph unicode="&#xe941;" glyph-name="quasar-futs" data-tags="quasar-futs" d="M495.594 937.326c13.386 0 26.774 0 40.16 0 4.398-0.548 8.782-1.284 13.196-1.616 56.674-4.274 111.656-14.966 163.94-38.63 47.138-21.334 92.378-45.126 131.174-80.092 24.016-21.644 47.824-43.188 67.466-69.196 19.848-26.282 39.692-52.466 53.238-82.662 9.786-21.814 19.762-43.664 27.588-66.214 24.096-69.432 29.958-140.768 20.466-213.608-11.452-87.878-45.602-166.252-100.48-235.138-20.686-25.964-45.008-49.356-69.614-71.792-34.592-31.54-75.736-53.836-117.656-73.828-45.306-21.608-93.73-33.984-143.634-39.712-101.074-11.602-198.21 0.996-289.84 47.594-40.084 20.384-78.508 42.908-111.568 73.982-25.194 23.68-51.050 46.682-69.906 76.024-15.924 24.78-32.382 49.368-46.19 75.326-24.562 46.174-38.882 95.894-45.326 147.812-1.848 14.886-3.298 29.82-4.932 44.732 0 12.272 0 24.542 0 36.814 0.586 4.928 1.404 9.842 1.724 14.79 4.598 71.212 24.78 138.026 59.678 199.918 14.95 26.514 32.342 52.248 52.222 75.224 22.442 25.936 47.786 49.716 73.934 72.012 38.41 32.752 83.874 54.432 129.944 74.004 36.768 15.618 75.796 24.208 115.486 29.13 16.27 2.016 32.616 3.434 48.93 5.126zM181.232 345.602c40.344-1.146 79.626-2.348 118.918-3.2 2.932-0.064 6.356 1.832 8.806 3.762 16.574 13.058 32.798 26.56 49.418 39.558 26.796 20.954 53.716 41.756 80.824 62.302 4.918 3.728 6.302 7.072 4.838 13.21-10.922 45.81-21.342 91.74-32.3 137.542-0.7 2.924-4.16 6.55-7.048 7.384-40.958 11.838-82.058 23.176-123.060 34.86-4.688 1.336-7.704 0.414-10.934-3.094-12.618-13.698-25.386-27.26-38.282-40.7-25.826-26.916-51.888-53.608-77.482-80.74-2.486-2.636-3.864-7.948-3.26-11.606 3.762-22.814 8.218-45.514 12.474-68.248 5.638-30.108 11.302-60.212 17.088-91.030zM336 321.692c20.676-42.348 40.97-84.106 61.604-125.692 1.184-2.386 4.946-4.266 7.836-4.912 20.668-4.62 41.458-8.694 62.138-13.256 35.542-7.844 71.102-15.63 106.508-24.064 10.97-2.614 17.876-2.862 25.716 8.612 22.758 33.304 47.762 65.082 72.208 97.21 3.47 4.56 3.182 8.010 1.164 12.77-14.454 34.094-28.918 68.186-42.76 102.53-2.65 6.574-5.642 10.122-12.768 11.92-45.926 11.588-91.74 23.628-137.516 35.802-5.134 1.366-8.804 0.768-13.014-2.434-33.882-25.766-67.912-51.338-101.93-76.924-9.346-7.030-18.81-13.904-29.186-21.562zM438.2 640.128c1.436 0.546 3.548 1.18 5.514 2.12 35.588 17.020 71.188 34.016 106.664 51.264 2.352 1.144 4.78 4.010 5.416 6.52 8.638 34.026 17.042 68.114 25.198 102.258 0.556 2.328-0.528 6.050-2.226 7.738-7.060 7.020-14.436 13.762-22.084 20.144-24.404 20.364-48.868 40.662-73.646 60.566-2.87 2.304-8.212 3.476-11.81 2.632-46.114-10.83-92.146-22.016-138.102-33.496-3.816-0.954-8.018-3.97-10.208-7.25-16.842-25.232-33.31-50.714-49.63-76.286-1.59-2.492-2.508-6.37-1.868-9.18 6.184-27.16 12.72-54.242 19.332-81.302 0.53-2.17 1.908-5.014 3.682-5.834 5.712-2.64 11.676-4.92 17.754-6.556 39.82-10.716 79.696-21.226 119.556-31.794 1.886-0.502 3.796-0.91 6.458-1.544zM713.49 576.206c2.848 0.474 4.22 0.722 5.598 0.928 32.534 4.86 64.976 10.518 97.644 14.194 13.84 1.558 19.784 6.116 23.092 20.31 9.166 39.316 20.738 78.068 31.064 117.122 0.762 2.88 0.308 7.416-1.518 9.398-5.784 6.278-12.3 11.93-18.864 17.432-35.628 29.858-71.4 59.546-106.978 89.462-3.682 3.096-6.702 3.718-11.164 1.836-20.428-8.62-40.936-17.060-61.526-25.284-16.042-6.406-32.186-12.572-48.418-18.474-5.080-1.846-7.352-4.662-8.222-10.044-4.14-25.584-7.86-51.284-13.446-76.566-3.344-15.134-3.346-27.586 10.958-36.848 2.162-1.4 3.13-4.512 5.036-6.456 30.592-31.228 61.232-62.408 91.922-93.538 1.612-1.64 3.778-2.734 4.822-3.472zM823.468 277.918c0.874 0.74 3.776 2.224 5.23 4.596 5.506 8.988 10.394 18.352 15.78 27.416 22.178 37.318 44.13 74.778 66.904 111.73 6.512 10.568 12.116 19.742 1.608 30.654-1.248 1.296-1.374 3.602-2.338 5.254-18.348 31.48-36.832 62.882-55.028 94.45-2.528 4.386-5.020 5.336-9.95 4.41-30.104-5.654-60.198-11.484-90.482-16.008-13.132-1.962-20.836-6.682-26.95-19.56-19.798-41.702-41.678-82.414-62.582-123.598-1.222-2.408-2.056-6.076-1.116-8.354 13.126-31.872 26.514-63.638 40.138-95.3 0.964-2.24 4.132-4.752 6.49-4.99 36.584-3.698 73.202-7.042 112.296-10.7zM520.116-13.424c0.052-0.822 0.104-1.646 0.156-2.468 34.944 3.070 69.898 6.026 104.808 9.438 2.722 0.266 6.386 3.218 7.464 5.814 4.052 9.744 7.572 19.756 10.5 29.896 0.916 3.172 0.454 7.758-1.268 10.518-16.512 26.446-33.564 52.554-50.114 78.978-3.078 4.914-6.61 7.402-12.284 8.434-62.954 11.464-125.884 23.060-188.762 34.93-6.022 1.136-10.202-0.572-14.31-4.274-4.29-3.866-8.424-7.948-12.996-11.452-21.462-16.452-42.974-32.84-64.658-48.994-4.21-3.136-6.256-6.258-5.78-11.736 0.988-11.38 0.85-22.868 2.066-34.216 0.372-3.474 2.868-7.728 5.718-9.768 24.034-17.204 51.78-26.75 79.31-36.182 45.32-15.526 92.326-20.684 140.15-18.918zM40.94 516.116c-7.484-42-8.006-83.29-1.116-124.574 7.172-42.974 18.392-84.816 37.796-124.050 3.142-6.352 7.778-12.314 12.886-17.254 6.666-6.448 12.136-5.072 16.536 3.004 11.708 21.494 22.792 43.348 35.186 64.436 5.786 9.842 6.786 18.662 4.054 29.722-11.288 45.664-21.546 91.584-32.402 137.356-0.81 3.412-2.648 8.412-5.184 9.294-22.282 7.742-44.832 14.718-67.756 22.066zM985.704 450.442c-8.316-4.52-15.392-8.84-22.866-12.298-7.438-3.44-12.418-8.696-16.358-15.824-10.628-19.226-21.73-38.194-32.75-57.202-18.008-31.058-36-62.126-54.268-93.030-2.708-4.58-2.658-7.498 0.906-11.588 9.482-10.88 18.34-22.3 27.606-33.372 7.478-8.936 15.188-17.68 24.322-28.282 55.968 75.326 73.926 159.892 73.408 251.596zM175.454 754.406c12.886 3.332 25.604 8.232 38.696 9.636 20.66 2.212 30.56 12.38 32.312 32.846 0.858 10.030 4.538 19.82 7.032 30.094-34.928-15.35-59.846-40.128-78.040-72.576z" />
<glyph unicode="&#xe942;" glyph-name="quasar-golf" data-tags="quasar-golf" d="M512 873.822c-175.982 0-318.644-142.662-318.644-318.644s142.662-318.642 318.644-318.642c175.982 0 318.642 142.66 318.642 318.642s-142.66 318.644-318.642 318.644zM372.708 372.718c-14.578 0-26.4 11.824-26.4 26.406 0 14.578 11.824 26.402 26.4 26.402 14.58 0 26.404-11.824 26.404-26.402 0-14.582-11.824-26.406-26.404-26.406zM514.438 325.248c-19.598 0-35.49 15.89-35.49 35.492s15.89 35.492 35.49 35.492c19.604 0 35.494-15.89 35.494-35.492s-15.89-35.492-35.494-35.492zM660.94 369.996c-14.58 0-26.402 11.824-26.402 26.402 0 14.582 11.822 26.402 26.402 26.402s26.402-11.82 26.402-26.402c0-14.578-11.822-26.402-26.402-26.402zM765.086 559.040c-66.516 6.758-60.94-56.002-57.078-67.59 0 0 50.21 42.726 56.968 0 1.932-25.106-22.208-25.106-32.83-21.244-15.45 7.724-25.424-5.028-33.794-11.586-9.654-7.724-23.174-5.792-28.002-2.896-36.692 17.38-58.442-27.020-63.726-35.718-8.932-15.94-43.934-11.594-53.912-1.35-29.934 28.974-67.75 9.066-75.476 1.35-21.242-23.162-51.174-4.836-53.106 8.682-7.724 37.658-45.382 33.794-55.038 29.932-17.38-3.862-32.83-1.93-37.394 0-15.188 9.656-30.196 5.794-35.376 5.794-36.078 1.93-29.58 34.76-24.752 42.486 18.346 26.070 41.52-10.622 38.624-19.312 3.378-1.69 18.346 3.378 21.242 18.346 3.862 35.726-32.83 58.9-70.486 53.106 0 0-28.348 5.82-29.496 45.644 23.436 133.716 140.12 235.338 280.546 235.338 120.424 0 223.39-74.73 265.062-180.344 0.016-0.034 0.030-0.070 0.044-0.106 1.456-3.7 2.824-7.442 4.128-11.216 17.558-54.524-7.224-92.022-16.148-89.316zM422.198 180.532h0.074c1.132-35.65 23.046-66.042 54.020-79.494v-35.41h0.028c0.61-24.124 16.348-43.452 35.682-43.452 19.336 0 35.070 19.326 35.682 43.452h0.028v35.41c30.974 13.452 52.886 43.84 54.020 79.494h0.074v28.972h-179.604v-28.972z" />
<glyph unicode="&#xe943;" glyph-name="quasar-grey" data-tags="quasar-grey" d="M512 869.518c-232.798 0-421.518-188.72-421.518-421.52 0-232.798 188.72-421.518 421.518-421.518s421.52 188.72 421.52 421.518c0 232.8-188.722 421.52-421.52 421.52zM174.89 448c0 186.18 150.928 337.11 337.11 337.11 186.18 0 337.11-150.928 337.11-337.11 0-1.9-0.040-3.794-0.072-5.688-60.010-0.602-205.742-1.806-236.366 0.276-38.792 2.64-86.818 15.572-177.33 167.042-7.388 16.624-36.944 59.148-101.594-20.298-14.778-14.798-38.31-42.716-91.744-44.354-10.468-0.616-20.32-16.008 0-18.472 9.85-2.462 23.188-2.92 35.712-8.004 4.926-3.694 39.408 3.080 62.804 8.622 23.398 5.542 60.958 12.93 75.12-35.096s94.822-203.188 132.996-264.762c5.292-11.758 22.93-30.258 4.146-113.91-13.372-1.612-26.976-2.462-40.782-2.462-186.18-0.006-337.11 150.924-337.11 337.106zM615.532 127.114c19.038 41.356 60.594 99.062 142.388 90.34-38.598-41.16-87.406-72.612-142.388-90.34z" />
<glyph unicode="&#xe944;" glyph-name="quasar-hand" data-tags="quasar-hand" d="M512 864.492c-230.022 0-416.492-186.468-416.492-416.49s186.47-416.494 416.492-416.494c230.020 0 416.492 186.472 416.492 416.494s-186.472 416.49-416.492 416.49zM774.354 725.876c48.198-45.52 84.542-103.446 103.96-168.666l-41.49-19.086-62.47 110.69v77.062zM807.782 510.598l-34.92-120.036-97.832 3.088-74.832 113.382 35.832 117.274h107.582l64.17-113.708zM377.628 374.716l63.708 109.838h127.18l73.158-110.842-58.594-105.252h-141.918l-63.534 106.256zM406.402 250.958l-53.95-64.18-95.69 76.764v88.366l87.55 2.884 62.090-103.834zM675.57 354.794l92.314-2.914v-87.678l-100.244-71.752-49.67 58.872 57.6 103.472zM531.41 829.688c76.016-3.802 146.168-29.832 204.124-71.698v-94.866h-107.982l-96.142 64.272v102.292zM598.888 635.594l-34.292-112.218h-121.396l-43.378 106.384 105.018 68.704 94.048-62.87zM285.23 755.63c58.3 43.050 129.26 69.926 206.278 73.996l-5.386-97.020-115.572-75.608-85.32 5.018v93.614zM362.458 618.586l46.128-113.124-64.874-111.852-92.19-3.042-37.174 120.28 62.526 112.772 85.584-5.034zM246.41 722.78v-74.044l-64.484-116.302h-42.722c16.648 73.826 54.662 139.548 107.206 190.346zM129.824 448.002c0 15.436 0.942 30.654 2.722 45.612h46.496l38.902-125.86v-102.85l-30.234-19.174c-36.668 58.67-57.886 127.986-57.886 202.272zM209.946 213.864l26.084 16.542 104.586-83.898 37.768-56.652c-67.102 25.048-125.274 68.408-168.438 124.008zM607.926 89.892h-182.91l-45.684 68.53 59.866 71.218h146.276l56.11-66.5-33.658-73.248zM651.692 92.166l28.16 61.286 111.25 79.636 31.044-8.408c-42.604-59.064-101.654-105.48-170.454-132.514zM806.704 269.082v98.838l38.158 131.174 42.75 19.664c4.292-22.932 6.566-46.576 6.566-70.754 0-68.786-18.184-133.318-49.988-189.074l-37.486 10.152z" />
<glyph unicode="&#xe945;" glyph-name="quasar-hors" data-tags="quasar-hors" d="M512 863.004c-229.2 0-415.004-185.802-415.004-415.004s185.804-415.004 415.004-415.004 415.006 185.802 415.006 415.004-185.804 415.004-415.006 415.004zM512 121.328c-17.668 0-35.002 1.42-51.91 4.122-124.632 192.534 26.518 247.564 75.078 231.956 96.578-32.192 60.808-85.846 71.542-94.79 12.518-10.73 37.554-12.52 41.13-7.152 14.31-5.368 35.772 1.788 42.604 12.52 6.832 10.73-28.292 269.164-44.39 307.614 1.788-1.788 32.194 28.62 44.39 42.924-34.3-5.366-42.604-5.366-65.852-3.578 1.79 35.77 0 48.288 10.73 71.54-26.828-16.098-32.19-25.040-44.712-48.29-234.334-5.546-348.418-127.43-403.776-221.584-0.986 10.332-1.508 20.8-1.508 31.39 0 180.416 146.258 326.672 326.674 326.672s326.672-146.256 326.672-326.672c0.002-180.414-146.256-326.672-326.672-326.672z" />
<glyph unicode="&#xe946;" glyph-name="quasar-iceh" data-tags="quasar-iceh" d="M455.278 748.796c-152.496-25.814-256.822-160.72-233.022-301.328 23.798-140.606 166.716-233.664 319.208-207.852 152.494 25.812 256.82 160.722 233.020 301.326-23.798 140.608-166.714 233.666-319.206 207.854zM913.878 462.664l-9.674 74.206c-26.844 205.894-226.37 349.63-445.65 321.038-219.28-28.59-375.278-218.68-348.432-424.576l9.674-74.202c26.844-205.894 226.37-349.63 445.65-321.038 219.278 28.59 375.278 218.676 348.432 424.572zM547.252 205.42c-172.976-29.28-335.088 76.28-362.084 235.774-27 159.49 91.342 312.52 264.32 341.8 172.976 29.278 335.090-76.28 362.088-235.772 26.996-159.494-91.346-312.522-264.324-341.802z" />
<glyph unicode="&#xe947;" glyph-name="quasar-mosp" data-tags="quasar-mosp" d="M518.952 532.92c11.148 0 20.184 9.038 20.184 20.186 0 11.152-9.036 20.19-20.184 20.19-11.15 0-20.188-9.038-20.188-20.19 0-11.148 9.036-20.186 20.188-20.186zM200.752 217.356c64.344 10.090 639.654 128.686 639.654 128.686s48.086 19.772 37.848 219.524c-14.434 180.442-426.030 391.288-628.296 73.174-27.010-42.476-78.112-231.426-94.806-320.050-18.74-111.432-18.74-111.432 45.6-101.334zM466.8 349.552c-11.148 0-20.186 9.042-20.186 20.188 0 11.148 9.038 20.186 20.186 20.186 11.15 0 20.188-9.038 20.188-20.186 0-11.144-9.038-20.188-20.188-20.188zM820.078 466.75c15.484 0 28.042-12.554 28.042-28.034 0-15.486-12.556-28.042-28.042-28.042s-28.042 12.554-28.042 28.042c0.002 15.48 12.558 28.034 28.042 28.034zM261.568 582.266c121.122-4.486 195.090-0.968 309.54 0-60.94-106.486-121.126-190.658-376.832-215.33 24.016 95.332 40.55 151.694 67.292 215.33zM170.808 125.069l-6.833 32.942 686.411 142.371 6.833-32.942-686.411-142.371z" />
<glyph unicode="&#xe948;" glyph-name="quasar-rugu" data-tags="quasar-rugu" d="M526.56 865.22c-96.824-26.2-195.858-76.966-277.652-156.288-78.604-76.226-130.216-168.082-158.666-259.012l417.476-417.476c96.938 26.64 195.17 76.89 275.19 154.488 80.386 77.956 130.8 172.286 156.678 265.264l-413.026 413.024zM957.766 546.718c12.458 116.104-12.886 219.836-64.512 273.072-2.364 2.438-4.878 4.792-7.462 7.106l-7.896 5.616-11.252 9.12c-56.14 37.258-145.866 52.728-245.45 41.656l336.572-336.57zM69.144 358.316c-17.302-116.22 3.194-221.14 52.882-277.132l17.758-16.876c56.492-45.578 159.52-64.638 273.91-50.542l-344.55 344.55z" />
<glyph unicode="&#xe949;" glyph-name="quasar-snoo" data-tags="quasar-snoo" d="M561.46 401.792c-4.632 5.536-10.824 9.864-18.57 12.988-7.754 3.118-17.368 4.68-28.842 4.68-11.476 0-21.094-1.562-28.842-4.68-7.752-3.124-13.944-7.454-18.572-12.988-4.634-5.54-7.956-12.23-9.966-20.082-2.014-7.852-3.020-16.512-3.020-25.972 0-8.66 1.156-16.762 3.472-24.312 2.312-7.546 5.938-14.094 10.874-19.628 4.93-5.54 11.174-9.918 18.722-13.136 7.55-3.222 16.658-4.832 27.332-4.832 10.466 0 19.526 1.61 27.178 4.832 7.648 3.218 13.942 7.598 18.876 13.136 4.934 5.536 8.554 12.082 10.876 19.628 2.308 7.55 3.472 15.652 3.472 24.312 0 9.46-1.012 18.122-3.024 25.972s-5.336 14.544-9.966 20.082zM472.674 509.458c3.822-5.638 9.060-10.168 15.706-13.59 6.644-3.426 15.2-5.132 25.67-5.132 10.466 0 19.026 1.708 25.67 5.132 6.644 3.422 11.876 7.952 15.704 13.59 3.82 5.634 6.442 12.080 7.852 19.328 1.406 7.248 2.114 14.696 2.114 22.348 0 6.844-0.906 13.486-2.718 19.934-1.808 6.44-4.782 12.126-8.906 17.062-4.128 4.932-9.468 8.908-16.008 11.93-6.542 3.020-14.45 4.53-23.706 4.53-9.466 0-17.418-1.51-23.858-4.53-6.448-3.022-11.732-6.998-15.856-11.93-4.128-4.936-7.098-10.624-8.91-17.062-1.81-6.448-2.716-13.090-2.716-19.934 0-7.652 0.704-15.1 2.114-22.348 1.402-7.248 4.022-13.694 7.848-19.328zM512 861.046c-228.12 0-413.046-184.928-413.046-413.048s184.928-413.044 413.046-413.044c228.122 0 413.046 184.926 413.046 413.044 0 228.122-184.924 413.048-413.046 413.048zM659.762 300.172c-7.55-16.11-18.222-29.852-32.012-41.222-13.792-11.378-30.352-20.188-49.68-26.426s-40.668-9.364-64.022-9.364c-23.358 0-44.696 3.124-64.024 9.364s-35.89 15.046-49.68 26.426c-13.792 11.372-24.462 25.114-32.012 41.222-7.55 16.106-11.326 34.020-11.326 53.754 0 11.878 1.36 23.106 4.078 33.676 2.716 10.566 7.044 20.23 12.986 28.988 5.936 8.762 13.59 16.558 22.952 23.406 9.362 6.844 20.688 12.582 33.974 17.214-20.134 9.060-35.084 21.64-44.846 37.75-9.768 16.106-14.648 35.434-14.648 57.984 0 17.112 3.522 32.964 10.57 47.564 7.044 14.596 16.912 27.228 29.596 37.902 12.686 10.668 27.732 19.072 45.15 25.216 17.412 6.138 36.49 9.21 57.228 9.21 20.732 0 39.81-3.072 57.228-9.21 17.41-6.144 32.464-14.548 45.148-25.216 12.684-10.674 22.546-23.306 29.598-37.902 7.042-14.6 10.566-30.454 10.566-47.564 0-22.55-4.934-41.878-14.796-57.984-9.868-16.11-24.762-28.69-44.696-37.75 13.086-4.632 24.312-10.372 33.672-17.214 9.364-6.848 17.012-14.644 22.954-23.406 5.938-8.758 10.316-18.422 13.136-28.988 2.816-10.57 4.226-21.796 4.226-33.676 0.004-19.734-3.77-37.648-11.32-53.754z" />
<glyph unicode="&#xe94a;" glyph-name="quasar-tabl" data-tags="quasar-tabl" d="M148 755.72c-15.56-6.28-31.32-8.28-48-7.56-77.24 3.36-122.84 88.84-86.36 155.84 17.44 31.96 44.28 46.56 78.36 54.16 124.2 16.040 167.28-157.4 56-202.44zM1007.64 664c20.4-57.12 16.44-85.6 16.36-144-0.16-104.56-68.080-216.28-140-288-44.24-44.080-120.6-97.36-184-106.080-28.12-3.88-53.72 31.8-72 50.080 0 0-52.16 56-52.16 56s-115.84 116-115.84 116c0 0-156 156-156 156-13 13-61.96 58.64-66.72 72-3.6 10.040 1.56 25.92 4.44 36 8.88 31.16 18.28 51.52 33.4 80 45.4 85.48 150.96 164.36 240.88 198.32 34.72 13.080 56 17.28 92 23.92 170.88 21.92 342-88.6 399.64-250.24zM296 420c0 0 116-116 116-116s116-116 116-116c0 0 68-72 68-72-34.52 0-58.24 2.2-92 10.64-33.68 8.44-39.96 16.88-80 17.36-21.92 0.24-39.96 0.040-59.96-10.68-15-8.080-24.64-21.16-36.16-33.32-28.76-30.28-54.92-62.92-80.36-96-28.36-36.84-41.32-69.32-91.52-67.92-48.12 1.28-112.36 63.16-114.12 111.92-1.2 33.68 30.84 55 54.12 73.6 0 0 100 80.76 100 80.76 14.56 12.24 42.72 34.4 51.96 49.64 15.88 26.16 13.56 79.32 5.52 108 0 0-18.52 52-18.52 52-5.24 18.92-10.040 56.16-10.96 76 0 0 72-68 72-68z" />
<glyph unicode="&#xe94b;" glyph-name="quasar-tenn" data-tags="quasar-tenn" d="M276.514 546.414c62.122-115.368 120.3-272.152 277.084-272.152s284.972 85.788 279.054 263.28c-4.418 132.504-58.302 224.88-156.718 292.328-50.298 21.622-105.71 33.618-163.934 33.618-168.666 0-313.854-100.504-378.956-244.888 46.278 3.652 107.936-6.196 143.47-72.186zM762.268 779.66c58.058-61.86 132.376-180.512 88.208-356.908-44.212-176.592-371.766-280.332-495.11-91.822-91.458 139.78-116.428 266.35-238.546 245.642-13.162-40.49-20.308-83.694-20.308-128.572 0-229.466 186.020-415.49 415.488-415.49s415.488 186.024 415.488 415.49c0 135.488-64.864 255.814-165.22 331.66z" />
<glyph unicode="&#xe94c;" glyph-name="quasar-voll_2" data-tags="quasar-voll_2" d="M512 866.538c-231.154 0-418.538-187.386-418.538-418.538 0-231.154 187.384-418.54 418.538-418.54 231.15 0 418.54 187.384 418.54 418.54 0 231.152-187.39 418.538-418.54 418.538zM829.342 662.644c-86.758 4.506-169.254-25.678-240.266-88.348-45.586-40.224-73.972-82.57-85.33-101.246-15.528-0.782-58.644-1.054-112.126 14.588-28.004 8.192-54.552 19.302-79.584 33.286 36.826 61.264 81.686 111.874 133.556 150.552 44.824 33.422 94.99 58.118 149.102 73.398 56.91 16.072 106.396 18.236 136.224 17.504 38.598-26.926 72.012-60.76 98.424-99.734zM535.622 65.66c48.648 61.608 64.436 145.082 45.596 244.088-13.458 70.714-40.32 128.32-50.058 147.686 10.56 17.19 37.016 56.388 78.768 93.232 19.29 17.024 39.24 31.352 59.792 43.026 45.794-63.728 72.856-129.478 80.474-195.628 6.448-56.010-0.932-112.562-21.936-168.096-26.508-70.088-68.39-121.070-88.926-143.352-32.76-11.542-67.556-18.754-103.71-20.956zM383.358 453.124c46.17-13.292 84.958-15.854 108.018-15.854 3.808 0 7.17 0.070 10.082 0.172 10.216-21.064 33.456-73.388 45.090-135.162 3.764-19.976 6.018-39.086 6.796-57.324-7.122-1.042-16.502-2.1-27.798-2.656-24.682-1.218-63.67-0.214-109.32 11.446-51.274 13.094-100.384 36.708-145.966 70.188-51.522 37.842-98.662 88.516-140.404 150.766 3.168 45.996 14.438 89.758 32.422 129.866 73.896-93.132 159.646-133.756 221.080-151.442zM512 831.086c68.318 0 132.448-17.906 187.984-49.248-29.572-1.354-67.522-5.918-109.758-17.76-56.584-15.86-109.044-41.584-155.926-76.454-54.168-40.288-100.922-92.94-139.194-156.634-43.286 27.206-81.726 63.46-114.956 108.508 66.232 114.526 190.036 191.588 331.85 191.588zM128.998 441.458c39.292-54.328 82.954-99.26 130.262-133.886 47.782-34.972 99.334-59.602 153.228-73.202 37.92-9.57 71.486-12.162 96.724-12.162 6.736 0 12.878 0.184 18.354 0.468 10.24 0.538 18.97 1.452 26.016 2.41-1.208-65.768-23.24-119.17-65.878-159.384-198.096 12.406-355.35 175.336-358.706 375.756zM679.238 103.264c21.62 27.978 47.952 68.488 67.164 119.002 22.276 58.572 30.154 118.312 23.414 177.562-7.842 68.922-35.586 137.184-82.514 203.136 50.752 24.668 105.038 33.494 162.258 26.288 29.038-53.962 45.526-115.68 45.526-181.25 0-151.612-88.078-282.638-215.848-344.738z" />
<glyph unicode="&#xe94d;" glyph-name="quasar-voll" data-tags="quasar-voll" d="M978.086 446.202c-1.656-262.238-213.16-468.652-468.154-467.238-261.312 1.448-465.534 215.452-464.012 471.32 1.554 261.28 212.24 467.88 467.576 466.756 261.068-1.148 465.464-214.586 464.59-470.838zM911.102 594.392c-0.166 1.568-0.078 2.538-0.384 3.36-23.982 64.14-61.046 119.418-111.184 165.776-2.338 2.162-5.384 4.218-8.406 4.86-38.598 8.192-76.924 19.002-115.96 23.534-93.61 10.87-185.364-0.626-274.632-31.2-12.598-4.314-24.916-9.46-37.374-14.226 11.946-45.24 28.040-87.050 49.132-126.846 169.894 59.312 335.684 48 498.808-25.258zM663.868 449.244c-42.618-1.272-81.942-6.758-121.024-14.886-10.822-2.252-17.696-5.966-19.588-17.86-1.282-8.066-4.778-15.812-7.574-23.596-44.2-123.012-114.976-226.766-219.19-306.284-1.652-1.26-3.034-2.876-5.222-4.98 8.7-4.904 16.156-9.854 24.198-13.494 19.488-8.82 39.304-16.902 58.866-25.558 6.082-2.692 10.824-1.602 16.316 1.962 127.426 82.688 214.258 196.378 258.218 342.66 5.968 19.866 9.82 40.376 15 62.036zM436.53 313.846c22.34 41.534 38.658 82.268 51.050 124.594 0.77 2.63-1.26 6.95-3.282 9.398-8.004 9.69-16.774 18.736-24.812 28.398-66.4 79.794-113.902 169.44-138.056 270.974-5.882 24.722-9.81 49.914-14.708 75.258-0.832-0.286-2.198-0.436-3.18-1.136-24.69-17.614-49.462-35.118-73.818-53.19-2.698-2.002-4.384-7.414-4.132-11.076 1.526-22.166 2.674-44.444 5.922-66.388 17.16-115.96 62.74-219.28 138.86-308.246 20.306-23.738 43.358-45.1 66.156-68.586zM299.712 140.69c-35.372 26.408-84.354 69.304-128.77 133.374-48.79 70.378-72.234 137.686-84.032 182.43-0.766-32.196 1.794-76.4 15.96-126.464 5.858-20.702 18.57-59.548 44.574-103.064 26.618-44.542 60.334-82.86 100.958-114.92 2.598-2.050 8.454-3.468 10.598-1.978 13.514 9.396 26.404 19.696 40.712 30.622zM882.56 416.674c-17.83-120.282-62.7-228.058-134.984-324.346 2.056 0.446 3.422 1.284 4.734 2.2 68.952 48.14 119.92 111.036 152.618 188.83 13.796 32.824 22.9 67.030 27.964 102.262 0.508 3.538-1.582 9.78-4.24 11.070-14.77 7.168-30.086 13.194-46.092 19.984z" />
<glyph unicode="&#xe94e;" glyph-name="quasar-wate" data-tags="quasar-wate" d="M57.448 134.694c71.8 102.272 187.33 223.486 431.65 125 244.324-98.484 398.084-98.484 477.452-11.364 0 0-111.918-224.21-306.996-192.014-195.076 32.198-435.266 233.682-602.106 78.378zM200.434 310.732c-12.802 29.19-21.666 60.5-25.876 93.272 25.058-28.546 50.098-53.468 75.25-74.9 10.014 2.622 20.436 4.708 31.272 6.224-34.24 27.162-70.71 62.958-109.298 110.072-0.006 0.87-0.032 1.728-0.032 2.598 0 6.978 0.236 13.904 0.648 20.78 50.342-59.898 100.274-101.664 146.982-130.646 48.428 0.446 104.39-10.192 169.504-36.44 22.75-9.17 44.712-17.484 65.904-24.956 0.43 0.044 0.876 0.090 1.292 0.136 0.004-0.2-0.004-0.39-0.004-0.59 11.96-4.204 23.664-8.124 35.136-11.792 1.278 56.324-10.59 123.618-56.622 185.402 14.184 22.63 53.546 61.24 110.43 100.226 7.714 5.286 15.402 10.336 23.042 15.164 33.636-59.14 83.542-163.23 40.152-330.492 8.356-1.474 16.536-2.75 24.546-3.836 45.090 175.666-8.29 285.162-43.644 347.118 9.2 5.354 18.286 10.326 27.222 14.928 43.454-70.912 80.972-190.168 27.148-363.404 36.796-4.276 69.796-4.304 99.168-0.218 41.7 62.596 66.024 137.762 66.024 218.618 0 218.068-176.782 394.846-394.848 394.846-218.068 0-394.848-176.78-394.848-394.846 0-58.954 12.942-114.878 36.104-165.118 13.956 10.43 29.024 19.854 45.348 27.854zM805.45 626.896c32-52.050 50.468-113.314 50.468-178.898 0-42.656-7.832-83.472-22.094-121.132 12.586 101.712 13.484 210.682-49.434 294.536 7.274 2.222 14.302 4.056 21.060 5.494zM784.020 657.812c-46.946-12.75-102.758-40.21-158.878-78.676-44.644-30.596-100.348-76.676-121.864-113.058-6.856 0.48-16.788 1.426-28.99 3.282 76.084 148.158 209.872 187.516 293.344 207.992 5.7-6.304 11.16-12.822 16.388-19.54zM698.058 736.288c8.934-5.718 17.574-11.856 25.918-18.356-242.954 26.106-350.060-152.206-377.314-207.826-6.52 3.334-13.068 6.918-19.612 10.772 36.058 66.522 133.276 229.12 371.008 215.41zM513.836 790.082c48.91 0 95.418-10.288 137.496-28.784-86.476-3.496-162.448-30.79-226.628-81.6-63.606-50.356-100.244-112.182-118.482-145.596-31.368 21.458-61.824 49.646-87.686 86.644 59.39 101.302 169.392 169.336 295.3 169.336zM200.648 585.756c47.53-61.3 113.348-107.016 192.028-133.022 51.636-17.064 94.532-21.082 112.35-22.030 6.626-8.744 12.45-17.626 17.582-26.592-195.328 6.172-291.808 108.768-329.442 163.236 2.32 6.228 4.818 12.36 7.482 18.408z" />
<glyph unicode="&#xe94f;" glyph-name="quasar-wint" data-tags="quasar-wint" d="M937.96 448l-22.454 39.196h-99.272l43.274 75.548-22.454 39.208h-44.914l-65.738-114.754h-147.022l73.51 128.312h131.474l22.454 39.208-22.454 39.198h-86.568l49.646 86.638-22.452 39.196h-44.928l-49.624-86.638-43.294 75.548h-44.906l-22.462-39.2 65.736-114.744-73.512-128.312-73.512 128.312 65.736 114.744-22.452 39.196h-44.916l-43.274-75.548-49.648 86.638h-44.906l-22.464-39.196 49.638-86.638h-86.57l-22.452-39.198 22.452-39.208h131.486l73.512-128.312-147.024 0.010-65.738 114.744h-44.914l-22.464-39.208 43.284-75.538h-99.272l-22.462-39.202 22.462-39.198h99.272l-43.284-75.546 22.464-39.208 44.916 0.012 65.738 114.742h147.024l-73.512-128.31h-131.486l-22.452-39.198 22.452-39.196h86.57l-49.638-86.638 22.452-39.208h44.916l49.648 86.65 43.274-75.558h44.916l22.464 39.208-65.748 114.744 73.512 128.314 73.512-128.314-65.726-114.744 22.454-39.208h44.906l43.284 75.546 49.636-86.638h44.928l22.452 39.198-49.646 86.65h86.568l22.464 39.196-22.464 39.198h-131.474l-73.51 128.31h147.022l65.738-114.742h44.916l22.454 39.196-43.274 75.546h99.272l22.448 39.196z" />
<glyph unicode="&#xe950;" glyph-name="tenn" data-tags="tenn" d="M769.659 654.848l11.387-7.311c4.096-2.642 9.687-1.454 12.37 2.683 2.683 4.239 1.475 9.748-2.683 12.452l-11.448 7.25-9.626-15.073zM489.165 511.242l184.607 39.936c8.315 0.922 16.2 5.1 21.606 12.104 0.471 0.594 1.004 1.27 1.352 1.925 0.082 0.123 0.164 0.205 0.307 0.328v0c0.143 0.164 0.205 0.287 0.328 0.471l76.308 118.436c9.482 14.746 5.243 34.427-9.523 43.889-14.725 9.585-34.386 5.304-43.909-9.441l-69.325-107.581-175.165-37.908c-17.142-3.727-28.037-20.664-24.33-37.786 3.666-17.183 20.582-28.058 37.745-24.371zM483.185 686.326c-17.736-27.423-9.851-63.959 17.572-81.572 27.443-17.674 64.020-9.748 81.674 17.674 17.674 27.402 9.769 63.898-17.654 81.633-27.423 17.613-63.98 9.687-81.592-17.736zM678.687 451.85c7.168-4.588 15.36-5.98 23.122-4.465 0.758 0.061 1.413 0.164 2.13 0.307l95.355 20.644c17.039 3.686 27.996 20.603 24.31 37.765-3.748 17.183-20.685 28.058-37.745 24.392l-83.743-18.125-37.171 23.962-173.056-37.458c-23.941-5.181-47.657 10.035-52.859 34.079-0.287 1.352-0.492 2.765-0.676 4.178l-82.821-128.492 133.366-85.934 114.483 177.644 75.305-48.497zM360.776 97.792l56.361-36.27c16.2-10.445 37.929-5.714 48.394 10.445 10.506 16.364 5.775 37.97-10.465 48.435l-56.422 36.27-37.868-58.88zM319.488 352.686l-84.992-131.871c-10.465-16.323-5.796-37.97 10.486-48.435 0.164-0.061 0.348-0.123 0.512-0.205l28.447-18.371 15.483 24.064c1.413 1.556 2.765 3.133 4.014 5.038l84.869 131.85 10.26-6.513c-0.266-0.43-0.553-0.778-0.86-1.229l-181.637-281.969c-11.633-18.207-6.431-42.23 11.674-53.944 18.104-11.653 42.209-6.41 53.903 11.715l181.637 281.928c1.925 2.99 3.359 6.185 4.362 9.38l19.128 29.737-133.366 85.914-23.921-37.089zM591.421 769.679l103.465-66.58 9.789 14.991-103.506 66.683c10.752 26.399-2.068 60.293-31.601 79.299-32.666 21.074-73.441 16.118-90.911-11.039-17.49-27.136-5.14-66.335 27.525-87.409 29.512-18.985 65.7-16.691 85.238 4.055zM688.66 842.26c-27.73 0.041-50.278 22.548-50.319 50.319 0.041 27.75 22.61 50.258 50.319 50.299 27.709-0.041 50.217-22.548 50.299-50.299-0.082-27.75-22.589-50.258-50.299-50.319zM654.377 877.097c6.164 7.905 15.503 8.438 24.719 6.697 8.704-1.638 11.919-7.578 18.964-11.51 10.424-5.857 22.077-4.977 30.945 3.277 4.321 4.055-2.13 10.527-6.472 6.492-12.554-11.735-30.208 8.54-44.36 11.203-11.018 2.109-23.204-0.614-30.249-9.687-3.604-4.588 2.826-11.121 6.451-6.472v0z" />
<glyph unicode="&#xe951;" glyph-name="amfb" data-tags="amfb" d="M977.736 169.923l-299.622 299.561c-5.243-6.82-11.878-12.39-19.599-16.343-6.124-3.195-13.087-5.243-19.927-6.001-2.13-0.266-4.321-0.389-6.472-0.389-15.606-0.020-30.208 6.042-41.247 17.060-3.359 3.359-6.267 7.107-8.602 11.1-1.331 2.191-2.519 4.424-3.604 6.758-0.328 0.819-0.635 1.618-0.983 2.458-0.184 0.43-0.389 0.881-0.492 1.311l-206.52-206.582c-20.582-20.623-20.623-54.067 0-74.67 0.737-0.717 1.495-1.393 2.253-2.109 0.737-0.778 1.393-1.577 2.191-2.376l149.361-149.32c19.64-19.661 51.528-19.702 71.209 0 19.64 19.661 19.64 51.61 0 71.25l-110.469 110.449 137.236 137.257 277.361-277.299c21.565-21.524 56.361-21.565 77.967 0 21.443 21.484 21.443 56.381-0.041 77.885zM321.024 738.222c-3.666-11.244-16.896-19.169-27.894-20.746-5.816-0.84-13.087-0.492-18.821 0.737-3.195 0.676-5.673 1.966-9.052 2.109-6.984 0.225-12.759-2.929-18.78-5.612-7.373-3.277-14.541-6.042-22.18-8.274-6.472-1.884-13.046-3.912-17.121-9.708-3.297-4.628-8.806-10.486-12.022-15.647-3.686-5.898-8.765-10.056-15.032-12.022-6.246-1.946-15.176-2.662-21.402-0.717-7.987 2.499-8.233 13.865-8.602 20.91-0.492 9.748-1.864 23.347 9.585 24.248 14.152 1.208 27.996 2.068 42.066 4.198 10.568 1.597 31.724 1.495 32.973 15.872 1.085 12.472-12.227 25.395-22.077 30.781-7.7 4.219-15.831 3.645-24.207 3.809-8.294 0.123-17.736-0.328-25.129 4.055-3.666 2.15-6.246 4.936-8.008 8.131 2.683 17.080 10.527 33.485 23.675 46.633 33.014 33.034 86.569 33.034 119.603 0 11.448-11.448 19.415-26.092 22.815-41.964 3.318-15.503 4.526-31.437-0.389-46.797zM281.477 786.022c-10.24 0-18.555-8.315-18.555-18.575 0-10.22 8.335-18.514 18.555-18.514 10.26 0 18.555 8.315 18.555 18.514 0 10.281-8.294 18.575-18.555 18.575zM573.87 620.769c-14.746-8.11-31.601-12.759-49.603-12.759-38.277 0-71.578 20.828-89.477 51.712 17.9 30.884 51.2 51.712 89.477 51.712 18.002 0 34.857-4.669 49.603-12.739v-77.926zM505.59 690.913c-4.342 0-7.905-5.55-7.905-12.288v-37.868c0-6.738 3.564-12.268 7.905-12.268s7.905 5.55 7.905 12.268v37.868c-0.020 6.738-3.584 12.288-7.905 12.288zM543.048 690.913c-4.362 0-7.926-5.55-7.926-12.288v-37.868c0-6.738 3.564-12.268 7.926-12.268s7.926 5.55 7.926 12.268v37.868c-0.061 6.738-3.564 12.288-7.926 12.288zM645.079 782.725c-4.69 1.249-7.209 2.068-20.91 2.068h-173.036c-19.497 0.389-39.117-6.799-54.026-21.729l-153.846-153.825c-14.971-15.012-22.159-34.796-21.647-54.415v-113.172h-149.832c-22.979 0.020-41.615-18.657-41.615-41.656 0-22.897 18.637-41.554 41.615-41.554h194.417c14.705 0 27.628 7.639 35.021 19.231 4.076 5.53 6.574 12.268 6.574 19.64v86.057c0.164 0.041 0.348 0.061 0.471 0.143v30.106c0 10.527 8.54 19.026 19.067 19.026 5.304 0 10.793-2.888 14.234-6.369l115.917-115.978 116.408 116.388v47.043l-22.815 22.856c-0.307-0.061-0.532-0.102-0.819-0.164-0.778-0.184-1.556-0.328-2.335-0.492-1.29-0.246-2.662-0.553-3.932-0.758-0.84-0.164-1.72-0.287-2.56-0.41-1.27-0.184-2.642-0.41-3.953-0.553-0.614-0.061-1.27-0.102-1.925-0.164-3.686-0.369-7.373-0.614-11.121-0.614-2.499 0-4.977 0.143-7.393 0.307-0.594 0.020-1.229 0.061-1.823 0.123-1.72 0.143-3.461 0.307-5.181 0.492-0.963 0.143-1.884 0.307-2.847 0.43-1.29 0.205-2.58 0.41-3.891 0.635-1.188 0.246-2.396 0.451-3.543 0.696-0.881 0.184-1.782 0.43-2.683 0.655-31.007 7.496-58.307 27.361-74.67 55.624l-4.239 7.311 4.239 7.291c12.308 21.299 30.843 37.786 52.49 47.882 7.25 3.379 14.848 6.021 22.671 7.885 0.655 0.143 1.27 0.307 1.925 0.471 1.393 0.287 2.785 0.553 4.198 0.819 1.024 0.164 2.068 0.348 3.092 0.492 1.167 0.205 2.396 0.389 3.584 0.532 1.372 0.143 2.724 0.287 4.096 0.41 0.963 0.061 1.925 0.164 2.867 0.225 2.376 0.164 4.731 0.246 7.127 0.246 2.683 0 5.284-0.123 7.946-0.328 0.799-0.041 1.577-0.143 2.376-0.184 1.864-0.164 3.707-0.389 5.509-0.635 0.901-0.102 1.802-0.246 2.683-0.369 2.191-0.369 4.424-0.778 6.533-1.229 1.27-0.287 2.601-0.635 3.85-0.963 1.27-0.328 2.519-0.676 3.748-1.024 1.413-0.41 2.826-0.84 4.178-1.311 0.84-0.266 1.679-0.573 2.56-0.881 9.236-3.277 18.104-7.68 26.194-13.087v-201.073c-0.041-23.286 18.924-42.23 42.25-42.23 23.286 0 42.23 18.944 42.23 42.23v237.65c-0.143 18.821-12.472 34.775-29.43 40.202z" />
</font>
</defs>
</svg>
