<svg enable-background="new 0 0 438.536 438.536" height="438.536" viewBox="0 0 438.536 438.536" width="438.536" xmlns="http://www.w3.org/2000/svg"><path d="m414.41 24.123c-16.077-16.081-35.447-24.123-58.095-24.123h-274.087c-22.648 0-42.018 8.042-58.102 24.123-16.081 16.084-24.123 35.453-24.123 58.102v274.084c0 22.647 8.042 42.018 24.123 58.102 16.084 16.084 35.454 24.126 58.102 24.126h274.084c22.648 0 42.018-8.042 58.095-24.126 16.084-16.084 24.126-35.454 24.126-58.102v-274.084c-.001-22.649-8.043-42.021-24.123-58.102zm-41.255 201.425h-49.963v181.292h-74.802v-181.292h-37.4v-62.528h37.401v-37.402c0-26.838 6.283-47.107 18.843-60.813 12.559-13.706 33.304-20.555 62.242-20.555h49.963v62.526h-31.401c-10.663 0-17.467 1.853-20.417 5.568-2.949 3.711-4.428 10.23-4.428 19.558v31.119h56.534z"/></svg>